<?xml version="1.0" standalone="no"?>
<!DOCTYPE svg PUBLIC "-//W3C//DTD SVG 1.1//EN" "http://www.w3.org/Graphics/SVG/1.1/DTD/svg11.dtd" >
<svg xmlns="http://www.w3.org/2000/svg" xmlns:xlink="http://www.w3.org/1999/xlink" version="1.1">
<metadata>
Created by FontForge 20170731 at Fri Mar 12 16:17:04 2021
 By Aleksey,,,
Copyright 2013 The Antonio Project Authors (https://github.com/googlefonts/antonioFont)
</metadata>
<defs>
<font id="Antonio-SemiBold" horiz-adv-x="0" >
  <font-face 
    font-family="Antonio SemiBold"
    font-weight="600"
    font-stretch="normal"
    units-per-em="2048"
    panose-1="0 0 0 0 0 0 0 0 0 0"
    ascent="1638"
    descent="-410"
    x-height="1500"
    cap-height="1760"
    bbox="-144 -659 2924 2342"
    underline-thickness="0"
    underline-position="0"
    unicode-range="U+0020-25CA"
  />
<missing-glyph horiz-adv-x="1037" 
d="M102 0v1760h833v-1760h-833zM204 102h629v1556h-629v-1556zM289 196v1369h110l241 -886l-12 387v499h127v-1369h-103l-240 902l9 -351v-551h-132z" />
    <glyph glyph-name="f_f" unicode="ff" horiz-adv-x="1258" 
d="M189 0v1274h-124v168h124v75q0 128 59.5 198t180.5 70q60 0 104 -9.5t52 -12.5v-153q-36 5 -67 5q-60 0 -79.5 -25t-19.5 -72v-76h399v75q0 128 59.5 198t180.5 70q60 0 104 -9.5t52 -12.5v-153q-36 5 -67 5q-60 0 -79.5 -25t-19.5 -72v-76h166v-168h-166v-1274h-230
v1274h-399v-1274h-230z" />
    <glyph glyph-name="f_f_i" unicode="ffi" horiz-adv-x="1774" 
d="M189 0v1332h-124v168h124v57q0 128 59.5 198.5t180.5 70.5q60 0 104 -10t52 -13v-153q-36 5 -67 5q-60 0 -79.5 -25t-19.5 -72v-58h399v57q0 128 59.5 198.5t180.5 70.5q60 0 104 -10t52 -13v-153q-36 5 -67 5q-60 0 -79.5 -25t-19.5 -72v-58h584v-1500h-230v1332h-354
v-1332h-230v1332h-399v-1332h-230zM1402 1609v191h230v-191h-230z" />
    <glyph glyph-name="f_f_l" unicode="ffl" horiz-adv-x="1772" 
d="M189 0v1274h-124v168h124v75q0 128 59.5 198t180.5 70q60 0 104 -9.5t52 -12.5v-153q-36 5 -67 5q-60 0 -79.5 -25t-19.5 -72v-76h399v75q0 94 34 156t107 93t192 31q38 0 79.5 -3t95.5 -10t127.5 -20t176.5 -34v-1730h-230v1610q-57 13 -104 18.5t-84 5.5
q-64 0 -99.5 -15.5t-50 -42t-14.5 -58.5v-76h166v-168h-166v-1274h-230v1274h-399v-1274h-230z" />
    <glyph glyph-name="f_i" unicode="fi" horiz-adv-x="1145" 
d="M189 0v1332h-124v168h124v48q0 128 59.5 198t180.5 70q60 0 104 -9.5t52 -12.5v-153q-36 5 -67 5q-60 0 -79.5 -25t-19.5 -72v-49h584v-1500h-230v1332h-354v-1332h-230zM773 1609v191h230v-191h-230z" />
    <glyph glyph-name="f_l" unicode="fl" horiz-adv-x="1144" 
d="M189 0v1274h-124v168h124v75q0 94 34 156t107 93t192 31q38 0 80 -3t95.5 -10t127 -20t176.5 -34v-1730h-230v1610q-57 13 -104 18.5t-84 5.5q-64 0 -99.5 -15.5t-50 -42t-14.5 -58.5v-76h166v-168h-166v-1274h-230z" />
    <glyph glyph-name=".notdef" horiz-adv-x="1037" 
d="M102 0v1760h833v-1760h-833zM204 102h629v1556h-629v-1556zM289 196v1369h110l241 -886l-12 387v499h127v-1369h-103l-240 902l9 -351v-551h-132z" />
    <glyph glyph-name=".null" 
 />
    <glyph glyph-name="nonmarkingreturn" horiz-adv-x="682" 
 />
    <glyph glyph-name="space" unicode=" " horiz-adv-x="441" 
 />
    <glyph glyph-name="exclam" unicode="!" horiz-adv-x="522" 
d="M214 407l-81 1353h256l-80 -1353h-95zM141 0v240h237v-240h-237z" />
    <glyph glyph-name="quotedbl" unicode="&#x22;" horiz-adv-x="827" 
d="M385 1086l-30 674h213l-97 -674h-86zM346 1086l-29 674h212l-97 -674h-86z" />
    <glyph glyph-name="numbersign" unicode="#" horiz-adv-x="1035" 
d="M126 0l97 606h-142v126h163l53 327h-168v125h189l96 576h170l-96 -576h176l96 576h171l-94 -576h139v-125h-161l-52 -327h164v-126h-185l-98 -606h-171l97 606h-177l-96 -606h-171zM413 731h179l52 324h-177z" />
    <glyph glyph-name="dollar" unicode="$" horiz-adv-x="845" 
d="M381 -235v277h124v-277h-124zM369 1493v267h124v-267h-124zM433 -5q-169 0 -254 102t-85 335v106h220v-116q0 -114 26 -174t85 -60q58 0 86 38.5t28 135.5q0 52 -15.5 102t-47.5 99t-82 96l-119 110q-94 88 -142 188t-48 217q0 186 87.5 272.5t248.5 86.5
q106 0 177.5 -43.5t107.5 -142.5t36 -268v-76h-212v102q0 114 -24 174.5t-83 60.5q-58 0 -86 -33t-31 -119q-1 -44 11.5 -89t40.5 -88t72 -84l123 -113q108 -99 161.5 -210t53.5 -236q0 -178 -81.5 -275.5t-253.5 -97.5z" />
    <glyph glyph-name="percent" unicode="%" horiz-adv-x="2191" 
d="M656 0l699 1760h184l-690 -1760h-193zM473 581q-117 0 -187.5 42.5t-102.5 136.5t-32 247v357q0 152 31 244t101.5 133t189.5 41t189.5 -41t101.5 -133t31 -244v-357q0 -153 -32 -247t-102.5 -136.5t-187.5 -42.5zM473 753q69 0 94 42.5t25 142.5v494q0 99 -24 138.5
t-95 39.5t-95.5 -40t-24.5 -138v-494q0 -100 25 -142.5t95 -42.5zM1711 -20q-116 0 -187 42.5t-103 136.5t-32 247v357q0 152 31 244t101.5 133t189.5 41q120 0 190.5 -41t101 -133t30.5 -244v-357q0 -153 -31.5 -247t-102.5 -136.5t-188 -42.5zM1711 152q69 0 94.5 42.5
t25.5 142.5v494q0 99 -24 138.5t-96 39.5q-70 0 -94.5 -40t-24.5 -138v-494q0 -100 25 -142.5t94 -42.5z" />
    <glyph glyph-name="ampersand" unicode="&#x26;" horiz-adv-x="997" 
d="M382 -20q-136 0 -223.5 94t-87.5 280q0 118 38.5 218.5t100.5 189.5t131 172q-62 159 -103.5 293t-41.5 206q0 170 83.5 259.5t222.5 89.5q104 0 169 -41.5t95.5 -119.5t30.5 -189q0 -95 -33 -185.5t-85.5 -175.5t-112.5 -163l146 -356q36 67 80 137.5t100 139.5l96 -162
q-60 -72 -105 -155.5t-84 -166.5l155 -345h-209l-71 153q-34 -51 -74.5 -90t-93.5 -61t-124 -22zM417 179q36 0 64 21t53 59.5t53 91.5l-165 392q-40 -56 -72 -114t-51 -117t-22 -119q-4 -102 28.5 -158t111.5 -56zM492 1102q58 78 95.5 163t37.5 172q0 91 -21 132t-85 41
q-40 0 -63.5 -16.5t-34 -43t-13 -56.5t-2.5 -58q0 -45 23.5 -135.5t62.5 -198.5z" />
    <glyph glyph-name="quotesingle" unicode="'" horiz-adv-x="417" 
d="M167 1125l-60 635h214l-65 -635h-89z" />
    <glyph glyph-name="parenleft" unicode="(" horiz-adv-x="585" 
d="M501 -198q-105 0 -176 18t-113.5 65t-61 133t-18.5 222v1121q0 136 18.5 222t61 133.5t113.5 65t176 17.5v-174q-45 0 -72.5 -8.5t-42 -35t-19.5 -78t-5 -138.5v-1129q0 -86 5 -138t19.5 -78.5t42 -35t72.5 -8.5v-174z" />
    <glyph glyph-name="parenright" unicode=")" horiz-adv-x="585" 
d="M84 -198v174q45 0 72.5 8.5t42 35t19.5 78.5t5 138v1129q0 87 -5 138.5t-19.5 78t-42 35t-72.5 8.5v174q105 0 176 -17.5t113.5 -65t61 -133.5t18.5 -222v-1121q0 -136 -18.5 -222t-61 -133t-113.5 -65t-176 -18z" />
    <glyph glyph-name="asterisk" unicode="*" horiz-adv-x="910" 
d="M369 966l32 286l-228 -178l-87 150l254 125l-259 117l87 149l232 -170l-31 279h172l-26 -275l227 172l87 -149l-260 -123l260 -131l-87 -150l-227 179l26 -281h-172z" />
    <glyph glyph-name="plus" unicode="+" horiz-adv-x="733" 
d="M284 468v243h-221v155h221v240h163v-240h223v-155h-223v-243h-163z" />
    <glyph glyph-name="comma" unicode="," horiz-adv-x="473" 
d="M171 -341l72 341h-125v249h271v-240l-102 -350h-116z" />
    <glyph glyph-name="hyphen" unicode="-" horiz-adv-x="696" 
d="M88 720v158h463v-158h-463z" />
    <glyph glyph-name="period" unicode="." horiz-adv-x="532" 
d="M162 0v218h196v-218h-196z" />
    <glyph glyph-name="slash" unicode="/" horiz-adv-x="770" 
d="M67 0l434 1768h205l-435 -1768h-204z" />
    <glyph glyph-name="zero" unicode="0" horiz-adv-x="919" 
d="M461 -21q-144 0 -218.5 59t-101 170t-26.5 267v841q0 152 28 255t102.5 156t215.5 53t214 -53t99 -156t26 -255v-841q0 -117 -13 -209t-48.5 -156t-102.5 -97.5t-175 -33.5zM459 177q29 0 51 8.5t36 37t21 87.5t7 160v857q0 119 -14 172.5t-40 68t-61 14.5
q-34 0 -60.5 -13.5t-42 -67t-15.5 -173.5v-858q0 -102 6.5 -160.5t21.5 -87t37 -37t53 -8.5z" />
    <glyph glyph-name="one" unicode="1" horiz-adv-x="780" 
d="M337 0v1460q-24 -28 -68.5 -50.5t-93 -35t-85.5 -12.5v179q53 8 113.5 34.5t113 72.5t80.5 112h172v-1760h-232z" />
    <glyph glyph-name="two" unicode="2" horiz-adv-x="894" 
d="M168 0v101q0 98 18 185t59 179t106 206l168 288q20 36 34.5 74.5t23.5 81.5t13 91t4 101q0 115 -10.5 174t-33 79.5t-59.5 20.5t-62.5 -20t-38 -82t-12.5 -188v-226h-225v117q0 190 22.5 323.5t97 203.5t230.5 70q120 0 188 -64t95.5 -173.5t27.5 -248.5
q0 -85 -12.5 -158.5t-36.5 -140.5t-61 -132l-161 -288q-46 -83 -76.5 -144.5t-47.5 -119.5t-25 -132h391v-178h-617z" />
    <glyph glyph-name="three" unicode="3" horiz-adv-x="898" 
d="M446 -20q-191 0 -265 119.5t-74 368.5v99h218v-98q0 -106 8.5 -170t36 -92.5t82.5 -28.5q56 0 83.5 33t37 103t9.5 180q0 126 -14 201t-50.5 108t-104.5 33h-60v181h58q66 0 103 26t52 92t15 183q0 109 -14.5 165.5t-43 77t-68.5 20.5q-43 0 -70 -24.5t-39.5 -82.5
t-12.5 -159v-46h-223v55q0 232 75.5 343.5t266.5 111.5q189 0 272.5 -115.5t83.5 -345.5q0 -143 -42 -246.5t-137 -138.5q67 -31 107 -95t58 -152t18 -193q0 -255 -83 -384t-283 -129z" />
    <glyph glyph-name="four" unicode="4" horiz-adv-x="894" 
d="M508 0v323h-423v167l389 1270h244v-1251h141v-186h-141v-323h-210zM270 509h238v896z" />
    <glyph glyph-name="five" unicode="5" horiz-adv-x="894" 
d="M459 -20q-120 0 -191.5 45t-102.5 123.5t-31 178.5v206h222v-195q0 -69 19.5 -115t83.5 -46q57 0 80.5 42.5t23.5 129.5v494q0 95 -20 147.5t-82 52.5q-50 0 -79.5 -44t-29.5 -136l-203 18v879h594v-209h-380v-388q17 35 63.5 55t99.5 20q94 0 151.5 -53.5t83.5 -178.5
t26 -338v-38q0 -162 -9 -284.5t-40 -203.5t-97.5 -121.5t-181.5 -40.5z" />
    <glyph glyph-name="six" unicode="6" horiz-adv-x="894" 
d="M476 -21q-114 0 -185 36t-109.5 104.5t-52.5 166.5t-14 222v733q0 194 33.5 312.5t112 172.5t211.5 54q113 0 182 -43.5t101.5 -141.5t32.5 -263v-86h-211v45q0 121 -8.5 183.5t-34 84.5t-77.5 22q-55 0 -79 -33t-30.5 -104t-6.5 -187v-224q28 29 75.5 47.5t103.5 18.5
q121 1 185.5 -58t89 -177t24.5 -293v-74q0 -160 -25 -276.5t-98.5 -179t-219.5 -62.5zM473 180q54 0 81.5 25t37 83t9.5 156v146q0 116 -8.5 185.5t-35.5 100.5t-79 31q-36 0 -67 -12.5t-49.5 -28.5t-20.5 -26v-380q0 -98 11.5 -160t40 -91t80.5 -29z" />
    <glyph glyph-name="seven" unicode="7" horiz-adv-x="894" 
d="M207 0q18 241 59.5 453.5t95 397t104.5 340.5q50 164 87 261.5t40 109.5h-501v198h734v-168q-6 -51 -58 -181.5t-109 -325.5q-44 -144 -85 -316t-71.5 -365.5t-44.5 -403.5h-251z" />
    <glyph glyph-name="eight" unicode="8" horiz-adv-x="894" 
d="M452 -20q-183 0 -269.5 107.5t-88.5 335.5l-1 97q0 93 17.5 179.5t51 153t81.5 98.5q-75 54 -107.5 155.5t-32.5 236.5q0 229 79.5 333t269.5 104q193 0 270 -102.5t77 -334.5q0 -137 -30 -237.5t-107 -153.5q46 -32 77 -99.5t47 -154t16 -178.5v-91q0 -231 -83.5 -340
t-266.5 -109zM453 177q54 0 79 25.5t31.5 84t6.5 154.5v99q0 161 -29.5 240.5t-87.5 79.5q-56 0 -92 -79t-36 -243v-102q0 -141 22 -200t106 -59zM451 1018q36 0 63.5 25t43 92t15.5 193q0 121 -13 178t-40 74t-69 17q-41 0 -68 -19.5t-40 -77.5t-13 -175
q0 -125 14.5 -191.5t41.5 -91t65 -24.5z" />
    <glyph glyph-name="nine" unicode="9" horiz-adv-x="894" 
d="M433 -20q-110 0 -180.5 43t-104.5 141t-34 262v89h213v-46q0 -124 9.5 -186.5t36.5 -84t77 -21.5q55 0 76.5 34.5t25.5 107t4 186.5v204q-25 -19 -67.5 -32.5t-95.5 -13.5q-123 0 -189 60t-91 177.5t-25 288.5v61q0 120 12.5 218t48 167.5t103.5 107t179 37.5
q114 0 183.5 -35.5t106 -103.5t49 -166t12.5 -224v-724q0 -195 -31.5 -315t-108 -176t-209.5 -56zM428 850q35 0 62.5 9t44.5 19t21 15v408q0 145 -23 211.5t-99 66.5q-54 0 -81.5 -28.5t-37 -89t-9.5 -157.5v-141q0 -115 8.5 -183t34.5 -99t79 -31z" />
    <glyph glyph-name="colon" unicode=":" horiz-adv-x="517" 
d="M134 1043v264h249v-264h-249zM134 270v264h249v-264h-249z" />
    <glyph glyph-name="semicolon" unicode=";" horiz-adv-x="561" 
d="M187 -105l83 376h-97v263h258v-254l-112 -385h-132zM169 1043v264h249v-264h-249z" />
    <glyph glyph-name="less" unicode="&#x3c;" horiz-adv-x="730" 
d="M639 253l-575 378v245l575 375v-243l-417 -254l417 -263v-238z" />
    <glyph glyph-name="equal" unicode="=" horiz-adv-x="722" 
d="M92 565v171h555v-171h-555zM92 892v169h555v-169h-555z" />
    <glyph glyph-name="greater" unicode="&#x3e;" horiz-adv-x="730" 
d="M88 253v243l418 253l-418 263v239l575 -377v-245z" />
    <glyph glyph-name="question" unicode="?" horiz-adv-x="872" 
d="M255 494v316q103 29 160 69.5t83 101.5t32 151.5t6 219.5q0 121 -9 175t-69 54q-65 0 -76.5 -52.5t-11.5 -180.5v-188h-227v213q0 72 11 144.5t43 132.5t93.5 96t163.5 36q107 0 170 -33.5t94 -96.5t40.5 -154t9.5 -206q0 -173 -24 -290t-91 -189t-195 -109v-210h-203z
M259 0v299h200v-299h-200z" />
    <glyph glyph-name="at" unicode="@" horiz-adv-x="1514" 
d="M1231 23q-270 -92 -477.5 -78t-348.5 123.5t-214 304.5t-73 463q0 215 39.5 388t123.5 296.5t217 190t319 66.5q199 0 326.5 -104.5t189.5 -299t62 -463.5q0 -156 -28.5 -282t-88.5 -200t-155 -74q-62 0 -115.5 61t-74.5 155q-19 -107 -67.5 -170t-124.5 -63
q-80 0 -143.5 51.5t-100.5 156.5t-37 265q0 88 14 184.5t50.5 180.5t103.5 137t173 56t258 -63v-597q0 -94 16 -148.5t58 -54.5q37 0 60 45t34 141.5t11 250.5q0 129 -16.5 251t-63 219.5t-132 155t-222.5 57.5q-185 0 -296.5 -97.5t-161 -275.5t-49.5 -419q0 -235 56 -397
t168.5 -247.5t283.5 -90t402 76.5zM758 482q43 0 76 35.5t52 95.5t19 130v473q-81 32 -136.5 16t-89 -72.5t-48.5 -144.5t-15 -199q0 -157 31.5 -245.5t110.5 -88.5z" />
    <glyph glyph-name="A" unicode="A" horiz-adv-x="915" 
d="M41 0l260 1760h293l281 -1760h-218l-47 327h-304l-43 -327h-222zM330 514h253l-130 911h-3z" />
    <glyph glyph-name="B" unicode="B" horiz-adv-x="945" 
d="M139 0v1760h344q134 0 210.5 -40t108.5 -127.5t33 -229.5v-45q0 -142 -31 -233t-111 -129q66 -25 103.5 -86t53.5 -147t16 -187v-40q-2 -174 -37.5 -283.5t-114.5 -161t-212 -51.5h-363zM371 184h114q57 0 88.5 27t45 92t13.5 180v95q0 148 -25.5 214t-107.5 66h-128
v-674zM371 1035h110q39 0 63.5 9.5t38 36.5t18 78.5t4.5 136.5v73q0 87 -14 131t-44 59t-79 15h-97v-539z" />
    <glyph glyph-name="C" unicode="C" horiz-adv-x="939" 
d="M480 -21q-128 0 -208 61t-117 179t-37 286v747q0 119 17 215.5t58.5 166.5t113 107.5t180.5 37.5q101 0 168.5 -34.5t107 -99.5t56 -155t16.5 -200v-215h-226v208q0 150 -23 223t-99 73q-81 0 -108.5 -76t-27.5 -219v-787q0 -113 11 -183.5t39 -103t80 -32.5
q77 0 102.5 75.5t25.5 245.5v219h229v-216q0 -173 -34 -289.5t-112.5 -175t-211.5 -58.5z" />
    <glyph glyph-name="D" unicode="D" horiz-adv-x="977" 
d="M139 0v1760h358q136 0 214.5 -56t112 -160.5t33.5 -250.5l1 -782q0 -176 -36.5 -289t-117.5 -167.5t-215 -54.5h-350zM371 184h98q53 0 87.5 22.5t52 81.5t17.5 170l-1 835q0 153 -36.5 219t-122.5 66h-95v-1394z" />
    <glyph glyph-name="E" unicode="E" horiz-adv-x="774" 
d="M139 0v1760h553v-197h-321v-564h304v-195h-304v-607h328v-197h-560z" />
    <glyph glyph-name="F" unicode="F" horiz-adv-x="765" 
d="M139 0v1760h561v-198h-329v-519h307v-200h-307v-843h-232z" />
    <glyph glyph-name="G" unicode="G" horiz-adv-x="964" 
d="M450 -17q-155 0 -243.5 125.5t-88.5 411.5v750q0 116 19 210t62 161t115.5 102.5t178.5 35.5q113 0 181.5 -36t105 -103.5t49 -163t12.5 -213.5v-131h-221v210q0 124 -25 180.5t-100 56.5q-81 0 -112.5 -66.5t-31.5 -236.5v-750q0 -187 26.5 -267.5t111.5 -80.5
q82 0 113 81.5t31 272.5v233h-140v174h348v-939h-114l-33 151q-26 -81 -91 -124.5t-153 -43.5z" />
    <glyph glyph-name="H" unicode="H" horiz-adv-x="1007" 
d="M139 0v1760h232v-736h265v736h232v-1760h-232v830h-265v-830h-232z" />
    <glyph glyph-name="I" unicode="I" horiz-adv-x="515" 
d="M141 0v1760h233v-1760h-233z" />
    <glyph glyph-name="J" unicode="J" horiz-adv-x="905" 
d="M427 -21q-169 0 -254.5 103t-85.5 307v265h226v-252q0 -61 6 -112t28.5 -81.5t73.5 -30.5q50 0 72.5 30t28.5 84t6 126v1342h233v-1332q0 -220 -85.5 -334.5t-248.5 -114.5z" />
    <glyph glyph-name="K" unicode="K" horiz-adv-x="939" 
d="M139 0v1760h232v-827l295 827h236l-313 -869l336 -891h-243l-309 834v-834h-234z" />
    <glyph glyph-name="L" unicode="L" horiz-adv-x="719" 
d="M139 0v1760h232v-1565h331v-195h-563z" />
    <glyph glyph-name="M" unicode="M" horiz-adv-x="1347" 
d="M139 0v1760h278l262 -1357l249 1357h279v-1760h-202v662l14 634l-254 -1293h-175l-264 1293l14 -634v-662h-201z" />
    <glyph glyph-name="N" unicode="N" horiz-adv-x="1037" 
d="M139 0v1760h179l393 -1139l-20 497v642h207v-1760h-168l-390 1160l13 -451v-709h-214z" />
    <glyph glyph-name="O" unicode="O" horiz-adv-x="967" 
d="M486 -20q-134 0 -215 58t-117 173.5t-36 288.5v788q0 152 34.5 262.5t115.5 171t222 60.5q106 0 175.5 -34.5t109.5 -99t56.5 -155.5t16.5 -205v-788q0 -173 -34.5 -288.5t-114 -173.5t-213.5 -58zM486 181q54 0 82 31t38 101t10 185v802q0 140 -24 210.5t-102 70.5
q-81 0 -110 -69t-29 -211v-803q0 -116 10 -185.5t39.5 -100.5t85.5 -31z" />
    <glyph glyph-name="P" unicode="P" horiz-adv-x="914" 
d="M139 0v1760h375q105 0 172 -33.5t104 -98.5t51.5 -158t14.5 -211v-31q0 -174 -28.5 -293.5t-101.5 -181t-208 -61.5h-147v-692h-232zM371 885h112q60 0 90.5 32.5t41 108t10.5 203.5v34q0 159 -25.5 237t-112.5 78h-116v-693z" />
    <glyph glyph-name="Q" unicode="Q" horiz-adv-x="967" 
d="M687 -279l-248 271l152 77l211 -245zM486 -20q-134 0 -215 58t-117 173.5t-36 288.5v788q0 152 34.5 262.5t115.5 171t222 60.5q106 0 175.5 -34.5t109.5 -99t56.5 -155.5t16.5 -205v-788q0 -173 -34.5 -288.5t-114 -173.5t-213.5 -58zM486 181q54 0 82 31t38 101t10 185
v802q0 140 -24 210.5t-102 70.5q-81 0 -110 -69t-29 -211v-803q0 -116 10 -185.5t39.5 -100.5t85.5 -31z" />
    <glyph glyph-name="R" unicode="R" horiz-adv-x="961" 
d="M139 0v1760h400q139 0 206.5 -51.5t88.5 -153t21 -251.5q0 -160 -32.5 -252.5t-128.5 -121.5q47 -8 78.5 -39.5t50 -96t26.5 -170t8 -262.5v-52t0.5 -86t2 -95.5t4 -82.5t6.5 -46h-232q-3 7 -5.5 44.5t-4.5 97.5t-2.5 135.5t-0.5 160v171.5q0 91 -10 138.5t-41 66
t-95 22.5l-108 6v-842h-232zM372 1017h121q54 0 82.5 22.5t39 86.5t10.5 189v11q0 105 -10 159t-39.5 73.5t-89.5 19.5h-114v-561z" />
    <glyph glyph-name="S" unicode="S" horiz-adv-x="848" 
d="M438 -20q-108 0 -177.5 37t-108.5 106t-54 165t-15 215v165h223v-178q0 -167 25.5 -239t106.5 -72q55 0 82 26t35 83t8 151q0 110 -41.5 193.5t-121.5 166.5l-122 122q-51 54 -97.5 115.5t-75.5 138.5t-29 175q0 135 31 232t107.5 148.5t214.5 51.5q107 0 173 -35.5
t101 -101.5t48 -158t13 -206v-106h-218v121q0 96 -8.5 159.5t-33.5 95.5t-75 32q-47 0 -76 -22t-42 -67.5t-13 -117.5q0 -64 15.5 -107t48 -81.5t79.5 -88.5l130 -139q99 -105 158.5 -227t59.5 -278q0 -151 -31 -257t-107 -162t-213 -56z" />
    <glyph glyph-name="T" unicode="T" horiz-adv-x="662" 
d="M221 0v1563h-200v197h619v-197h-188v-1563h-231z" />
    <glyph glyph-name="U" unicode="U" horiz-adv-x="979" 
d="M491 -21q-133 0 -213.5 51.5t-116.5 156.5t-36 265v1308h233v-1303q0 -86 6.5 -149t34.5 -97t92 -34t91.5 33.5t33.5 96.5t6 149v1304h232v-1308q0 -160 -35 -265t-114.5 -156.5t-213.5 -51.5z" />
    <glyph glyph-name="V" unicode="V" horiz-adv-x="903" 
d="M324 0l-284 1760h221l116 -766l88 -615h5l76 615l99 766h218l-260 -1760h-279z" />
    <glyph glyph-name="W" unicode="W" horiz-adv-x="1348" 
d="M276 0l-225 1760h211l141 -1309l185 1309h189l188 -1309l122 1309h211l-205 -1760h-231l-175 1245l-183 -1245h-228z" />
    <glyph glyph-name="X" unicode="X" horiz-adv-x="838" 
d="M43 0l260 937l-255 823h200l173 -560l147 560h213l-253 -902l267 -858h-202l-179 580l-152 -580h-219z" />
    <glyph glyph-name="Y" unicode="Y" horiz-adv-x="848" 
d="M317 0v724l-301 1036h226l192 -691h4l167 691h227l-282 -1036v-724h-233z" />
    <glyph glyph-name="Z" unicode="Z" horiz-adv-x="714" 
d="M66 0v204l364 1359h-331v197h573v-183l-364 -1380h356v-197h-598z" />
    <glyph glyph-name="bracketleft" unicode="[" horiz-adv-x="685" 
d="M159 -70v1830h438v-179h-207v-1471h207v-180h-438z" />
    <glyph glyph-name="backslash" unicode="\" horiz-adv-x="791" 
d="M493 0l-411 1760h205l410 -1760h-204z" />
    <glyph glyph-name="bracketright" unicode="]" horiz-adv-x="685" 
d="M97 -70v180h207v1471h-207v179h438v-1830h-438z" />
    <glyph glyph-name="asciicircum" unicode="^" horiz-adv-x="965" 
d="M99 837l241 923h285l241 -923h-224l-159 741l-159 -741h-225z" />
    <glyph glyph-name="underscore" unicode="_" horiz-adv-x="748" 
d="M48 -203v165h651v-165h-651z" />
    <glyph glyph-name="uni0060" unicode="`" horiz-adv-x="428" 
d="M248 1640l-198 389h234l94 -389h-130z" />
    <glyph glyph-name="a" unicode="a" horiz-adv-x="930" 
d="M373 -14q-144 0 -204 108.5t-61 294.5v125q0 108 34 177.5t97 114.5t149 80.5t190 75.5v122q0 88 -6 141.5t-29 78.5t-73 25q-49 0 -73.5 -25.5t-32.5 -79t-8 -137.5v-59h-229v44q0 99 14.5 181t52 141t106 91.5t176.5 32.5q100 0 165 -30.5t102.5 -90t53 -147.5
t15.5 -204v-1046h-232v138q-10 -35 -37 -70.5t-70 -58.5t-100 -23zM445 168q52 0 87.5 35t45.5 71v548q-70 -32 -116 -57.5t-72.5 -54.5t-37.5 -69.5t-11 -100.5v-152q0 -116 22 -168t82 -52z" />
    <glyph glyph-name="b" unicode="b" horiz-adv-x="964" 
d="M579 -14q-64 0 -119 33.5t-87 112.5v-132h-230v1777h230v-391q20 62 75.5 97t114.5 35q115 1 176 -60t84 -166.5t23 -239.5v-601q0 -132 -22.5 -237.5t-80 -166.5t-164.5 -61zM502 172q73 1 93 71.5t20 217.5v609q0 77 -7 135t-30 90.5t-73 32.5q-43 0 -72.5 -20
t-44.5 -76t-15 -163v-612q0 -140 24 -212.5t105 -72.5z" />
    <glyph glyph-name="c" unicode="c" horiz-adv-x="903" 
d="M474 -18q-112 0 -182 36.5t-108 105t-52 164.5t-14 215v496q0 156 27.5 273t105 181.5t227.5 64.5q99 0 162.5 -31.5t99.5 -91.5t50.5 -143.5t14.5 -186.5v-129h-224v149q0 77 -6 130.5t-28 81.5t-73 28q-52 0 -78.5 -29.5t-36 -84.5t-9.5 -131v-654q0 -82 8 -138
t33.5 -84.5t77.5 -28.5q50 0 74 30t31 86t7 132v159h224v-120q0 -107 -14 -195.5t-50 -152t-101 -98t-166 -34.5z" />
    <glyph glyph-name="d" unicode="d" horiz-adv-x="964" 
d="M382 -14q-116 0 -172 65.5t-74 177t-18 251.5v585q0 129 26.5 231t90 162t174.5 60q61 0 109.5 -32.5t73.5 -82.5v374h231v-1777h-231v131q-30 -74 -84.5 -109.5t-125.5 -35.5zM464 172q48 0 76 25.5t40.5 87.5t12.5 169v601q0 131 -23 202t-101 71q-72 -1 -95.5 -69.5
t-23.5 -207.5v-610q0 -83 8.5 -143.5t33.5 -93t72 -32.5z" />
    <glyph glyph-name="e" unicode="e" horiz-adv-x="908" 
d="M465 -18q-110 0 -178.5 37t-105 105.5t-50 164.5t-13.5 213v543q0 105 18 192t58.5 150t109.5 97t171 34q104 0 170 -34.5t101.5 -98t49.5 -152t14 -196.5v-299h-460v-297q0 -128 18.5 -199t100.5 -71q54 0 77.5 33.5t28.5 94t5 140.5v126h227v-71q0 -118 -12 -213
t-46.5 -161.5t-102.5 -102t-181 -35.5zM349 884h231v192q0 83 -6.5 140.5t-28.5 86.5t-71 29q-56 0 -83 -34t-34.5 -93t-7.5 -136v-185z" />
    <glyph glyph-name="f" unicode="f" horiz-adv-x="655" 
d="M194 0v1274h-124v168h124v75q0 128 59.5 198t180.5 70q60 0 104 -9.5t52 -12.5v-153q-36 5 -67 5q-60 0 -79.5 -25t-19.5 -72v-76h166v-168h-166v-1274h-230z" />
    <glyph glyph-name="g" unicode="g" horiz-adv-x="954" 
d="M456 -227q-112 -3 -196.5 23t-148.5 77l82 152q48 -32 109 -54.5t137 -20.5q73 1 112 52.5t39 136.5v133q-28 -74 -80 -100.5t-121 -26.5q-106 0 -164.5 59t-82 161.5t-23.5 231.5v452q0 135 26 241t88.5 168t170.5 60q69 -1 117.5 -35t68.5 -103v120h230v-1341
q0 -75 -17.5 -143t-58.5 -122t-111.5 -86.5t-176.5 -34.5zM479 324q38 0 62.5 23t36.5 83t12 171v475q0 121 -24 187t-96 66q-53 0 -79 -32.5t-33.5 -88.5t-7.5 -130v-479q0 -133 24.5 -204t104.5 -71z" />
    <glyph glyph-name="h" unicode="h" horiz-adv-x="990" 
d="M141 0v1777h230v-441q20 72 83 127.5t153 55.5q121 0 186 -83t65 -246v-1190h-230v1169q0 84 -31 120t-85 36q-41 0 -73 -21t-50 -62.5t-18 -103.5v-1138h-230z" />
    <glyph glyph-name="i" unicode="i" horiz-adv-x="518" 
d="M144 0v1500h230v-1500h-230zM143 1638v206h231v-206h-231z" />
    <glyph glyph-name="j" unicode="j" horiz-adv-x="535" 
d="M209 -205q-52 0 -89.5 4.5t-58.5 8.5v161q11 -1 24 -2t29 -1q32 0 43.5 20.5t11.5 48.5v1465h230v-1455q0 -89 -25.5 -144t-68.5 -80.5t-96 -25.5zM168 1638v206h231v-206h-231z" />
    <glyph glyph-name="k" unicode="k" horiz-adv-x="923" 
d="M143 0v1777h230v-977l279 700h233l-305 -740l322 -760h-236l-293 723v-723h-230z" />
    <glyph glyph-name="l" unicode="l" horiz-adv-x="515" 
d="M141 0v1777h229v-1777h-229z" />
    <glyph glyph-name="m" unicode="m" horiz-adv-x="1461" 
d="M138 0v1500h230v-159q21 75 80.5 126.5t156.5 51.5q75 0 130.5 -35.5t85.5 -116.5q37 69 101 110.5t153 41.5q130 0 192 -90.5t62 -259.5v-1169h-230v1174q0 83 -30.5 117t-81.5 34q-70 0 -104 -37.5t-34 -122.5v-1165h-231v1176q0 74 -27.5 111.5t-81.5 37.5
q-72 0 -106.5 -49.5t-34.5 -125.5v-1150h-230z" />
    <glyph glyph-name="n" unicode="n" horiz-adv-x="990" 
d="M138 0v1500h230v-164q20 72 85 127.5t157 55.5q120 0 183.5 -83t63.5 -246v-1190h-230v1182q0 74 -33 110.5t-87 36.5q-41 0 -73 -20t-49 -58.5t-17 -95.5v-1155h-230z" />
    <glyph glyph-name="o" unicode="o" horiz-adv-x="937" 
d="M470 -18q-107 0 -175.5 35t-107 101t-54 159.5t-15.5 210.5v543q0 141 31 251t108 173t213 63q103 0 171 -36t107 -101.5t55 -154.5t16 -195v-543q0 -115 -14 -208t-52 -160t-106 -102.5t-177 -35.5zM470 171q51 0 76 32.5t33.5 90.5t8.5 134v647q0 77 -9 134t-34.5 88.5
t-74.5 31.5q-51 0 -77 -31.5t-34.5 -88.5t-8.5 -134v-647q0 -76 8.5 -134t34.5 -90.5t77 -32.5z" />
    <glyph glyph-name="p" unicode="p" horiz-adv-x="964" 
d="M141 -279v1779h230v-129q29 74 89 108.5t122 34.5q111 0 167.5 -62.5t76 -170.5t19.5 -243v-545q0 -143 -20.5 -259t-83.5 -184t-189 -68q-59 0 -107 34.5t-74 79.5v-375h-230zM498 172q71 1 93.5 71t22.5 212v614q0 75 -7 133.5t-30.5 92t-75.5 33.5q-40 0 -69 -19.5
t-45 -75t-16 -164.5v-623q0 -135 24 -204.5t103 -69.5z" />
    <glyph glyph-name="q" unicode="q" horiz-adv-x="961" 
d="M590 -279v382q-21 -49 -70 -85t-108 -36q-121 0 -184.5 65.5t-86.5 178t-23 254.5v558q0 134 22 242t79.5 171t164.5 63q62 0 119 -30t87 -100v116h230v-1779h-230zM459 172q44 0 73 21t43 77.5t14 161.5v623q0 140 -25.5 206.5t-100.5 66.5q-73 -1 -93.5 -70t-20.5 -208
v-613q0 -117 17 -191t93 -74z" />
    <glyph glyph-name="r" unicode="r" horiz-adv-x="665" 
d="M141 0v1500h231v-167q26 87 90.5 136t164.5 49q2 0 2.5 -29.5t0.5 -67.5v-68v-30q-47 0 -97.5 -11t-93 -36.5t-67.5 -68.5v-1207h-231z" />
    <glyph glyph-name="s" unicode="s" horiz-adv-x="828" 
d="M433 -20q-169 0 -254 102t-85 335v106h220v-116q0 -114 26 -174t85 -60q58 0 86 38.5t28 135.5q0 52 -15.5 102t-47.5 99t-82 96l-119 110q-94 88 -142 188t-48 217q0 185 87.5 272t248.5 87q106 0 177.5 -43.5t107.5 -142.5t36 -268v-76h-212v102q0 114 -24 174.5
t-83 60.5q-58 0 -86 -33t-31 -119q-1 -44 11.5 -89t40.5 -88t72 -84l123 -113q108 -99 161.5 -210t53.5 -236q0 -178 -81.5 -275.5t-253.5 -97.5z" />
    <glyph glyph-name="t" unicode="t" horiz-adv-x="614" 
d="M405 -9q-96 0 -145.5 23.5t-67.5 75.5t-18 136v1085h-131v169h131v280h230v-280h156v-169h-156v-1056q0 -37 10.5 -55t44.5 -24t104 -6v-179h-158z" />
    <glyph glyph-name="u" unicode="u" horiz-adv-x="982" 
d="M387 -20q-76 0 -134 36t-90.5 112t-32.5 196v1176h230v-1146q0 -86 27 -132.5t94 -46.5q72 0 103.5 53t31.5 128v1144h230v-1500h-230v154q-25 -72 -80 -123t-149 -51z" />
    <glyph glyph-name="v" unicode="v" horiz-adv-x="807" 
d="M265 0l-217 1500h213l109 -829l37 -357h13l32 358l95 828h212l-218 -1500h-276z" />
    <glyph glyph-name="w" unicode="w" horiz-adv-x="1204" 
d="M238 0l-186 1500h194l78 -751l27 -301h8l36 302l106 750h63h97h43l110 -732l42 -320h7l26 320l73 732h191l-185 -1500h-207l-151 1154l-173 -1154h-199z" />
    <glyph glyph-name="x" unicode="x" horiz-adv-x="788" 
d="M29 0l258 777l-241 723h203l157 -460l136 460h206l-247 -739l259 -761h-214l-161 485l-146 -485h-210z" />
    <glyph glyph-name="y" unicode="y" horiz-adv-x="816" 
d="M98 -257v167h77q44 0 75.5 5.5t37.5 25.5q10 14 7.5 48t-7.5 70l-243 1441h221l103 -775l43 -405h19l38 405l94 775h220l-253 -1544q-12 -76 -30.5 -123.5t-57 -68.5t-109.5 -21h-235z" />
    <glyph glyph-name="z" unicode="z" horiz-adv-x="698" 
d="M72 0v173l330 1129h-305v198h541v-162l-330 -1143h314v-195h-550z" />
    <glyph glyph-name="braceleft" unicode="{" horiz-adv-x="716" 
d="M560 -179q-114 0 -181.5 30t-97 104t-29.5 204v310q0 92 -8 140t-37.5 66t-93.5 18v217q64 0 93.5 18t37.5 66.5t8 139.5v310q0 131 29.5 204.5t97 103.5t181.5 30h60v-181q-61 0 -90.5 -12.5t-39 -49t-9.5 -108.5v-276q0 -129 -12 -198t-46.5 -101.5t-104.5 -54.5
q70 -20 104.5 -53t46.5 -102t12 -199v-275q0 -72 9.5 -108.5t39 -49t90.5 -12.5v-181h-60z" />
    <glyph glyph-name="bar" unicode="|" horiz-adv-x="537" 
d="M165 -107v1955h216v-1955h-216z" />
    <glyph glyph-name="braceright" unicode="}" horiz-adv-x="716" 
d="M100 -179v181q61 0 90.5 12.5t39 49t9.5 108.5v275q0 130 11.5 199t46.5 102t105 53q-70 22 -105 54.5t-46.5 101.5t-11.5 198v276q0 72 -9.5 108.5t-39 49t-90.5 12.5v181h60q113 0 180.5 -30t97 -103.5t29.5 -204.5v-310q0 -91 8.5 -139.5t38 -66.5t92.5 -18v-217
q-63 0 -92.5 -18t-38 -66t-8.5 -140v-310q0 -130 -29.5 -204t-97 -104t-180.5 -30h-60z" />
    <glyph glyph-name="asciitilde" unicode="~" horiz-adv-x="1117" 
d="M265 827l-159 79q38 118 97 180.5t141 62.5q39 0 95 -14t115 -32t108 -32t73 -14q21 2 47.5 28.5t43.5 84.5l174 -42q-11 -42 -33 -94.5t-53 -100.5t-68.5 -79t-80.5 -31t-96.5 14.5t-109 34t-107.5 34t-92 14.5q-32 0 -53.5 -23t-41.5 -70z" />
    <glyph glyph-name="uni00A0" unicode="&#xa0;" horiz-adv-x="441" 
 />
    <glyph glyph-name="exclamdown" unicode="&#xa1;" horiz-adv-x="527" 
d="M314 1103l81 -1353h-256l80 1353h95zM387 1510v-240h-237v240h237z" />
    <glyph glyph-name="cent" unicode="&#xa2;" horiz-adv-x="840" 
d="M408 1512v255h113v-257zM408 -250v255h113v-255h-113zM474 -18q-112 0 -182 36.5t-108 105t-52 164.5t-14 215v496q0 156 27.5 273t105 181.5t227.5 64.5q99 0 162.5 -31.5t99.5 -91.5t50.5 -143.5t14.5 -186.5v-129h-224v149q0 77 -6 130.5t-28 81.5t-73 28
q-52 0 -78.5 -29.5t-36 -84.5t-9.5 -131v-654q0 -82 8 -138t33.5 -84.5t77.5 -28.5q50 0 74 30t31 86t7 132v159h224v-120q0 -107 -14 -195.5t-50 -152t-101 -98t-166 -34.5z" />
    <glyph glyph-name="sterling" unicode="&#xa3;" horiz-adv-x="947" 
d="M103 0v169q50 25 95 63.5t76.5 93.5t44.5 129.5t-1 169.5q-5 42 -13 86t-17 87h-202v161h165l-46 179q-23 87 -35 147t-12 112q0 196 91.5 290.5t276.5 94.5q115 0 189 -43t109.5 -130.5t35.5 -223.5v-139h-203v147q0 62 -11 107.5t-39.5 71t-81.5 25.5q-45 0 -78.5 -14
t-52 -54.5t-18.5 -119.5q0 -49 11.5 -105t32.5 -139l51 -206h316v-161h-273q9 -46 16 -91.5t13 -89.5q13 -109 -2.5 -193.5t-57 -143.5t-106.5 -90h480v-190h-754z" />
    <glyph glyph-name="currency" unicode="&#xa4;" horiz-adv-x="1159" 
d="M274 509l-149 150l91 91q-53 98 -53 214q0 117 52 214l-90 90l149 150l87 -88q97 55 218 55t218 -54l87 87l150 -149l-90 -90q54 -97 54 -215t-54 -216l90 -90l-150 -149l-89 88q-92 -52 -216 -52t-216 53zM579 719q70 0 121.5 33.5t79.5 89.5t28 124q0 104 -61.5 173
t-167.5 69q-69 0 -120.5 -33t-79.5 -88t-28 -123t28 -123.5t79 -88.5t121 -33z" />
    <glyph glyph-name="yen" unicode="&#xa5;" horiz-adv-x="843" 
d="M83 359v132h273v165h-273v130h679v-130h-243v-165h243v-132h-679zM317 0v724l-301 1036h226l192 -691h3l168 691h227l-282 -1036v-724h-233z" />
    <glyph glyph-name="brokenbar" unicode="&#xa6;" horiz-adv-x="504" 
d="M135 -122v826h234v-826h-234zM135 930v830h234v-830h-234z" />
    <glyph glyph-name="section" unicode="&#xa7;" horiz-adv-x="865" 
d="M452 -20q-160 0 -253.5 88.5t-93.5 279.5v68h240v-66q0 -94 25 -139.5t92 -45.5q51 0 75.5 32.5t24.5 92.5q0 53 -22 92.5t-59 74t-84 70.5l-143 116q-62 49 -106.5 113.5t-44.5 158.5q0 73 36 140.5t106 110.5q-66 59 -104 139t-38 159q0 100 43 170.5t120 109t177 38.5
q152 0 241 -89.5t89 -275.5v-68h-226v67q0 104 -32 142.5t-77 38.5q-36 0 -60.5 -15.5t-37 -43.5t-12.5 -63q0 -33 15 -65t47.5 -66t82.5 -75l155 -125q59 -46 97.5 -94.5t57 -100.5t16.5 -110q-3 -52 -28.5 -95t-62 -78t-74.5 -63q86 -76 121.5 -156t35.5 -161
q0 -142 -92.5 -224t-246.5 -82zM525 705q26 25 44 56.5t18 64.5q0 38 -22 76t-69 76t-121 79q-32 -27 -49 -58.5t-17 -63.5q0 -36 24.5 -70.5t73 -72.5t118.5 -87z" />
    <glyph glyph-name="uni00A8" unicode="&#xa8;" horiz-adv-x="836" 
d="M534 1640v198h252v-198h-252zM50 1640v198h252v-198h-252z" />
    <glyph glyph-name="copyright" unicode="&#xa9;" horiz-adv-x="1466" 
d="M738 205q-140 0 -259.5 49.5t-209 139t-139 209t-49.5 259.5t49.5 259.5t139 209t209 139t259.5 49.5t259.5 -49.5t209 -139t139 -209t49.5 -259.5t-49.5 -259.5t-139 -209t-209 -139t-259.5 -49.5zM738 334q120 0 214.5 43t160 117.5t99.5 169.5t34 198
q0 138 -60.5 258.5t-174 195t-273.5 74.5q-121 0 -215 -43.5t-159.5 -118t-100 -169.5t-34.5 -198q0 -137 60.5 -258t174 -195t274.5 -74zM732 424q-104 0 -161 57.5t-57 154.5v436q0 108 49 170.5t173 62.5q101 0 154 -46t53 -160v-133h-142v105q0 59 -18 76t-46 17
q-30 0 -49 -16t-19 -64v-451q0 -40 20.5 -57t47.5 -17q28 0 46 15t18 59v149h146v-151q0 -100 -46.5 -153.5t-168.5 -53.5z" />
    <glyph glyph-name="ordfeminine" unicode="&#xaa;" horiz-adv-x="927" 
d="M398 557q-115 0 -162.5 86t-49.5 234v102q0 87 27 142.5t77.5 92t119 65t152.5 61.5v57q0 71 -2.5 123.5t-20.5 81t-64 28.5q-57 0 -74 -44t-17 -147v-49h-182v35q0 79 11.5 144t41 113t84.5 73.5t141 25.5q107 0 164.5 -44t80.5 -128.5t23 -208.5v-832h-184v104
q-10 -34 -53.5 -74.5t-112.5 -40.5zM456 704q42 0 70 28.5t36 56.5v430q-76 -34 -117 -60t-57 -62.5t-16 -101.5v-114q0 -94 18 -135.5t66 -41.5z" />
    <glyph glyph-name="guillemotleft" unicode="&#xab;" horiz-adv-x="1304" 
d="M1113 353l-484 285v221l484 271v-232l-312 -149l312 -158v-238zM568 353l-483 285v221l483 271v-232l-312 -149l312 -158v-238z" />
    <glyph glyph-name="logicalnot" unicode="&#xac;" horiz-adv-x="947" 
d="M602 439v335h-505v205h710v-540h-205z" />
    <glyph glyph-name="uni00AD" unicode="&#xad;" horiz-adv-x="696" 
d="M90 546v195h516v-195h-516z" />
    <glyph glyph-name="registered" unicode="&#xae;" horiz-adv-x="1502" 
d="M551 430v852h244q105 0 136.5 -52t31.5 -153v-28q0 -65 -15.5 -104.5t-79.5 -56.5q56 -7 71 -43.5t15 -88.5v-326h-151v332q0 25 -7.5 41.5t-28 24t-60.5 7.5v-405h-156zM708 953h53q38 0 47 28t9 79q0 62 -19 80.5t-90 18.5v-206zM751 334q120 0 214.5 43.5t160 118
t99.5 169t34 198.5q0 137 -60 257.5t-173.5 195t-274.5 74.5q-120 0 -214.5 -43.5t-160 -118t-99.5 -169t-34 -198.5q0 -137 60 -257.5t174 -195t274 -74.5zM751 205q-140 0 -259.5 49.5t-209 139t-139 209t-49.5 259.5t49.5 259.5t139 209t209 139t259.5 49.5t259.5 -49.5
t209 -139t139 -209t49.5 -259.5t-49.5 -259.5t-139 -209t-209 -139t-259.5 -49.5z" />
    <glyph glyph-name="uni00AF" unicode="&#xaf;" horiz-adv-x="633" 
d="M50 1661v159h533v-159h-533z" />
    <glyph glyph-name="degree" unicode="&#xb0;" horiz-adv-x="915" 
d="M457 1108q-96 0 -176.5 38.5t-128.5 113t-48 183.5q0 110 48 184.5t129 113t177 38.5t176 -38.5t128.5 -113t48.5 -184.5q0 -108 -48.5 -183t-128.5 -113.5t-177 -38.5zM459 1254q47 0 86.5 22.5t63.5 65t24 101.5q0 60 -24 102.5t-64 65t-88 22.5q-46 0 -86 -22.5
t-64 -65t-24 -102.5q0 -59 24 -101.5t64 -65t88 -22.5z" />
    <glyph glyph-name="plusminus" unicode="&#xb1;" horiz-adv-x="854" 
d="M346 499v243h-222v155h222v240h162v-240h225v-155h-225v-243h-162zM161 156v163h516v-163h-516z" />
    <glyph glyph-name="uni00B2" unicode="&#xb2;" horiz-adv-x="840" 
d="M209 521v65q0 36 15.5 90.5t41 118t55.5 128t60 122t54 98t36 56.5q25 42 40 111.5t15 134.5q0 80 -10 122t-27.5 57t-39.5 15q-23 0 -41.5 -15.5t-29 -59t-10.5 -128.5v-161h-162l-1 77q0 136 16.5 231.5t70.5 145.5t167 50q65 0 108.5 -28t69 -76.5t37 -110
t11.5 -127.5q0 -100 -25 -182t-63.5 -154.5t-81 -142.5t-78 -145t-53.5 -163h286v-129h-461z" />
    <glyph glyph-name="uni00B3" unicode="&#xb3;" horiz-adv-x="863" 
d="M429 584q-136 0 -192 82t-56 246v64h160v-64q0 -108 16.5 -151.5t76.5 -43.5t77.5 49.5t17.5 159.5q0 120 -27.5 173t-102.5 53h-29v124h27q48 1 76.5 16.5t41.5 57t13 119.5q0 72 -12 109.5t-33 51.5t-48 14q-31 0 -50.5 -16t-28.5 -54.5t-9 -107.5v-26h-161l-1 30
q1 155 58 232t193 77q134 0 195.5 -78t61.5 -231q0 -95 -27 -162t-93 -91q71 -30 97 -108.5t26 -183.5q0 -169 -62.5 -255t-204.5 -86z" />
    <glyph glyph-name="uni00B4" unicode="&#xb4;" horiz-adv-x="428" 
d="M50 1640l94 389h234l-198 -389h-130z" />
    <glyph glyph-name="uni00B5" unicode="&#xb5;" horiz-adv-x="982" 
d="M387 -20q-76 0 -134 36t-90.5 112t-32.5 196v1176h230v-1146q0 -86 27 -132.5t94 -46.5q72 0 103.5 53t31.5 128v1144h230v-1500h-230v154q-25 -72 -80 -123t-149 -51zM130 483h230v-748h-230v748z" />
    <glyph glyph-name="paragraph" unicode="&#xb6;" horiz-adv-x="1087" 
d="M430 0v1115q-164 18 -245.5 99t-81.5 234q0 95 30.5 156t94.5 94.5t163 47.5t236 14h315v-1760h-185v1555h-143v-1555h-184z" />
    <glyph glyph-name="periodcentered" unicode="&#xb7;" horiz-adv-x="480" 
d="M141 761v224h213v-224h-213z" />
    <glyph glyph-name="uni00B8" unicode="&#xb8;" horiz-adv-x="512" 
d="M180 -626q-65 0 -130 22v103q95 0 144.5 20t68 52.5t18.5 69.5q0 68 -49 109t-111 54l40 196h74l14 -143q107 -41 160 -107.5t53 -139.5q0 -61 -34 -115t-97 -87.5t-151 -33.5z" />
    <glyph glyph-name="uni00B9" unicode="&#xb9;" horiz-adv-x="627" 
d="M247 519v1026q-31 -26 -76 -40t-87 -14v113q40 4 84.5 24t81 54t49.5 78h125v-1241h-177z" />
    <glyph glyph-name="ordmasculine" unicode="&#xba;" horiz-adv-x="862" 
d="M437 553q-114 0 -176 49.5t-86 140.5t-24 215v433q0 113 24.5 201t86.5 138.5t175 50.5q114 0 174.5 -50t83.5 -138t23 -202v-433q0 -121 -22.5 -212.5t-83.5 -142t-175 -50.5zM437 704q55 -1 74.5 55t19.5 151v516q0 93 -17.5 148.5t-76.5 55.5q-63 0 -81 -55.5
t-18 -148.5v-516q0 -93 19.5 -149.5t79.5 -56.5z" />
    <glyph glyph-name="guillemotright" unicode="&#xbb;" horiz-adv-x="1304" 
d="M707 353v238l312 158l-312 149v232l484 -271v-221zM163 353v238l312 158l-312 149v232l483 -271v-221z" />
    <glyph glyph-name="onequarter" unicode="&#xbc;" horiz-adv-x="1535" 
d="M449 0l487 1763h157l-488 -1763h-156zM242 529v995q-27 -26 -68.5 -39.5t-80.5 -13.5v105q36 5 76.5 24t73.5 51.5t47 75.5h113v-1198h-161zM1190 0v208h-284v100l240 805h184v-788h81v-117h-81v-208h-140zM1037 325h153v576z" />
    <glyph glyph-name="onehalf" unicode="&#xbd;" horiz-adv-x="1620" 
d="M454 0l488 1763h157l-488 -1763h-157zM242 529v995q-27 -26 -68.5 -39.5t-80.5 -13.5v105q36 5 76.5 24t73.5 51.5t47 75.5h113v-1198h-161zM1080 0v62q0 44 13.5 122t58.5 157l180 312q24 42 38.5 109.5t14.5 130.5q0 78 -10 119t-26.5 56t-39.5 15q-21 0 -39 -15
t-28.5 -58t-10.5 -126v-156h-154l-1 74q0 132 15.5 224t67.5 140.5t161 48.5q84 0 131 -47.5t66 -123t19 -160.5q0 -82 -16.5 -152.5t-51.5 -131.5l-154 -270q-26 -47 -43 -99t-26 -110h277v-121h-442z" />
    <glyph glyph-name="threequarters" unicode="&#xbe;" horiz-adv-x="1555" 
d="M470 0l488 1763h156l-488 -1763h-156zM330 604q-122 0 -174 78t-52 236v58h144v-58q0 -106 15 -148t72 -42q55 0 72.5 47.5t17.5 153.5q0 118 -26.5 168.5t-95.5 50.5h-26v121h24q42 1 69.5 14t40.5 52t13 115q0 71 -11.5 108t-31.5 50t-46 13q-29 0 -47 -15.5
t-26.5 -53.5t-8.5 -105v-25h-145v29q0 148 52.5 220.5t174.5 72.5q121 0 176.5 -74t55.5 -219q0 -92 -24.5 -156.5t-85.5 -86.5q65 -29 89 -104.5t24 -175.5q0 -161 -56.5 -242.5t-183.5 -81.5zM1199 0v208h-285v100l241 805h184v-788h81v-117h-81v-208h-140zM1046 325h153
v576z" />
    <glyph glyph-name="questiondown" unicode="&#xbf;" horiz-adv-x="933" 
d="M666 1006v-316q-103 -29 -160 -69.5t-83 -101.5t-32 -151.5t-6 -219.5q0 -121 9 -175t69 -54q65 0 76.5 52.5t11.5 180.5v188h227v-213q0 -72 -11 -144.5t-43 -132.5t-93.5 -96t-163.5 -36q-107 0 -170 33.5t-94 96.5t-40.5 154t-9.5 206q0 173 24 290t91 189t195 109
v210h203zM662 1500v-299h-200v299h200z" />
    <glyph glyph-name="Agrave" unicode="&#xc0;" horiz-adv-x="915" 
d="M41 0l260 1760h293l281 -1760h-218l-47 327h-304l-43 -327h-222zM330 514h253l-130 911h-3zM434 1900l-198 389h234l94 -389h-130z" />
    <glyph glyph-name="Aacute" unicode="&#xc1;" horiz-adv-x="915" 
d="M41 0l260 1760h293l281 -1760h-218l-47 327h-304l-43 -327h-222zM330 514h253l-130 911h-3zM315 1900l94 389h234l-198 -389h-130z" />
    <glyph glyph-name="Acircumflex" unicode="&#xc2;" horiz-adv-x="915" 
d="M41 0l260 1760h293l281 -1760h-218l-47 327h-304l-43 -327h-222zM330 514h253l-130 911h-3zM149 1900l169 311h261l167 -311h-212l-86 218l-86 -218h-213z" />
    <glyph glyph-name="Atilde" unicode="&#xc3;" horiz-adv-x="915" 
d="M41 0l260 1760h293l281 -1760h-218l-47 327h-304l-43 -327h-222zM330 514h253l-130 911h-3zM598 1900q-44 0 -93 20.5t-96.5 41t-89.5 20.5q-16 0 -23 -2q-16 -4 -26.5 -18.5t-24.5 -40.5l-119 50q20 68 47.5 104t62.5 50t75 14q41 0 94 -18.5t100.5 -37t72.5 -18.5h4
q14 2 27 14t29 57l131 -28l-9 -41q-24 -102 -62.5 -134.5t-99.5 -32.5z" />
    <glyph glyph-name="Adieresis" unicode="&#xc4;" horiz-adv-x="915" 
d="M41 0l260 1760h293l281 -1760h-218l-47 327h-304l-43 -327h-222zM330 514h253l-130 911h-3zM564 1900v198h252v-198h-252zM80 1900v198h252v-198h-252z" />
    <glyph glyph-name="Aring" unicode="&#xc5;" horiz-adv-x="915" 
d="M41 0l260 1760h293l281 -1760h-218l-47 327h-304l-43 -327h-222zM330 514h253l-130 911h-3zM448 1900q-102 0 -158 59.5t-56 143.5q0 83 56 142.5t158 59.5q103 0 158.5 -59.5t55.5 -142.5t-55.5 -143t-158.5 -60zM448 1981q57 0 85.5 38.5t28.5 83.5q0 47 -28.5 84.5
t-85.5 37.5q-55 0 -83.5 -37.5t-28.5 -84.5q0 -45 28.5 -83.5t83.5 -38.5z" />
    <glyph glyph-name="AE" unicode="&#xc6;" horiz-adv-x="1207" 
d="M60 0l337 1760h728v-197h-292v-564h275v-198h-275v-604h299v-197h-532v327h-256l-60 -327h-224zM374 503h226v1062l-30 -1z" />
    <glyph glyph-name="Ccedilla" unicode="&#xc7;" horiz-adv-x="939" 
d="M480 -21q-128 0 -208 61t-117 179t-37 286v747q0 119 17 215.5t58.5 166.5t113 107.5t180.5 37.5q101 0 168.5 -34.5t107 -99.5t56 -155t16.5 -200v-215h-226v208q0 150 -23 223t-99 73q-81 0 -108.5 -76t-27.5 -219v-787q0 -113 11 -183.5t39 -103t80 -32.5
q77 0 102.5 75.5t25.5 245.5v219h229v-216q0 -173 -34 -289.5t-112.5 -175t-211.5 -58.5zM450 -626q-65 0 -130 22v103q95 0 144.5 20t68 52.5t18.5 69.5q0 68 -49 109t-111 54l40 196h74l14 -143q107 -41 160 -107.5t53 -139.5q0 -61 -34 -115t-97 -87.5t-151 -33.5z" />
    <glyph glyph-name="Egrave" unicode="&#xc8;" horiz-adv-x="774" 
d="M139 0v1760h553v-197h-321v-564h304v-195h-304v-607h328v-197h-560zM397 1900l-198 389h234l94 -389h-130z" />
    <glyph glyph-name="Eacute" unicode="&#xc9;" horiz-adv-x="774" 
d="M139 0v1760h553v-197h-321v-564h304v-195h-304v-607h328v-197h-560zM277 1900l94 389h234l-198 -389h-130z" />
    <glyph glyph-name="Ecircumflex" unicode="&#xca;" horiz-adv-x="774" 
d="M139 0v1760h553v-197h-321v-564h304v-195h-304v-607h328v-197h-560zM111 1900l169 311h261l167 -311h-212l-86 218l-86 -218h-213z" />
    <glyph glyph-name="Edieresis" unicode="&#xcb;" horiz-adv-x="774" 
d="M139 0v1760h553v-197h-321v-564h304v-195h-304v-607h328v-197h-560zM527 1900v198h252v-198h-252zM43 1900v198h252v-198h-252z" />
    <glyph glyph-name="Igrave" unicode="&#xcc;" horiz-adv-x="515" 
d="M141 0v1760h233v-1760h-233zM244 1900l-198 389h234l94 -389h-130z" />
    <glyph glyph-name="Iacute" unicode="&#xcd;" horiz-adv-x="515" 
d="M141 0v1760h233v-1760h-233zM125 1900l94 389h234l-198 -389h-130z" />
    <glyph glyph-name="Icircumflex" unicode="&#xce;" horiz-adv-x="515" 
d="M141 0v1760h233v-1760h-233zM-41 1900l169 311h261l167 -311h-212l-86 218l-86 -218h-213z" />
    <glyph glyph-name="Idieresis" unicode="&#xcf;" horiz-adv-x="515" 
d="M141 0v1760h233v-1760h-233zM374 1900v198h252v-198h-252zM-110 1900v198h252v-198h-252z" />
    <glyph glyph-name="Eth" unicode="&#xd0;" horiz-adv-x="977" 
d="M139 0v1760h358q136 0 214.5 -56t112 -160.5t33.5 -250.5l1 -782q0 -176 -36.5 -289t-117.5 -167.5t-215 -54.5h-350zM371 184h98q53 0 87.5 22.5t52 81.5t17.5 170l-1 835q0 153 -36.5 219t-122.5 66h-95v-1394zM24 823v113h521v-113h-521z" />
    <glyph glyph-name="Ntilde" unicode="&#xd1;" horiz-adv-x="1037" 
d="M139 0v1760h179l393 -1139l-20 497v642h207v-1760h-168l-390 1160l13 -451v-709h-214zM669 1900q-44 0 -93 20.5t-96.5 41t-89.5 20.5q-16 0 -23 -2q-16 -4 -26.5 -18.5t-24.5 -40.5l-119 50q20 68 47.5 104t62.5 50t75 14q41 0 94 -18.5t100.5 -37t72.5 -18.5h4
q14 2 27 14t29 57l131 -28l-9 -41q-24 -102 -62.5 -134.5t-99.5 -32.5z" />
    <glyph glyph-name="Ograve" unicode="&#xd2;" horiz-adv-x="967" 
d="M486 -20q-134 0 -215 58t-117 173.5t-36 288.5v788q0 152 34.5 262.5t115.5 171t222 60.5q106 0 175.5 -34.5t109.5 -99t56.5 -155.5t16.5 -205v-788q0 -173 -34.5 -288.5t-114 -173.5t-213.5 -58zM486 181q54 0 82 31t38 101t10 185v802q0 140 -24 210.5t-102 70.5
q-81 0 -110 -69t-29 -211v-803q0 -116 10 -185.5t39.5 -100.5t85.5 -31zM470 1900l-198 389h234l94 -389h-130z" />
    <glyph glyph-name="Oacute" unicode="&#xd3;" horiz-adv-x="967" 
d="M486 -20q-134 0 -215 58t-117 173.5t-36 288.5v788q0 152 34.5 262.5t115.5 171t222 60.5q106 0 175.5 -34.5t109.5 -99t56.5 -155.5t16.5 -205v-788q0 -173 -34.5 -288.5t-114 -173.5t-213.5 -58zM486 181q54 0 82 31t38 101t10 185v802q0 140 -24 210.5t-102 70.5
q-81 0 -110 -69t-29 -211v-803q0 -116 10 -185.5t39.5 -100.5t85.5 -31zM350 1900l94 389h234l-198 -389h-130z" />
    <glyph glyph-name="Ocircumflex" unicode="&#xd4;" horiz-adv-x="967" 
d="M486 -20q-134 0 -215 58t-117 173.5t-36 288.5v788q0 152 34.5 262.5t115.5 171t222 60.5q106 0 175.5 -34.5t109.5 -99t56.5 -155.5t16.5 -205v-788q0 -173 -34.5 -288.5t-114 -173.5t-213.5 -58zM486 181q54 0 82 31t38 101t10 185v802q0 140 -24 210.5t-102 70.5
q-81 0 -110 -69t-29 -211v-803q0 -116 10 -185.5t39.5 -100.5t85.5 -31zM184 1900l169 311h261l167 -311h-212l-86 218l-86 -218h-213z" />
    <glyph glyph-name="Otilde" unicode="&#xd5;" horiz-adv-x="967" 
d="M486 -20q-134 0 -215 58t-117 173.5t-36 288.5v788q0 152 34.5 262.5t115.5 171t222 60.5q106 0 175.5 -34.5t109.5 -99t56.5 -155.5t16.5 -205v-788q0 -173 -34.5 -288.5t-114 -173.5t-213.5 -58zM486 181q54 0 82 31t38 101t10 185v802q0 140 -24 210.5t-102 70.5
q-81 0 -110 -69t-29 -211v-803q0 -116 10 -185.5t39.5 -100.5t85.5 -31zM634 1900q-44 0 -93 20.5t-96.5 41t-89.5 20.5q-16 0 -23 -2q-16 -4 -26.5 -18.5t-24.5 -40.5l-119 50q20 68 47.5 104t62.5 50t75 14q41 0 94 -18.5t100.5 -37t72.5 -18.5h4q14 2 27 14t29 57
l131 -28l-9 -41q-24 -102 -62.5 -134.5t-99.5 -32.5z" />
    <glyph glyph-name="Odieresis" unicode="&#xd6;" horiz-adv-x="967" 
d="M486 -20q-134 0 -215 58t-117 173.5t-36 288.5v788q0 152 34.5 262.5t115.5 171t222 60.5q106 0 175.5 -34.5t109.5 -99t56.5 -155.5t16.5 -205v-788q0 -173 -34.5 -288.5t-114 -173.5t-213.5 -58zM486 181q54 0 82 31t38 101t10 185v802q0 140 -24 210.5t-102 70.5
q-81 0 -110 -69t-29 -211v-803q0 -116 10 -185.5t39.5 -100.5t85.5 -31zM600 1900v198h252v-198h-252zM116 1900v198h252v-198h-252z" />
    <glyph glyph-name="multiply" unicode="&#xd7;" horiz-adv-x="710" 
d="M189 349l-126 129l164 164l-164 165l126 129l166 -165l166 165l126 -129l-164 -165l164 -164l-126 -129l-166 165z" />
    <glyph glyph-name="Oslash" unicode="&#xd8;" horiz-adv-x="900" 
d="M182 -206l-99 40l728 2072l107 -36zM486 -20q-134 0 -215 58t-117 173.5t-36 288.5v788q0 152 34.5 262.5t115.5 171t222 60.5q106 0 175.5 -34.5t109.5 -99t56.5 -155.5t16.5 -205v-788q0 -173 -34.5 -288.5t-114 -173.5t-213.5 -58zM486 181q54 0 82 31t38 101t10 185
v802q0 140 -24 210.5t-102 70.5q-81 0 -110 -69t-29 -211v-803q0 -116 10 -185.5t39.5 -100.5t85.5 -31z" />
    <glyph glyph-name="Ugrave" unicode="&#xd9;" horiz-adv-x="979" 
d="M491 -21q-133 0 -213.5 51.5t-116.5 156.5t-36 265v1308h233v-1303q0 -86 6.5 -149t34.5 -97t92 -34t91.5 33.5t33.5 96.5t6 149v1304h232v-1308q0 -160 -35 -265t-114.5 -156.5t-213.5 -51.5zM476 1900l-198 389h234l94 -389h-130z" />
    <glyph glyph-name="Uacute" unicode="&#xda;" horiz-adv-x="979" 
d="M491 -21q-133 0 -213.5 51.5t-116.5 156.5t-36 265v1308h233v-1303q0 -86 6.5 -149t34.5 -97t92 -34t91.5 33.5t33.5 96.5t6 149v1304h232v-1308q0 -160 -35 -265t-114.5 -156.5t-213.5 -51.5zM356 1900l94 389h234l-198 -389h-130z" />
    <glyph glyph-name="Ucircumflex" unicode="&#xdb;" horiz-adv-x="979" 
d="M491 -21q-133 0 -213.5 51.5t-116.5 156.5t-36 265v1308h233v-1303q0 -86 6.5 -149t34.5 -97t92 -34t91.5 33.5t33.5 96.5t6 149v1304h232v-1308q0 -160 -35 -265t-114.5 -156.5t-213.5 -51.5zM190 1900l169 311h261l167 -311h-212l-86 218l-86 -218h-213z" />
    <glyph glyph-name="Udieresis" unicode="&#xdc;" horiz-adv-x="979" 
d="M491 -21q-133 0 -213.5 51.5t-116.5 156.5t-36 265v1308h233v-1303q0 -86 6.5 -149t34.5 -97t92 -34t91.5 33.5t33.5 96.5t6 149v1304h232v-1308q0 -160 -35 -265t-114.5 -156.5t-213.5 -51.5zM606 1900v198h252v-198h-252zM122 1900v198h252v-198h-252z" />
    <glyph glyph-name="Yacute" unicode="&#xdd;" horiz-adv-x="848" 
d="M317 0v724l-301 1036h226l192 -691h4l167 691h227l-282 -1036v-724h-233zM291 1900l94 389h234l-198 -389h-130z" />
    <glyph glyph-name="Thorn" unicode="&#xde;" horiz-adv-x="950" 
d="M155 0v1760h232v-261h143q106 0 173 -35.5t103.5 -102t51.5 -162t15 -215.5v-25q0 -174 -28.5 -295.5t-102.5 -184.5t-209 -63h-146v-416h-232zM387 609h113q60 0 90 34t40.5 111.5t10.5 205.5v28q0 162 -24.5 245t-113.5 83h-116v-707z" />
    <glyph glyph-name="germandbls" unicode="&#xdf;" horiz-adv-x="1002" 
d="M140 0v1417q0 91 15.5 159t53.5 113.5t106 68t174 22.5q133 0 214 -33.5t118 -112.5t37 -217v-197q0 -80 -15 -134t-50 -87.5t-96 -53.5q85 -20 133.5 -66.5t68 -126t19.5 -199.5v-77q0 -112 -12.5 -200.5t-48.5 -150t-105 -93.5t-182 -32h-104v186q93 0 141.5 15.5
t66.5 60.5t18 133v261q0 108 -46 147.5t-171 39.5v181q91 0 124.5 34t33.5 112v287q0 81 -29.5 112t-105.5 31q-67 0 -97.5 -31t-30.5 -112v-1457h-230z" />
    <glyph glyph-name="agrave" unicode="&#xe0;" horiz-adv-x="930" 
d="M373 -14q-144 0 -204 108.5t-61 294.5v125q0 108 34 177.5t97 114.5t149 80.5t190 75.5v122q0 88 -6 141.5t-29 78.5t-73 25q-49 0 -73.5 -25.5t-32.5 -79t-8 -137.5v-59h-229v44q0 99 14.5 181t52 141t106 91.5t176.5 32.5q100 0 165 -30.5t102.5 -90t53 -147.5
t15.5 -204v-1046h-232v138q-10 -35 -37 -70.5t-70 -58.5t-100 -23zM445 168q52 0 87.5 35t45.5 71v548q-70 -32 -116 -57.5t-72.5 -54.5t-37.5 -69.5t-11 -100.5v-152q0 -116 22 -168t82 -52zM451 1640l-198 389h234l94 -389h-130z" />
    <glyph glyph-name="aacute" unicode="&#xe1;" horiz-adv-x="930" 
d="M373 -14q-144 0 -204 108.5t-61 294.5v125q0 108 34 177.5t97 114.5t149 80.5t190 75.5v122q0 88 -6 141.5t-29 78.5t-73 25q-49 0 -73.5 -25.5t-32.5 -79t-8 -137.5v-59h-229v44q0 99 14.5 181t52 141t106 91.5t176.5 32.5q100 0 165 -30.5t102.5 -90t53 -147.5
t15.5 -204v-1046h-232v138q-10 -35 -37 -70.5t-70 -58.5t-100 -23zM445 168q52 0 87.5 35t45.5 71v548q-70 -32 -116 -57.5t-72.5 -54.5t-37.5 -69.5t-11 -100.5v-152q0 -116 22 -168t82 -52zM332 1640l94 389h234l-198 -389h-130z" />
    <glyph glyph-name="acircumflex" unicode="&#xe2;" horiz-adv-x="930" 
d="M373 -14q-144 0 -204 108.5t-61 294.5v125q0 108 34 177.5t97 114.5t149 80.5t190 75.5v122q0 88 -6 141.5t-29 78.5t-73 25q-49 0 -73.5 -25.5t-32.5 -79t-8 -137.5v-59h-229v44q0 99 14.5 181t52 141t106 91.5t176.5 32.5q100 0 165 -30.5t102.5 -90t53 -147.5
t15.5 -204v-1046h-232v138q-10 -35 -37 -70.5t-70 -58.5t-100 -23zM445 168q52 0 87.5 35t45.5 71v548q-70 -32 -116 -57.5t-72.5 -54.5t-37.5 -69.5t-11 -100.5v-152q0 -116 22 -168t82 -52zM166 1640l169 311h261l167 -311h-212l-86 218l-86 -218h-213z" />
    <glyph glyph-name="atilde" unicode="&#xe3;" horiz-adv-x="930" 
d="M373 -14q-144 0 -204 108.5t-61 294.5v125q0 108 34 177.5t97 114.5t149 80.5t190 75.5v122q0 88 -6 141.5t-29 78.5t-73 25q-49 0 -73.5 -25.5t-32.5 -79t-8 -137.5v-59h-229v44q0 99 14.5 181t52 141t106 91.5t176.5 32.5q100 0 165 -30.5t102.5 -90t53 -147.5
t15.5 -204v-1046h-232v138q-10 -35 -37 -70.5t-70 -58.5t-100 -23zM445 168q52 0 87.5 35t45.5 71v548q-70 -32 -116 -57.5t-72.5 -54.5t-37.5 -69.5t-11 -100.5v-152q0 -116 22 -168t82 -52zM615 1640q-44 0 -93 20.5t-96.5 41t-89.5 20.5q-16 0 -23 -2q-16 -4 -26.5 -18.5
t-24.5 -40.5l-119 50q20 68 47.5 104t62.5 50t75 14q41 0 94 -18.5t100.5 -37t72.5 -18.5h4q14 2 27 14t29 57l131 -28l-9 -41q-24 -102 -62.5 -134.5t-99.5 -32.5z" />
    <glyph glyph-name="adieresis" unicode="&#xe4;" horiz-adv-x="930" 
d="M373 -14q-144 0 -204 108.5t-61 294.5v125q0 108 34 177.5t97 114.5t149 80.5t190 75.5v122q0 88 -6 141.5t-29 78.5t-73 25q-49 0 -73.5 -25.5t-32.5 -79t-8 -137.5v-59h-229v44q0 99 14.5 181t52 141t106 91.5t176.5 32.5q100 0 165 -30.5t102.5 -90t53 -147.5
t15.5 -204v-1046h-232v138q-10 -35 -37 -70.5t-70 -58.5t-100 -23zM445 168q52 0 87.5 35t45.5 71v548q-70 -32 -116 -57.5t-72.5 -54.5t-37.5 -69.5t-11 -100.5v-152q0 -116 22 -168t82 -52zM581 1640v198h252v-198h-252zM97 1640v198h252v-198h-252z" />
    <glyph glyph-name="aring" unicode="&#xe5;" horiz-adv-x="930" 
d="M373 -14q-144 0 -204 108.5t-61 294.5v125q0 108 34 177.5t97 114.5t149 80.5t190 75.5v122q0 88 -6 141.5t-29 78.5t-73 25q-49 0 -73.5 -25.5t-32.5 -79t-8 -137.5v-59h-229v44q0 99 14.5 181t52 141t106 91.5t176.5 32.5q100 0 165 -30.5t102.5 -90t53 -147.5
t15.5 -204v-1046h-232v138q-10 -35 -37 -70.5t-70 -58.5t-100 -23zM445 168q52 0 87.5 35t45.5 71v548q-70 -32 -116 -57.5t-72.5 -54.5t-37.5 -69.5t-11 -100.5v-152q0 -116 22 -168t82 -52zM465 1640q-102 0 -158 59.5t-56 143.5q0 83 56 142.5t158 59.5
q103 0 158.5 -59.5t55.5 -142.5t-55.5 -143t-158.5 -60zM465 1721q57 0 85.5 38.5t28.5 83.5q0 47 -28.5 84.5t-85.5 37.5q-55 0 -83.5 -37.5t-28.5 -84.5q0 -45 28.5 -83.5t83.5 -38.5z" />
    <glyph glyph-name="ae" unicode="&#xe6;" horiz-adv-x="1392" 
d="M950 -18q-99 0 -163.5 37.5t-96.5 100.5q-23 -32 -65 -63t-95.5 -51t-111.5 -20q-150 0 -225 108.5t-75 302.5v127q1 106 35.5 173t97 111.5t148.5 80.5t190 76v97q0 86 -6.5 145.5t-29.5 90.5t-74 31q-47 0 -71.5 -24.5t-33 -76.5t-8.5 -138v-62h-228v44q0 99 14 181
t51.5 141t106 91.5t176.5 32.5q85 0 138 -26t83 -78q37 51 96 77.5t144 26.5q104 0 169.5 -34.5t101.5 -98t49.5 -152t13.5 -196.5v-303h-461v-271q0 -98 9 -163t34.5 -97t77.5 -32q54 0 77.5 38t29 103t4.5 144v109h227v-64q0 -117 -10.5 -212.5t-43 -164t-98.5 -105.5
t-177 -37zM455 171q52 0 87.5 35.5t45.5 70.5v537q-71 -32 -117 -57t-72.5 -53.5t-37 -68.5t-10.5 -101v-142q0 -117 22 -169t82 -52zM820 896h232v180q0 83 -6.5 140.5t-29 86.5t-71.5 29q-56 0 -83 -34t-34.5 -95.5t-7.5 -143.5v-163z" />
    <glyph glyph-name="ccedilla" unicode="&#xe7;" horiz-adv-x="903" 
d="M474 -18q-112 0 -182 36.5t-108 105t-52 164.5t-14 215v496q0 156 27.5 273t105 181.5t227.5 64.5q99 0 162.5 -31.5t99.5 -91.5t50.5 -143.5t14.5 -186.5v-129h-224v149q0 77 -6 130.5t-28 81.5t-73 28q-52 0 -78.5 -29.5t-36 -84.5t-9.5 -131v-654q0 -82 8 -138
t33.5 -84.5t77.5 -28.5q50 0 74 30t31 86t7 132v159h224v-120q0 -107 -14 -195.5t-50 -152t-101 -98t-166 -34.5zM432 -626q-65 0 -130 22v103q95 0 144.5 20t68 52.5t18.5 69.5q0 68 -49 109t-111 54l40 196h74l14 -143q107 -41 160 -107.5t53 -139.5q0 -61 -34 -115
t-97 -87.5t-151 -33.5z" />
    <glyph glyph-name="egrave" unicode="&#xe8;" horiz-adv-x="908" 
d="M465 -18q-110 0 -178.5 37t-105 105.5t-50 164.5t-13.5 213v543q0 105 18 192t58.5 150t109.5 97t171 34q104 0 170 -34.5t101.5 -98t49.5 -152t14 -196.5v-299h-460v-297q0 -128 18.5 -199t100.5 -71q54 0 77.5 33.5t28.5 94t5 140.5v126h227v-71q0 -118 -12 -213
t-46.5 -161.5t-102.5 -102t-181 -35.5zM349 884h231v192q0 83 -6.5 140.5t-28.5 86.5t-71 29q-56 0 -83 -34t-34.5 -93t-7.5 -136v-185zM441 1640l-198 389h234l94 -389h-130z" />
    <glyph glyph-name="eacute" unicode="&#xe9;" horiz-adv-x="908" 
d="M465 -18q-110 0 -178.5 37t-105 105.5t-50 164.5t-13.5 213v543q0 105 18 192t58.5 150t109.5 97t171 34q104 0 170 -34.5t101.5 -98t49.5 -152t14 -196.5v-299h-460v-297q0 -128 18.5 -199t100.5 -71q54 0 77.5 33.5t28.5 94t5 140.5v126h227v-71q0 -118 -12 -213
t-46.5 -161.5t-102.5 -102t-181 -35.5zM349 884h231v192q0 83 -6.5 140.5t-28.5 86.5t-71 29q-56 0 -83 -34t-34.5 -93t-7.5 -136v-185zM321 1640l94 389h234l-198 -389h-130z" />
    <glyph glyph-name="ecircumflex" unicode="&#xea;" horiz-adv-x="908" 
d="M465 -18q-110 0 -178.5 37t-105 105.5t-50 164.5t-13.5 213v543q0 105 18 192t58.5 150t109.5 97t171 34q104 0 170 -34.5t101.5 -98t49.5 -152t14 -196.5v-299h-460v-297q0 -128 18.5 -199t100.5 -71q54 0 77.5 33.5t28.5 94t5 140.5v126h227v-71q0 -118 -12 -213
t-46.5 -161.5t-102.5 -102t-181 -35.5zM349 884h231v192q0 83 -6.5 140.5t-28.5 86.5t-71 29q-56 0 -83 -34t-34.5 -93t-7.5 -136v-185zM155 1640l169 311h261l167 -311h-212l-86 218l-86 -218h-213z" />
    <glyph glyph-name="edieresis" unicode="&#xeb;" horiz-adv-x="908" 
d="M465 -18q-110 0 -178.5 37t-105 105.5t-50 164.5t-13.5 213v543q0 105 18 192t58.5 150t109.5 97t171 34q104 0 170 -34.5t101.5 -98t49.5 -152t14 -196.5v-299h-460v-297q0 -128 18.5 -199t100.5 -71q54 0 77.5 33.5t28.5 94t5 140.5v126h227v-71q0 -118 -12 -213
t-46.5 -161.5t-102.5 -102t-181 -35.5zM349 884h231v192q0 83 -6.5 140.5t-28.5 86.5t-71 29q-56 0 -83 -34t-34.5 -93t-7.5 -136v-185zM571 1640v198h252v-198h-252zM87 1640v198h252v-198h-252z" />
    <glyph glyph-name="igrave" unicode="&#xec;" horiz-adv-x="518" 
d="M144 0v1500h230v-1500h-230zM245 1640l-198 389h234l94 -389h-130z" />
    <glyph glyph-name="iacute" unicode="&#xed;" horiz-adv-x="518" 
d="M144 0v1500h230v-1500h-230zM126 1640l94 389h234l-198 -389h-130z" />
    <glyph glyph-name="icircumflex" unicode="&#xee;" horiz-adv-x="518" 
d="M144 0v1500h230v-1500h-230zM-40 1640l169 311h261l167 -311h-212l-86 218l-86 -218h-213z" />
    <glyph glyph-name="idieresis" unicode="&#xef;" horiz-adv-x="518" 
d="M144 0v1500h230v-1500h-230zM375 1640v198h252v-198h-252zM-109 1640v198h252v-198h-252z" />
    <glyph glyph-name="eth" unicode="&#xf0;" horiz-adv-x="987" 
d="M474 -20q-144 0 -225.5 55.5t-115 165t-33.5 270.5v106q0 183 32.5 299.5t107 171.5t199.5 52q54 -1 97.5 -18.5t72.5 -49.5q0 8 -2 41.5t-5.5 80t-9 95t-12 88t-15.5 58.5l-214 -122l-61 126l200 115q-46 52 -103.5 80t-109.5 39l96 147q89 -8 170 -46t142 -112l199 113
l62 -126l-185 -105q16 -30 29 -91.5t23.5 -137.5t18.5 -153.5t11.5 -140t3.5 -94.5v-366q0 -168 -28.5 -289t-109 -186.5t-235.5 -65.5zM472 181q86 0 115 69t29 221v350q-9 30 -49 56.5t-101 26.5q-53 0 -82 -30t-40 -98.5t-11 -182.5v-156q0 -100 12 -156t42.5 -78
t84.5 -22z" />
    <glyph glyph-name="ntilde" unicode="&#xf1;" horiz-adv-x="990" 
d="M138 0v1500h230v-164q20 72 85 127.5t157 55.5q120 0 183.5 -83t63.5 -246v-1190h-230v1182q0 74 -33 110.5t-87 36.5q-41 0 -73 -20t-49 -58.5t-17 -95.5v-1155h-230zM645 1640q-44 0 -93 20.5t-96.5 41t-89.5 20.5q-16 0 -23 -2q-16 -4 -26.5 -18.5t-24.5 -40.5
l-119 50q20 68 47.5 104t62.5 50t75 14q41 0 94 -18.5t100.5 -37t72.5 -18.5h4q14 2 27 14t29 57l131 -28l-9 -41q-24 -102 -62.5 -134.5t-99.5 -32.5z" />
    <glyph glyph-name="ograve" unicode="&#xf2;" horiz-adv-x="937" 
d="M470 -18q-107 0 -175.5 35t-107 101t-54 159.5t-15.5 210.5v543q0 141 31 251t108 173t213 63q103 0 171 -36t107 -101.5t55 -154.5t16 -195v-543q0 -115 -14 -208t-52 -160t-106 -102.5t-177 -35.5zM470 171q51 0 76 32.5t33.5 90.5t8.5 134v647q0 77 -9 134t-34.5 88.5
t-74.5 31.5q-51 0 -77 -31.5t-34.5 -88.5t-8.5 -134v-647q0 -76 8.5 -134t34.5 -90.5t77 -32.5zM455 1640l-198 389h234l94 -389h-130z" />
    <glyph glyph-name="oacute" unicode="&#xf3;" horiz-adv-x="937" 
d="M470 -18q-107 0 -175.5 35t-107 101t-54 159.5t-15.5 210.5v543q0 141 31 251t108 173t213 63q103 0 171 -36t107 -101.5t55 -154.5t16 -195v-543q0 -115 -14 -208t-52 -160t-106 -102.5t-177 -35.5zM470 171q51 0 76 32.5t33.5 90.5t8.5 134v647q0 77 -9 134t-34.5 88.5
t-74.5 31.5q-51 0 -77 -31.5t-34.5 -88.5t-8.5 -134v-647q0 -76 8.5 -134t34.5 -90.5t77 -32.5zM335 1640l94 389h234l-198 -389h-130z" />
    <glyph glyph-name="ocircumflex" unicode="&#xf4;" horiz-adv-x="937" 
d="M470 -18q-107 0 -175.5 35t-107 101t-54 159.5t-15.5 210.5v543q0 141 31 251t108 173t213 63q103 0 171 -36t107 -101.5t55 -154.5t16 -195v-543q0 -115 -14 -208t-52 -160t-106 -102.5t-177 -35.5zM470 171q51 0 76 32.5t33.5 90.5t8.5 134v647q0 77 -9 134t-34.5 88.5
t-74.5 31.5q-51 0 -77 -31.5t-34.5 -88.5t-8.5 -134v-647q0 -76 8.5 -134t34.5 -90.5t77 -32.5zM169 1640l169 311h261l167 -311h-212l-86 218l-86 -218h-213z" />
    <glyph glyph-name="otilde" unicode="&#xf5;" horiz-adv-x="937" 
d="M470 -18q-107 0 -175.5 35t-107 101t-54 159.5t-15.5 210.5v543q0 141 31 251t108 173t213 63q103 0 171 -36t107 -101.5t55 -154.5t16 -195v-543q0 -115 -14 -208t-52 -160t-106 -102.5t-177 -35.5zM470 171q51 0 76 32.5t33.5 90.5t8.5 134v647q0 77 -9 134t-34.5 88.5
t-74.5 31.5q-51 0 -77 -31.5t-34.5 -88.5t-8.5 -134v-647q0 -76 8.5 -134t34.5 -90.5t77 -32.5zM619 1640q-44 0 -93 20.5t-96.5 41t-89.5 20.5q-16 0 -23 -2q-16 -4 -26.5 -18.5t-24.5 -40.5l-119 50q20 68 47.5 104t62.5 50t75 14q41 0 94 -18.5t100.5 -37t72.5 -18.5h4
q14 2 27 14t29 57l131 -28l-9 -41q-24 -102 -62.5 -134.5t-99.5 -32.5z" />
    <glyph glyph-name="odieresis" unicode="&#xf6;" horiz-adv-x="937" 
d="M470 -18q-107 0 -175.5 35t-107 101t-54 159.5t-15.5 210.5v543q0 141 31 251t108 173t213 63q103 0 171 -36t107 -101.5t55 -154.5t16 -195v-543q0 -115 -14 -208t-52 -160t-106 -102.5t-177 -35.5zM470 171q51 0 76 32.5t33.5 90.5t8.5 134v647q0 77 -9 134t-34.5 88.5
t-74.5 31.5q-51 0 -77 -31.5t-34.5 -88.5t-8.5 -134v-647q0 -76 8.5 -134t34.5 -90.5t77 -32.5zM585 1640v198h252v-198h-252zM101 1640v198h252v-198h-252z" />
    <glyph glyph-name="divide" unicode="&#xf7;" horiz-adv-x="804" 
d="M94 657v194h616v-194h-616zM282 214v298h240v-298h-240zM282 999v298h240v-298h-240z" />
    <glyph glyph-name="oslash" unicode="&#xf8;" horiz-adv-x="879" 
d="M269 -173l-100 28l509 1817l101 -28zM470 -18q-107 0 -175.5 35t-107 101t-54 159.5t-15.5 210.5v543q0 141 31 251t108 173t213 63q103 0 171 -36t107 -101.5t55 -154.5t16 -195v-543q0 -115 -14 -208t-52 -160t-106 -102.5t-177 -35.5zM470 171q51 0 76 32.5t33.5 90.5
t8.5 134v647q0 77 -9 134t-34.5 88.5t-74.5 31.5q-51 0 -77 -31.5t-34.5 -88.5t-8.5 -134v-647q0 -76 8.5 -134t34.5 -90.5t77 -32.5z" />
    <glyph glyph-name="ugrave" unicode="&#xf9;" horiz-adv-x="982" 
d="M387 -20q-76 0 -134 36t-90.5 112t-32.5 196v1176h230v-1146q0 -86 27 -132.5t94 -46.5q72 0 103.5 53t31.5 128v1144h230v-1500h-230v154q-25 -72 -80 -123t-149 -51zM477 1640l-198 389h234l94 -389h-130z" />
    <glyph glyph-name="uacute" unicode="&#xfa;" horiz-adv-x="982" 
d="M387 -20q-76 0 -134 36t-90.5 112t-32.5 196v1176h230v-1146q0 -86 27 -132.5t94 -46.5q72 0 103.5 53t31.5 128v1144h230v-1500h-230v154q-25 -72 -80 -123t-149 -51zM358 1640l94 389h234l-198 -389h-130z" />
    <glyph glyph-name="ucircumflex" unicode="&#xfb;" horiz-adv-x="982" 
d="M387 -20q-76 0 -134 36t-90.5 112t-32.5 196v1176h230v-1146q0 -86 27 -132.5t94 -46.5q72 0 103.5 53t31.5 128v1144h230v-1500h-230v154q-25 -72 -80 -123t-149 -51zM192 1640l169 311h261l167 -311h-212l-86 218l-86 -218h-213z" />
    <glyph glyph-name="udieresis" unicode="&#xfc;" horiz-adv-x="982" 
d="M387 -20q-76 0 -134 36t-90.5 112t-32.5 196v1176h230v-1146q0 -86 27 -132.5t94 -46.5q72 0 103.5 53t31.5 128v1144h230v-1500h-230v154q-25 -72 -80 -123t-149 -51zM607 1640v198h252v-198h-252zM123 1640v198h252v-198h-252z" />
    <glyph glyph-name="yacute" unicode="&#xfd;" horiz-adv-x="816" 
d="M98 -257v167h77q44 0 75.5 5.5t37.5 25.5q10 14 7.5 48t-7.5 70l-243 1441h221l103 -775l43 -405h19l38 405l94 775h220l-253 -1544q-12 -76 -30.5 -123.5t-57 -68.5t-109.5 -21h-235zM275 1640l94 389h234l-198 -389h-130z" />
    <glyph glyph-name="thorn" unicode="&#xfe;" horiz-adv-x="964" 
d="M141 -279v2056h231v-406q30 74 88.5 108.5t120.5 34.5q112 0 168 -62.5t75.5 -170.5t19.5 -243v-545q0 -143 -21 -259t-83.5 -184t-188.5 -68q-59 0 -106 34.5t-73 79.5v-375h-231zM499 173q71 1 92.5 71t21.5 212v611q0 75 -6.5 133.5t-30 92.5t-74.5 34
q-40 0 -69.5 -20t-45 -75.5t-15.5 -164.5v-620q0 -135 23.5 -204.5t103.5 -69.5z" />
    <glyph glyph-name="ydieresis" unicode="&#xff;" horiz-adv-x="816" 
d="M98 -257v167h77q44 0 75.5 5.5t37.5 25.5q10 14 7.5 48t-7.5 70l-243 1441h221l103 -775l43 -405h19l38 405l94 775h220l-253 -1544q-12 -76 -30.5 -123.5t-57 -68.5t-109.5 -21h-235zM525 1640v198h252v-198h-252zM41 1640v198h252v-198h-252z" />
    <glyph glyph-name="Amacron" unicode="&#x100;" horiz-adv-x="915" 
d="M41 0l260 1760h293l281 -1760h-218l-47 327h-304l-43 -327h-222zM330 514h253l-130 911h-3zM182 1921v159h533v-159h-533z" />
    <glyph glyph-name="amacron" unicode="&#x101;" horiz-adv-x="930" 
d="M373 -14q-144 0 -204 108.5t-61 294.5v125q0 108 34 177.5t97 114.5t149 80.5t190 75.5v122q0 88 -6 141.5t-29 78.5t-73 25q-49 0 -73.5 -25.5t-32.5 -79t-8 -137.5v-59h-229v44q0 99 14.5 181t52 141t106 91.5t176.5 32.5q100 0 165 -30.5t102.5 -90t53 -147.5
t15.5 -204v-1046h-232v138q-10 -35 -37 -70.5t-70 -58.5t-100 -23zM445 168q52 0 87.5 35t45.5 71v548q-70 -32 -116 -57.5t-72.5 -54.5t-37.5 -69.5t-11 -100.5v-152q0 -116 22 -168t82 -52zM199 1661v159h533v-159h-533z" />
    <glyph glyph-name="Abreve" unicode="&#x102;" horiz-adv-x="915" 
d="M41 0l260 1760h293l281 -1760h-218l-47 327h-304l-43 -327h-222zM330 514h253l-130 911h-3zM448 1900q-125 0 -189.5 61.5t-64.5 178.5v15h124q0 -78 40 -102t91 -24t90 23t39 103h125v-13q0 -117 -62.5 -179.5t-192.5 -62.5z" />
    <glyph glyph-name="abreve" unicode="&#x103;" horiz-adv-x="930" 
d="M373 -14q-144 0 -204 108.5t-61 294.5v125q0 108 34 177.5t97 114.5t149 80.5t190 75.5v122q0 88 -6 141.5t-29 78.5t-73 25q-49 0 -73.5 -25.5t-32.5 -79t-8 -137.5v-59h-229v44q0 99 14.5 181t52 141t106 91.5t176.5 32.5q100 0 165 -30.5t102.5 -90t53 -147.5
t15.5 -204v-1046h-232v138q-10 -35 -37 -70.5t-70 -58.5t-100 -23zM445 168q52 0 87.5 35t45.5 71v548q-70 -32 -116 -57.5t-72.5 -54.5t-37.5 -69.5t-11 -100.5v-152q0 -116 22 -168t82 -52zM465 1640q-125 0 -189.5 61.5t-64.5 178.5v15h124q0 -78 40 -102t91 -24t90 23
t39 103h125v-13q0 -117 -62.5 -179.5t-192.5 -62.5z" />
    <glyph glyph-name="Aogonek" unicode="&#x104;" horiz-adv-x="915" 
d="M41 0l260 1760h293l281 -1760h-218l-47 327h-304l-43 -327h-222zM330 514h253l-130 911h-3zM734 -626q-92 0 -153 30t-92 83.5t-31 122.5q0 99 68.5 207t201.5 183h94q-83 -84 -137 -179t-54 -175q0 -63 39.5 -96.5t110.5 -33.5q46 0 81 8t41 10v-125
q-17 -10 -67.5 -22.5t-101.5 -12.5z" />
    <glyph glyph-name="aogonek" unicode="&#x105;" horiz-adv-x="930" 
d="M373 -14q-144 0 -204 108.5t-61 294.5v125q0 108 34 177.5t97 114.5t149 80.5t190 75.5v122q0 88 -6 141.5t-29 78.5t-73 25q-49 0 -73.5 -25.5t-32.5 -79t-8 -137.5v-59h-229v44q0 99 14.5 181t52 141t106 91.5t176.5 32.5q100 0 165 -30.5t102.5 -90t53 -147.5
t15.5 -204v-1046h-232v138q-10 -35 -37 -70.5t-70 -58.5t-100 -23zM445 168q52 0 87.5 35t45.5 71v548q-70 -32 -116 -57.5t-72.5 -54.5t-37.5 -69.5t-11 -100.5v-152q0 -116 22 -168t82 -52zM670 -626q-92 0 -153 30t-92 83.5t-31 122.5q0 99 68.5 207t201.5 183h94
q-83 -84 -137 -179t-54 -175q0 -63 39.5 -96.5t110.5 -33.5q46 0 81 8t41 10v-125q-17 -10 -67.5 -22.5t-101.5 -12.5z" />
    <glyph glyph-name="Cacute" unicode="&#x106;" horiz-adv-x="939" 
d="M480 -21q-128 0 -208 61t-117 179t-37 286v747q0 119 17 215.5t58.5 166.5t113 107.5t180.5 37.5q101 0 168.5 -34.5t107 -99.5t56 -155t16.5 -200v-215h-226v208q0 150 -23 223t-99 73q-81 0 -108.5 -76t-27.5 -219v-787q0 -113 11 -183.5t39 -103t80 -32.5
q77 0 102.5 75.5t25.5 245.5v219h229v-216q0 -173 -34 -289.5t-112.5 -175t-211.5 -58.5zM337 1900l94 389h234l-198 -389h-130z" />
    <glyph glyph-name="cacute" unicode="&#x107;" horiz-adv-x="903" 
d="M474 -18q-112 0 -182 36.5t-108 105t-52 164.5t-14 215v496q0 156 27.5 273t105 181.5t227.5 64.5q99 0 162.5 -31.5t99.5 -91.5t50.5 -143.5t14.5 -186.5v-129h-224v149q0 77 -6 130.5t-28 81.5t-73 28q-52 0 -78.5 -29.5t-36 -84.5t-9.5 -131v-654q0 -82 8 -138
t33.5 -84.5t77.5 -28.5q50 0 74 30t31 86t7 132v159h224v-120q0 -107 -14 -195.5t-50 -152t-101 -98t-166 -34.5zM318 1640l94 389h234l-198 -389h-130z" />
    <glyph glyph-name="Ccircumflex" unicode="&#x108;" horiz-adv-x="939" 
d="M480 -21q-128 0 -208 61t-117 179t-37 286v747q0 119 17 215.5t58.5 166.5t113 107.5t180.5 37.5q101 0 168.5 -34.5t107 -99.5t56 -155t16.5 -200v-215h-226v208q0 150 -23 223t-99 73q-81 0 -108.5 -76t-27.5 -219v-787q0 -113 11 -183.5t39 -103t80 -32.5
q77 0 102.5 75.5t25.5 245.5v219h229v-216q0 -173 -34 -289.5t-112.5 -175t-211.5 -58.5zM171 1900l169 311h261l167 -311h-212l-86 218l-86 -218h-213z" />
    <glyph glyph-name="ccircumflex" unicode="&#x109;" horiz-adv-x="903" 
d="M474 -18q-112 0 -182 36.5t-108 105t-52 164.5t-14 215v496q0 156 27.5 273t105 181.5t227.5 64.5q99 0 162.5 -31.5t99.5 -91.5t50.5 -143.5t14.5 -186.5v-129h-224v149q0 77 -6 130.5t-28 81.5t-73 28q-52 0 -78.5 -29.5t-36 -84.5t-9.5 -131v-654q0 -82 8 -138
t33.5 -84.5t77.5 -28.5q50 0 74 30t31 86t7 132v159h224v-120q0 -107 -14 -195.5t-50 -152t-101 -98t-166 -34.5zM152 1640l169 311h261l167 -311h-212l-86 218l-86 -218h-213z" />
    <glyph glyph-name="Cdotaccent" unicode="&#x10a;" horiz-adv-x="939" 
d="M480 -21q-128 0 -208 61t-117 179t-37 286v747q0 119 17 215.5t58.5 166.5t113 107.5t180.5 37.5q101 0 168.5 -34.5t107 -99.5t56 -155t16.5 -200v-215h-226v208q0 150 -23 223t-99 73q-81 0 -108.5 -76t-27.5 -219v-787q0 -113 11 -183.5t39 -103t80 -32.5
q77 0 102.5 75.5t25.5 245.5v219h229v-216q0 -173 -34 -289.5t-112.5 -175t-211.5 -58.5zM354 1898v206h231v-206h-231z" />
    <glyph glyph-name="cdotaccent" unicode="&#x10b;" horiz-adv-x="903" 
d="M474 -18q-112 0 -182 36.5t-108 105t-52 164.5t-14 215v496q0 156 27.5 273t105 181.5t227.5 64.5q99 0 162.5 -31.5t99.5 -91.5t50.5 -143.5t14.5 -186.5v-129h-224v149q0 77 -6 130.5t-28 81.5t-73 28q-52 0 -78.5 -29.5t-36 -84.5t-9.5 -131v-654q0 -82 8 -138
t33.5 -84.5t77.5 -28.5q50 0 74 30t31 86t7 132v159h224v-120q0 -107 -14 -195.5t-50 -152t-101 -98t-166 -34.5zM336 1638v206h231v-206h-231z" />
    <glyph glyph-name="Ccaron" unicode="&#x10c;" horiz-adv-x="939" 
d="M480 -21q-128 0 -208 61t-117 179t-37 286v747q0 119 17 215.5t58.5 166.5t113 107.5t180.5 37.5q101 0 168.5 -34.5t107 -99.5t56 -155t16.5 -200v-215h-226v208q0 150 -23 223t-99 73q-81 0 -108.5 -76t-27.5 -219v-787q0 -113 11 -183.5t39 -103t80 -32.5
q77 0 102.5 75.5t25.5 245.5v219h229v-216q0 -173 -34 -289.5t-112.5 -175t-211.5 -58.5zM340 1900l-169 312h213l86 -218l86 218h212l-167 -312h-261z" />
    <glyph glyph-name="ccaron" unicode="&#x10d;" horiz-adv-x="903" 
d="M474 -18q-112 0 -182 36.5t-108 105t-52 164.5t-14 215v496q0 156 27.5 273t105 181.5t227.5 64.5q99 0 162.5 -31.5t99.5 -91.5t50.5 -143.5t14.5 -186.5v-129h-224v149q0 77 -6 130.5t-28 81.5t-73 28q-52 0 -78.5 -29.5t-36 -84.5t-9.5 -131v-654q0 -82 8 -138
t33.5 -84.5t77.5 -28.5q50 0 74 30t31 86t7 132v159h224v-120q0 -107 -14 -195.5t-50 -152t-101 -98t-166 -34.5zM321 1640l-169 312h213l86 -218l86 218h212l-167 -312h-261z" />
    <glyph glyph-name="Dcaron" unicode="&#x10e;" horiz-adv-x="977" 
d="M139 0v1760h358q136 0 214.5 -56t112 -160.5t33.5 -250.5l1 -782q0 -176 -36.5 -289t-117.5 -167.5t-215 -54.5h-350zM371 184h98q53 0 87.5 22.5t52 81.5t17.5 170l-1 835q0 153 -36.5 219t-122.5 66h-95v-1394zM322 1900l-169 312h213l86 -218l86 218h212l-167 -312
h-261z" />
    <glyph glyph-name="dcaron" unicode="&#x10f;" horiz-adv-x="1165" 
d="M382 -14q-116 0 -172 65.5t-74 177t-18 251.5v585q0 129 26.5 231t90 162t174.5 60q61 0 109.5 -32.5t73.5 -82.5v374h231v-1777h-231v131q-30 -74 -84.5 -109.5t-125.5 -35.5zM464 172q48 0 76 25.5t40.5 87.5t12.5 169v601q0 131 -23 202t-101 71q-72 -1 -95.5 -69.5
t-23.5 -207.5v-610q0 -83 8.5 -143.5t33.5 -93t72 -32.5zM978 1241l51 295h-111v242h251v-233l-88 -304h-103z" />
    <glyph glyph-name="Dcroat" unicode="&#x110;" horiz-adv-x="977" 
d="M139 0v1760h358q136 0 214.5 -56t112 -160.5t33.5 -250.5l1 -782q0 -176 -36.5 -289t-117.5 -167.5t-215 -54.5h-350zM371 184h98q53 0 87.5 22.5t52 81.5t17.5 170l-1 835q0 153 -36.5 219t-122.5 66h-95v-1394zM24 823v113h521v-113h-521z" />
    <glyph glyph-name="dcroat" unicode="&#x111;" horiz-adv-x="964" 
d="M382 -14q-116 0 -172 65.5t-74 177t-18 251.5v585q0 129 26.5 231t90 162t174.5 60q61 0 109.5 -32.5t73.5 -82.5v374h231v-1777h-231v131q-30 -74 -84.5 -109.5t-125.5 -35.5zM464 172q48 0 76 25.5t40.5 87.5t12.5 169v601q0 131 -23 202t-101 71q-72 -1 -95.5 -69.5
t-23.5 -207.5v-610q0 -83 8.5 -143.5t33.5 -93t72 -32.5zM372 1580v113h521v-113h-521z" />
    <glyph glyph-name="Emacron" unicode="&#x112;" horiz-adv-x="774" 
d="M139 0v1760h553v-197h-321v-564h304v-195h-304v-607h328v-197h-560zM144 1921v159h533v-159h-533z" />
    <glyph glyph-name="emacron" unicode="&#x113;" horiz-adv-x="908" 
d="M465 -18q-110 0 -178.5 37t-105 105.5t-50 164.5t-13.5 213v543q0 105 18 192t58.5 150t109.5 97t171 34q104 0 170 -34.5t101.5 -98t49.5 -152t14 -196.5v-299h-460v-297q0 -128 18.5 -199t100.5 -71q54 0 77.5 33.5t28.5 94t5 140.5v126h227v-71q0 -118 -12 -213
t-46.5 -161.5t-102.5 -102t-181 -35.5zM349 884h231v192q0 83 -6.5 140.5t-28.5 86.5t-71 29q-56 0 -83 -34t-34.5 -93t-7.5 -136v-185zM188 1661v159h533v-159h-533z" />
    <glyph glyph-name="Ebreve" unicode="&#x114;" horiz-adv-x="774" 
d="M139 0v1760h553v-197h-321v-564h304v-195h-304v-607h328v-197h-560zM410 1900q-125 0 -189.5 61.5t-64.5 178.5v15h124q0 -78 40 -102t91 -24t90 23t39 103h125v-13q0 -117 -62.5 -179.5t-192.5 -62.5z" />
    <glyph glyph-name="ebreve" unicode="&#x115;" horiz-adv-x="908" 
d="M465 -18q-110 0 -178.5 37t-105 105.5t-50 164.5t-13.5 213v543q0 105 18 192t58.5 150t109.5 97t171 34q104 0 170 -34.5t101.5 -98t49.5 -152t14 -196.5v-299h-460v-297q0 -128 18.5 -199t100.5 -71q54 0 77.5 33.5t28.5 94t5 140.5v126h227v-71q0 -118 -12 -213
t-46.5 -161.5t-102.5 -102t-181 -35.5zM349 884h231v192q0 83 -6.5 140.5t-28.5 86.5t-71 29q-56 0 -83 -34t-34.5 -93t-7.5 -136v-185zM454 1640q-125 0 -189.5 61.5t-64.5 178.5v15h124q0 -78 40 -102t91 -24t90 23t39 103h125v-13q0 -117 -62.5 -179.5t-192.5 -62.5z" />
    <glyph glyph-name="Edotaccent" unicode="&#x116;" horiz-adv-x="774" 
d="M139 0v1760h553v-197h-321v-564h304v-195h-304v-607h328v-197h-560zM295 1898v206h231v-206h-231z" />
    <glyph glyph-name="edotaccent" unicode="&#x117;" horiz-adv-x="908" 
d="M465 -18q-110 0 -178.5 37t-105 105.5t-50 164.5t-13.5 213v543q0 105 18 192t58.5 150t109.5 97t171 34q104 0 170 -34.5t101.5 -98t49.5 -152t14 -196.5v-299h-460v-297q0 -128 18.5 -199t100.5 -71q54 0 77.5 33.5t28.5 94t5 140.5v126h227v-71q0 -118 -12 -213
t-46.5 -161.5t-102.5 -102t-181 -35.5zM349 884h231v192q0 83 -6.5 140.5t-28.5 86.5t-71 29q-56 0 -83 -34t-34.5 -93t-7.5 -136v-185zM338 1638v206h231v-206h-231z" />
    <glyph glyph-name="Eogonek" unicode="&#x118;" horiz-adv-x="774" 
d="M139 0v1760h553v-197h-321v-564h304v-195h-304v-607h328v-197h-560zM560 -626q-92 0 -153 30t-92 83.5t-31 122.5q0 99 68.5 207t201.5 183h94q-83 -84 -137 -179t-54 -175q0 -63 39.5 -96.5t110.5 -33.5q46 0 81 8t41 10v-125q-17 -10 -67.5 -22.5t-101.5 -12.5z" />
    <glyph glyph-name="eogonek" unicode="&#x119;" horiz-adv-x="908" 
d="M465 -18q-110 0 -178.5 37t-105 105.5t-50 164.5t-13.5 213v543q0 105 18 192t58.5 150t109.5 97t171 34q104 0 170 -34.5t101.5 -98t49.5 -152t14 -196.5v-299h-460v-297q0 -128 18.5 -199t100.5 -71q54 0 77.5 33.5t28.5 94t5 140.5v126h227v-71q0 -118 -12 -213
t-46.5 -161.5t-102.5 -102t-181 -35.5zM349 884h231v192q0 83 -6.5 140.5t-28.5 86.5t-71 29q-56 0 -83 -34t-34.5 -93t-7.5 -136v-185zM494 -626q-92 0 -153 30t-92 83.5t-31 122.5q0 99 68.5 207t201.5 183h94q-83 -84 -137 -179t-54 -175q0 -63 39.5 -96.5t110.5 -33.5
q46 0 81 8t41 10v-125q-17 -10 -67.5 -22.5t-101.5 -12.5z" />
    <glyph glyph-name="Ecaron" unicode="&#x11a;" horiz-adv-x="774" 
d="M139 0v1760h553v-197h-321v-564h304v-195h-304v-607h328v-197h-560zM280 1900l-169 312h213l86 -218l86 218h212l-167 -312h-261z" />
    <glyph glyph-name="ecaron" unicode="&#x11b;" horiz-adv-x="908" 
d="M465 -18q-110 0 -178.5 37t-105 105.5t-50 164.5t-13.5 213v543q0 105 18 192t58.5 150t109.5 97t171 34q104 0 170 -34.5t101.5 -98t49.5 -152t14 -196.5v-299h-460v-297q0 -128 18.5 -199t100.5 -71q54 0 77.5 33.5t28.5 94t5 140.5v126h227v-71q0 -118 -12 -213
t-46.5 -161.5t-102.5 -102t-181 -35.5zM349 884h231v192q0 83 -6.5 140.5t-28.5 86.5t-71 29q-56 0 -83 -34t-34.5 -93t-7.5 -136v-185zM324 1640l-169 312h213l86 -218l86 218h212l-167 -312h-261z" />
    <glyph glyph-name="Gcircumflex" unicode="&#x11c;" horiz-adv-x="964" 
d="M450 -17q-155 0 -243.5 125.5t-88.5 411.5v750q0 116 19 210t62 161t115.5 102.5t178.5 35.5q113 0 181.5 -36t105 -103.5t49 -163t12.5 -213.5v-131h-221v210q0 124 -25 180.5t-100 56.5q-81 0 -112.5 -66.5t-31.5 -236.5v-750q0 -187 26.5 -267.5t111.5 -80.5
q82 0 113 81.5t31 272.5v233h-140v174h348v-939h-114l-33 151q-26 -81 -91 -124.5t-153 -43.5zM183 1900l169 311h261l167 -311h-212l-86 218l-86 -218h-213z" />
    <glyph glyph-name="gcircumflex" unicode="&#x11d;" horiz-adv-x="954" 
d="M456 -227q-112 -3 -196.5 23t-148.5 77l82 152q48 -32 109 -54.5t137 -20.5q73 1 112 52.5t39 136.5v133q-28 -74 -80 -100.5t-121 -26.5q-106 0 -164.5 59t-82 161.5t-23.5 231.5v452q0 135 26 241t88.5 168t170.5 60q69 -1 117.5 -35t68.5 -103v120h230v-1341
q0 -75 -17.5 -143t-58.5 -122t-111.5 -86.5t-176.5 -34.5zM479 324q38 0 62.5 23t36.5 83t12 171v475q0 121 -24 187t-96 66q-53 0 -79 -32.5t-33.5 -88.5t-7.5 -130v-479q0 -133 24.5 -204t104.5 -71zM178 1640l169 311h261l167 -311h-212l-86 218l-86 -218h-213z" />
    <glyph glyph-name="Gbreve" unicode="&#x11e;" horiz-adv-x="964" 
d="M450 -17q-155 0 -243.5 125.5t-88.5 411.5v750q0 116 19 210t62 161t115.5 102.5t178.5 35.5q113 0 181.5 -36t105 -103.5t49 -163t12.5 -213.5v-131h-221v210q0 124 -25 180.5t-100 56.5q-81 0 -112.5 -66.5t-31.5 -236.5v-750q0 -187 26.5 -267.5t111.5 -80.5
q82 0 113 81.5t31 272.5v233h-140v174h348v-939h-114l-33 151q-26 -81 -91 -124.5t-153 -43.5zM482 1900q-125 0 -189.5 61.5t-64.5 178.5v15h124q0 -78 40 -102t91 -24t90 23t39 103h125v-13q0 -117 -62.5 -179.5t-192.5 -62.5z" />
    <glyph glyph-name="gbreve" unicode="&#x11f;" horiz-adv-x="954" 
d="M456 -227q-112 -3 -196.5 23t-148.5 77l82 152q48 -32 109 -54.5t137 -20.5q73 1 112 52.5t39 136.5v133q-28 -74 -80 -100.5t-121 -26.5q-106 0 -164.5 59t-82 161.5t-23.5 231.5v452q0 135 26 241t88.5 168t170.5 60q69 -1 117.5 -35t68.5 -103v120h230v-1341
q0 -75 -17.5 -143t-58.5 -122t-111.5 -86.5t-176.5 -34.5zM479 324q38 0 62.5 23t36.5 83t12 171v475q0 121 -24 187t-96 66q-53 0 -79 -32.5t-33.5 -88.5t-7.5 -130v-479q0 -133 24.5 -204t104.5 -71zM477 1640q-125 0 -189.5 61.5t-64.5 178.5v15h124q0 -78 40 -102
t91 -24t90 23t39 103h125v-13q0 -117 -62.5 -179.5t-192.5 -62.5z" />
    <glyph glyph-name="Gdotaccent" unicode="&#x120;" horiz-adv-x="964" 
d="M450 -17q-155 0 -243.5 125.5t-88.5 411.5v750q0 116 19 210t62 161t115.5 102.5t178.5 35.5q113 0 181.5 -36t105 -103.5t49 -163t12.5 -213.5v-131h-221v210q0 124 -25 180.5t-100 56.5q-81 0 -112.5 -66.5t-31.5 -236.5v-750q0 -187 26.5 -267.5t111.5 -80.5
q82 0 113 81.5t31 272.5v233h-140v174h348v-939h-114l-33 151q-26 -81 -91 -124.5t-153 -43.5zM367 1898v206h231v-206h-231z" />
    <glyph glyph-name="gdotaccent" unicode="&#x121;" horiz-adv-x="954" 
d="M456 -227q-112 -3 -196.5 23t-148.5 77l82 152q48 -32 109 -54.5t137 -20.5q73 1 112 52.5t39 136.5v133q-28 -74 -80 -100.5t-121 -26.5q-106 0 -164.5 59t-82 161.5t-23.5 231.5v452q0 135 26 241t88.5 168t170.5 60q69 -1 117.5 -35t68.5 -103v120h230v-1341
q0 -75 -17.5 -143t-58.5 -122t-111.5 -86.5t-176.5 -34.5zM479 324q38 0 62.5 23t36.5 83t12 171v475q0 121 -24 187t-96 66q-53 0 -79 -32.5t-33.5 -88.5t-7.5 -130v-479q0 -133 24.5 -204t104.5 -71zM362 1638v206h231v-206h-231z" />
    <glyph glyph-name="uni0122" unicode="&#x122;" horiz-adv-x="964" 
d="M450 -17q-155 0 -243.5 125.5t-88.5 411.5v750q0 116 19 210t62 161t115.5 102.5t178.5 35.5q113 0 181.5 -36t105 -103.5t49 -163t12.5 -213.5v-131h-221v210q0 124 -25 180.5t-100 56.5q-81 0 -112.5 -66.5t-31.5 -236.5v-750q0 -187 26.5 -267.5t111.5 -80.5
q82 0 113 81.5t31 272.5v233h-140v174h348v-939h-114l-33 151q-26 -81 -91 -124.5t-153 -43.5zM416 -659l52 295h-111v242h250v-233l-88 -304h-103z" />
    <glyph glyph-name="uni0123" unicode="&#x123;" horiz-adv-x="954" 
d="M456 -227q-112 -3 -196.5 23t-148.5 77l82 152q48 -32 109 -54.5t137 -20.5q73 1 112 52.5t39 136.5v133q-28 -74 -80 -100.5t-121 -26.5q-106 0 -164.5 59t-82 161.5t-23.5 231.5v452q0 135 26 241t88.5 168t170.5 60q69 -1 117.5 -35t68.5 -103v120h230v-1341
q0 -75 -17.5 -143t-58.5 -122t-111.5 -86.5t-176.5 -34.5zM479 324q38 0 62.5 23t36.5 83t12 171v475q0 121 -24 187t-96 66q-53 0 -79 -32.5t-33.5 -88.5t-7.5 -130v-479q0 -133 24.5 -204t104.5 -71zM544 2138l-52 -295h111v-242h-250v233l88 304h103z" />
    <glyph glyph-name="Hcircumflex" unicode="&#x124;" horiz-adv-x="1007" 
d="M139 0v1760h232v-736h265v736h232v-1760h-232v830h-265v-830h-232zM204 1900l169 311h261l167 -311h-212l-86 218l-86 -218h-213z" />
    <glyph glyph-name="hcircumflex" unicode="&#x125;" horiz-adv-x="990" 
d="M141 0v1777h230v-441q20 72 83 127.5t153 55.5q121 0 186 -83t65 -246v-1190h-230v1169q0 84 -31 120t-85 36q-41 0 -73 -21t-50 -62.5t-18 -103.5v-1138h-230zM-43 1917l169 311h261l167 -311h-212l-86 218l-86 -218h-213z" />
    <glyph glyph-name="Hbar" unicode="&#x126;" horiz-adv-x="1007" 
d="M55 1390v116h919v-116h-919zM139 0v1760h232v-736h265v736h232v-1760h-232v830h-265v-830h-232z" />
    <glyph glyph-name="hbar" unicode="&#x127;" horiz-adv-x="990" 
d="M141 0v1777h230v-441q20 72 83 127.5t153 55.5q121 0 186 -83t65 -246v-1190h-230v1169q0 84 -31 120t-85 36q-41 0 -73 -21t-50 -62.5t-18 -103.5v-1138h-230zM56 1580v113h521v-113h-521z" />
    <glyph glyph-name="Itilde" unicode="&#x128;" horiz-adv-x="515" 
d="M141 0v1760h233v-1760h-233zM408 1900q-44 0 -93 20.5t-96.5 41t-89.5 20.5q-16 0 -23 -2q-16 -4 -26.5 -18.5t-24.5 -40.5l-119 50q20 68 47.5 104t62.5 50t75 14q41 0 94 -18.5t100.5 -37t72.5 -18.5h4q14 2 27 14t29 57l131 -28l-9 -41q-24 -102 -62.5 -134.5
t-99.5 -32.5z" />
    <glyph glyph-name="itilde" unicode="&#x129;" horiz-adv-x="518" 
d="M144 0v1500h230v-1500h-230zM409 1640q-44 0 -93 20.5t-96.5 41t-89.5 20.5q-16 0 -23 -2q-16 -4 -26.5 -18.5t-24.5 -40.5l-119 50q20 68 47.5 104t62.5 50t75 14q41 0 94 -18.5t100.5 -37t72.5 -18.5h4q14 2 27 14t29 57l131 -28l-9 -41q-24 -102 -62.5 -134.5
t-99.5 -32.5z" />
    <glyph glyph-name="Imacron" unicode="&#x12a;" horiz-adv-x="515" 
d="M141 0v1760h233v-1760h-233zM-8 1921v159h533v-159h-533z" />
    <glyph glyph-name="imacron" unicode="&#x12b;" horiz-adv-x="518" 
d="M144 0v1500h230v-1500h-230zM-7 1661v159h533v-159h-533z" />
    <glyph glyph-name="Ibreve" unicode="&#x12c;" horiz-adv-x="515" 
d="M141 0v1760h233v-1760h-233zM257 1900q-125 0 -189.5 61.5t-64.5 178.5v15h124q0 -78 40 -102t91 -24t90 23t39 103h125v-13q0 -117 -62.5 -179.5t-192.5 -62.5z" />
    <glyph glyph-name="ibreve" unicode="&#x12d;" horiz-adv-x="518" 
d="M144 0v1500h230v-1500h-230zM258 1640q-125 0 -189.5 61.5t-64.5 178.5v15h124q0 -78 40 -102t91 -24t90 23t39 103h125v-13q0 -117 -62.5 -179.5t-192.5 -62.5z" />
    <glyph glyph-name="Iogonek" unicode="&#x12e;" horiz-adv-x="515" 
d="M141 0v1760h233v-1760h-233zM233 -626q-92 0 -153 30t-92 83.5t-31 122.5q0 99 68.5 207t201.5 183h94q-83 -84 -137 -179t-54 -175q0 -63 39.5 -96.5t110.5 -33.5q46 0 81 8t41 10v-125q-17 -10 -67.5 -22.5t-101.5 -12.5z" />
    <glyph glyph-name="iogonek" unicode="&#x12f;" horiz-adv-x="518" 
d="M144 0v1500h230v-1500h-230zM143 1638v206h231v-206h-231zM253 -626q-92 0 -153 30t-92 83.5t-31 122.5q0 99 68.5 207t201.5 183h94q-83 -84 -137 -179t-54 -175q0 -63 39.5 -96.5t110.5 -33.5q46 0 81 8t41 10v-125q-17 -10 -67.5 -22.5t-101.5 -12.5z" />
    <glyph glyph-name="Idotaccent" unicode="&#x130;" horiz-adv-x="515" 
d="M141 0v1760h233v-1760h-233zM142 1898v206h231v-206h-231z" />
    <glyph glyph-name="dotlessi" unicode="&#x131;" horiz-adv-x="518" 
d="M144 0v1500h230v-1500h-230z" />
    <glyph glyph-name="IJ" unicode="&#x132;" horiz-adv-x="1420" 
d="M141 0v1760h233v-1760h-233zM942 -21q-169 0 -254.5 103t-85.5 307v265h226v-252q0 -61 6 -112t28.5 -81.5t73.5 -30.5q50 0 72.5 30t28.5 84t6 126v1342h233v-1332q0 -220 -85.5 -334.5t-248.5 -114.5z" />
    <glyph glyph-name="ij" unicode="&#x133;" horiz-adv-x="1053" 
d="M144 0v1500h230v-1500h-230zM143 1638v206h231v-206h-231zM727 -205q-52 0 -89.5 4.5t-58.5 8.5v161q11 -1 24 -2t29 -1q32 0 43.5 20.5t11.5 48.5v1465h230v-1455q0 -89 -25.5 -144t-68.5 -80.5t-96 -25.5zM686 1638v206h231v-206h-231z" />
    <glyph glyph-name="Jcircumflex" unicode="&#x134;" horiz-adv-x="905" 
d="M427 -21q-169 0 -254.5 103t-85.5 307v265h226v-252q0 -61 6 -112t28.5 -81.5t73.5 -30.5q50 0 72.5 30t28.5 84t6 126v1342h233v-1332q0 -220 -85.5 -334.5t-248.5 -114.5zM346 1900l169 311h261l167 -311h-212l-86 218l-86 -218h-213z" />
    <glyph glyph-name="jcircumflex" unicode="&#x135;" horiz-adv-x="535" 
d="M209 -205q-52 0 -89.5 4.5t-58.5 8.5v161q11 -1 24 -2t29 -1q32 0 43.5 20.5t11.5 48.5v1465h230v-1455q0 -89 -25.5 -144t-68.5 -80.5t-96 -25.5zM-15 1640l169 311h261l167 -311h-212l-86 218l-86 -218h-213z" />
    <glyph glyph-name="uni0136" unicode="&#x136;" horiz-adv-x="939" 
d="M139 0v1760h232v-827l295 827h236l-313 -869l336 -891h-243l-309 834v-834h-234zM440 -659l52 295h-111v242h250v-233l-88 -304h-103z" />
    <glyph glyph-name="uni0137" unicode="&#x137;" horiz-adv-x="923" 
d="M143 0v1777h230v-977l279 700h233l-305 -740l322 -760h-236l-293 723v-723h-230zM395 -659l52 295h-111v242h250v-233l-88 -304h-103z" />
    <glyph glyph-name="kgreenlandic" unicode="&#x138;" horiz-adv-x="896" 
d="M141 0v1500h230v-700l279 700h232l-304 -740l321 -760h-235l-293 723v-723h-230z" />
    <glyph glyph-name="Lacute" unicode="&#x139;" horiz-adv-x="719" 
d="M139 0v1760h232v-1565h331v-195h-563zM141 1900l94 389h234l-198 -389h-130z" />
    <glyph glyph-name="lacute" unicode="&#x13a;" horiz-adv-x="515" 
d="M141 0v1777h229v-1777h-229zM125 1917l94 389h234l-198 -389h-130z" />
    <glyph glyph-name="uni013B" unicode="&#x13b;" horiz-adv-x="719" 
d="M139 0v1760h232v-1565h331v-195h-563zM339 -659l52 295h-111v242h250v-233l-88 -304h-103z" />
    <glyph glyph-name="uni013C" unicode="&#x13c;" horiz-adv-x="515" 
d="M141 0v1777h229v-1777h-229zM191 -659l52 295h-111v242h250v-233l-88 -304h-103z" />
    <glyph glyph-name="Lcaron" unicode="&#x13d;" horiz-adv-x="827" 
d="M139 0v1760h232v-1565h331v-195h-563zM641 1223l51 295h-111v242h251v-233l-88 -304h-103z" />
    <glyph glyph-name="lcaron" unicode="&#x13e;" horiz-adv-x="703" 
d="M141 0v1777h229v-1777h-229zM516 1241l51 295h-111v242h251v-233l-88 -304h-103z" />
    <glyph glyph-name="Ldot" unicode="&#x13f;" horiz-adv-x="779" 
d="M139 0v1760h232v-1565h331v-195h-563zM545 761v224h213v-224h-213z" />
    <glyph glyph-name="ldot" unicode="&#x140;" horiz-adv-x="674" 
d="M141 0v1777h229v-1777h-229zM487 718v224h213v-224h-213z" />
    <glyph glyph-name="Lslash" unicode="&#x141;" horiz-adv-x="767" 
d="M-1 751v165l580 226v-166zM139 0v1760h232v-1565h331v-195h-563z" />
    <glyph glyph-name="lslash" unicode="&#x142;" horiz-adv-x="661" 
d="M64 743v178l533 232v-178zM197 0v1777h230v-1777h-230z" />
    <glyph glyph-name="Nacute" unicode="&#x143;" horiz-adv-x="1037" 
d="M139 0v1760h179l393 -1139l-20 497v642h207v-1760h-168l-390 1160l13 -451v-709h-214zM385 1900l94 389h234l-198 -389h-130z" />
    <glyph glyph-name="nacute" unicode="&#x144;" horiz-adv-x="990" 
d="M138 0v1500h230v-164q20 72 85 127.5t157 55.5q120 0 183.5 -83t63.5 -246v-1190h-230v1182q0 74 -33 110.5t-87 36.5q-41 0 -73 -20t-49 -58.5t-17 -95.5v-1155h-230zM362 1640l94 389h234l-198 -389h-130z" />
    <glyph glyph-name="uni0145" unicode="&#x145;" horiz-adv-x="1037" 
d="M139 0v1760h179l393 -1139l-20 497v642h207v-1760h-168l-390 1160l13 -451v-709h-214zM452 -659l52 295h-111v242h250v-233l-88 -304h-103z" />
    <glyph glyph-name="uni0146" unicode="&#x146;" horiz-adv-x="990" 
d="M138 0v1500h230v-164q20 72 85 127.5t157 55.5q120 0 183.5 -83t63.5 -246v-1190h-230v1182q0 74 -33 110.5t-87 36.5q-41 0 -73 -20t-49 -58.5t-17 -95.5v-1155h-230zM429 -659l52 295h-111v242h250v-233l-88 -304h-103z" />
    <glyph glyph-name="Ncaron" unicode="&#x147;" horiz-adv-x="1037" 
d="M139 0v1760h179l393 -1139l-20 497v642h207v-1760h-168l-390 1160l13 -451v-709h-214zM388 1900l-169 312h213l86 -218l86 218h212l-167 -312h-261z" />
    <glyph glyph-name="ncaron" unicode="&#x148;" horiz-adv-x="990" 
d="M138 0v1500h230v-164q20 72 85 127.5t157 55.5q120 0 183.5 -83t63.5 -246v-1190h-230v1182q0 74 -33 110.5t-87 36.5q-41 0 -73 -20t-49 -58.5t-17 -95.5v-1155h-230zM365 1640l-169 312h213l86 -218l86 218h212l-167 -312h-261z" />
    <glyph glyph-name="Omacron" unicode="&#x14c;" horiz-adv-x="967" 
d="M486 -20q-134 0 -215 58t-117 173.5t-36 288.5v788q0 152 34.5 262.5t115.5 171t222 60.5q106 0 175.5 -34.5t109.5 -99t56.5 -155.5t16.5 -205v-788q0 -173 -34.5 -288.5t-114 -173.5t-213.5 -58zM486 181q54 0 82 31t38 101t10 185v802q0 140 -24 210.5t-102 70.5
q-81 0 -110 -69t-29 -211v-803q0 -116 10 -185.5t39.5 -100.5t85.5 -31zM217 1921v159h533v-159h-533z" />
    <glyph glyph-name="omacron" unicode="&#x14d;" horiz-adv-x="937" 
d="M470 -18q-107 0 -175.5 35t-107 101t-54 159.5t-15.5 210.5v543q0 141 31 251t108 173t213 63q103 0 171 -36t107 -101.5t55 -154.5t16 -195v-543q0 -115 -14 -208t-52 -160t-106 -102.5t-177 -35.5zM470 171q51 0 76 32.5t33.5 90.5t8.5 134v647q0 77 -9 134t-34.5 88.5
t-74.5 31.5q-51 0 -77 -31.5t-34.5 -88.5t-8.5 -134v-647q0 -76 8.5 -134t34.5 -90.5t77 -32.5zM202 1661v159h533v-159h-533z" />
    <glyph glyph-name="Obreve" unicode="&#x14e;" horiz-adv-x="967" 
d="M486 -20q-134 0 -215 58t-117 173.5t-36 288.5v788q0 152 34.5 262.5t115.5 171t222 60.5q106 0 175.5 -34.5t109.5 -99t56.5 -155.5t16.5 -205v-788q0 -173 -34.5 -288.5t-114 -173.5t-213.5 -58zM486 181q54 0 82 31t38 101t10 185v802q0 140 -24 210.5t-102 70.5
q-81 0 -110 -69t-29 -211v-803q0 -116 10 -185.5t39.5 -100.5t85.5 -31zM483 1900q-125 0 -189.5 61.5t-64.5 178.5v15h124q0 -78 40 -102t91 -24t90 23t39 103h125v-13q0 -117 -62.5 -179.5t-192.5 -62.5z" />
    <glyph glyph-name="obreve" unicode="&#x14f;" horiz-adv-x="937" 
d="M470 -18q-107 0 -175.5 35t-107 101t-54 159.5t-15.5 210.5v543q0 141 31 251t108 173t213 63q103 0 171 -36t107 -101.5t55 -154.5t16 -195v-543q0 -115 -14 -208t-52 -160t-106 -102.5t-177 -35.5zM470 171q51 0 76 32.5t33.5 90.5t8.5 134v647q0 77 -9 134t-34.5 88.5
t-74.5 31.5q-51 0 -77 -31.5t-34.5 -88.5t-8.5 -134v-647q0 -76 8.5 -134t34.5 -90.5t77 -32.5zM468 1640q-125 0 -189.5 61.5t-64.5 178.5v15h124q0 -78 40 -102t91 -24t90 23t39 103h125v-13q0 -117 -62.5 -179.5t-192.5 -62.5z" />
    <glyph glyph-name="Ohungarumlaut" unicode="&#x150;" horiz-adv-x="967" 
d="M486 -20q-134 0 -215 58t-117 173.5t-36 288.5v788q0 152 34.5 262.5t115.5 171t222 60.5q106 0 175.5 -34.5t109.5 -99t56.5 -155.5t16.5 -205v-788q0 -173 -34.5 -288.5t-114 -173.5t-213.5 -58zM486 181q54 0 82 31t38 101t10 185v802q0 140 -24 210.5t-102 70.5
q-81 0 -110 -69t-29 -211v-803q0 -116 10 -185.5t39.5 -100.5t85.5 -31zM602 1900l-106 51l201 391l168 -88zM297 1900l-106 51l164 391l170 -89z" />
    <glyph glyph-name="ohungarumlaut" unicode="&#x151;" horiz-adv-x="937" 
d="M470 -18q-107 0 -175.5 35t-107 101t-54 159.5t-15.5 210.5v543q0 141 31 251t108 173t213 63q103 0 171 -36t107 -101.5t55 -154.5t16 -195v-543q0 -115 -14 -208t-52 -160t-106 -102.5t-177 -35.5zM470 171q51 0 76 32.5t33.5 90.5t8.5 134v647q0 77 -9 134t-34.5 88.5
t-74.5 31.5q-51 0 -77 -31.5t-34.5 -88.5t-8.5 -134v-647q0 -76 8.5 -134t34.5 -90.5t77 -32.5zM587 1640l-106 51l201 391l168 -88zM282 1640l-106 51l164 391l170 -89z" />
    <glyph glyph-name="OE" unicode="&#x152;" horiz-adv-x="1223" 
d="M483 0q-134 0 -214 53t-115.5 164.5t-35.5 284.5v785q0 152 33.5 257.5t114 160.5t221.5 55h637v-197h-284v-564h268v-198h-268v-604h292v-197h-649zM483 201h126v1356h-122q-81 0 -108.5 -59t-27.5 -200v-799q0 -116 9.5 -180.5t37.5 -90.5t85 -27z" />
    <glyph glyph-name="oe" unicode="&#x153;" horiz-adv-x="1397" 
d="M475 -18q-107 0 -176.5 35t-109 102t-55.5 160t-16 210v542q0 106 17.5 195t58 154.5t109.5 101.5t172 36q79 0 137 -30t99 -82q41 52 100 82t140 30q104 0 169.5 -34.5t101.5 -98t50 -152t14 -196.5v-303h-461v-293q0 -128 18.5 -199t101.5 -71q54 0 77.5 38t28.5 103
t5 144v109h228v-64q0 -119 -12 -214.5t-47 -163.5t-103 -104.5t-180 -36.5q-81 0 -137.5 29.5t-95.5 79.5q-40 -49 -98 -79t-136 -30zM475 171q49 0 75 32.5t35 90.5t9 134v647q0 77 -9.5 134t-35.5 88.5t-74 31.5q-52 0 -78.5 -31.5t-36 -88.5t-9.5 -134v-647q0 -76 9 -134
t36 -90.5t79 -32.5zM826 896h230v180q0 83 -6 140.5t-28.5 86.5t-71.5 29q-56 0 -82.5 -35.5t-34 -97.5t-7.5 -139v-164z" />
    <glyph glyph-name="Racute" unicode="&#x154;" horiz-adv-x="961" 
d="M139 0v1760h400q139 0 206.5 -51.5t88.5 -153t21 -251.5q0 -160 -32.5 -252.5t-128.5 -121.5q47 -8 78.5 -39.5t50 -96t26.5 -170t8 -262.5v-52t0.5 -86t2 -95.5t4 -82.5t6.5 -46h-232q-3 7 -5.5 44.5t-4.5 97.5t-2.5 135.5t-0.5 160v171.5q0 91 -10 138.5t-41 66
t-95 22.5l-108 6v-842h-232zM372 1017h121q54 0 82.5 22.5t39 86.5t10.5 189v11q0 105 -10 159t-39.5 73.5t-89.5 19.5h-114v-561zM348 1900l94 389h234l-198 -389h-130z" />
    <glyph glyph-name="racute" unicode="&#x155;" horiz-adv-x="665" 
d="M141 0v1500h231v-167q26 87 90.5 136t164.5 49q2 0 2.5 -29.5t0.5 -67.5v-68v-30q-47 0 -97.5 -11t-93 -36.5t-67.5 -68.5v-1207h-231zM231 1640l94 389h234l-198 -389h-130z" />
    <glyph glyph-name="uni0156" unicode="&#x156;" horiz-adv-x="961" 
d="M139 0v1760h400q139 0 206.5 -51.5t88.5 -153t21 -251.5q0 -160 -32.5 -252.5t-128.5 -121.5q47 -8 78.5 -39.5t50 -96t26.5 -170t8 -262.5v-52t0.5 -86t2 -95.5t4 -82.5t6.5 -46h-232q-3 7 -5.5 44.5t-4.5 97.5t-2.5 135.5t-0.5 160v171.5q0 91 -10 138.5t-41 66
t-95 22.5l-108 6v-842h-232zM372 1017h121q54 0 82.5 22.5t39 86.5t10.5 189v11q0 105 -10 159t-39.5 73.5t-89.5 19.5h-114v-561zM415 -659l52 295h-111v242h250v-233l-88 -304h-103z" />
    <glyph glyph-name="uni0157" unicode="&#x157;" horiz-adv-x="665" 
d="M141 0v1500h231v-167q26 87 90.5 136t164.5 49q2 0 2.5 -29.5t0.5 -67.5v-68v-30q-47 0 -97.5 -11t-93 -36.5t-67.5 -68.5v-1207h-231zM201 -659l52 295h-111v242h250v-233l-88 -304h-103z" />
    <glyph glyph-name="Rcaron" unicode="&#x158;" horiz-adv-x="961" 
d="M139 0v1760h400q139 0 206.5 -51.5t88.5 -153t21 -251.5q0 -160 -32.5 -252.5t-128.5 -121.5q47 -8 78.5 -39.5t50 -96t26.5 -170t8 -262.5v-52t0.5 -86t2 -95.5t4 -82.5t6.5 -46h-232q-3 7 -5.5 44.5t-4.5 97.5t-2.5 135.5t-0.5 160v171.5q0 91 -10 138.5t-41 66
t-95 22.5l-108 6v-842h-232zM372 1017h121q54 0 82.5 22.5t39 86.5t10.5 189v11q0 105 -10 159t-39.5 73.5t-89.5 19.5h-114v-561zM351 1900l-169 312h213l86 -218l86 218h212l-167 -312h-261z" />
    <glyph glyph-name="rcaron" unicode="&#x159;" horiz-adv-x="665" 
d="M141 0v1500h231v-167q26 87 90.5 136t164.5 49q2 0 2.5 -29.5t0.5 -67.5v-68v-30q-47 0 -97.5 -11t-93 -36.5t-67.5 -68.5v-1207h-231zM234 1640l-169 312h213l86 -218l86 218h212l-167 -312h-261z" />
    <glyph glyph-name="Sacute" unicode="&#x15a;" horiz-adv-x="848" 
d="M438 -20q-108 0 -177.5 37t-108.5 106t-54 165t-15 215v165h223v-178q0 -167 25.5 -239t106.5 -72q55 0 82 26t35 83t8 151q0 110 -41.5 193.5t-121.5 166.5l-122 122q-51 54 -97.5 115.5t-75.5 138.5t-29 175q0 135 31 232t107.5 148.5t214.5 51.5q107 0 173 -35.5
t101 -101.5t48 -158t13 -206v-106h-218v121q0 96 -8.5 159.5t-33.5 95.5t-75 32q-47 0 -76 -22t-42 -67.5t-13 -117.5q0 -64 15.5 -107t48 -81.5t79.5 -88.5l130 -139q99 -105 158.5 -227t59.5 -278q0 -151 -31 -257t-107 -162t-213 -56zM291 1900l94 389h234l-198 -389
h-130z" />
    <glyph glyph-name="sacute" unicode="&#x15b;" horiz-adv-x="828" 
d="M433 -20q-169 0 -254 102t-85 335v106h220v-116q0 -114 26 -174t85 -60q58 0 86 38.5t28 135.5q0 52 -15.5 102t-47.5 99t-82 96l-119 110q-94 88 -142 188t-48 217q0 185 87.5 272t248.5 87q106 0 177.5 -43.5t107.5 -142.5t36 -268v-76h-212v102q0 114 -24 174.5
t-83 60.5q-58 0 -86 -33t-31 -119q-1 -44 11.5 -89t40.5 -88t72 -84l123 -113q108 -99 161.5 -210t53.5 -236q0 -178 -81.5 -275.5t-253.5 -97.5zM281 1640l94 389h234l-198 -389h-130z" />
    <glyph glyph-name="Scircumflex" unicode="&#x15c;" horiz-adv-x="848" 
d="M438 -20q-108 0 -177.5 37t-108.5 106t-54 165t-15 215v165h223v-178q0 -167 25.5 -239t106.5 -72q55 0 82 26t35 83t8 151q0 110 -41.5 193.5t-121.5 166.5l-122 122q-51 54 -97.5 115.5t-75.5 138.5t-29 175q0 135 31 232t107.5 148.5t214.5 51.5q107 0 173 -35.5
t101 -101.5t48 -158t13 -206v-106h-218v121q0 96 -8.5 159.5t-33.5 95.5t-75 32q-47 0 -76 -22t-42 -67.5t-13 -117.5q0 -64 15.5 -107t48 -81.5t79.5 -88.5l130 -139q99 -105 158.5 -227t59.5 -278q0 -151 -31 -257t-107 -162t-213 -56zM125 1900l169 311h261l167 -311
h-212l-86 218l-86 -218h-213z" />
    <glyph glyph-name="scircumflex" unicode="&#x15d;" horiz-adv-x="828" 
d="M433 -20q-169 0 -254 102t-85 335v106h220v-116q0 -114 26 -174t85 -60q58 0 86 38.5t28 135.5q0 52 -15.5 102t-47.5 99t-82 96l-119 110q-94 88 -142 188t-48 217q0 185 87.5 272t248.5 87q106 0 177.5 -43.5t107.5 -142.5t36 -268v-76h-212v102q0 114 -24 174.5
t-83 60.5q-58 0 -86 -33t-31 -119q-1 -44 11.5 -89t40.5 -88t72 -84l123 -113q108 -99 161.5 -210t53.5 -236q0 -178 -81.5 -275.5t-253.5 -97.5zM115 1640l169 311h261l167 -311h-212l-86 218l-86 -218h-213z" />
    <glyph glyph-name="Scedilla" unicode="&#x15e;" horiz-adv-x="848" 
d="M438 -20q-108 0 -177.5 37t-108.5 106t-54 165t-15 215v165h223v-178q0 -167 25.5 -239t106.5 -72q55 0 82 26t35 83t8 151q0 110 -41.5 193.5t-121.5 166.5l-122 122q-51 54 -97.5 115.5t-75.5 138.5t-29 175q0 135 31 232t107.5 148.5t214.5 51.5q107 0 173 -35.5
t101 -101.5t48 -158t13 -206v-106h-218v121q0 96 -8.5 159.5t-33.5 95.5t-75 32q-47 0 -76 -22t-42 -67.5t-13 -117.5q0 -64 15.5 -107t48 -81.5t79.5 -88.5l130 -139q99 -105 158.5 -227t59.5 -278q0 -151 -31 -257t-107 -162t-213 -56zM404 -626q-65 0 -130 22v103
q95 0 144.5 20t68 52.5t18.5 69.5q0 68 -49 109t-111 54l40 196h74l14 -143q107 -41 160 -107.5t53 -139.5q0 -61 -34 -115t-97 -87.5t-151 -33.5z" />
    <glyph glyph-name="scedilla" unicode="&#x15f;" horiz-adv-x="828" 
d="M433 -20q-169 0 -254 102t-85 335v106h220v-116q0 -114 26 -174t85 -60q58 0 86 38.5t28 135.5q0 52 -15.5 102t-47.5 99t-82 96l-119 110q-94 88 -142 188t-48 217q0 185 87.5 272t248.5 87q106 0 177.5 -43.5t107.5 -142.5t36 -268v-76h-212v102q0 114 -24 174.5
t-83 60.5q-58 0 -86 -33t-31 -119q-1 -44 11.5 -89t40.5 -88t72 -84l123 -113q108 -99 161.5 -210t53.5 -236q0 -178 -81.5 -275.5t-253.5 -97.5zM394 -626q-65 0 -130 22v103q95 0 144.5 20t68 52.5t18.5 69.5q0 68 -49 109t-111 54l40 196h74l14 -143q107 -41 160 -107.5
t53 -139.5q0 -61 -34 -115t-97 -87.5t-151 -33.5z" />
    <glyph glyph-name="Scaron" unicode="&#x160;" horiz-adv-x="848" 
d="M438 -20q-108 0 -177.5 37t-108.5 106t-54 165t-15 215v165h223v-178q0 -167 25.5 -239t106.5 -72q55 0 82 26t35 83t8 151q0 110 -41.5 193.5t-121.5 166.5l-122 122q-51 54 -97.5 115.5t-75.5 138.5t-29 175q0 135 31 232t107.5 148.5t214.5 51.5q107 0 173 -35.5
t101 -101.5t48 -158t13 -206v-106h-218v121q0 96 -8.5 159.5t-33.5 95.5t-75 32q-47 0 -76 -22t-42 -67.5t-13 -117.5q0 -64 15.5 -107t48 -81.5t79.5 -88.5l130 -139q99 -105 158.5 -227t59.5 -278q0 -151 -31 -257t-107 -162t-213 -56zM294 1900l-169 312h213l86 -218
l86 218h212l-167 -312h-261z" />
    <glyph glyph-name="scaron" unicode="&#x161;" horiz-adv-x="828" 
d="M433 -20q-169 0 -254 102t-85 335v106h220v-116q0 -114 26 -174t85 -60q58 0 86 38.5t28 135.5q0 52 -15.5 102t-47.5 99t-82 96l-119 110q-94 88 -142 188t-48 217q0 185 87.5 272t248.5 87q106 0 177.5 -43.5t107.5 -142.5t36 -268v-76h-212v102q0 114 -24 174.5
t-83 60.5q-58 0 -86 -33t-31 -119q-1 -44 11.5 -89t40.5 -88t72 -84l123 -113q108 -99 161.5 -210t53.5 -236q0 -178 -81.5 -275.5t-253.5 -97.5zM284 1640l-169 312h213l86 -218l86 218h212l-167 -312h-261z" />
    <glyph glyph-name="Tcaron" unicode="&#x164;" horiz-adv-x="662" 
d="M221 0v1563h-200v197h619v-197h-188v-1563h-231zM201 1900l-169 312h213l86 -218l86 218h212l-167 -312h-261z" />
    <glyph glyph-name="tcaron" unicode="&#x165;" horiz-adv-x="872" 
d="M405 -9q-96 0 -145.5 23.5t-67.5 75.5t-18 136v1085h-131v169h131v280h230v-280h156v-169h-156v-1056q0 -37 10.5 -55t44.5 -24t104 -6v-179h-158zM686 1246l51 295h-111v242h251v-233l-88 -304h-103z" />
    <glyph glyph-name="Utilde" unicode="&#x168;" horiz-adv-x="979" 
d="M491 -21q-133 0 -213.5 51.5t-116.5 156.5t-36 265v1308h233v-1303q0 -86 6.5 -149t34.5 -97t92 -34t91.5 33.5t33.5 96.5t6 149v1304h232v-1308q0 -160 -35 -265t-114.5 -156.5t-213.5 -51.5zM639 1900q-44 0 -93 20.5t-96.5 41t-89.5 20.5q-16 0 -23 -2
q-16 -4 -26.5 -18.5t-24.5 -40.5l-119 50q20 68 47.5 104t62.5 50t75 14q41 0 94 -18.5t100.5 -37t72.5 -18.5h4q14 2 27 14t29 57l131 -28l-9 -41q-24 -102 -62.5 -134.5t-99.5 -32.5z" />
    <glyph glyph-name="utilde" unicode="&#x169;" horiz-adv-x="982" 
d="M387 -20q-76 0 -134 36t-90.5 112t-32.5 196v1176h230v-1146q0 -86 27 -132.5t94 -46.5q72 0 103.5 53t31.5 128v1144h230v-1500h-230v154q-25 -72 -80 -123t-149 -51zM641 1640q-44 0 -93 20.5t-96.5 41t-89.5 20.5q-16 0 -23 -2q-16 -4 -26.5 -18.5t-24.5 -40.5
l-119 50q20 68 47.5 104t62.5 50t75 14q41 0 94 -18.5t100.5 -37t72.5 -18.5h4q14 2 27 14t29 57l131 -28l-9 -41q-24 -102 -62.5 -134.5t-99.5 -32.5z" />
    <glyph glyph-name="Umacron" unicode="&#x16a;" horiz-adv-x="979" 
d="M491 -21q-133 0 -213.5 51.5t-116.5 156.5t-36 265v1308h233v-1303q0 -86 6.5 -149t34.5 -97t92 -34t91.5 33.5t33.5 96.5t6 149v1304h232v-1308q0 -160 -35 -265t-114.5 -156.5t-213.5 -51.5zM223 1921v159h533v-159h-533z" />
    <glyph glyph-name="umacron" unicode="&#x16b;" horiz-adv-x="982" 
d="M387 -20q-76 0 -134 36t-90.5 112t-32.5 196v1176h230v-1146q0 -86 27 -132.5t94 -46.5q72 0 103.5 53t31.5 128v1144h230v-1500h-230v154q-25 -72 -80 -123t-149 -51zM225 1661v159h533v-159h-533z" />
    <glyph glyph-name="Ubreve" unicode="&#x16c;" horiz-adv-x="979" 
d="M491 -21q-133 0 -213.5 51.5t-116.5 156.5t-36 265v1308h233v-1303q0 -86 6.5 -149t34.5 -97t92 -34t91.5 33.5t33.5 96.5t6 149v1304h232v-1308q0 -160 -35 -265t-114.5 -156.5t-213.5 -51.5zM489 1900q-125 0 -189.5 61.5t-64.5 178.5v15h124q0 -78 40 -102t91 -24
t90 23t39 103h125v-13q0 -117 -62.5 -179.5t-192.5 -62.5z" />
    <glyph glyph-name="ubreve" unicode="&#x16d;" horiz-adv-x="982" 
d="M387 -20q-76 0 -134 36t-90.5 112t-32.5 196v1176h230v-1146q0 -86 27 -132.5t94 -46.5q72 0 103.5 53t31.5 128v1144h230v-1500h-230v154q-25 -72 -80 -123t-149 -51zM490 1640q-125 0 -189.5 61.5t-64.5 178.5v15h124q0 -78 40 -102t91 -24t90 23t39 103h125v-13
q0 -117 -62.5 -179.5t-192.5 -62.5z" />
    <glyph glyph-name="Uring" unicode="&#x16e;" horiz-adv-x="979" 
d="M491 -21q-133 0 -213.5 51.5t-116.5 156.5t-36 265v1308h233v-1303q0 -86 6.5 -149t34.5 -97t92 -34t91.5 33.5t33.5 96.5t6 149v1304h232v-1308q0 -160 -35 -265t-114.5 -156.5t-213.5 -51.5zM490 1900q-102 0 -158 59.5t-56 143.5q0 83 56 142.5t158 59.5
q103 0 158.5 -59.5t55.5 -142.5t-55.5 -143t-158.5 -60zM490 1981q57 0 85.5 38.5t28.5 83.5q0 47 -28.5 84.5t-85.5 37.5q-55 0 -83.5 -37.5t-28.5 -84.5q0 -45 28.5 -83.5t83.5 -38.5z" />
    <glyph glyph-name="uring" unicode="&#x16f;" horiz-adv-x="982" 
d="M387 -20q-76 0 -134 36t-90.5 112t-32.5 196v1176h230v-1146q0 -86 27 -132.5t94 -46.5q72 0 103.5 53t31.5 128v1144h230v-1500h-230v154q-25 -72 -80 -123t-149 -51zM491 1640q-102 0 -158 59.5t-56 143.5q0 83 56 142.5t158 59.5q103 0 158.5 -59.5t55.5 -142.5
t-55.5 -143t-158.5 -60zM491 1721q57 0 85.5 38.5t28.5 83.5q0 47 -28.5 84.5t-85.5 37.5q-55 0 -83.5 -37.5t-28.5 -84.5q0 -45 28.5 -83.5t83.5 -38.5z" />
    <glyph glyph-name="Uhungarumlaut" unicode="&#x170;" horiz-adv-x="979" 
d="M491 -21q-133 0 -213.5 51.5t-116.5 156.5t-36 265v1308h233v-1303q0 -86 6.5 -149t34.5 -97t92 -34t91.5 33.5t33.5 96.5t6 149v1304h232v-1308q0 -160 -35 -265t-114.5 -156.5t-213.5 -51.5zM608 1900l-106 51l201 391l168 -88zM303 1900l-106 51l164 391l170 -89z" />
    <glyph glyph-name="uhungarumlaut" unicode="&#x171;" horiz-adv-x="982" 
d="M387 -20q-76 0 -134 36t-90.5 112t-32.5 196v1176h230v-1146q0 -86 27 -132.5t94 -46.5q72 0 103.5 53t31.5 128v1144h230v-1500h-230v154q-25 -72 -80 -123t-149 -51zM609 1640l-106 51l201 391l168 -88zM304 1640l-106 51l164 391l170 -89z" />
    <glyph glyph-name="Uogonek" unicode="&#x172;" horiz-adv-x="979" 
d="M491 -21q-133 0 -213.5 51.5t-116.5 156.5t-36 265v1308h233v-1303q0 -86 6.5 -149t34.5 -97t92 -34t91.5 33.5t33.5 96.5t6 149v1304h232v-1308q0 -160 -35 -265t-114.5 -156.5t-213.5 -51.5zM523 -626q-92 0 -153 30t-92 83.5t-31 122.5q0 99 68.5 207t201.5 183h94
q-83 -84 -137 -179t-54 -175q0 -63 39.5 -96.5t110.5 -33.5q46 0 81 8t41 10v-125q-17 -10 -67.5 -22.5t-101.5 -12.5z" />
    <glyph glyph-name="uogonek" unicode="&#x173;" horiz-adv-x="982" 
d="M387 -20q-76 0 -134 36t-90.5 112t-32.5 196v1176h230v-1146q0 -86 27 -132.5t94 -46.5q72 0 103.5 53t31.5 128v1144h230v-1500h-230v154q-25 -72 -80 -123t-149 -51zM709 -626q-92 0 -153 30t-92 83.5t-31 122.5q0 99 68.5 207t201.5 183h94q-83 -84 -137 -179
t-54 -175q0 -63 39.5 -96.5t110.5 -33.5q46 0 81 8t41 10v-125q-17 -10 -67.5 -22.5t-101.5 -12.5z" />
    <glyph glyph-name="Wcircumflex" unicode="&#x174;" horiz-adv-x="1348" 
d="M276 0l-225 1760h211l141 -1309l185 1309h189l188 -1309l122 1309h211l-205 -1760h-231l-175 1245l-183 -1245h-228zM375 1900l169 311h261l167 -311h-212l-86 218l-86 -218h-213z" />
    <glyph glyph-name="wcircumflex" unicode="&#x175;" horiz-adv-x="1204" 
d="M238 0l-186 1500h194l78 -751l27 -301h8l36 302l106 750h63h97h43l110 -732l42 -320h7l26 320l73 732h191l-185 -1500h-207l-151 1154l-173 -1154h-199zM303 1640l169 311h261l167 -311h-212l-86 218l-86 -218h-213z" />
    <glyph glyph-name="Ycircumflex" unicode="&#x176;" horiz-adv-x="848" 
d="M317 0v724l-301 1036h226l192 -691h4l167 691h227l-282 -1036v-724h-233zM125 1900l169 311h261l167 -311h-212l-86 218l-86 -218h-213z" />
    <glyph glyph-name="ycircumflex" unicode="&#x177;" horiz-adv-x="816" 
d="M98 -257v167h77q44 0 75.5 5.5t37.5 25.5q10 14 7.5 48t-7.5 70l-243 1441h221l103 -775l43 -405h19l38 405l94 775h220l-253 -1544q-12 -76 -30.5 -123.5t-57 -68.5t-109.5 -21h-235zM109 1640l169 311h261l167 -311h-212l-86 218l-86 -218h-213z" />
    <glyph glyph-name="Ydieresis" unicode="&#x178;" horiz-adv-x="848" 
d="M317 0v724l-301 1036h226l192 -691h4l167 691h227l-282 -1036v-724h-233zM541 1900v198h252v-198h-252zM57 1900v198h252v-198h-252z" />
    <glyph glyph-name="Zacute" unicode="&#x179;" horiz-adv-x="714" 
d="M66 0v204l364 1359h-331v197h573v-183l-364 -1380h356v-197h-598zM224 1900l94 389h234l-198 -389h-130z" />
    <glyph glyph-name="zacute" unicode="&#x17a;" horiz-adv-x="698" 
d="M72 0v173l330 1129h-305v198h541v-162l-330 -1143h314v-195h-550zM216 1640l94 389h234l-198 -389h-130z" />
    <glyph glyph-name="Zdotaccent" unicode="&#x17b;" horiz-adv-x="714" 
d="M66 0v204l364 1359h-331v197h573v-183l-364 -1380h356v-197h-598zM241 1898v206h231v-206h-231z" />
    <glyph glyph-name="zdotaccent" unicode="&#x17c;" horiz-adv-x="698" 
d="M72 0v173l330 1129h-305v198h541v-162l-330 -1143h314v-195h-550zM233 1638v206h231v-206h-231z" />
    <glyph glyph-name="Zcaron" unicode="&#x17d;" horiz-adv-x="714" 
d="M66 0v204l364 1359h-331v197h573v-183l-364 -1380h356v-197h-598zM227 1900l-169 312h213l86 -218l86 218h212l-167 -312h-261z" />
    <glyph glyph-name="zcaron" unicode="&#x17e;" horiz-adv-x="698" 
d="M72 0v173l330 1129h-305v198h541v-162l-330 -1143h314v-195h-550zM219 1640l-169 312h213l86 -218l86 218h212l-167 -312h-261z" />
    <glyph glyph-name="florin" unicode="&#x192;" horiz-adv-x="767" 
d="M278 -16q-41 0 -81.5 6t-81.5 18v161q15 -1 27.5 -2t22.5 -1q49 0 71.5 12.5t29.5 43t7 83.5v778h-166v173h166v283q0 123 50.5 184t153.5 61q89 0 175 -32v-161q-27 8 -48.5 12t-37.5 4q-43 0 -58 -27.5t-15 -84.5v-239h166v-173h-166v-862q0 -117 -52 -177t-163 -60z
" />
    <glyph glyph-name="uni01C4" unicode="&#x1c4;" horiz-adv-x="1691" 
d="M139 0v1760h358q136 0 214.5 -56t112 -160.5t33.5 -250.5l1 -782q0 -176 -36.5 -289t-117.5 -167.5t-215 -54.5h-350zM371 184h98q53 0 87.5 22.5t52 81.5t17.5 170l-1 835q0 153 -36.5 219t-122.5 66h-95v-1394zM1043 0v204l364 1359h-331v197h573v-183l-364 -1380h356
v-197h-598zM1203 1900l-169 312h213l86 -218l86 218h212l-167 -312h-261z" />
    <glyph glyph-name="uni01C5" unicode="&#x1c5;" horiz-adv-x="1674" 
d="M139 0v1760h358q136 0 214.5 -56t112 -160.5t33.5 -250.5l1 -782q0 -176 -36.5 -289t-117.5 -167.5t-215 -54.5h-350zM371 184h98q53 0 87.5 22.5t52 81.5t17.5 170l-1 835q0 153 -36.5 219t-122.5 66h-95v-1394zM1049 0v173l330 1129h-305v198h541v-162l-330 -1143h314
v-195h-550zM1195 1640l-169 312h213l86 -218l86 218h212l-167 -312h-261z" />
    <glyph glyph-name="uni01C6" unicode="&#x1c6;" horiz-adv-x="1661" 
d="M382 -14q-116 0 -172 65.5t-74 177t-18 251.5v585q0 129 26.5 231t90 162t174.5 60q61 0 109.5 -32.5t73.5 -82.5v374h231v-1777h-231v131q-30 -74 -84.5 -109.5t-125.5 -35.5zM464 172q48 0 76 25.5t40.5 87.5t12.5 169v601q0 131 -23 202t-101 71q-72 -1 -95.5 -69.5
t-23.5 -207.5v-610q0 -83 8.5 -143.5t33.5 -93t72 -32.5zM1036 0v173l330 1129h-305v198h541v-162l-330 -1143h314v-195h-550zM1183 1640l-169 312h213l86 -218l86 218h212l-167 -312h-261z" />
    <glyph glyph-name="uni01C7" unicode="&#x1c7;" horiz-adv-x="1624" 
d="M139 0v1760h232v-1565h331v-195h-563zM1146 -21q-169 0 -254.5 103t-85.5 307v265h226v-252q0 -61 6 -112t28.5 -81.5t73.5 -30.5q50 0 72.5 30t28.5 84t6 126v1342h233v-1332q0 -220 -85.5 -334.5t-248.5 -114.5z" />
    <glyph glyph-name="uni01C8" unicode="&#x1c8;" horiz-adv-x="1254" 
d="M139 0v1760h232v-1565h331v-195h-563zM928 -205q-52 0 -89.5 4.5t-58.5 8.5v161q11 -1 24 -2t29 -1q32 0 43.5 20.5t11.5 48.5v1465h230v-1455q0 -89 -25.5 -144t-68.5 -80.5t-96 -25.5zM887 1638v206h231v-206h-231z" />
    <glyph glyph-name="uni01C9" unicode="&#x1c9;" horiz-adv-x="1050" 
d="M141 0v1777h229v-1777h-229zM724 -205q-52 0 -89.5 4.5t-58.5 8.5v161q11 -1 24 -2t29 -1q32 0 43.5 20.5t11.5 48.5v1465h230v-1455q0 -89 -25.5 -144t-68.5 -80.5t-96 -25.5zM683 1638v206h231v-206h-231z" />
    <glyph glyph-name="uni01CA" unicode="&#x1ca;" horiz-adv-x="1942" 
d="M139 0v1760h179l393 -1139l-20 497v642h207v-1760h-168l-390 1160l13 -451v-709h-214zM1464 -21q-169 0 -254.5 103t-85.5 307v265h226v-252q0 -61 6 -112t28.5 -81.5t73.5 -30.5q50 0 72.5 30t28.5 84t6 126v1342h233v-1332q0 -220 -85.5 -334.5t-248.5 -114.5z" />
    <glyph glyph-name="uni01CB" unicode="&#x1cb;" horiz-adv-x="1572" 
d="M139 0v1760h179l393 -1139l-20 497v642h207v-1760h-168l-390 1160l13 -451v-709h-214zM1246 -205q-52 0 -89.5 4.5t-58.5 8.5v161q11 -1 24 -2t29 -1q32 0 43.5 20.5t11.5 48.5v1465h230v-1455q0 -89 -25.5 -144t-68.5 -80.5t-96 -25.5zM1205 1638v206h231v-206h-231z
" />
    <glyph glyph-name="uni01CC" unicode="&#x1cc;" horiz-adv-x="1525" 
d="M138 0v1500h230v-164q20 72 85 127.5t157 55.5q120 0 183.5 -83t63.5 -246v-1190h-230v1182q0 74 -33 110.5t-87 36.5q-41 0 -73 -20t-49 -58.5t-17 -95.5v-1155h-230zM1199 -205q-52 0 -89.5 4.5t-58.5 8.5v161q11 -1 24 -2t29 -1q32 0 43.5 20.5t11.5 48.5v1465h230
v-1455q0 -89 -25.5 -144t-68.5 -80.5t-96 -25.5zM1158 1638v206h231v-206h-231z" />
    <glyph glyph-name="uni01F1" unicode="&#x1f1;" horiz-adv-x="1691" 
d="M139 0v1760h358q136 0 214.5 -56t112 -160.5t33.5 -250.5l1 -782q0 -176 -36.5 -289t-117.5 -167.5t-215 -54.5h-350zM371 184h98q53 0 87.5 22.5t52 81.5t17.5 170l-1 835q0 153 -36.5 219t-122.5 66h-95v-1394zM1043 0v204l364 1359h-331v197h573v-183l-364 -1380h356
v-197h-598z" />
    <glyph glyph-name="uni01F2" unicode="&#x1f2;" horiz-adv-x="1674" 
d="M139 0v1760h358q136 0 214.5 -56t112 -160.5t33.5 -250.5l1 -782q0 -176 -36.5 -289t-117.5 -167.5t-215 -54.5h-350zM371 184h98q53 0 87.5 22.5t52 81.5t17.5 170l-1 835q0 153 -36.5 219t-122.5 66h-95v-1394zM1049 0v173l330 1129h-305v198h541v-162l-330 -1143h314
v-195h-550z" />
    <glyph glyph-name="uni01F3" unicode="&#x1f3;" horiz-adv-x="1661" 
d="M382 -14q-116 0 -172 65.5t-74 177t-18 251.5v585q0 129 26.5 231t90 162t174.5 60q61 0 109.5 -32.5t73.5 -82.5v374h231v-1777h-231v131q-30 -74 -84.5 -109.5t-125.5 -35.5zM464 172q48 0 76 25.5t40.5 87.5t12.5 169v601q0 131 -23 202t-101 71q-72 -1 -95.5 -69.5
t-23.5 -207.5v-610q0 -83 8.5 -143.5t33.5 -93t72 -32.5zM1036 0v173l330 1129h-305v198h541v-162l-330 -1143h314v-195h-550z" />
    <glyph glyph-name="uni01F4" unicode="&#x1f4;" horiz-adv-x="964" 
d="M450 -17q-155 0 -243.5 125.5t-88.5 411.5v750q0 116 19 210t62 161t115.5 102.5t178.5 35.5q113 0 181.5 -36t105 -103.5t49 -163t12.5 -213.5v-131h-221v210q0 124 -25 180.5t-100 56.5q-81 0 -112.5 -66.5t-31.5 -236.5v-750q0 -187 26.5 -267.5t111.5 -80.5
q82 0 113 81.5t31 272.5v233h-140v174h348v-939h-114l-33 151q-26 -81 -91 -124.5t-153 -43.5zM349 1900l94 389h234l-198 -389h-130z" />
    <glyph glyph-name="uni01F5" unicode="&#x1f5;" horiz-adv-x="954" 
d="M456 -227q-112 -3 -196.5 23t-148.5 77l82 152q48 -32 109 -54.5t137 -20.5q73 1 112 52.5t39 136.5v133q-28 -74 -80 -100.5t-121 -26.5q-106 0 -164.5 59t-82 161.5t-23.5 231.5v452q0 135 26 241t88.5 168t170.5 60q69 -1 117.5 -35t68.5 -103v120h230v-1341
q0 -75 -17.5 -143t-58.5 -122t-111.5 -86.5t-176.5 -34.5zM479 324q38 0 62.5 23t36.5 83t12 171v475q0 121 -24 187t-96 66q-53 0 -79 -32.5t-33.5 -88.5t-7.5 -130v-479q0 -133 24.5 -204t104.5 -71zM344 1640l94 389h234l-198 -389h-130z" />
    <glyph glyph-name="uni0200" unicode="&#x200;" horiz-adv-x="915" 
d="M41 0l260 1760h293l281 -1760h-218l-47 327h-304l-43 -327h-222zM330 514h253l-130 911h-3zM309 1900l-263 354l168 88l201 -391zM614 1900l-227 353l170 89l163 -391z" />
    <glyph glyph-name="uni0201" unicode="&#x201;" horiz-adv-x="930" 
d="M373 -14q-144 0 -204 108.5t-61 294.5v125q0 108 34 177.5t97 114.5t149 80.5t190 75.5v122q0 88 -6 141.5t-29 78.5t-73 25q-49 0 -73.5 -25.5t-32.5 -79t-8 -137.5v-59h-229v44q0 99 14.5 181t52 141t106 91.5t176.5 32.5q100 0 165 -30.5t102.5 -90t53 -147.5
t15.5 -204v-1046h-232v138q-10 -35 -37 -70.5t-70 -58.5t-100 -23zM445 168q52 0 87.5 35t45.5 71v548q-70 -32 -116 -57.5t-72.5 -54.5t-37.5 -69.5t-11 -100.5v-152q0 -116 22 -168t82 -52zM326 1640l-263 354l168 88l201 -391zM631 1640l-227 353l170 89l163 -391z" />
    <glyph glyph-name="uni0202" unicode="&#x202;" horiz-adv-x="915" 
d="M41 0l260 1760h293l281 -1760h-218l-47 327h-304l-43 -327h-222zM330 514h253l-130 911h-3zM194 1912v13q-1 117 60.5 180.5t191.5 64.5q126 2 191.5 -58.5t66.5 -177.5v-15l-125 -2q-1 79 -40.5 101.5t-92.5 21.5q-50 -1 -89 -24t-38 -103z" />
    <glyph glyph-name="uni0203" unicode="&#x203;" horiz-adv-x="930" 
d="M373 -14q-144 0 -204 108.5t-61 294.5v125q0 108 34 177.5t97 114.5t149 80.5t190 75.5v122q0 88 -6 141.5t-29 78.5t-73 25q-49 0 -73.5 -25.5t-32.5 -79t-8 -137.5v-59h-229v44q0 99 14.5 181t52 141t106 91.5t176.5 32.5q100 0 165 -30.5t102.5 -90t53 -147.5
t15.5 -204v-1046h-232v138q-10 -35 -37 -70.5t-70 -58.5t-100 -23zM445 168q52 0 87.5 35t45.5 71v548q-70 -32 -116 -57.5t-72.5 -54.5t-37.5 -69.5t-11 -100.5v-152q0 -116 22 -168t82 -52zM211 1652v13q-1 117 60.5 180.5t191.5 64.5q126 2 191.5 -58.5t66.5 -177.5v-15
l-125 -2q-1 79 -40.5 101.5t-92.5 21.5q-50 -1 -89 -24t-38 -103z" />
    <glyph glyph-name="uni0204" unicode="&#x204;" horiz-adv-x="774" 
d="M139 0v1760h553v-197h-321v-564h304v-195h-304v-607h328v-197h-560zM272 1900l-263 354l168 88l201 -391zM577 1900l-227 353l170 89l163 -391z" />
    <glyph glyph-name="uni0205" unicode="&#x205;" horiz-adv-x="908" 
d="M465 -18q-110 0 -178.5 37t-105 105.5t-50 164.5t-13.5 213v543q0 105 18 192t58.5 150t109.5 97t171 34q104 0 170 -34.5t101.5 -98t49.5 -152t14 -196.5v-299h-460v-297q0 -128 18.5 -199t100.5 -71q54 0 77.5 33.5t28.5 94t5 140.5v126h227v-71q0 -118 -12 -213
t-46.5 -161.5t-102.5 -102t-181 -35.5zM349 884h231v192q0 83 -6.5 140.5t-28.5 86.5t-71 29q-56 0 -83 -34t-34.5 -93t-7.5 -136v-185zM315 1640l-263 354l168 88l201 -391zM620 1640l-227 353l170 89l163 -391z" />
    <glyph glyph-name="uni0206" unicode="&#x206;" horiz-adv-x="774" 
d="M139 0v1760h553v-197h-321v-564h304v-195h-304v-607h328v-197h-560zM156 1912v13q-1 117 60.5 180.5t191.5 64.5q126 2 191.5 -58.5t66.5 -177.5v-15l-125 -2q-1 79 -40.5 101.5t-92.5 21.5q-50 -1 -89 -24t-38 -103z" />
    <glyph glyph-name="uni0207" unicode="&#x207;" horiz-adv-x="908" 
d="M465 -18q-110 0 -178.5 37t-105 105.5t-50 164.5t-13.5 213v543q0 105 18 192t58.5 150t109.5 97t171 34q104 0 170 -34.5t101.5 -98t49.5 -152t14 -196.5v-299h-460v-297q0 -128 18.5 -199t100.5 -71q54 0 77.5 33.5t28.5 94t5 140.5v126h227v-71q0 -118 -12 -213
t-46.5 -161.5t-102.5 -102t-181 -35.5zM349 884h231v192q0 83 -6.5 140.5t-28.5 86.5t-71 29q-56 0 -83 -34t-34.5 -93t-7.5 -136v-185zM200 1652v13q-1 117 60.5 180.5t191.5 64.5q126 2 191.5 -58.5t66.5 -177.5v-15l-125 -2q-1 79 -40.5 101.5t-92.5 21.5q-50 -1 -89 -24
t-38 -103z" />
    <glyph glyph-name="uni0208" unicode="&#x208;" horiz-adv-x="515" 
d="M141 0v1760h233v-1760h-233zM119 1900l-263 354l168 88l201 -391zM424 1900l-227 353l170 89l163 -391z" />
    <glyph glyph-name="uni0209" unicode="&#x209;" horiz-adv-x="518" 
d="M144 0v1500h230v-1500h-230zM120 1640l-263 354l168 88l201 -391zM425 1640l-227 353l170 89l163 -391z" />
    <glyph glyph-name="uni020A" unicode="&#x20a;" horiz-adv-x="515" 
d="M141 0v1760h233v-1760h-233zM3 1912v13q-1 117 60.5 180.5t191.5 64.5q126 2 191.5 -58.5t66.5 -177.5v-15l-125 -2q-1 79 -40.5 101.5t-92.5 21.5q-50 -1 -89 -24t-38 -103z" />
    <glyph glyph-name="uni020B" unicode="&#x20b;" horiz-adv-x="518" 
d="M144 0v1500h230v-1500h-230zM4 1652v13q-1 117 60.5 180.5t191.5 64.5q126 2 191.5 -58.5t66.5 -177.5v-15l-125 -2q-1 79 -40.5 101.5t-92.5 21.5q-50 -1 -89 -24t-38 -103z" />
    <glyph glyph-name="uni020C" unicode="&#x20c;" horiz-adv-x="967" 
d="M486 -20q-134 0 -215 58t-117 173.5t-36 288.5v788q0 152 34.5 262.5t115.5 171t222 60.5q106 0 175.5 -34.5t109.5 -99t56.5 -155.5t16.5 -205v-788q0 -173 -34.5 -288.5t-114 -173.5t-213.5 -58zM486 181q54 0 82 31t38 101t10 185v802q0 140 -24 210.5t-102 70.5
q-81 0 -110 -69t-29 -211v-803q0 -116 10 -185.5t39.5 -100.5t85.5 -31zM345 1900l-263 354l168 88l201 -391zM650 1900l-227 353l170 89l163 -391z" />
    <glyph glyph-name="uni020D" unicode="&#x20d;" horiz-adv-x="937" 
d="M470 -18q-107 0 -175.5 35t-107 101t-54 159.5t-15.5 210.5v543q0 141 31 251t108 173t213 63q103 0 171 -36t107 -101.5t55 -154.5t16 -195v-543q0 -115 -14 -208t-52 -160t-106 -102.5t-177 -35.5zM470 171q51 0 76 32.5t33.5 90.5t8.5 134v647q0 77 -9 134t-34.5 88.5
t-74.5 31.5q-51 0 -77 -31.5t-34.5 -88.5t-8.5 -134v-647q0 -76 8.5 -134t34.5 -90.5t77 -32.5zM330 1640l-263 354l168 88l201 -391zM635 1640l-227 353l170 89l163 -391z" />
    <glyph glyph-name="uni020E" unicode="&#x20e;" horiz-adv-x="967" 
d="M486 -20q-134 0 -215 58t-117 173.5t-36 288.5v788q0 152 34.5 262.5t115.5 171t222 60.5q106 0 175.5 -34.5t109.5 -99t56.5 -155.5t16.5 -205v-788q0 -173 -34.5 -288.5t-114 -173.5t-213.5 -58zM486 181q54 0 82 31t38 101t10 185v802q0 140 -24 210.5t-102 70.5
q-81 0 -110 -69t-29 -211v-803q0 -116 10 -185.5t39.5 -100.5t85.5 -31zM229 1912v13q-1 117 60.5 180.5t191.5 64.5q126 2 191.5 -58.5t66.5 -177.5v-15l-125 -2q-1 79 -40.5 101.5t-92.5 21.5q-50 -1 -89 -24t-38 -103z" />
    <glyph glyph-name="uni020F" unicode="&#x20f;" horiz-adv-x="937" 
d="M470 -18q-107 0 -175.5 35t-107 101t-54 159.5t-15.5 210.5v543q0 141 31 251t108 173t213 63q103 0 171 -36t107 -101.5t55 -154.5t16 -195v-543q0 -115 -14 -208t-52 -160t-106 -102.5t-177 -35.5zM470 171q51 0 76 32.5t33.5 90.5t8.5 134v647q0 77 -9 134t-34.5 88.5
t-74.5 31.5q-51 0 -77 -31.5t-34.5 -88.5t-8.5 -134v-647q0 -76 8.5 -134t34.5 -90.5t77 -32.5zM214 1652v13q-1 117 60.5 180.5t191.5 64.5q126 2 191.5 -58.5t66.5 -177.5v-15l-125 -2q-1 79 -40.5 101.5t-92.5 21.5q-50 -1 -89 -24t-38 -103z" />
    <glyph glyph-name="uni0210" unicode="&#x210;" horiz-adv-x="961" 
d="M139 0v1760h400q139 0 206.5 -51.5t88.5 -153t21 -251.5q0 -160 -32.5 -252.5t-128.5 -121.5q47 -8 78.5 -39.5t50 -96t26.5 -170t8 -262.5v-52t0.5 -86t2 -95.5t4 -82.5t6.5 -46h-232q-3 7 -5.5 44.5t-4.5 97.5t-2.5 135.5t-0.5 160v171.5q0 91 -10 138.5t-41 66
t-95 22.5l-108 6v-842h-232zM372 1017h121q54 0 82.5 22.5t39 86.5t10.5 189v11q0 105 -10 159t-39.5 73.5t-89.5 19.5h-114v-561zM342 1900l-263 354l168 88l201 -391zM647 1900l-227 353l170 89l163 -391z" />
    <glyph glyph-name="uni0211" unicode="&#x211;" horiz-adv-x="665" 
d="M141 0v1500h231v-167q26 87 90.5 136t164.5 49q2 0 2.5 -29.5t0.5 -67.5v-68v-30q-47 0 -97.5 -11t-93 -36.5t-67.5 -68.5v-1207h-231zM225 1640l-263 354l168 88l201 -391zM530 1640l-227 353l170 89l163 -391z" />
    <glyph glyph-name="uni0212" unicode="&#x212;" horiz-adv-x="961" 
d="M139 0v1760h400q139 0 206.5 -51.5t88.5 -153t21 -251.5q0 -160 -32.5 -252.5t-128.5 -121.5q47 -8 78.5 -39.5t50 -96t26.5 -170t8 -262.5v-52t0.5 -86t2 -95.5t4 -82.5t6.5 -46h-232q-3 7 -5.5 44.5t-4.5 97.5t-2.5 135.5t-0.5 160v171.5q0 91 -10 138.5t-41 66
t-95 22.5l-108 6v-842h-232zM372 1017h121q54 0 82.5 22.5t39 86.5t10.5 189v11q0 105 -10 159t-39.5 73.5t-89.5 19.5h-114v-561zM226 1912v13q-1 117 60.5 180.5t191.5 64.5q126 2 191.5 -58.5t66.5 -177.5v-15l-125 -2q-1 79 -40.5 101.5t-92.5 21.5q-50 -1 -89 -24
t-38 -103z" />
    <glyph glyph-name="uni0213" unicode="&#x213;" horiz-adv-x="665" 
d="M141 0v1500h231v-167q26 87 90.5 136t164.5 49q2 0 2.5 -29.5t0.5 -67.5v-68v-30q-47 0 -97.5 -11t-93 -36.5t-67.5 -68.5v-1207h-231zM110 1652v13q-1 117 60.5 180.5t191.5 64.5q126 2 191.5 -58.5t66.5 -177.5v-15l-125 -2q-1 79 -40.5 101.5t-92.5 21.5
q-50 -1 -89 -24t-38 -103z" />
    <glyph glyph-name="uni0214" unicode="&#x214;" horiz-adv-x="979" 
d="M491 -21q-133 0 -213.5 51.5t-116.5 156.5t-36 265v1308h233v-1303q0 -86 6.5 -149t34.5 -97t92 -34t91.5 33.5t33.5 96.5t6 149v1304h232v-1308q0 -160 -35 -265t-114.5 -156.5t-213.5 -51.5zM351 1900l-263 354l168 88l201 -391zM656 1900l-227 353l170 89l163 -391z
" />
    <glyph glyph-name="uni0215" unicode="&#x215;" horiz-adv-x="982" 
d="M387 -20q-76 0 -134 36t-90.5 112t-32.5 196v1176h230v-1146q0 -86 27 -132.5t94 -46.5q72 0 103.5 53t31.5 128v1144h230v-1500h-230v154q-25 -72 -80 -123t-149 -51zM352 1640l-263 354l168 88l201 -391zM657 1640l-227 353l170 89l163 -391z" />
    <glyph glyph-name="uni0216" unicode="&#x216;" horiz-adv-x="979" 
d="M491 -21q-133 0 -213.5 51.5t-116.5 156.5t-36 265v1308h233v-1303q0 -86 6.5 -149t34.5 -97t92 -34t91.5 33.5t33.5 96.5t6 149v1304h232v-1308q0 -160 -35 -265t-114.5 -156.5t-213.5 -51.5zM235 1912v13q-1 117 60.5 180.5t191.5 64.5q126 2 191.5 -58.5t66.5 -177.5
v-15l-125 -2q-1 79 -40.5 101.5t-92.5 21.5q-50 -1 -89 -24t-38 -103z" />
    <glyph glyph-name="uni0217" unicode="&#x217;" horiz-adv-x="982" 
d="M387 -20q-76 0 -134 36t-90.5 112t-32.5 196v1176h230v-1146q0 -86 27 -132.5t94 -46.5q72 0 103.5 53t31.5 128v1144h230v-1500h-230v154q-25 -72 -80 -123t-149 -51zM236 1652v13q-1 117 60.5 180.5t191.5 64.5q126 2 191.5 -58.5t66.5 -177.5v-15l-125 -2
q-1 79 -40.5 101.5t-92.5 21.5q-50 -1 -89 -24t-38 -103z" />
    <glyph glyph-name="uni0218" unicode="&#x218;" horiz-adv-x="848" 
d="M438 -20q-108 0 -177.5 37t-108.5 106t-54 165t-15 215v165h223v-178q0 -167 25.5 -239t106.5 -72q55 0 82 26t35 83t8 151q0 110 -41.5 193.5t-121.5 166.5l-122 122q-51 54 -97.5 115.5t-75.5 138.5t-29 175q0 135 31 232t107.5 148.5t214.5 51.5q107 0 173 -35.5
t101 -101.5t48 -158t13 -206v-106h-218v121q0 96 -8.5 159.5t-33.5 95.5t-75 32q-47 0 -76 -22t-42 -67.5t-13 -117.5q0 -64 15.5 -107t48 -81.5t79.5 -88.5l130 -139q99 -105 158.5 -227t59.5 -278q0 -151 -31 -257t-107 -162t-213 -56zM358 -659l52 295h-111v242h250v-233
l-88 -304h-103z" />
    <glyph glyph-name="uni0219" unicode="&#x219;" horiz-adv-x="828" 
d="M433 -20q-169 0 -254 102t-85 335v106h220v-116q0 -114 26 -174t85 -60q58 0 86 38.5t28 135.5q0 52 -15.5 102t-47.5 99t-82 96l-119 110q-94 88 -142 188t-48 217q0 185 87.5 272t248.5 87q106 0 177.5 -43.5t107.5 -142.5t36 -268v-76h-212v102q0 114 -24 174.5
t-83 60.5q-58 0 -86 -33t-31 -119q-1 -44 11.5 -89t40.5 -88t72 -84l123 -113q108 -99 161.5 -210t53.5 -236q0 -178 -81.5 -275.5t-253.5 -97.5zM348 -659l52 295h-111v242h250v-233l-88 -304h-103z" />
    <glyph glyph-name="uni021A" unicode="&#x21a;" horiz-adv-x="662" 
d="M221 0v1563h-200v197h619v-197h-188v-1563h-231zM265 -659l52 295h-111v242h250v-233l-88 -304h-103z" />
    <glyph glyph-name="uni021B" unicode="&#x21b;" horiz-adv-x="614" 
d="M405 -9q-96 0 -145.5 23.5t-67.5 75.5t-18 136v1085h-131v169h131v280h230v-280h156v-169h-156v-1056q0 -37 10.5 -55t44.5 -24t104 -6v-179h-158zM309 -659l52 295h-111v242h250v-233l-88 -304h-103z" />
    <glyph glyph-name="uni0237" unicode="&#x237;" horiz-adv-x="535" 
d="M209 -205q-52 0 -89.5 4.5t-58.5 8.5v161q11 -1 24 -2t29 -1q32 0 43.5 20.5t11.5 48.5v1465h230v-1455q0 -89 -25.5 -144t-68.5 -80.5t-96 -25.5z" />
    <glyph glyph-name="uni02C6" unicode="&#x2c6;" horiz-adv-x="697" 
d="M50 1640l169 311h261l167 -311h-212l-86 218l-86 -218h-213z" />
    <glyph glyph-name="uni02C9" unicode="&#x2c9;" horiz-adv-x="696" 
d="M82 582v159h532v-159h-532z" />
    <glyph glyph-name="uni02DA" unicode="&#x2da;" horiz-adv-x="528" 
d="M264 1640q-102 0 -158 59.5t-56 143.5q0 83 56 142.5t158 59.5q103 0 158.5 -59.5t55.5 -142.5t-55.5 -143t-158.5 -60zM264 1721q57 0 85.5 38.5t28.5 83.5q0 47 -28.5 84.5t-85.5 37.5q-55 0 -83.5 -37.5t-28.5 -84.5q0 -45 28.5 -83.5t83.5 -38.5z" />
    <glyph glyph-name="uni02DC" unicode="&#x2dc;" horiz-adv-x="743" 
d="M522 1640q-44 0 -93 20.5t-96.5 41t-89.5 20.5q-16 0 -23 -2q-16 -4 -26.5 -18.5t-24.5 -40.5l-119 50q20 68 47.5 104t62.5 50t75 14q41 0 94 -18.5t100.5 -37t72.5 -18.5h4q14 2 27 14t29 57l131 -28l-9 -41q-24 -102 -62.5 -134.5t-99.5 -32.5z" />
    <glyph glyph-name="gravecomb" unicode="&#x300;" 
d="M248 1640l-198 389h234l94 -389h-130z" />
    <glyph glyph-name="acutecomb" unicode="&#x301;" 
d="M50 1640l94 389h234l-198 -389h-130z" />
    <glyph glyph-name="uni0302" unicode="&#x302;" 
d="M50 1640l169 311h261l167 -311h-212l-86 218l-86 -218h-213z" />
    <glyph glyph-name="tildecomb" unicode="&#x303;" 
d="M522 1640q-44 0 -93 20.5t-96.5 41t-89.5 20.5q-16 0 -23 -2q-16 -4 -26.5 -18.5t-24.5 -40.5l-119 50q20 68 47.5 104t62.5 50t75 14q41 0 94 -18.5t100.5 -37t72.5 -18.5h4q14 2 27 14t29 57l131 -28l-9 -41q-24 -102 -62.5 -134.5t-99.5 -32.5z" />
    <glyph glyph-name="uni0304" unicode="&#x304;" 
d="M50 1661v159h533v-159h-533z" />
    <glyph glyph-name="uni0306" unicode="&#x306;" 
d="M304 1640q-125 0 -189.5 61.5t-64.5 178.5v15h124q0 -78 40 -102t91 -24t90 23t39 103h125v-13q0 -117 -62.5 -179.5t-192.5 -62.5z" />
    <glyph glyph-name="uni0307" unicode="&#x307;" 
d="M50 1638v206h231v-206h-231z" />
    <glyph glyph-name="uni0308" unicode="&#x308;" 
d="M534 1640v198h252v-198h-252zM50 1640v198h252v-198h-252z" />
    <glyph glyph-name="uni030A" unicode="&#x30a;" 
d="M264 1640q-102 0 -158 59.5t-56 143.5q0 83 56 142.5t158 59.5q103 0 158.5 -59.5t55.5 -142.5t-55.5 -143t-158.5 -60zM264 1721q57 0 85.5 38.5t28.5 83.5q0 47 -28.5 84.5t-85.5 37.5q-55 0 -83.5 -37.5t-28.5 -84.5q0 -45 28.5 -83.5t83.5 -38.5z" />
    <glyph glyph-name="uni030B" unicode="&#x30b;" 
d="M461 1640l-106 51l201 391l168 -88zM156 1640l-106 51l164 391l170 -89z" />
    <glyph glyph-name="uni030C" unicode="&#x30c;" 
d="M219 1640l-169 312h213l86 -218l86 218h212l-167 -312h-261z" />
    <glyph glyph-name="uni030F" unicode="&#x30f;" 
d="M313 1640l-263 354l168 88l201 -391zM618 1640l-227 353l170 89l163 -391z" />
    <glyph glyph-name="uni0311" unicode="&#x311;" 
d="M50 1652v13q-1 117 60.5 180.5t191.5 64.5q126 2 191.5 -58.5t66.5 -177.5v-15l-125 -2q-1 79 -40.5 101.5t-92.5 21.5q-50 -1 -89 -24t-38 -103z" />
    <glyph glyph-name="uni0312" unicode="&#x312;" 
d="M241 2138l-52 -295h111v-242h-250v233l88 304h103z" />
    <glyph glyph-name="uni0326" unicode="&#x326;" 
d="M109 -659l52 295h-111v242h250v-233l-88 -304h-103z" />
    <glyph glyph-name="uni0327" unicode="&#x327;" 
d="M180 -626q-65 0 -130 22v103q95 0 144.5 20t68 52.5t18.5 69.5q0 68 -49 109t-111 54l40 196h74l14 -143q107 -41 160 -107.5t53 -139.5q0 -61 -34 -115t-97 -87.5t-151 -33.5z" />
    <glyph glyph-name="uni0328" unicode="&#x328;" 
d="M326 -626q-92 0 -153 30t-92 83.5t-31 122.5q0 99 68.5 207t201.5 183h94q-83 -84 -137 -179t-54 -175q0 -63 39.5 -96.5t110.5 -33.5q46 0 81 8t41 10v-125q-17 -10 -67.5 -22.5t-101.5 -12.5z" />
    <glyph glyph-name="uni0335" unicode="&#x335;" 
d="M50 1589v113h521v-113h-521z" />
    <glyph glyph-name="uni0394" unicode="&#x394;" horiz-adv-x="931" 
d="M53 0l257 1760h297l272 -1760h-826zM294 173h342l-168 1301h-15z" />
    <glyph glyph-name="uni03BC" unicode="&#x3bc;" horiz-adv-x="992" 
d="M131 -186v1686h230v-1146q0 -86 27 -132.5t94 -46.5q49 0 78.5 24t43 65.5t13.5 91.5v1144h230v-1500h-230v154q-25 -72 -80 -123t-149 -51q-30 0 -59.5 8t-56.5 21l83 79v-274h-224z" />
    <glyph glyph-name="uni1E02" unicode="&#x1e02;" horiz-adv-x="945" 
d="M139 0v1760h344q134 0 210.5 -40t108.5 -127.5t33 -229.5v-45q0 -142 -31 -233t-111 -129q66 -25 103.5 -86t53.5 -147t16 -187v-40q-2 -174 -37.5 -283.5t-114.5 -161t-212 -51.5h-363zM371 184h114q57 0 88.5 27t45 92t13.5 180v95q0 148 -25.5 214t-107.5 66h-128
v-674zM371 1035h110q39 0 63.5 9.5t38 36.5t18 78.5t4.5 136.5v73q0 87 -14 131t-44 59t-79 15h-97v-539zM357 1898v206h231v-206h-231z" />
    <glyph glyph-name="uni1E03" unicode="&#x1e03;" horiz-adv-x="964" 
d="M579 -14q-64 0 -119 33.5t-87 112.5v-132h-230v1777h230v-391q20 62 75.5 97t114.5 35q115 1 176 -60t84 -166.5t23 -239.5v-601q0 -132 -22.5 -237.5t-80 -166.5t-164.5 -61zM502 172q73 1 93 71.5t20 217.5v609q0 77 -7 135t-30 90.5t-73 32.5q-43 0 -72.5 -20
t-44.5 -76t-15 -163v-612q0 -140 24 -212.5t105 -72.5zM142 1915v206h231v-206h-231z" />
    <glyph glyph-name="uni1E0A" unicode="&#x1e0a;" horiz-adv-x="977" 
d="M139 0v1760h358q136 0 214.5 -56t112 -160.5t33.5 -250.5l1 -782q0 -176 -36.5 -289t-117.5 -167.5t-215 -54.5h-350zM371 184h98q53 0 87.5 22.5t52 81.5t17.5 170l-1 835q0 153 -36.5 219t-122.5 66h-95v-1394zM337 1898v206h231v-206h-231z" />
    <glyph glyph-name="uni1E0B" unicode="&#x1e0b;" horiz-adv-x="964" 
d="M382 -14q-116 0 -172 65.5t-74 177t-18 251.5v585q0 129 26.5 231t90 162t174.5 60q61 0 109.5 -32.5t73.5 -82.5v374h231v-1777h-231v131q-30 -74 -84.5 -109.5t-125.5 -35.5zM464 172q48 0 76 25.5t40.5 87.5t12.5 169v601q0 131 -23 202t-101 71q-72 -1 -95.5 -69.5
t-23.5 -207.5v-610q0 -83 8.5 -143.5t33.5 -93t72 -32.5zM586 1915v206h231v-206h-231z" />
    <glyph glyph-name="uni1E1E" unicode="&#x1e1e;" horiz-adv-x="765" 
d="M139 0v1760h561v-198h-329v-519h307v-200h-307v-843h-232zM303 1898v206h231v-206h-231z" />
    <glyph glyph-name="uni1E1F" unicode="&#x1e1f;" horiz-adv-x="655" 
d="M194 0v1274h-124v168h124v75q0 128 59.5 198t180.5 70q60 0 104 -9.5t52 -12.5v-153q-36 5 -67 5q-60 0 -79.5 -25t-19.5 -72v-76h166v-168h-166v-1274h-230zM288 1915v206h231v-206h-231z" />
    <glyph glyph-name="uni1E40" unicode="&#x1e40;" horiz-adv-x="1347" 
d="M139 0v1760h278l262 -1357l249 1357h279v-1760h-202v662l14 634l-254 -1293h-175l-264 1293l14 -634v-662h-201zM558 1898v206h231v-206h-231z" />
    <glyph glyph-name="uni1E41" unicode="&#x1e41;" horiz-adv-x="1461" 
d="M138 0v1500h230v-159q21 75 80.5 126.5t156.5 51.5q75 0 130.5 -35.5t85.5 -116.5q37 69 101 110.5t153 41.5q130 0 192 -90.5t62 -259.5v-1169h-230v1174q0 83 -30.5 117t-81.5 34q-70 0 -104 -37.5t-34 -122.5v-1165h-231v1176q0 74 -27.5 111.5t-81.5 37.5
q-72 0 -106.5 -49.5t-34.5 -125.5v-1150h-230zM615 1638v206h231v-206h-231z" />
    <glyph glyph-name="uni1E56" unicode="&#x1e56;" horiz-adv-x="914" 
d="M139 0v1760h375q105 0 172 -33.5t104 -98.5t51.5 -158t14.5 -211v-31q0 -174 -28.5 -293.5t-101.5 -181t-208 -61.5h-147v-692h-232zM371 885h112q60 0 90.5 32.5t41 108t10.5 203.5v34q0 159 -25.5 237t-112.5 78h-116v-693zM341 1898v206h231v-206h-231z" />
    <glyph glyph-name="uni1E57" unicode="&#x1e57;" horiz-adv-x="964" 
d="M141 -279v1779h230v-129q29 74 89 108.5t122 34.5q111 0 167.5 -62.5t76 -170.5t19.5 -243v-545q0 -143 -20.5 -259t-83.5 -184t-189 -68q-59 0 -107 34.5t-74 79.5v-375h-230zM498 172q71 1 93.5 71t22.5 212v614q0 75 -7 133.5t-30.5 92t-75.5 33.5q-40 0 -69 -19.5
t-45 -75t-16 -164.5v-623q0 -135 24 -204.5t103 -69.5zM366 1638v206h231v-206h-231z" />
    <glyph glyph-name="uni1E60" unicode="&#x1e60;" horiz-adv-x="848" 
d="M438 -20q-108 0 -177.5 37t-108.5 106t-54 165t-15 215v165h223v-178q0 -167 25.5 -239t106.5 -72q55 0 82 26t35 83t8 151q0 110 -41.5 193.5t-121.5 166.5l-122 122q-51 54 -97.5 115.5t-75.5 138.5t-29 175q0 135 31 232t107.5 148.5t214.5 51.5q107 0 173 -35.5
t101 -101.5t48 -158t13 -206v-106h-218v121q0 96 -8.5 159.5t-33.5 95.5t-75 32q-47 0 -76 -22t-42 -67.5t-13 -117.5q0 -64 15.5 -107t48 -81.5t79.5 -88.5l130 -139q99 -105 158.5 -227t59.5 -278q0 -151 -31 -257t-107 -162t-213 -56zM308 1898v206h231v-206h-231z" />
    <glyph glyph-name="uni1E61" unicode="&#x1e61;" horiz-adv-x="828" 
d="M433 -20q-169 0 -254 102t-85 335v106h220v-116q0 -114 26 -174t85 -60q58 0 86 38.5t28 135.5q0 52 -15.5 102t-47.5 99t-82 96l-119 110q-94 88 -142 188t-48 217q0 185 87.5 272t248.5 87q106 0 177.5 -43.5t107.5 -142.5t36 -268v-76h-212v102q0 114 -24 174.5
t-83 60.5q-58 0 -86 -33t-31 -119q-1 -44 11.5 -89t40.5 -88t72 -84l123 -113q108 -99 161.5 -210t53.5 -236q0 -178 -81.5 -275.5t-253.5 -97.5zM298 1638v206h231v-206h-231z" />
    <glyph glyph-name="uni1E6A" unicode="&#x1e6a;" horiz-adv-x="662" 
d="M221 0v1563h-200v197h619v-197h-188v-1563h-231zM215 1898v206h231v-206h-231z" />
    <glyph glyph-name="uni1E6B" unicode="&#x1e6b;" horiz-adv-x="614" 
d="M405 -9q-96 0 -145.5 23.5t-67.5 75.5t-18 136v1085h-131v169h131v280h230v-280h156v-169h-156v-1056q0 -37 10.5 -55t44.5 -24t104 -6v-179h-158zM169 1898v206h231v-206h-231z" />
    <glyph glyph-name="Wgrave" unicode="&#x1e80;" horiz-adv-x="1348" 
d="M276 0l-225 1760h211l141 -1309l185 1309h189l188 -1309l122 1309h211l-205 -1760h-231l-175 1245l-183 -1245h-228zM660 1900l-198 389h234l94 -389h-130z" />
    <glyph glyph-name="wgrave" unicode="&#x1e81;" horiz-adv-x="1204" 
d="M238 0l-186 1500h194l78 -751l27 -301h8l36 302l106 750h63h97h43l110 -732l42 -320h7l26 320l73 732h191l-185 -1500h-207l-151 1154l-173 -1154h-199zM588 1640l-198 389h234l94 -389h-130z" />
    <glyph glyph-name="Wacute" unicode="&#x1e82;" horiz-adv-x="1348" 
d="M276 0l-225 1760h211l141 -1309l185 1309h189l188 -1309l122 1309h211l-205 -1760h-231l-175 1245l-183 -1245h-228zM541 1900l94 389h234l-198 -389h-130z" />
    <glyph glyph-name="wacute" unicode="&#x1e83;" horiz-adv-x="1204" 
d="M238 0l-186 1500h194l78 -751l27 -301h8l36 302l106 750h63h97h43l110 -732l42 -320h7l26 320l73 732h191l-185 -1500h-207l-151 1154l-173 -1154h-199zM469 1640l94 389h234l-198 -389h-130z" />
    <glyph glyph-name="Wdieresis" unicode="&#x1e84;" horiz-adv-x="1348" 
d="M276 0l-225 1760h211l141 -1309l185 1309h189l188 -1309l122 1309h211l-205 -1760h-231l-175 1245l-183 -1245h-228zM790 1900v198h252v-198h-252zM306 1900v198h252v-198h-252z" />
    <glyph glyph-name="wdieresis" unicode="&#x1e85;" horiz-adv-x="1204" 
d="M238 0l-186 1500h194l78 -751l27 -301h8l36 302l106 750h63h97h43l110 -732l42 -320h7l26 320l73 732h191l-185 -1500h-207l-151 1154l-173 -1154h-199zM718 1640v198h252v-198h-252zM234 1640v198h252v-198h-252z" />
    <glyph glyph-name="Ygrave" unicode="&#x1ef2;" horiz-adv-x="848" 
d="M317 0v724l-301 1036h226l192 -691h4l167 691h227l-282 -1036v-724h-233zM411 1900l-198 389h234l94 -389h-130z" />
    <glyph glyph-name="ygrave" unicode="&#x1ef3;" horiz-adv-x="816" 
d="M98 -257v167h77q44 0 75.5 5.5t37.5 25.5q10 14 7.5 48t-7.5 70l-243 1441h221l103 -775l43 -405h19l38 405l94 775h220l-253 -1544q-12 -76 -30.5 -123.5t-57 -68.5t-109.5 -21h-235zM395 1640l-198 389h234l94 -389h-130z" />
    <glyph glyph-name="endash" unicode="&#x2013;" horiz-adv-x="756" 
d="M120 533v208h516v-208h-516z" />
    <glyph glyph-name="emdash" unicode="&#x2014;" horiz-adv-x="1153" 
d="M60 545v196h1032v-196h-1032z" />
    <glyph glyph-name="quoteleft" unicode="&#x2018;" horiz-adv-x="589" 
d="M134 1084v247l129 435h139l-93 -426h150v-256h-325z" />
    <glyph glyph-name="quoteright" unicode="&#x2019;" horiz-adv-x="589" 
d="M204 1084l93 425h-150v257h326v-248l-130 -434h-139z" />
    <glyph glyph-name="quotesinglbase" unicode="&#x201a;" horiz-adv-x="484" 
d="M146 -358l83 358h-139v243h314v-234l-112 -367h-146z" />
    <glyph glyph-name="quotedblleft" unicode="&#x201c;" horiz-adv-x="1030" 
d="M611 1132v236l113 398h146l-83 -389h138v-245h-314zM151 1132v236l112 398h146l-82 -389h138v-245h-314z" />
    <glyph glyph-name="quotedblright" unicode="&#x201d;" horiz-adv-x="1077" 
d="M681 1132l83 389h-138v245h314v-236l-113 -398h-146zM221 1132l83 389h-139v245h315v-236l-113 -398h-146z" />
    <glyph glyph-name="quotedblbase" unicode="&#x201e;" horiz-adv-x="1016" 
d="M676 -389l82 389h-138v245h314v-236l-112 -398h-146zM216 -389l82 389h-138v245h313v-236l-112 -398h-145z" />
    <glyph glyph-name="dagger" unicode="&#x2020;" horiz-adv-x="909" 
d="M339 0v995h-248v187h248v410h234v-410h245v-187h-245v-995h-234z" />
    <glyph glyph-name="daggerdbl" unicode="&#x2021;" horiz-adv-x="919" 
d="M339 0v480h-248v186h248v329h-248v187h248v410h234v-410h245v-187h-245v-329h245v-186h-245v-480h-234z" />
    <glyph glyph-name="bullet" unicode="&#x2022;" horiz-adv-x="861" 
d="M430 470q-120 0 -183 71t-63 200t63 200t183 71t183.5 -71t63.5 -200t-63.5 -200t-183.5 -71z" />
    <glyph glyph-name="uni2026" unicode="&#x2026;" horiz-adv-x="1158" 
d="M162 0v218h196v-218h-196zM475 0v218h196v-218h-196zM788 0v218h196v-218h-196z" />
    <glyph glyph-name="perthousand" unicode="&#x2030;" horiz-adv-x="3069" 
d="M656 0l699 1760h184l-690 -1760h-193zM467 581q-116 0 -187 42.5t-103 136.5t-32 247v357q0 152 31 244t101.5 133t189.5 41t189.5 -41t101.5 -133t31 -244v-357q0 -153 -31.5 -247t-102.5 -136.5t-188 -42.5zM467 753q69 0 94 42.5t25 142.5v494q0 99 -24 138.5
t-95 39.5t-95.5 -40t-24.5 -138v-494q0 -100 25 -142.5t95 -42.5zM1739 -20q-117 0 -187.5 42.5t-102.5 136.5t-32 247v357q0 152 31 244t101.5 133t189.5 41t189.5 -41t101.5 -133t31 -244v-357q0 -153 -32 -247t-102.5 -136.5t-187.5 -42.5zM1739 152q69 0 94 42.5
t25 142.5v494q0 99 -24 138.5t-95 39.5t-95.5 -40t-24.5 -138v-494q0 -100 25 -142.5t95 -42.5zM2602 -20q-116 0 -187 42.5t-103 136.5t-32 247v357q0 152 31 244t101.5 133t189.5 41q120 0 190.5 -41t101 -133t30.5 -244v-357q0 -153 -31.5 -247t-102.5 -136.5t-188 -42.5
zM2602 152q70 0 95 42.5t25 142.5v494q0 99 -24 138.5t-96 39.5q-70 0 -94.5 -40t-24.5 -138v-494q0 -100 25 -142.5t94 -42.5z" />
    <glyph glyph-name="guilsinglleft" unicode="&#x2039;" horiz-adv-x="606" 
d="M548 353l-483 285v221l483 271v-232l-312 -149l312 -158v-238z" />
    <glyph glyph-name="guilsinglright" unicode="&#x203a;" horiz-adv-x="727" 
d="M147 353v238l312 158l-312 149v232l484 -271v-221z" />
    <glyph glyph-name="fraction" unicode="&#x2044;" horiz-adv-x="829" 
d="M68 0l461 1768h195l-461 -1768h-195z" />
    <glyph glyph-name="uni2074" unicode="&#x2074;" horiz-adv-x="854" 
d="M480 589v217h-308v110l256 844h209v-827h84v-127h-84v-217h-157zM319 933h161v589z" />
    <glyph glyph-name="Euro" unicode="&#x20ac;" horiz-adv-x="975" 
d="M59 723v146h141v97h-141v138h507v-138h-255v-97h255v-146h-507zM515 -21q-128 0 -207.5 61t-116.5 179t-37 286v747q0 119 17 215.5t58.5 166.5t113 107.5t179.5 37.5q102 0 169.5 -34.5t107 -99.5t56 -155t16.5 -200v-215h-227v208q0 150 -22.5 223t-98.5 73
q-81 0 -108.5 -76t-27.5 -219v-787q0 -113 11 -183.5t39 -103t80 -32.5q77 0 102 75.5t25 245.5v219h230v-216q0 -173 -34.5 -289.5t-112.5 -175t-212 -58.5z" />
    <glyph glyph-name="trademark" unicode="&#x2122;" horiz-adv-x="1595" 
d="M675 488v1272h240l162 -974l157 974h241v-1272h-160v510l10 487l-165 -997h-164l-172 997l10 -487v-510h-159zM240 488v1128h-146v144h454v-144h-137v-1128h-171z" />
    <glyph glyph-name="partialdiff" unicode="&#x2202;" horiz-adv-x="1039" 
d="M443 -24q-91 0 -158.5 43t-104 123.5t-35.5 192.5q1 147 22 279.5t64 236.5t111.5 164.5t165.5 60.5q41 0 85 -9.5t99 -28.5q13 88 21 151t8 103q0 73 -21 118.5t-62.5 67.5t-101.5 22q-45 0 -97.5 -10t-110.5 -25l-30 149q73 22 141.5 34t130.5 12q102 0 179 -38
t120 -122.5t43 -224.5q0 -28 -2 -61.5t-7.5 -82.5t-16.5 -125l-105 -709q-15 -109 -68 -180t-125 -106t-145 -35zM445 158q55 0 89.5 48.5t45.5 130.5l79 554q-34 14 -58.5 20.5t-49.5 6.5q-57 0 -95.5 -52t-61.5 -136t-33 -183t-11 -192q0 -62 7 -106t27.5 -67.5
t60.5 -23.5z" />
    <glyph glyph-name="product" unicode="&#x220f;" horiz-adv-x="1003" 
d="M142 0v1760h718v-1760h-228v1575h-262v-1575h-228z" />
    <glyph glyph-name="summation" unicode="&#x2211;" horiz-adv-x="757" 
d="M115 0v198l258 683l-258 691v188h568v-192h-318l247 -688l-247 -678h318v-202h-568z" />
    <glyph glyph-name="minus" unicode="&#x2212;" horiz-adv-x="637" 
d="M60 509v232h516v-232h-516z" />
    <glyph glyph-name="uni2215" unicode="&#x2215;" horiz-adv-x="829" 
d="M68 0l461 1768h195l-461 -1768h-195z" />
    <glyph glyph-name="radical" unicode="&#x221a;" horiz-adv-x="1160" 
d="M305 0l-225 741h224l105 -470l243 1489h448v-166h-250l-286 -1594h-259z" />
    <glyph glyph-name="infinity" unicode="&#x221e;" horiz-adv-x="1300" 
d="M912 439q-81 0 -153 42.5t-120 103.5q-48 -55 -121 -94t-148 -39q-123 0 -192.5 79.5t-69.5 212.5q0 130 70 207t192 77q66 0 137 -37.5t132 -105.5q60 74 132 115t141 41q126 0 198 -81t72 -216q0 -138 -71.5 -221.5t-198.5 -83.5zM399 625q46 0 95 31t89 84
q-38 52 -87.5 82.5t-96.5 30.5q-48 0 -75.5 -30.5t-27.5 -82.5q0 -53 27.5 -84t75.5 -31zM886 625q52 0 81 31t29 84t-29 84t-81 31q-49 0 -100.5 -31t-93.5 -84q39 -53 91 -84t103 -31z" />
    <glyph glyph-name="integral" unicode="&#x222b;" horiz-adv-x="767" 
d="M278 -16q-82 0 -163 24v161q15 -1 27.5 -2t22.5 -1q49 0 71.5 12.5t29.5 43t7 83.5v1234q0 245 204 245q89 0 175 -32v-161q-27 8 -48.5 12t-37.5 4q-43 0 -58 -27.5t-15 -84.5v-1274q0 -117 -52 -177t-163 -60z" />
    <glyph glyph-name="approxequal" unicode="&#x2248;" horiz-adv-x="1117" 
d="M272 840l-159 80q38 117 97 179.5t140 62.5q39 0 95.5 -14t115.5 -32t108 -32t73 -14q21 3 47 29t44 85l173 -42q-10 -43 -32 -95.5t-53 -100t-69 -79t-80 -31.5q-57 0 -131.5 24t-147.5 48.5t-126 24.5q-56 0 -95 -93zM272 375l-159 79q38 116 97 179t140 63
q39 0 95.5 -14t115.5 -31.5t108 -32t73 -14.5q21 3 47 29t44 85l173 -42q-10 -43 -32 -95.5t-53 -100t-69 -79t-80 -31.5q-57 0 -131.5 24.5t-147.5 49t-126 24.5q-56 0 -95 -93z" />
    <glyph glyph-name="notequal" unicode="&#x2260;" horiz-adv-x="794" 
d="M96 0l129 586h-144v190h185l35 154h-220v186h259l145 651h211l-147 -651h156v-186h-197l-34 -154h231v-190h-272l-132 -586h-205z" />
    <glyph glyph-name="lessequal" unicode="&#x2264;" horiz-adv-x="781" 
d="M651 284l-576 378v245l576 374v-243l-419 -253l419 -263v-238zM106 0v159h536v-159h-536z" />
    <glyph glyph-name="greaterequal" unicode="&#x2265;" horiz-adv-x="781" 
d="M105 284v238l417 263l-417 253v243l575 -374v-245zM110 0v159h537v-159h-537z" />
    <glyph glyph-name="lozenge" unicode="&#x25ca;" horiz-adv-x="921" 
d="M306 0l-249 880l249 881h307l251 -881l-251 -880h-307zM443 196h32l157 684l-157 674h-32l-157 -674z" />
    <glyph glyph-name="uni030C.alt" 
d="M128 1601l51 295h-111v242h251v-233l-88 -304h-103z" />
    </font>
</defs>
</svg>
