<?xml version="1.0" standalone="no"?>
<!DOCTYPE svg PUBLIC "-//W3C//DTD SVG 1.1//EN" "http://www.w3.org/Graphics/SVG/1.1/DTD/svg11.dtd" >
<svg xmlns="http://www.w3.org/2000/svg" xmlns:xlink="http://www.w3.org/1999/xlink" version="1.1">
<metadata>
Created by FontForge 20170731 at Fri Mar 12 16:17:04 2021
 By Aleksey,,,
Copyright 2013 The Antonio Project Authors (https://github.com/googlefonts/antonioFont)
</metadata>
<defs>
<font id="Antonio-Thin" horiz-adv-x="0" >
  <font-face 
    font-family="Antonio Thin"
    font-weight="250"
    font-stretch="normal"
    units-per-em="2048"
    panose-1="0 0 0 0 0 0 0 0 0 0"
    ascent="1638"
    descent="-410"
    x-height="1500"
    cap-height="1760"
    bbox="-69 -596 2775 2272"
    underline-thickness="0"
    underline-position="0"
    unicode-range="U+0020-25CA"
  />
<missing-glyph horiz-adv-x="1152" 
d="M166 0v1760h820v-1760h-820zM248 72h656v1616h-656v-1616zM388 240v1261h60l252 -975l-9 434v541h76v-1261h-68l-236 950l6 -341v-609h-81z" />
    <glyph glyph-name="f_f" unicode="ff" horiz-adv-x="1220" 
d="M224 0v1329h-140v113h140v70q0 132 46.5 204.5t167.5 72.5q54 0 93.5 -8.5t41.5 -9.5v-121q-45 7 -81 7q-83 0 -100.5 -34.5t-17.5 -88.5v-92h460v70q0 132 46.5 204.5t167.5 72.5q54 0 93.5 -8.5t41.5 -9.5v-121q-45 7 -81 7q-83 0 -100.5 -34.5t-17.5 -88.5v-92h199
v-113h-199v-1329h-150v1329h-460v-1329h-150z" />
    <glyph glyph-name="f_f_i" unicode="ffi" horiz-adv-x="1694" 
d="M224 0v1387h-140v113h140v19q0 132 46.5 204.5t167.5 72.5q54 0 93.5 -8.5t41.5 -9.5v-121q-45 7 -81 7q-83 0 -100.5 -34.5t-17.5 -88.5v-41h460v19q0 132 46.5 204.5t167.5 72.5q54 0 93.5 -8.5t41.5 -9.5v-121q-45 7 -81 7q-83 0 -100.5 -34.5t-17.5 -88.5v-41h548
v-1500h-150v1387h-398v-1387h-150v1387h-460v-1387h-150zM1382 1615v185h150v-185h-150z" />
    <glyph glyph-name="f_f_l" unicode="ffl" horiz-adv-x="1635" 
d="M224 0v1329h-140v113h140v70q0 132 46.5 204.5t167.5 72.5q54 0 93.5 -8.5t41.5 -9.5v-121q-45 7 -81 7q-83 0 -100.5 -34.5t-17.5 -88.5v-92h405v70q0 87 19 154.5t79 106t183 38.5q38 0 82 -4t95.5 -12t110.5 -21t127 -30v-1744h-150v1660q-70 17 -125 24t-96 7
q-88 0 -124.5 -26t-43.5 -61t-7 -63v-99h199v-113h-199v-1329h-150v1329h-405v-1329h-150z" />
    <glyph glyph-name="f_i" unicode="fi" horiz-adv-x="1084" 
d="M224 0v1388h-140v112h140v18q0 132 46.5 204.5t167.5 72.5q54 0 93.5 -8.5t41.5 -9.5v-121q-45 7 -81 7q-83 0 -100.5 -34.5t-17.5 -88.5v-40h548v-1500h-150v1388h-398v-1388h-150zM772 1615v185h150v-185h-150z" />
    <glyph glyph-name="f_l" unicode="fl" horiz-adv-x="1080" 
d="M224 0v1329h-140v113h140v70q0 87 19 154.5t79 106t183 38.5q38 0 82 -4t95.5 -12t110.5 -21t127 -30v-1744h-150v1660q-70 17 -125 24t-96 7q-88 0 -124.5 -26t-43.5 -61t-7 -63v-99h199v-113h-199v-1329h-150z" />
    <glyph glyph-name=".notdef" horiz-adv-x="1152" 
d="M166 0v1760h820v-1760h-820zM248 72h656v1616h-656v-1616zM388 240v1261h60l252 -975l-9 434v541h76v-1261h-68l-236 950l6 -341v-609h-81z" />
    <glyph glyph-name=".null" 
 />
    <glyph glyph-name="nonmarkingreturn" horiz-adv-x="682" 
 />
    <glyph glyph-name="space" unicode=" " horiz-adv-x="460" 
 />
    <glyph glyph-name="exclam" unicode="!" horiz-adv-x="501" 
d="M220 368l-63 1392h188l-65 -1392h-60zM156 0v202h186v-202h-186z" />
    <glyph glyph-name="quotedbl" unicode="&#x22;" horiz-adv-x="771" 
d="M487 1125v635h157l-93 -635h-64zM196 1125v635h156l-92 -635h-64z" />
    <glyph glyph-name="numbersign" unicode="#" horiz-adv-x="829" 
d="M22 0l132 670h-166v97h186l54 274h-197v97h216l123 622h112l-125 -622h216l125 622h103l-123 -622h163v-97h-183l-54 -274h194v-97h-213l-133 -670h-102l130 670h-216l-131 -670h-111zM282 765h220l53 270h-219z" />
    <glyph glyph-name="dollar" unicode="$" horiz-adv-x="830" 
d="M396 -221v288h107v-288h-107zM354 1490v293h107v-293h-107zM454 28q-157 0 -230.5 101.5t-73.5 325.5v129h149v-103q0 -152 35.5 -234.5t106.5 -82.5q73 0 104.5 47t31.5 171q0 56 -7.5 109t-37 108.5t-96.5 118.5l-111 105q-103 97 -143.5 197.5t-40.5 213.5
q0 168 78 250t204 82q84 0 146.5 -42.5t97 -144.5t34.5 -280v-94h-140v121q0 158 -32.5 230.5t-102.5 72.5q-76 0 -105.5 -64.5t-29.5 -166.5q0 -46 10 -88.5t40.5 -89.5t92.5 -108l105 -103q106 -103 149 -209.5t43 -226.5q0 -153 -66.5 -249t-210.5 -96z" />
    <glyph glyph-name="percent" unicode="%" horiz-adv-x="2078" 
d="M607 0l730 1760h140l-722 -1760h-148zM429 581q-111 0 -170.5 37t-81.5 130.5t-22 263.5v352q0 164 22.5 255t81.5 127.5t170 36.5q112 0 171 -36.5t81.5 -127.5t22.5 -255v-352q0 -170 -22 -263.5t-81.5 -130.5t-171.5 -37zM429 718q80 0 108.5 45t28.5 173v500
q0 124 -28.5 167t-108.5 43q-79 0 -108 -43t-29 -167v-500q0 -128 29 -173t108 -45zM1649 -20q-112 0 -171.5 37t-81.5 130.5t-22 263.5v352q0 164 22.5 254.5t82 127t170.5 36.5t170.5 -36.5t81.5 -127t22 -254.5v-352q0 -170 -22 -263.5t-81 -130.5t-171 -37zM1649 117
q80 0 108.5 45t28.5 173v500q0 124 -29 167t-108 43t-108 -43t-29 -167v-500q0 -128 29 -173t108 -45z" />
    <glyph glyph-name="ampersand" unicode="&#x26;" horiz-adv-x="830" 
d="M338 -20q-112 0 -189 80t-77 273q0 140 32.5 245.5t86.5 196.5t120 184q-62 160 -103.5 287t-41.5 197q0 170 67 255t191 85q100 0 151 -41.5t69 -119.5t18 -188q0 -101 -30.5 -187.5t-79.5 -165t-104 -156.5l172 -409q29 69 64 140t87 141l61 -107q-55 -79 -88.5 -161
t-61.5 -161l155 -368h-127l-103 253q-18 -71 -49.5 -133.5t-84.5 -101t-135 -38.5zM354 105q51 0 84 35t59 96.5t55 139.5l-187 450q-49 -63 -86 -147.5t-58 -174.5t-21 -170q0 -97 36 -163t118 -66zM399 1057q59 83 99.5 179t40.5 220q0 104 -19.5 157.5t-94.5 53.5
q-52 0 -79 -23.5t-37.5 -59.5t-12 -73.5t-1.5 -65.5q0 -60 30.5 -162t73.5 -226z" />
    <glyph glyph-name="quotesingle" unicode="'" horiz-adv-x="404" 
d="M184 1125l-60 635h158l-65 -635h-33z" />
    <glyph glyph-name="parenleft" unicode="(" horiz-adv-x="546" 
d="M448 -117q-89 0 -145.5 14t-87.5 56t-43 124t-12 218v1075q0 136 12 218.5t43 124.5t87.5 56t145.5 14v-114q-45 0 -72.5 -4.5t-42 -29.5t-19.5 -86t-5 -175v-1083q0 -114 5 -175t19.5 -86t42 -29.5t72.5 -4.5v-113z" />
    <glyph glyph-name="parenright" unicode=")" horiz-adv-x="546" 
d="M98 -119v113q45 0 72.5 4.5t42 29.5t19.5 86t5 175v1085q0 114 -5 175t-19.5 86t-42 29.5t-72.5 4.5v114q89 0 145.5 -14t87.5 -56t43 -124.5t12 -218.5v-1077q0 -136 -12 -218t-43 -124t-87.5 -56t-145.5 -14z" />
    <glyph glyph-name="asterisk" unicode="*" horiz-adv-x="960" 
d="M414 1086l24 276l-222 -172l-67 118l242 130l-250 122l68 116l229 -163l-24 270h133l-20 -269l224 172l68 -116l-250 -132l250 -140l-68 -117l-224 177l20 -272h-133z" />
    <glyph glyph-name="plus" unicode="+" horiz-adv-x="766" 
d="M322 576v266h-230v106h230v260h118v-260h234v-106h-234v-266h-118z" />
    <glyph glyph-name="comma" unicode="," horiz-adv-x="437" 
d="M162 -350l96 350h-115v173h200v-164l-104 -359h-77z" />
    <glyph glyph-name="hyphen" unicode="-" horiz-adv-x="696" 
d="M109 842v116h478v-116h-478z" />
    <glyph glyph-name="period" unicode="." horiz-adv-x="532" 
d="M174 0v164h154v-164h-154z" />
    <glyph glyph-name="slash" unicode="/" horiz-adv-x="743" 
d="M88 0l450 1783h135l-451 -1783h-134z" />
    <glyph glyph-name="zero" unicode="0" horiz-adv-x="830" 
d="M417 -21q-109 0 -170 51.5t-86 161.5t-25 283v841q0 163 25 266t86 152t170 49q111 0 171.5 -49t83.5 -152t23 -266v-841q0 -130 -12.5 -224t-43 -154t-85 -89t-137.5 -29zM414 102q45 0 71.5 21.5t39.5 66t17 114t4 166.5v857q0 116 -8 188.5t-36 107t-88 34.5
q-56 0 -84 -34.5t-37 -107t-9 -187.5v-858q0 -97 4.5 -166.5t18 -114t39.5 -66t68 -21.5z" />
    <glyph glyph-name="one" unicode="1" horiz-adv-x="830" 
d="M409 0v1534q-24 -28 -71 -52.5t-98.5 -39t-88.5 -14.5v93q53 8 116.5 39.5t118.5 82.5t83 117h89v-1760h-149z" />
    <glyph glyph-name="two" unicode="2" horiz-adv-x="830" 
d="M179 0v121q23 51 46 101.5t46 101.5t47 101l138 304q43 93 67.5 164.5t36.5 134.5t15.5 129t3.5 148q0 148 -11.5 223.5t-39.5 102t-78 25.5q-44 -1 -74 -33.5t-44.5 -105.5t-14.5 -198v-254h-141v258q0 167 30.5 268.5t94.5 147.5t166 44q89 -1 144 -51t81 -153.5
t26 -268.5q0 -134 -16 -239t-48.5 -200t-81.5 -202l-125 -274q-21 -45 -42 -91t-42 -91.5t-42 -91.5h373v-121h-515z" />
    <glyph glyph-name="three" unicode="3" horiz-adv-x="830" 
d="M406 -20q-168 0 -237 122t-69 372v43h150v-43q0 -145 12.5 -225.5t47.5 -112.5t102 -32q66 0 101.5 34.5t49 115.5t13.5 218q0 150 -22.5 233t-69.5 116t-122 33h-39v128h37q74 0 121 21t69.5 93t22.5 226q0 144 -23 215t-61.5 94.5t-84.5 23.5q-44 0 -77.5 -26
t-52.5 -98.5t-19 -212.5v-31h-149v34q0 226 66.5 342.5t234.5 116.5q169 0 242.5 -116t73.5 -343q0 -152 -40 -261.5t-135 -145.5q63 -28 102 -96.5t57.5 -160.5t18.5 -189q0 -248 -76.5 -368t-243.5 -120z" />
    <glyph glyph-name="four" unicode="4" horiz-adv-x="830" 
d="M485 0v352h-390v97l381 1311h144v-1292h154v-116h-154v-352h-135zM217 468h268v1000z" />
    <glyph glyph-name="five" unicode="5" horiz-adv-x="830" 
d="M430 -20q-110 0 -167.5 44.5t-78 115.5t-20.5 151v168h143v-196q0 -84 27.5 -122.5t91.5 -38.5q57 0 88 37.5t31 134.5v595q0 114 -25 168t-87 54q-50 0 -85.5 -49t-35.5 -154l-124 22v850h460v-136h-325v-498q14 45 57.5 71.5t95.5 26.5q58 0 105.5 -29.5t76 -114.5
t28.5 -252v-507q0 -77 -12.5 -140t-41.5 -108t-78.5 -69t-123.5 -24z" />
    <glyph glyph-name="six" unicode="6" horiz-adv-x="830" 
d="M442 -20q-102 0 -163.5 40t-92 112t-40.5 167.5t-10 206.5v758q0 178 23 293t88.5 170.5t192.5 55.5q119 0 176 -55t75 -165.5t20 -278.5v-32h-152v31q0 146 -7.5 226.5t-34 113t-84.5 32.5q-66 0 -97.5 -33.5t-41.5 -120t-10 -246.5v-242q32 44 73 65.5t84 23.5
q118 6 184 -47t93 -174t27 -322v-117q0 -148 -25.5 -251.5t-91 -157t-186.5 -53.5zM442 107q61 0 94 27t46 100.5t13 211.5v101q0 162 -11 256t-41.5 134.5t-89.5 40.5q-47 0 -81.5 -12t-56 -24.5t-31.5 -15.5v-422q0 -139 8.5 -226.5t41.5 -129t108 -41.5z" />
    <glyph glyph-name="seven" unicode="7" horiz-adv-x="830" 
d="M236 0q19 238 51 451.5t70.5 394t76.5 319.5q66 230 115 354l49 124h-503v117h633v-107q-1 7 -44.5 -122.5t-101.5 -355.5q-38 -150 -76.5 -337t-69 -399t-45.5 -439h-155z" />
    <glyph glyph-name="eight" unicode="8" horiz-adv-x="830" 
d="M421 -20q-156 0 -229.5 100.5t-80.5 322.5v31q0 136 16 232.5t50 160t88 100.5q-72 51 -104.5 151t-32.5 269q0 227 70.5 331.5t225.5 104.5q154 0 223.5 -104.5t69.5 -331.5q0 -166 -34.5 -264.5t-111.5 -151.5q53 -38 85 -102.5t47 -161.5t15 -233v-21
q0 -227 -72.5 -330t-224.5 -103zM423 103q52 0 84.5 35t47.5 109.5t15 191.5v43q0 203 -36.5 295t-110.5 92q-82 0 -122 -95t-40 -304v-42q0 -171 38.5 -248t123.5 -77zM421 982q52 0 84 38.5t47.5 120.5t15.5 212q0 105 -15.5 171.5t-47.5 97.5t-84 31q-50 0 -82 -31.5
t-47 -99t-15 -174.5q0 -128 15 -209t47 -119t82 -38z" />
    <glyph glyph-name="nine" unicode="9" horiz-adv-x="830" 
d="M418 -20q-109 0 -167 54t-79.5 163.5t-21.5 275.5v35h142v-25q1 -163 10.5 -244.5t39 -108.5t89.5 -27q64 0 86.5 43t24.5 136t2 241v189q-26 -25 -66 -37.5t-84 -12.5q-121 0 -182.5 64t-82 190t-20.5 310v26q0 111 7.5 207.5t35.5 169t87.5 113.5t162.5 41
q102 0 161 -41t87 -113.5t36 -168.5t8 -206v-712q0 -178 -15.5 -303.5t-74 -192t-186.5 -66.5zM408 776q38 0 64.5 5t44 11.5t27.5 10.5v452q0 197 -22.5 297.5t-118.5 100.5q-67 0 -97.5 -44.5t-38.5 -132.5t-8 -219v-49q0 -161 9 -256t40.5 -135.5t99.5 -40.5z" />
    <glyph glyph-name="colon" unicode=":" horiz-adv-x="555" 
d="M179 1048v231h183v-231h-183zM179 312v231h183v-231h-183z" />
    <glyph glyph-name="semicolon" unicode=";" horiz-adv-x="561" 
d="M200 0l96 350h-115v173h200v-164l-104 -359h-77zM179 1048v231h183v-231h-183z" />
    <glyph glyph-name="less" unicode="&#x3c;" horiz-adv-x="730" 
d="M642 288l-579 400v135l579 396v-168l-468 -293l468 -310v-160z" />
    <glyph glyph-name="equal" unicode="=" horiz-adv-x="722" 
d="M94 601v128h534v-128h-534zM94 896v129h534v-129h-534z" />
    <glyph glyph-name="greater" unicode="&#x3e;" horiz-adv-x="730" 
d="M84 288v168l468 293l-468 310v160l579 -401v-134z" />
    <glyph glyph-name="question" unicode="?" horiz-adv-x="708" 
d="M228 494v316q93 34 146.5 78t78 107t31.5 154t7 220q0 157 -17.5 224.5t-77.5 67.5q-65 0 -85.5 -60t-20.5 -226v-215h-132v205q0 54 -0.5 125.5t16 138t66.5 110.5t152 44q90 0 138 -34t67.5 -97t22.5 -148.5t3 -189.5q0 -173 -24 -287.5t-82.5 -181t-163.5 -95.5v-256
h-125zM227 0v299h126v-299h-126z" />
    <glyph glyph-name="at" unicode="@" horiz-adv-x="1340" 
d="M1161 121q-237 -76 -437.5 -67t-349.5 96.5t-231.5 249t-82.5 390.5q0 183 34 334t112 261.5t209 170.5t324 60q208 0 326 -92.5t166.5 -261t48.5 -395.5q0 -130 -22.5 -240.5t-73 -177.5t-133.5 -67q-64 0 -108.5 44.5t-56.5 121.5q-23 -82 -91 -128.5t-148 -45.5
q-70 1 -137 44.5t-110 137t-43 245.5q0 127 29 222t83.5 157t131 91.5t171 26t203.5 -40.5v-616q0 -84 16.5 -128.5t60.5 -44.5q38 0 64.5 42t40.5 130t14 224q0 114 -11 229t-52.5 210.5t-130.5 153t-245 57.5q-205 0 -324 -92.5t-169.5 -256.5t-50.5 -378
q0 -228 79.5 -370t215 -207t306.5 -60t354 71zM649 467q44 -2 87.5 20.5t75.5 60t44 80.5v560q-60 11 -126 9t-123.5 -36t-93.5 -117.5t-36 -237.5q0 -186 52.5 -261t119.5 -78z" />
    <glyph glyph-name="A" unicode="A" horiz-adv-x="818" 
d="M35 0l283 1760h152l313 -1760h-144l-58 362h-352l-53 -362h-141zM248 473h313l-162 1003h-2z" />
    <glyph glyph-name="B" unicode="B" horiz-adv-x="868" 
d="M166 0v1760h257q137 0 207 -40t95 -126.5t26 -227.5v-23q0 -155 -19.5 -251.5t-93.5 -144.5q57 -27 86.5 -92t40 -152.5t10.5 -184.5v-31q-2 -167 -28 -275t-91.5 -160t-187.5 -52h-302zM315 128h158q62 0 95 33.5t45.5 119t12.5 239.5v16q-1 187 -29.5 267.5
t-120.5 80.5h-161v-756zM315 1004h134q48 0 78 8.5t46 40.5t22.5 99t6.5 183v14q-1 124 -18.5 183.5t-55.5 78t-101 18.5h-112v-625z" />
    <glyph glyph-name="C" unicode="C" horiz-adv-x="868" 
d="M448 -20q-129 0 -196.5 65.5t-91.5 192.5t-24 312v701q0 112 11 209t43 169.5t95.5 113t168.5 40.5q107 0 167.5 -41.5t88 -115.5t34.5 -173t7 -214v-152h-151v170q0 196 -25 298.5t-122 102.5q-100 0 -134 -101.5t-34 -298.5v-706q0 -162 12 -261t47 -144t103 -45
q98 0 125.5 103.5t27.5 345.5v141h150v-140q0 -184 -22 -312t-87 -194t-193 -66z" />
    <glyph glyph-name="D" unicode="D" horiz-adv-x="914" 
d="M166 0v1760h271q143 0 216 -61.5t99 -174.5t26 -266v-754q0 -183 -33.5 -293.5t-109.5 -160.5t-204 -50h-265zM314 128h123q65 0 107.5 30t63.5 114.5t21 246.5v755q0 195 -45 278.5t-138 83.5h-132v-1508z" />
    <glyph glyph-name="E" unicode="E" horiz-adv-x="716" 
d="M166 0v1760h465v-116h-316v-688h297v-121h-297v-717h313v-118h-462z" />
    <glyph glyph-name="F" unicode="F" horiz-adv-x="695" 
d="M166 0v1760h462v-116h-314v-639h297v-119h-297v-886h-148z" />
    <glyph glyph-name="G" unicode="G" horiz-adv-x="890" 
d="M419 -20q-147 0 -215 128.5t-68 423.5v713q0 113 11 210.5t43.5 171t96 115t169.5 41.5q104 0 163 -41t87 -114.5t35.5 -170.5t7.5 -210v-147h-152v272q0 137 -27 211.5t-119 74.5q-94 0 -130 -89.5t-36 -307.5v-718q0 -238 30 -339.5t130 -101.5q95 0 125.5 101.5
t30.5 337.5v222h-151v127h299v-890h-98l-16 102q-35 -59 -84.5 -90.5t-131.5 -31.5z" />
    <glyph glyph-name="H" unicode="H" horiz-adv-x="952" 
d="M166 0v1760h149v-762h322v762h149v-1760h-149v886h-322v-886h-149z" />
    <glyph glyph-name="I" unicode="I" horiz-adv-x="485" 
d="M168 0v1760h149v-1760h-149z" />
    <glyph glyph-name="J" unicode="J" horiz-adv-x="784" 
d="M361 -20q-163 0 -223 100.5t-60 308.5v151h151v-138q0 -80 4.5 -148.5t30.5 -110t91 -41.5q66 0 92 40.5t30 112t4 163.5v1342h149v-1340q0 -226 -61.5 -333t-207.5 -107z" />
    <glyph glyph-name="K" unicode="K" horiz-adv-x="854" 
d="M166 0v1760h149v-867l355 867h144l-362 -869l385 -891h-154l-366 860v-860h-151z" />
    <glyph glyph-name="L" unicode="L" horiz-adv-x="643" 
d="M166 0v1760h149v-1642h312v-118h-461z" />
    <glyph glyph-name="M" unicode="M" horiz-adv-x="1204" 
d="M166 0v1760h167l277 -1478l267 1478h167v-1760h-135v754l23 709l-251 -1425h-142l-260 1425l23 -709v-754h-136z" />
    <glyph glyph-name="N" unicode="N" horiz-adv-x="983" 
d="M166 0v1760h104l432 -1361l-15 606v755h130v-1760h-116l-405 1326l10 -476v-850h-140z" />
    <glyph glyph-name="O" unicode="O" horiz-adv-x="891" 
d="M447 -20q-127 0 -194.5 58t-92 177.5t-24.5 303.5v749q0 152 21 268t88.5 181.5t208.5 65.5q106 0 167 -37.5t89.5 -106.5t36.5 -163t8 -208v-749q0 -184 -24 -303.5t-90 -177.5t-194 -58zM447 102q64 0 98.5 37t47.5 128t13 252v761q0 199 -28.5 288.5t-123.5 89.5
q-100 0 -134.5 -90t-34.5 -287v-762q0 -161 13 -252t48 -128t101 -37z" />
    <glyph glyph-name="P" unicode="P" horiz-adv-x="847" 
d="M166 0v1760h306q106 0 168 -37.5t91.5 -106t38 -162t8.5 -205.5v-18q0 -184 -25.5 -304t-93.5 -179t-196 -59h-148v-689h-149zM315 815h158q62 0 95.5 38t46.5 128.5t13 247.5v34q1 193 -27 283t-121 90h-165v-821z" />
    <glyph glyph-name="Q" unicode="Q" horiz-adv-x="891" 
d="M622 -389l-213 372l109 44l202 -364zM447 -20q-127 0 -194.5 58t-92 177.5t-24.5 303.5v749q0 152 21 268t88.5 181.5t208.5 65.5q106 0 167 -37.5t89.5 -106.5t36.5 -163t8 -208v-749q0 -184 -24 -303.5t-90 -177.5t-194 -58zM447 102q64 0 98.5 37t47.5 128t13 252v761
q0 199 -28.5 288.5t-123.5 89.5q-100 0 -134.5 -90t-34.5 -287v-762q0 -161 13 -252t48 -128t101 -37z" />
    <glyph glyph-name="R" unicode="R" horiz-adv-x="899" 
d="M166 0v1760h299q142 0 208 -45t85.5 -141t19.5 -248q0 -169 -35 -272t-127 -129q51 -8 83 -44.5t48.5 -119t23 -227.5t6.5 -370v-42.5t1 -33.5t3.5 -28.5t6.5 -28t11 -31.5h-148q-6 12 -10 28.5t-6.5 48.5t-3.5 90t-1.5 153t-0.5 237q0 121 -5.5 184t-38 87.5
t-112.5 29.5l-158 10v-868h-149zM314 968h156q64 0 98.5 22.5t47.5 98t13 233.5v13q0 130 -11.5 194t-43.5 85.5t-93 21.5h-167v-668z" />
    <glyph glyph-name="S" unicode="S" horiz-adv-x="794" 
d="M411 -20q-105 0 -166.5 42.5t-91.5 117t-39 173t-9 210.5v182h146v-179q0 -226 32.5 -325t136.5 -99q73 0 104.5 36t39.5 113t8 201q0 136 -33.5 219.5t-119.5 162.5l-104 96q-48 44 -100 102t-88 135.5t-36 178.5q0 127 22.5 225.5t89 155t199.5 56.5q108 0 168 -41.5
t86.5 -115.5t32.5 -172t6 -212v-99h-133v110q0 162 -14.5 249.5t-48.5 121.5t-95 34q-58 0 -94.5 -23t-53 -84.5t-16.5 -179.5q0 -84 19 -135.5t58 -93.5t97 -100l97 -96q100 -98 156.5 -217t56.5 -293q0 -134 -23 -237t-90 -161t-200 -58z" />
    <glyph glyph-name="T" unicode="T" horiz-adv-x="542" 
d="M207 0v1644h-184v116h497v-116h-165v-1644h-148z" />
    <glyph glyph-name="U" unicode="U" horiz-adv-x="915" 
d="M459 -20q-124 0 -191.5 51.5t-93.5 156t-26 264.5v1308h149v-1303q0 -114 8 -193.5t42.5 -120.5t112.5 -41q79 0 112 41t39.5 120t6.5 193v1304h149v-1308q0 -160 -25 -264.5t-91.5 -156t-191.5 -51.5z" />
    <glyph glyph-name="V" unicode="V" horiz-adv-x="846" 
d="M360 0l-313 1760h143l120 -698l126 -744h1l112 744l107 698h143l-284 -1760h-155z" />
    <glyph glyph-name="W" unicode="W" horiz-adv-x="1312" 
d="M306 0l-249 1760h146l184 -1438l220 1438h124l235 -1438l148 1438h141l-213 -1760h-147l-218 1448l-234 -1448h-137z" />
    <glyph glyph-name="X" unicode="X" horiz-adv-x="710" 
d="M52 0l233 919l-218 841h137l169 -659l162 659h124l-222 -907l219 -853h-133l-176 680l-171 -680h-124z" />
    <glyph glyph-name="Y" unicode="Y" horiz-adv-x="786" 
d="M334 0v772l-318 988h150l241 -778h3l206 778h154l-287 -987v-773h-149z" />
    <glyph glyph-name="Z" unicode="Z" horiz-adv-x="638" 
d="M85 0v125l339 1519h-330v116h482v-102l-341 -1540h335v-118h-485z" />
    <glyph glyph-name="bracketleft" unicode="[" horiz-adv-x="589" 
d="M166 -80v1840h363v-114h-214v-1611h214v-115h-363z" />
    <glyph glyph-name="backslash" unicode="\" horiz-adv-x="726" 
d="M505 0l-411 1760h128l410 -1760h-127z" />
    <glyph glyph-name="bracketright" unicode="]" horiz-adv-x="589" 
d="M60 -80v115h214v1611h-214v114h363v-1840h-363z" />
    <glyph glyph-name="asciicircum" unicode="^" horiz-adv-x="972" 
d="M142 837l241 923h206l241 -923h-149l-194 811l-194 -811h-151z" />
    <glyph glyph-name="underscore" unicode="_" horiz-adv-x="748" 
d="M48 -185v121h651v-121h-651z" />
    <glyph glyph-name="uni0060" unicode="`" horiz-adv-x="354" 
d="M235 1640l-185 332h160l94 -332h-69z" />
    <glyph glyph-name="a" unicode="a" horiz-adv-x="844" 
d="M366 -11q-119 0 -179 100.5t-60 287.5v192q0 80 33.5 136t93 98t139 78t170.5 75v102q0 115 -6 187.5t-33 107t-91 34.5q-62 0 -91.5 -33.5t-38 -108t-8.5 -197.5v-37h-150v40q0 90 6.5 174t33 150t85 104.5t163.5 38.5q106 0 163.5 -35t82 -104t29 -170t4.5 -233v-976
h-149v112q-6 -18 -29 -47.5t-64.5 -52.5t-103.5 -23zM393 113q59 0 106 33.5t64 64.5v626q-93 -42 -150.5 -72t-87 -61.5t-40 -77t-10.5 -117.5v-119q0 -150 23 -213.5t95 -63.5z" />
    <glyph glyph-name="b" unicode="b" horiz-adv-x="874" 
d="M510 -11q-58 0 -114 27t-87 98v-114h-149v1783h149v-411q11 62 63.5 103t107.5 43q114 5 171 -62.5t76 -184t19 -259.5v-522q0 -143 -16 -256.5t-66 -179t-154 -65.5zM460 115q82 1 109.5 81.5t27.5 269.5v595q0 99 -8 172t-35.5 113t-86.5 40q-48 0 -83.5 -20.5t-55 -90
t-19.5 -216.5v-599q0 -179 28.5 -262t122.5 -83z" />
    <glyph glyph-name="c" unicode="c" horiz-adv-x="803" 
d="M418 -18q-102 0 -161 39t-86.5 110t-35 167.5t-7.5 212.5v517q0 136 19.5 247t83 177t194.5 66q102 0 158.5 -36t81 -102.5t30 -158t5.5 -201.5v-47h-151v92q0 105 -5 175t-30.5 105.5t-87.5 35.5q-67 0 -98.5 -40t-41 -112.5t-9.5 -171.5v-602q0 -116 8 -190.5t38 -110
t96 -35.5q63 0 90 39t33.5 112.5t6.5 178.5v113h151v-45q0 -117 -5 -215t-29.5 -169.5t-82.5 -111t-165 -39.5z" />
    <glyph glyph-name="d" unicode="d" horiz-adv-x="855" 
d="M365 -11q-101 0 -152 64.5t-68 176t-17 251.5v527q0 145 20.5 260.5t80.5 182.5t176 67q53 0 96.5 -37.5t62.5 -87.5v390h150v-1783h-150v114q-31 -72 -87 -98.5t-112 -26.5zM409 114q47 0 82 19t54.5 87t19.5 214v603q0 182 -27 265t-122 83q-82 -1 -110 -82.5
t-28 -272.5v-594q0 -96 8 -168.5t36 -113t87 -40.5z" />
    <glyph glyph-name="e" unicode="e" horiz-adv-x="802" 
d="M421 -18q-103 0 -162.5 38.5t-87.5 109.5t-35.5 168t-7.5 213v503q0 106 9 197.5t38.5 160.5t89 107.5t160.5 38.5t157 -39.5t80.5 -110t30 -164t5.5 -202.5v-250h-421v-302q0 -172 22.5 -254.5t119.5 -82.5q62 0 89 39.5t34 113.5t7 178v112h145v-49q0 -114 -4.5 -209.5
t-28.5 -166.5t-80.5 -110t-159.5 -39zM277 877h272v191q0 103 -4.5 174t-30 108t-88.5 37q-65 0 -97 -40.5t-42 -114t-10 -172.5v-183z" />
    <glyph glyph-name="f" unicode="f" horiz-adv-x="608" 
d="M219 0v1329h-140v113h140v70q0 132 46.5 204.5t167.5 72.5q54 0 93.5 -8.5t41.5 -9.5v-121q-45 7 -81 7q-83 0 -100.5 -34.5t-17.5 -88.5v-92h199v-113h-199v-1329h-150z" />
    <glyph glyph-name="g" unicode="g" horiz-adv-x="858" 
d="M423 -232q-82 -4 -161 22t-128 63l57 115q36 -27 93.5 -51.5t142.5 -21.5q63 3 100.5 51.5t37.5 133.5v165q-32 -73 -80 -95.5t-104 -22.5q-104 0 -159 66.5t-74.5 181t-19.5 257.5v381q0 143 27 258t88.5 182t162.5 65q50 -1 93.5 -24.5t65.5 -81.5v88h149v-1403
q0 -40 -10.5 -94.5t-41 -106t-88 -87.5t-151.5 -41zM436 255q45 0 73.5 27.5t42 104.5t13.5 227v436q0 173 -24.5 255t-116.5 82q-66 0 -97.5 -42.5t-40.5 -117.5t-9 -175v-441q0 -185 32 -270.5t127 -85.5z" />
    <glyph glyph-name="h" unicode="h" horiz-adv-x="921" 
d="M160 0v1783h149v-430q20 64 88 115t156 51q96 0 158 -73.5t62 -234.5v-1211h-150v1201q0 109 -39 144.5t-99 35.5q-41 0 -82 -16.5t-67.5 -57.5t-26.5 -116v-1191h-149z" />
    <glyph glyph-name="i" unicode="i" horiz-adv-x="474" 
d="M162 0v1500h150v-1500h-150zM162 1638v145h149v-145h-149z" />
    <glyph glyph-name="j" unicode="j" horiz-adv-x="479" 
d="M176 -223q-32 0 -62.5 2.5t-45.5 4.5v106q15 -1 31 -2.5t34 -1.5q26 0 34.5 21t8.5 49v1544h149v-1534q0 -78 -21.5 -118.5t-55.5 -55.5t-72 -15zM176 1638v145h149v-145h-149z" />
    <glyph glyph-name="k" unicode="k" horiz-adv-x="835" 
d="M160 0v1783h149v-1023l331 740h149l-341 -744l359 -756h-156l-342 742v-742h-149z" />
    <glyph glyph-name="l" unicode="l" horiz-adv-x="465" 
d="M162 0v1783h150v-1783h-150z" />
    <glyph glyph-name="m" unicode="m" horiz-adv-x="1360" 
d="M160 0v1500h149v-149q19 64 81.5 116t147.5 52q71 0 123.5 -37.5t77.5 -114.5q36 67 104 109.5t150 42.5q93 0 156 -71.5t63 -230.5v-1217h-150v1226q0 89 -38 122t-99 33q-92 0 -128.5 -33.5t-36.5 -130.5v-1217h-149v1226q0 92 -38.5 123.5t-97.5 31.5
q-79 0 -122.5 -43t-43.5 -129v-1209h-149z" />
    <glyph glyph-name="n" unicode="n" horiz-adv-x="920" 
d="M160 0v1500h149v-147q20 64 87 115t155 51q97 0 159 -73.5t62 -234.5v-1211h-149v1223q0 92 -42.5 128t-102.5 36q-41 0 -80 -14t-64 -50t-25 -103v-1220h-149z" />
    <glyph glyph-name="o" unicode="o" horiz-adv-x="845" 
d="M426 -18q-104 0 -164 39t-89 110.5t-37 169t-8 214.5v503q0 141 18.5 254.5t82 179.5t197.5 66q101 0 160 -38t87 -106t36 -159t8 -197v-503q0 -115 -7 -212t-34 -169t-86 -112t-164 -40zM426 113q62 0 92.5 44t40 122.5t9.5 183.5v590q0 99 -9.5 174t-39.5 117.5
t-93 42.5q-67 0 -99 -42.5t-41 -117.5t-9 -174v-590q0 -105 9.5 -183.5t41.5 -122.5t98 -44z" />
    <glyph glyph-name="p" unicode="p" horiz-adv-x="876" 
d="M163 -265v1765h149v-115q31 73 86 99.5t113 26.5q103 0 153.5 -65t67 -177.5t16.5 -255.5v-538q0 -140 -22.5 -252t-82 -176.5t-171.5 -64.5q-53 0 -96.5 37.5t-63.5 88.5v-373h-149zM464 115q82 1 108.5 82t26.5 271v593q0 99 -7.5 172t-35 113t-86.5 40
q-48 0 -83.5 -21t-55 -90.5t-19.5 -215.5v-596q0 -181 29 -264.5t123 -83.5z" />
    <glyph glyph-name="q" unicode="q" horiz-adv-x="853" 
d="M565 -265v371q-21 -50 -64.5 -87t-96.5 -37q-113 0 -172.5 65.5t-81.5 178.5t-22 253v534q0 143 16 255.5t66.5 177.5t153.5 65q59 0 114.5 -28t86.5 -102v119h150v-1765h-150zM406 114q48 0 83.5 20.5t55 90t19.5 216.5v596q0 179 -28 263.5t-124 84.5q-82 -1 -109 -82
t-27 -272v-594q0 -147 21 -235t109 -88z" />
    <glyph glyph-name="r" unicode="r" horiz-adv-x="605" 
d="M160 0v1500h149v-167q26 87 90.5 136t164.5 49q2 0 2.5 -19t0.5 -44.5v-44.5v-19q-49 0 -93 -12.5t-84 -43.5t-81 -89v-1246h-149z" />
    <glyph glyph-name="s" unicode="s" horiz-adv-x="744" 
d="M406 -20q-157 0 -230.5 101.5t-73.5 325.5v129h149v-103q0 -152 35.5 -234.5t106.5 -82.5q73 0 104.5 47t31.5 171q0 56 -7.5 109t-37 108.5t-96.5 118.5l-111 105q-103 97 -143.5 197.5t-40.5 213.5q0 168 78 250t204 82q84 0 146.5 -42.5t97 -144.5t34.5 -280v-94h-140
v121q0 158 -32.5 230.5t-102.5 72.5q-76 0 -105.5 -64.5t-29.5 -166.5q0 -46 10 -88.5t40.5 -89.5t92.5 -108l105 -103q106 -103 149 -209.5t43 -226.5q0 -153 -66.5 -249t-210.5 -96z" />
    <glyph glyph-name="t" unicode="t" horiz-adv-x="585" 
d="M423 -9q-96 0 -143.5 21.5t-63 71t-15.5 133.5v1167h-150v116h150v260h150v-260h177v-116h-177v-1175q0 -40 9.5 -59.5t46.5 -25.5t120 -6v-127h-104z" />
    <glyph glyph-name="u" unicode="u" horiz-adv-x="914" 
d="M385 -20q-47 0 -102.5 26.5t-95 93t-39.5 185.5v1215h149v-1208q0 -88 40 -130.5t107 -42.5q79 0 123.5 49.5t44.5 134.5l-2 1197h151v-1500h-149v150q-18 -64 -79 -117t-148 -53z" />
    <glyph glyph-name="v" unicode="v" horiz-adv-x="718" 
d="M287 0l-229 1500h136l118 -810l51 -449h6l45 450l110 809h136l-224 -1500h-149z" />
    <glyph glyph-name="w" unicode="w" horiz-adv-x="1080" 
d="M236 0l-176 1500h137l90 -887l24 -311h12l30 312l126 886h47h54h26l137 -854l40 -344h10l20 346l75 852h132l-174 -1500h-148l-147 1283l-173 -1283h-142z" />
    <glyph glyph-name="x" unicode="x" horiz-adv-x="668" 
d="M33 0l237 762l-219 738h130l160 -527l149 527h142l-232 -721l236 -779h-139l-171 574l-161 -574h-132z" />
    <glyph glyph-name="y" unicode="y" horiz-adv-x="745" 
d="M133 -238v128h55q42 0 78 2.5t45 8.5q17 17 14 53t-11 84l-250 1462h150l119 -793l48 -408h13l43 408l107 793h149l-239 -1497q-14 -90 -30 -143t-53 -75.5t-114 -22.5h-124z" />
    <glyph glyph-name="z" unicode="z" horiz-adv-x="621" 
d="M80 0v108l329 1263h-304v129h463v-93l-334 -1277h314v-130h-468z" />
    <glyph glyph-name="braceleft" unicode="{" horiz-adv-x="628" 
d="M450 -81q-89 0 -139 30.5t-69.5 104.5t-19.5 204v295q0 107 -9 162.5t-38.5 75t-90.5 19.5v81q61 0 90.5 19.5t38.5 75t9 162.5v295q0 131 19.5 205t69.5 104.5t139 30.5h60v-125q-62 0 -92 -17t-39 -66t-9 -145v-266q0 -95 -9.5 -155.5t-35 -97.5t-74.5 -61
q49 -23 74.5 -60t35 -97.5t9.5 -155.5v-266q0 -96 9 -145t39 -66t92 -17v-124h-60z" />
    <glyph glyph-name="bar" unicode="|" horiz-adv-x="481" 
d="M166 -134v1917h149v-1917h-149z" />
    <glyph glyph-name="braceright" unicode="}" horiz-adv-x="628" 
d="M118 -81v124q62 0 92 17t39 66t9 145v266q0 95 9.5 155.5t35 97.5t74.5 60q-49 24 -74.5 61t-35 97.5t-9.5 155.5v266q0 96 -9 145t-39 66t-92 17v125h60q90 0 139.5 -30.5t69 -104.5t19.5 -205v-295q0 -107 9 -162.5t38.5 -75t90.5 -19.5v-81q-61 0 -90.5 -19.5
t-38.5 -75t-9 -162.5v-295q0 -130 -19.5 -204t-69 -104.5t-139.5 -30.5h-60z" />
    <glyph glyph-name="asciitilde" unicode="~" horiz-adv-x="1049" 
d="M229 840l-118 35q23 125 70.5 175.5t113.5 50.5q39 0 103.5 -17.5t134 -40t126.5 -40t81 -17.5q35 0 51 31.5t24 122.5l123 -17q-6 -74 -20.5 -125.5t-37 -83.5t-52 -46.5t-66.5 -14.5q-43 0 -107.5 17t-133 39.5t-124 40.5t-80.5 20q-40 3 -58 -33t-30 -97z" />
    <glyph glyph-name="uni00A0" unicode="&#xa0;" horiz-adv-x="460" 
 />
    <glyph glyph-name="exclamdown" unicode="&#xa1;" horiz-adv-x="501" 
d="M281 1132l63 -1392h-188l65 1392h60zM345 1500v-202h-186v202h186z" />
    <glyph glyph-name="cent" unicode="&#xa2;" horiz-adv-x="803" 
d="M380 1503v257h93v-257h-93zM380 -249v255h93v-255h-93zM418 -18q-102 0 -161 39t-86.5 110t-35 167.5t-7.5 212.5v517q0 136 19.5 247t83 177t194.5 66q102 0 158.5 -36t81 -102.5t30 -158t5.5 -201.5v-47h-151v92q0 105 -5 175t-30.5 105.5t-87.5 35.5q-67 0 -98.5 -40
t-41 -112.5t-9.5 -171.5v-602q0 -116 8 -190.5t38 -110t96 -35.5q63 0 90 39t33.5 112.5t6.5 178.5v113h151v-45q0 -117 -5 -215t-29.5 -169.5t-82.5 -111t-165 -39.5z" />
    <glyph glyph-name="sterling" unicode="&#xa3;" horiz-adv-x="830" 
d="M118 0v86q82 51 130 100t67 110t15 145.5t-25 205.5q-7 43 -14.5 85t-15.5 85h-187v103h168l-36 177q-15 74 -26.5 155.5t-11.5 133.5q0 193 68.5 295t224.5 102q77 0 140.5 -29t102 -113t38.5 -249v-146h-129v158q0 111 -17 165t-49 71.5t-78 17.5q-47 0 -82.5 -19.5
t-55 -73t-19.5 -156.5q0 -46 10.5 -127.5t24.5 -161.5l37 -200h302v-103h-282q8 -43 15.5 -86.5t14.5 -87.5q29 -166 26 -269t-38.5 -164t-106.5 -100h449v-110h-660z" />
    <glyph glyph-name="currency" unicode="&#xa4;" horiz-adv-x="1159" 
d="M274 492l-149 150l91 91q-53 98 -53 214q0 117 52 214l-90 90l149 150l87 -88q97 55 218 55t218 -54l87 87l150 -149l-90 -90q54 -97 54 -215t-54 -216l90 -90l-150 -149l-89 88q-92 -52 -216 -52t-216 53zM579 631q91 0 157.5 43t103 115.5t36.5 159.5q0 135 -80 224
t-217 89q-90 0 -156.5 -42.5t-103 -114t-36.5 -158.5t36.5 -159t102.5 -114.5t157 -42.5z" />
    <glyph glyph-name="yen" unicode="&#xa5;" horiz-adv-x="786" 
d="M57 462v82h335v197h-335v83h676v-83h-288v-197h288v-82h-676zM334 0v772l-318 988h150l241 -778h3l206 778h154l-287 -987v-773h-149z" />
    <glyph glyph-name="brokenbar" unicode="&#xa6;" horiz-adv-x="480" 
d="M166 -84v808h148v-808h-148zM166 931v829h148v-829h-148z" />
    <glyph glyph-name="section" unicode="&#xa7;" horiz-adv-x="764" 
d="M419 -20q-157 2 -223.5 97.5t-66.5 319.5v129h137v-117q0 -152 30 -224.5t101 -80.5q74 -7 123 35.5t44 170.5q-3 76 -36.5 140t-83.5 121t-104 111l-86 86q-56 56 -92 117.5t-36 129.5q0 47 12 106.5t70 114.5q-42 69 -60.5 125.5t-20.5 113.5q-4 111 30 178.5
t98.5 98.5t151.5 31q153 0 213 -100.5t60 -322.5v-140h-133v107q0 156 -24.5 243.5t-107.5 87.5q-36 0 -70.5 -10.5t-57.5 -44t-24 -103.5q-1 -71 14.5 -117.5t53 -95t102.5 -127.5l83 -100q34 -41 61.5 -85.5t43.5 -95.5t16 -113q0 -26 -6.5 -53.5t-16.5 -55.5t-23 -57
q47 -60 73 -136t32 -139q15 -153 -55 -249.5t-222 -95.5zM512 681q4 12 5.5 34t1.5 44q0 65 -24 115.5t-78.5 113.5t-146.5 164q-20 -29 -25 -54.5t-4 -57.5q3 -61 45.5 -118.5t104 -116.5t121.5 -124z" />
    <glyph glyph-name="uni00A8" unicode="&#xa8;" horiz-adv-x="712" 
d="M480 1640v133h182v-133h-182zM50 1640v133h182v-133h-182z" />
    <glyph glyph-name="copyright" unicode="&#xa9;" horiz-adv-x="1466" 
d="M733 168q-140 0 -255.5 51t-199 143t-129 215t-45.5 267t45.5 266.5t129 214.5t199 143t255.5 51t255.5 -51t199 -143t129 -214.5t45.5 -266.5t-45.5 -267t-129 -215t-199 -143t-255.5 -51zM733 236q122 0 224 47t176.5 130t115 193.5t40.5 237.5q0 169 -71 306.5
t-196.5 219t-288.5 81.5q-122 0 -224 -47t-176.5 -130t-115 -193t-40.5 -237q0 -169 71 -307t196.5 -219.5t288.5 -81.5zM736 393q-104 0 -165.5 55t-61.5 176v412q0 130 53.5 196.5t177.5 66.5q101 0 154 -53t53 -149v-136h-97v83q0 86 -24 123.5t-92 37.5q-73 0 -95.5 -40
t-22.5 -108v-428q0 -70 26 -109.5t92 -39.5q68 0 92 35t24 114v112h101v-114q0 -112 -46.5 -173t-168.5 -61z" />
    <glyph glyph-name="ordfeminine" unicode="&#xaa;" horiz-adv-x="765" 
d="M362 553q-96 0 -143.5 81t-47.5 232v153q0 64 27 109t74.5 79t111.5 63t137 61v92q0 93 -5.5 148.5t-27 80.5t-71.5 25q-76 0 -94 -63t-18 -210v-30h-120v33q0 72 5.5 139.5t26.5 121t68 84.5t131 31q114 0 160.5 -50.5t55.5 -148t9 -237.5v-784h-120v92
q-8 -25 -46.5 -63.5t-112.5 -38.5zM384 653q47 0 85 27.5t52 51.5v505q-99 -44 -149 -74.5t-66.5 -71t-16.5 -118.5v-97q0 -121 18.5 -172t76.5 -51z" />
    <glyph glyph-name="guillemotleft" unicode="&#xab;" horiz-adv-x="1304" 
d="M1065 414l-466 285v95l466 271v-150l-312 -166l312 -175v-160zM542 414l-466 285v95l466 271v-150l-312 -166l312 -175v-160z" />
    <glyph glyph-name="logicalnot" unicode="&#xac;" horiz-adv-x="947" 
d="M701 439v304h-604v115h729v-419h-125z" />
    <glyph glyph-name="uni00AD" unicode="&#xad;" horiz-adv-x="696" 
d="M90 626v115h516v-115h-516z" />
    <glyph glyph-name="registered" unicode="&#xae;" horiz-adv-x="1502" 
d="M527 446v852h213q105 0 171.5 -45t66.5 -161v-17q0 -69 -33 -108.5t-87 -56.5q40 -7 74.5 -38.5t34.5 -84.5v-341h-118v302q0 70 -25.5 93t-71 23h-105.5v-418h-120zM648 951h78q64 0 100.5 32t36.5 93q0 83 -43.5 108.5t-171.5 25.5v-259zM733 271q122 0 227 45.5
t183.5 126.5t122 188.5t43.5 230.5q0 165 -76 299t-206.5 213t-293.5 79q-122 0 -227 -45.5t-183.5 -126.5t-122 -188.5t-43.5 -230.5q0 -164 76 -298.5t206.5 -213.5t293.5 -79zM733 205q-140 0 -259.5 49.5t-209 139t-139 209t-49.5 259.5t49.5 259.5t139 209t209 139
t259.5 49.5t259.5 -49.5t209 -139t139 -209t49.5 -259.5t-49.5 -259.5t-139 -209t-209 -139t-259.5 -49.5z" />
    <glyph glyph-name="uni00AF" unicode="&#xaf;" horiz-adv-x="616" 
d="M50 1640v115h516v-115h-516z" />
    <glyph glyph-name="degree" unicode="&#xb0;" horiz-adv-x="863" 
d="M431 1114q-86 0 -164.5 37t-128.5 111.5t-50 185.5q0 112 50 186t129 111.5t164 37.5q86 0 165 -37.5t129 -111.5t50 -186q0 -111 -50 -185.5t-129 -111.5t-165 -37zM432 1201q58 0 111 27t86.5 82t33.5 138q0 84 -34 138.5t-86.5 81.5t-110.5 27t-111 -27t-86.5 -81.5
t-33.5 -137.5q0 -84 34 -139t87 -82t110 -27z" />
    <glyph glyph-name="plusminus" unicode="&#xb1;" horiz-adv-x="854" 
d="M368 554v266h-230v106h230v259h118v-259h234v-106h-234v-266h-118zM173 259v118h516v-118h-516z" />
    <glyph glyph-name="uni00B2" unicode="&#xb2;" horiz-adv-x="861" 
d="M264 420v72q0 20 18.5 75.5t47.5 130t61 152.5t60 144.5t44 106t12 34.5q23 49 38 133.5t15 153.5q0 112 -12 167t-32 73.5t-45 18.5t-47 -18.5t-35.5 -76t-13.5 -176.5v-178h-116l1 82q0 145 11 248.5t58.5 159.5t158.5 56q62 0 98.5 -33.5t54.5 -89t23.5 -121
t5.5 -128.5q0 -108 -27 -199t-67.5 -174t-83 -165.5t-75 -172.5t-42.5 -197h276v-78h-387z" />
    <glyph glyph-name="uni00B3" unicode="&#xb3;" horiz-adv-x="880" 
d="M438 542q-113 0 -159 83.5t-46 254.5v29h100v-30q0 -148 18.5 -200.5t86.5 -52.5q67 0 91 56t24 196q0 155 -34 208.5t-109 53.5h-31v87h29q50 0 81 14.5t46 65t15 155.5q0 99 -15.5 147.5t-41 64t-57.5 15.5q-29 0 -51.5 -17.5t-35 -67t-12.5 -145.5v-22h-100v23
q0 155 44 235t157 80t162 -80t49 -235q0 -103 -27 -178.5t-92 -100.5q63 -28 92 -117t29 -188q0 -170 -51 -252t-162 -82z" />
    <glyph glyph-name="uni00B4" unicode="&#xb4;" horiz-adv-x="354" 
d="M50 1640l94 332h160l-185 -332h-69z" />
    <glyph glyph-name="uni00B5" unicode="&#xb5;" horiz-adv-x="914" 
d="M385 -20q-47 0 -102.5 26.5t-95 93t-39.5 185.5v1215h149v-1208q0 -88 40 -130.5t107 -42.5q79 0 123.5 49.5t44.5 134.5l-2 1197h151v-1500h-149v150q-18 -64 -79 -117t-148 -53zM148 483h149v-748h-149v748z" />
    <glyph glyph-name="paragraph" unicode="&#xb6;" horiz-adv-x="989" 
d="M430 0v1180q-154 17 -230.5 98t-76.5 176q0 59 15.5 114t62 98.5t137.5 68.5t242 25h243v-1760h-120v1620h-153v-1620h-120z" />
    <glyph glyph-name="periodcentered" unicode="&#xb7;" horiz-adv-x="480" 
d="M163 786v175h170v-175h-170z" />
    <glyph glyph-name="uni00B8" unicode="&#xb8;" horiz-adv-x="456" 
d="M137 -596q-40 0 -87 9v86q95 0 144.5 20t68 52.5t18.5 69.5q0 68 -49 109t-111 54l40 196h57l9 -147q96 -48 137.5 -109t41.5 -120q0 -58 -34.5 -108t-95.5 -81t-139 -31z" />
    <glyph glyph-name="uni00B9" unicode="&#xb9;" horiz-adv-x="626" 
d="M266 414v1171q-25 -34 -73.5 -51t-89.5 -17v74q40 6 78.5 26.5t71.5 56t56 86.5h68v-1346h-111z" />
    <glyph glyph-name="ordmasculine" unicode="&#xba;" horiz-adv-x="908" 
d="M477 527q-111 0 -161.5 55t-63.5 151.5t-13 220.5v404q0 114 14.5 205t65.5 144t158 53t156.5 -53t63 -144t13.5 -205v-404q0 -122 -11.5 -219t-60.5 -152.5t-161 -55.5zM477 631q76 0 94.5 78t18.5 204v474q0 119 -19 192.5t-94 73.5q-81 0 -100 -73.5t-19 -192.5v-474
q0 -127 18.5 -204.5t100.5 -77.5z" />
    <glyph glyph-name="guillemotright" unicode="&#xbb;" horiz-adv-x="1304" 
d="M716 414v160l312 175l-312 166v150l466 -271v-95zM193 414v160l312 175l-312 166v150l466 -271v-95z" />
    <glyph glyph-name="onequarter" unicode="&#xbc;" horiz-adv-x="1535" 
d="M489 0l459 1783h120l-461 -1783h-118zM267 424v1181q-26 -34 -75 -51t-92 -17v75q41 7 81 27.5t74 56.5t57 87h71v-1359h-116zM1190 0v244h-274l-5 70l278 910h95v-898h109v-82h-109v-244h-94zM1007 326h183v663z" />
    <glyph glyph-name="onehalf" unicode="&#xbd;" horiz-adv-x="1620" 
d="M489 0l459 1783h120l-461 -1783h-118zM267 424v1181q-26 -34 -75 -51t-92 -17v75q41 7 81 27.5t74 56.5t57 87h71v-1359h-116zM1131 0v74q0 54 18 125.5t61 165.5l167 359q32 68 43 143.5t11 145.5q0 112 -12 167.5t-32.5 74t-45.5 18.5t-47.5 -18.5t-36 -76.5
t-13.5 -177v-180h-117v83q0 146 11 251t59.5 161t160.5 56q84 0 123 -52.5t50.5 -137.5t11.5 -185q0 -93 -17.5 -171t-55.5 -157l-165 -354q-42 -88 -52 -152.5l-10 -64.5h280v-98h-392z" />
    <glyph glyph-name="threequarters" unicode="&#xbe;" horiz-adv-x="1555" 
d="M568 0l459 1783h120l-461 -1783h-118zM358 551q-117 0 -164 84.5t-47 257.5v31h105v-31q0 -149 19 -202t88 -53q68 0 92 56.5t24 197.5q0 156 -34.5 210.5t-111.5 54.5h-31v87h31q51 0 82.5 15.5t46.5 66.5t15 156q0 99 -15.5 148t-42 65t-58.5 16q-30 0 -53 -18
t-35.5 -67.5t-12.5 -145.5v-23h-105v24q0 157 45.5 238t162.5 81t168 -80.5t51 -238.5q0 -105 -28 -181t-94 -101q65 -29 94.5 -118.5t29.5 -190.5q0 -172 -53 -255.5t-169 -83.5zM1269 0v244h-274l-5 70l278 910h95v-898h109v-82h-109v-244h-94zM1086 326h183v663z" />
    <glyph glyph-name="questiondown" unicode="&#xbf;" horiz-adv-x="708" 
d="M521 1008v-316q-93 -34 -146.5 -78t-78 -107t-31.5 -154t-7 -220q0 -157 17.5 -224.5t77.5 -67.5q65 0 85.5 60t20.5 226v215h132v-205q0 -54 0.5 -125.5t-16 -138t-66.5 -110.5t-152 -44q-90 0 -138 34t-67.5 97t-22.5 148.5t-3 189.5q0 173 24 287.5t82.5 181
t163.5 95.5v256h125zM522 1502v-299h-126v299h126z" />
    <glyph glyph-name="Agrave" unicode="&#xc0;" horiz-adv-x="818" 
d="M35 0l283 1760h152l313 -1760h-144l-58 362h-352l-53 -362h-141zM248 473h313l-162 1003h-2zM386 1900l-185 332h160l94 -332h-69z" />
    <glyph glyph-name="Aacute" unicode="&#xc1;" horiz-adv-x="818" 
d="M35 0l283 1760h152l313 -1760h-144l-58 362h-352l-53 -362h-141zM248 473h313l-162 1003h-2zM311 1900l94 332h160l-185 -332h-69z" />
    <glyph glyph-name="Acircumflex" unicode="&#xc2;" horiz-adv-x="818" 
d="M35 0l283 1760h152l313 -1760h-144l-58 362h-352l-53 -362h-141zM248 473h313l-162 1003h-2zM194 1900l121 254h166l120 -254h-117l-86 175l-86 -175h-118z" />
    <glyph glyph-name="Atilde" unicode="&#xc3;" horiz-adv-x="818" 
d="M35 0l283 1760h152l313 -1760h-144l-58 362h-352l-53 -362h-141zM248 473h313l-162 1003h-2zM539 1900q-44 0 -89.5 20.5t-90 41t-86.5 20.5q-16 0 -23 -2q-16 -4 -26.5 -18.5t-24.5 -40.5l-93 46q20 68 47 95.5t58 32.5t63 5q41 0 89.5 -18t92 -36t68.5 -18h4
q14 2 27 14.5t29 57.5l105 -29l-9 -26q-31 -97 -62 -121t-79 -24z" />
    <glyph glyph-name="Adieresis" unicode="&#xc4;" horiz-adv-x="818" 
d="M35 0l283 1760h152l313 -1760h-144l-58 362h-352l-53 -362h-141zM248 473h313l-162 1003h-2zM522 1900v133h182v-133h-182zM92 1900v133h182v-133h-182z" />
    <glyph glyph-name="Aring" unicode="&#xc5;" horiz-adv-x="818" 
d="M35 0l283 1760h152l313 -1760h-144l-58 362h-352l-53 -362h-141zM248 473h313l-162 1003h-2zM398 1900q-85 0 -127 48.5t-42 103.5q0 56 42 105t127 49q86 0 127.5 -49t41.5 -105q0 -55 -41.5 -103.5t-127.5 -48.5zM398 1951q50 0 75 32t25 70t-25 70t-75 32
q-48 0 -72.5 -32t-24.5 -70t24.5 -70t72.5 -32z" />
    <glyph glyph-name="AE" unicode="&#xc6;" horiz-adv-x="1074" 
d="M43 0l390 1760h556v-116h-305v-688h286v-120h-286v-718h302v-118h-435v370h-292l-76 -370h-140zM288 483h263v1163l-18 -1z" />
    <glyph glyph-name="Ccedilla" unicode="&#xc7;" horiz-adv-x="868" 
d="M448 -20q-129 0 -196.5 65.5t-91.5 192.5t-24 312v701q0 112 11 209t43 169.5t95.5 113t168.5 40.5q107 0 167.5 -41.5t88 -115.5t34.5 -173t7 -214v-152h-151v170q0 196 -25 298.5t-122 102.5q-100 0 -134 -101.5t-34 -298.5v-706q0 -162 12 -261t47 -144t103 -45
q98 0 125.5 103.5t27.5 345.5v141h150v-140q0 -184 -22 -312t-87 -194t-193 -66zM383 -596q-40 0 -87 9v86q95 0 144.5 20t68 52.5t18.5 69.5q0 68 -49 109t-111 54l40 196h57l9 -147q96 -48 137.5 -109t41.5 -120q0 -58 -34.5 -108t-95.5 -81t-139 -31z" />
    <glyph glyph-name="Egrave" unicode="&#xc8;" horiz-adv-x="716" 
d="M166 0v1760h465v-116h-316v-688h297v-121h-297v-717h313v-118h-462zM386 1900l-185 332h160l94 -332h-69z" />
    <glyph glyph-name="Eacute" unicode="&#xc9;" horiz-adv-x="716" 
d="M166 0v1760h465v-116h-316v-688h297v-121h-297v-717h313v-118h-462zM311 1900l94 332h160l-185 -332h-69z" />
    <glyph glyph-name="Ecircumflex" unicode="&#xca;" horiz-adv-x="716" 
d="M166 0v1760h465v-116h-316v-688h297v-121h-297v-717h313v-118h-462zM194 1900l121 254h166l120 -254h-117l-86 175l-86 -175h-118z" />
    <glyph glyph-name="Edieresis" unicode="&#xcb;" horiz-adv-x="716" 
d="M166 0v1760h465v-116h-316v-688h297v-121h-297v-717h313v-118h-462zM522 1900v133h182v-133h-182zM92 1900v133h182v-133h-182z" />
    <glyph glyph-name="Igrave" unicode="&#xcc;" horiz-adv-x="485" 
d="M168 0v1760h149v-1760h-149zM231 1900l-185 332h160l94 -332h-69z" />
    <glyph glyph-name="Iacute" unicode="&#xcd;" horiz-adv-x="485" 
d="M168 0v1760h149v-1760h-149zM156 1900l94 332h160l-185 -332h-69z" />
    <glyph glyph-name="Icircumflex" unicode="&#xce;" horiz-adv-x="485" 
d="M168 0v1760h149v-1760h-149zM39 1900l121 254h166l120 -254h-117l-86 175l-86 -175h-118z" />
    <glyph glyph-name="Idieresis" unicode="&#xcf;" horiz-adv-x="485" 
d="M168 0v1760h149v-1760h-149zM367 1900v133h182v-133h-182zM-63 1900v133h182v-133h-182z" />
    <glyph glyph-name="Eth" unicode="&#xd0;" horiz-adv-x="914" 
d="M166 0v1760h271q143 0 216 -61.5t99 -174.5t26 -266v-754q0 -183 -33.5 -293.5t-109.5 -160.5t-204 -50h-265zM314 128h123q65 0 107.5 30t63.5 114.5t21 246.5v755q0 195 -45 278.5t-138 83.5h-132v-1508zM33 839v81h467v-81h-467z" />
    <glyph glyph-name="Ntilde" unicode="&#xd1;" horiz-adv-x="983" 
d="M166 0v1760h104l432 -1361l-15 606v755h130v-1760h-116l-405 1326l10 -476v-850h-140zM633 1900q-44 0 -89.5 20.5t-90 41t-86.5 20.5q-16 0 -23 -2q-16 -4 -26.5 -18.5t-24.5 -40.5l-93 46q20 68 47 95.5t58 32.5t63 5q41 0 89.5 -18t92 -36t68.5 -18h4q14 2 27 14.5
t29 57.5l105 -29l-9 -26q-31 -97 -62 -121t-79 -24z" />
    <glyph glyph-name="Ograve" unicode="&#xd2;" horiz-adv-x="891" 
d="M447 -20q-127 0 -194.5 58t-92 177.5t-24.5 303.5v749q0 152 21 268t88.5 181.5t208.5 65.5q106 0 167 -37.5t89.5 -106.5t36.5 -163t8 -208v-749q0 -184 -24 -303.5t-90 -177.5t-194 -58zM447 102q64 0 98.5 37t47.5 128t13 252v761q0 199 -28.5 288.5t-123.5 89.5
q-100 0 -134.5 -90t-34.5 -287v-762q0 -161 13 -252t48 -128t101 -37zM434 1900l-185 332h160l94 -332h-69z" />
    <glyph glyph-name="Oacute" unicode="&#xd3;" horiz-adv-x="891" 
d="M447 -20q-127 0 -194.5 58t-92 177.5t-24.5 303.5v749q0 152 21 268t88.5 181.5t208.5 65.5q106 0 167 -37.5t89.5 -106.5t36.5 -163t8 -208v-749q0 -184 -24 -303.5t-90 -177.5t-194 -58zM447 102q64 0 98.5 37t47.5 128t13 252v761q0 199 -28.5 288.5t-123.5 89.5
q-100 0 -134.5 -90t-34.5 -287v-762q0 -161 13 -252t48 -128t101 -37zM359 1900l94 332h160l-185 -332h-69z" />
    <glyph glyph-name="Ocircumflex" unicode="&#xd4;" horiz-adv-x="891" 
d="M447 -20q-127 0 -194.5 58t-92 177.5t-24.5 303.5v749q0 152 21 268t88.5 181.5t208.5 65.5q106 0 167 -37.5t89.5 -106.5t36.5 -163t8 -208v-749q0 -184 -24 -303.5t-90 -177.5t-194 -58zM447 102q64 0 98.5 37t47.5 128t13 252v761q0 199 -28.5 288.5t-123.5 89.5
q-100 0 -134.5 -90t-34.5 -287v-762q0 -161 13 -252t48 -128t101 -37zM242 1900l121 254h166l120 -254h-117l-86 175l-86 -175h-118z" />
    <glyph glyph-name="Otilde" unicode="&#xd5;" horiz-adv-x="891" 
d="M447 -20q-127 0 -194.5 58t-92 177.5t-24.5 303.5v749q0 152 21 268t88.5 181.5t208.5 65.5q106 0 167 -37.5t89.5 -106.5t36.5 -163t8 -208v-749q0 -184 -24 -303.5t-90 -177.5t-194 -58zM447 102q64 0 98.5 37t47.5 128t13 252v761q0 199 -28.5 288.5t-123.5 89.5
q-100 0 -134.5 -90t-34.5 -287v-762q0 -161 13 -252t48 -128t101 -37zM587 1900q-44 0 -89.5 20.5t-90 41t-86.5 20.5q-16 0 -23 -2q-16 -4 -26.5 -18.5t-24.5 -40.5l-93 46q20 68 47 95.5t58 32.5t63 5q41 0 89.5 -18t92 -36t68.5 -18h4q14 2 27 14.5t29 57.5l105 -29
l-9 -26q-31 -97 -62 -121t-79 -24z" />
    <glyph glyph-name="Odieresis" unicode="&#xd6;" horiz-adv-x="891" 
d="M447 -20q-127 0 -194.5 58t-92 177.5t-24.5 303.5v749q0 152 21 268t88.5 181.5t208.5 65.5q106 0 167 -37.5t89.5 -106.5t36.5 -163t8 -208v-749q0 -184 -24 -303.5t-90 -177.5t-194 -58zM447 102q64 0 98.5 37t47.5 128t13 252v761q0 199 -28.5 288.5t-123.5 89.5
q-100 0 -134.5 -90t-34.5 -287v-762q0 -161 13 -252t48 -128t101 -37zM570 1900v133h182v-133h-182zM140 1900v133h182v-133h-182z" />
    <glyph glyph-name="multiply" unicode="&#xd7;" horiz-adv-x="710" 
d="M168 394l-84 84l188 187l-188 187l84 84l187 -188l187 188l84 -84l-188 -187l188 -187l-84 -84l-187 188z" />
    <glyph glyph-name="Oslash" unicode="&#xd8;" horiz-adv-x="891" 
d="M256 -225l-59 19l469 2162l67 -15zM447 -20q-127 0 -194.5 58t-92 177.5t-24.5 303.5v749q0 152 21 268t88.5 181.5t208.5 65.5q106 0 167 -37.5t89.5 -106.5t36.5 -163t8 -208v-749q0 -184 -24 -303.5t-90 -177.5t-194 -58zM447 102q64 0 98.5 37t47.5 128t13 252v761
q0 199 -28.5 288.5t-123.5 89.5q-100 0 -134.5 -90t-34.5 -287v-762q0 -161 13 -252t48 -128t101 -37z" />
    <glyph glyph-name="Ugrave" unicode="&#xd9;" horiz-adv-x="915" 
d="M459 -20q-124 0 -191.5 51.5t-93.5 156t-26 264.5v1308h149v-1303q0 -114 8 -193.5t42.5 -120.5t112.5 -41q79 0 112 41t39.5 120t6.5 193v1304h149v-1308q0 -160 -25 -264.5t-91.5 -156t-191.5 -51.5zM446 1900l-185 332h160l94 -332h-69z" />
    <glyph glyph-name="Uacute" unicode="&#xda;" horiz-adv-x="915" 
d="M459 -20q-124 0 -191.5 51.5t-93.5 156t-26 264.5v1308h149v-1303q0 -114 8 -193.5t42.5 -120.5t112.5 -41q79 0 112 41t39.5 120t6.5 193v1304h149v-1308q0 -160 -25 -264.5t-91.5 -156t-191.5 -51.5zM371 1900l94 332h160l-185 -332h-69z" />
    <glyph glyph-name="Ucircumflex" unicode="&#xdb;" horiz-adv-x="915" 
d="M459 -20q-124 0 -191.5 51.5t-93.5 156t-26 264.5v1308h149v-1303q0 -114 8 -193.5t42.5 -120.5t112.5 -41q79 0 112 41t39.5 120t6.5 193v1304h149v-1308q0 -160 -25 -264.5t-91.5 -156t-191.5 -51.5zM254 1900l121 254h166l120 -254h-117l-86 175l-86 -175h-118z" />
    <glyph glyph-name="Udieresis" unicode="&#xdc;" horiz-adv-x="915" 
d="M459 -20q-124 0 -191.5 51.5t-93.5 156t-26 264.5v1308h149v-1303q0 -114 8 -193.5t42.5 -120.5t112.5 -41q79 0 112 41t39.5 120t6.5 193v1304h149v-1308q0 -160 -25 -264.5t-91.5 -156t-191.5 -51.5zM582 1900v133h182v-133h-182zM152 1900v133h182v-133h-182z" />
    <glyph glyph-name="Yacute" unicode="&#xdd;" horiz-adv-x="786" 
d="M334 0v772l-318 988h150l241 -778h3l206 778h154l-287 -987v-773h-149zM306 1900l94 332h160l-185 -332h-69z" />
    <glyph glyph-name="Thorn" unicode="&#xde;" horiz-adv-x="865" 
d="M166 0v1760h149v-225h157q106 0 167.5 -37t91 -105t38 -161t8.5 -205v-20q0 -183 -25.5 -302.5t-93 -178t-195.5 -58.5h-148v-468h-149zM315 594h159q62 0 95.5 37.5t46.5 127.5t13 247v36q0 192 -28 280.5t-121 88.5h-165v-817z" />
    <glyph glyph-name="germandbls" unicode="&#xdf;" horiz-adv-x="933" 
d="M157 0v1417q0 91 6 159.5t31.5 114.5t84.5 69t165 23q134 0 205.5 -32.5t98.5 -112t27 -221.5v-197q0 -86 -15 -139t-51.5 -83.5t-102.5 -52.5q88 -21 138 -62t70.5 -119t20.5 -211v-77q0 -112 -7.5 -200.5t-36.5 -150t-92.5 -93.5t-176.5 -32h-104v100q121 0 178 24
t74 87.5t17 183.5v261q0 124 -54.5 178.5t-205.5 54.5v108q113 0 159 38.5t46 134.5v330q0 110 -36.5 148.5t-138.5 38.5q-85 0 -119 -38.5t-34 -148.5v-1500h-147z" />
    <glyph glyph-name="agrave" unicode="&#xe0;" horiz-adv-x="844" 
d="M366 -11q-119 0 -179 100.5t-60 287.5v192q0 80 33.5 136t93 98t139 78t170.5 75v102q0 115 -6 187.5t-33 107t-91 34.5q-62 0 -91.5 -33.5t-38 -108t-8.5 -197.5v-37h-150v40q0 90 6.5 174t33 150t85 104.5t163.5 38.5q106 0 163.5 -35t82 -104t29 -170t4.5 -233v-976
h-149v112q-6 -18 -29 -47.5t-64.5 -52.5t-103.5 -23zM393 113q59 0 106 33.5t64 64.5v626q-93 -42 -150.5 -72t-87 -61.5t-40 -77t-10.5 -117.5v-119q0 -150 23 -213.5t95 -63.5zM410 1640l-185 332h160l94 -332h-69z" />
    <glyph glyph-name="aacute" unicode="&#xe1;" horiz-adv-x="844" 
d="M366 -11q-119 0 -179 100.5t-60 287.5v192q0 80 33.5 136t93 98t139 78t170.5 75v102q0 115 -6 187.5t-33 107t-91 34.5q-62 0 -91.5 -33.5t-38 -108t-8.5 -197.5v-37h-150v40q0 90 6.5 174t33 150t85 104.5t163.5 38.5q106 0 163.5 -35t82 -104t29 -170t4.5 -233v-976
h-149v112q-6 -18 -29 -47.5t-64.5 -52.5t-103.5 -23zM393 113q59 0 106 33.5t64 64.5v626q-93 -42 -150.5 -72t-87 -61.5t-40 -77t-10.5 -117.5v-119q0 -150 23 -213.5t95 -63.5zM335 1640l94 332h160l-185 -332h-69z" />
    <glyph glyph-name="acircumflex" unicode="&#xe2;" horiz-adv-x="844" 
d="M366 -11q-119 0 -179 100.5t-60 287.5v192q0 80 33.5 136t93 98t139 78t170.5 75v102q0 115 -6 187.5t-33 107t-91 34.5q-62 0 -91.5 -33.5t-38 -108t-8.5 -197.5v-37h-150v40q0 90 6.5 174t33 150t85 104.5t163.5 38.5q106 0 163.5 -35t82 -104t29 -170t4.5 -233v-976
h-149v112q-6 -18 -29 -47.5t-64.5 -52.5t-103.5 -23zM393 113q59 0 106 33.5t64 64.5v626q-93 -42 -150.5 -72t-87 -61.5t-40 -77t-10.5 -117.5v-119q0 -150 23 -213.5t95 -63.5zM218 1640l121 254h166l120 -254h-117l-86 175l-86 -175h-118z" />
    <glyph glyph-name="atilde" unicode="&#xe3;" horiz-adv-x="844" 
d="M366 -11q-119 0 -179 100.5t-60 287.5v192q0 80 33.5 136t93 98t139 78t170.5 75v102q0 115 -6 187.5t-33 107t-91 34.5q-62 0 -91.5 -33.5t-38 -108t-8.5 -197.5v-37h-150v40q0 90 6.5 174t33 150t85 104.5t163.5 38.5q106 0 163.5 -35t82 -104t29 -170t4.5 -233v-976
h-149v112q-6 -18 -29 -47.5t-64.5 -52.5t-103.5 -23zM393 113q59 0 106 33.5t64 64.5v626q-93 -42 -150.5 -72t-87 -61.5t-40 -77t-10.5 -117.5v-119q0 -150 23 -213.5t95 -63.5zM563 1640q-44 0 -89.5 20.5t-90 41t-86.5 20.5q-16 0 -23 -2q-16 -4 -26.5 -18.5t-24.5 -40.5
l-93 46q20 68 47 95.5t58 32.5t63 5q41 0 89.5 -18t92 -36t68.5 -18h4q14 2 27 14.5t29 57.5l105 -29l-9 -26q-31 -97 -62 -121t-79 -24z" />
    <glyph glyph-name="adieresis" unicode="&#xe4;" horiz-adv-x="844" 
d="M366 -11q-119 0 -179 100.5t-60 287.5v192q0 80 33.5 136t93 98t139 78t170.5 75v102q0 115 -6 187.5t-33 107t-91 34.5q-62 0 -91.5 -33.5t-38 -108t-8.5 -197.5v-37h-150v40q0 90 6.5 174t33 150t85 104.5t163.5 38.5q106 0 163.5 -35t82 -104t29 -170t4.5 -233v-976
h-149v112q-6 -18 -29 -47.5t-64.5 -52.5t-103.5 -23zM393 113q59 0 106 33.5t64 64.5v626q-93 -42 -150.5 -72t-87 -61.5t-40 -77t-10.5 -117.5v-119q0 -150 23 -213.5t95 -63.5zM546 1640v133h182v-133h-182zM116 1640v133h182v-133h-182z" />
    <glyph glyph-name="aring" unicode="&#xe5;" horiz-adv-x="844" 
d="M366 -11q-119 0 -179 100.5t-60 287.5v192q0 80 33.5 136t93 98t139 78t170.5 75v102q0 115 -6 187.5t-33 107t-91 34.5q-62 0 -91.5 -33.5t-38 -108t-8.5 -197.5v-37h-150v40q0 90 6.5 174t33 150t85 104.5t163.5 38.5q106 0 163.5 -35t82 -104t29 -170t4.5 -233v-976
h-149v112q-6 -18 -29 -47.5t-64.5 -52.5t-103.5 -23zM393 113q59 0 106 33.5t64 64.5v626q-93 -42 -150.5 -72t-87 -61.5t-40 -77t-10.5 -117.5v-119q0 -150 23 -213.5t95 -63.5zM422 1640q-85 0 -127 48.5t-42 103.5q0 56 42 105t127 49q86 0 127.5 -49t41.5 -105
q0 -55 -41.5 -103.5t-127.5 -48.5zM422 1691q50 0 75 32t25 70t-25 70t-75 32q-48 0 -72.5 -32t-24.5 -70t24.5 -70t72.5 -32z" />
    <glyph glyph-name="ae" unicode="&#xe6;" horiz-adv-x="1236" 
d="M851 -18q-95 0 -152 31t-90 90q-23 -22 -65.5 -49t-92 -46t-96.5 -19q-118 0 -173 100.5t-55 285.5v191q0 81 34 137.5t94 98t140 78t171 76.5v109q0 116 -7 187t-34.5 103.5t-91.5 32.5q-63 0 -92 -34.5t-37.5 -109.5t-8.5 -197v-36h-150v40q0 90 6.5 174t33 150
t85 104.5t163.5 38.5q87 0 135 -23t70 -68q35 44 89 67.5t133 23.5q101 0 156.5 -39.5t80 -110t30 -164t5.5 -202.5v-248h-420v-311q0 -111 8 -184.5t38 -109.5t96 -36q61 0 88 38t34 111t7 177v117h145v-51q0 -114 -5 -209.5t-29.5 -166t-81.5 -109t-161 -38.5zM393 112
q59 0 107.5 34t65.5 65v629q-93 -42 -150.5 -72.5t-88 -62.5t-41.5 -77t-11 -117v-121q0 -151 23 -214.5t95 -63.5zM712 874h271v194q0 103 -4.5 174t-30 108t-88.5 37q-65 0 -96.5 -40.5t-41.5 -113.5t-10 -170v-189z" />
    <glyph glyph-name="ccedilla" unicode="&#xe7;" horiz-adv-x="803" 
d="M418 -18q-102 0 -161 39t-86.5 110t-35 167.5t-7.5 212.5v517q0 136 19.5 247t83 177t194.5 66q102 0 158.5 -36t81 -102.5t30 -158t5.5 -201.5v-47h-151v92q0 105 -5 175t-30.5 105.5t-87.5 35.5q-67 0 -98.5 -40t-41 -112.5t-9.5 -171.5v-602q0 -116 8 -190.5t38 -110
t96 -35.5q63 0 90 39t33.5 112.5t6.5 178.5v113h151v-45q0 -117 -5 -215t-29.5 -169.5t-82.5 -111t-165 -39.5zM351 -596q-40 0 -87 9v86q95 0 144.5 20t68 52.5t18.5 69.5q0 68 -49 109t-111 54l40 196h57l9 -147q96 -48 137.5 -109t41.5 -120q0 -58 -34.5 -108t-95.5 -81
t-139 -31z" />
    <glyph glyph-name="egrave" unicode="&#xe8;" horiz-adv-x="802" 
d="M421 -18q-103 0 -162.5 38.5t-87.5 109.5t-35.5 168t-7.5 213v503q0 106 9 197.5t38.5 160.5t89 107.5t160.5 38.5t157 -39.5t80.5 -110t30 -164t5.5 -202.5v-250h-421v-302q0 -172 22.5 -254.5t119.5 -82.5q62 0 89 39.5t34 113.5t7 178v112h145v-49q0 -114 -4.5 -209.5
t-28.5 -166.5t-80.5 -110t-159.5 -39zM277 877h272v191q0 103 -4.5 174t-30 108t-88.5 37q-65 0 -97 -40.5t-42 -114t-10 -172.5v-183zM389 1640l-185 332h160l94 -332h-69z" />
    <glyph glyph-name="eacute" unicode="&#xe9;" horiz-adv-x="802" 
d="M421 -18q-103 0 -162.5 38.5t-87.5 109.5t-35.5 168t-7.5 213v503q0 106 9 197.5t38.5 160.5t89 107.5t160.5 38.5t157 -39.5t80.5 -110t30 -164t5.5 -202.5v-250h-421v-302q0 -172 22.5 -254.5t119.5 -82.5q62 0 89 39.5t34 113.5t7 178v112h145v-49q0 -114 -4.5 -209.5
t-28.5 -166.5t-80.5 -110t-159.5 -39zM277 877h272v191q0 103 -4.5 174t-30 108t-88.5 37q-65 0 -97 -40.5t-42 -114t-10 -172.5v-183zM314 1640l94 332h160l-185 -332h-69z" />
    <glyph glyph-name="ecircumflex" unicode="&#xea;" horiz-adv-x="802" 
d="M421 -18q-103 0 -162.5 38.5t-87.5 109.5t-35.5 168t-7.5 213v503q0 106 9 197.5t38.5 160.5t89 107.5t160.5 38.5t157 -39.5t80.5 -110t30 -164t5.5 -202.5v-250h-421v-302q0 -172 22.5 -254.5t119.5 -82.5q62 0 89 39.5t34 113.5t7 178v112h145v-49q0 -114 -4.5 -209.5
t-28.5 -166.5t-80.5 -110t-159.5 -39zM277 877h272v191q0 103 -4.5 174t-30 108t-88.5 37q-65 0 -97 -40.5t-42 -114t-10 -172.5v-183zM197 1640l121 254h166l120 -254h-117l-86 175l-86 -175h-118z" />
    <glyph glyph-name="edieresis" unicode="&#xeb;" horiz-adv-x="802" 
d="M421 -18q-103 0 -162.5 38.5t-87.5 109.5t-35.5 168t-7.5 213v503q0 106 9 197.5t38.5 160.5t89 107.5t160.5 38.5t157 -39.5t80.5 -110t30 -164t5.5 -202.5v-250h-421v-302q0 -172 22.5 -254.5t119.5 -82.5q62 0 89 39.5t34 113.5t7 178v112h145v-49q0 -114 -4.5 -209.5
t-28.5 -166.5t-80.5 -110t-159.5 -39zM277 877h272v191q0 103 -4.5 174t-30 108t-88.5 37q-65 0 -97 -40.5t-42 -114t-10 -172.5v-183zM525 1640v133h182v-133h-182zM95 1640v133h182v-133h-182z" />
    <glyph glyph-name="igrave" unicode="&#xec;" horiz-adv-x="474" 
d="M162 0v1500h150v-1500h-150zM225 1640l-185 332h160l94 -332h-69z" />
    <glyph glyph-name="iacute" unicode="&#xed;" horiz-adv-x="474" 
d="M162 0v1500h150v-1500h-150zM150 1640l94 332h160l-185 -332h-69z" />
    <glyph glyph-name="icircumflex" unicode="&#xee;" horiz-adv-x="474" 
d="M162 0v1500h150v-1500h-150zM33 1640l121 254h166l120 -254h-117l-86 175l-86 -175h-118z" />
    <glyph glyph-name="idieresis" unicode="&#xef;" horiz-adv-x="474" 
d="M162 0v1500h150v-1500h-150zM361 1640v133h182v-133h-182zM-69 1640v133h182v-133h-182z" />
    <glyph glyph-name="eth" unicode="&#xf0;" horiz-adv-x="910" 
d="M431 -20q-127 0 -196.5 53.5t-96.5 157t-27 251.5v115q0 201 28 323t98 175.5t196 47.5q44 -1 97.5 -24.5t85.5 -69.5l-1 39t-2.5 98t-4 120.5t-5.5 108t-7 59.5l-225 -135l-53 100l225 135q-54 64 -123.5 86.5t-126.5 19.5v140q118 2 218 -37.5t167 -126.5l200 119
l53 -100l-199 -119q6 -18 11 -69.5t9 -120.5t6.5 -141t3.5 -132.5t1 -94.5v-452q0 -147 -26 -266t-97.5 -189.5t-208.5 -70.5zM431 107q113 0 148 95t35 303v421q-14 3 -66 27.5t-123 24.5q-68 0 -103.5 -40.5t-48.5 -135.5t-13 -257v-99q0 -138 15 -211.5t52 -100.5
t104 -27z" />
    <glyph glyph-name="ntilde" unicode="&#xf1;" horiz-adv-x="920" 
d="M160 0v1500h149v-147q20 64 87 115t155 51q97 0 159 -73.5t62 -234.5v-1211h-149v1223q0 92 -42.5 128t-102.5 36q-41 0 -80 -14t-64 -50t-25 -103v-1220h-149zM601 1640q-44 0 -89.5 20.5t-90 41t-86.5 20.5q-16 0 -23 -2q-16 -4 -26.5 -18.5t-24.5 -40.5l-93 46
q20 68 47 95.5t58 32.5t63 5q41 0 89.5 -18t92 -36t68.5 -18h4q14 2 27 14.5t29 57.5l105 -29l-9 -26q-31 -97 -62 -121t-79 -24z" />
    <glyph glyph-name="ograve" unicode="&#xf2;" horiz-adv-x="845" 
d="M426 -18q-104 0 -164 39t-89 110.5t-37 169t-8 214.5v503q0 141 18.5 254.5t82 179.5t197.5 66q101 0 160 -38t87 -106t36 -159t8 -197v-503q0 -115 -7 -212t-34 -169t-86 -112t-164 -40zM426 113q62 0 92.5 44t40 122.5t9.5 183.5v590q0 99 -9.5 174t-39.5 117.5
t-93 42.5q-67 0 -99 -42.5t-41 -117.5t-9 -174v-590q0 -105 9.5 -183.5t41.5 -122.5t98 -44zM411 1640l-185 332h160l94 -332h-69z" />
    <glyph glyph-name="oacute" unicode="&#xf3;" horiz-adv-x="845" 
d="M426 -18q-104 0 -164 39t-89 110.5t-37 169t-8 214.5v503q0 141 18.5 254.5t82 179.5t197.5 66q101 0 160 -38t87 -106t36 -159t8 -197v-503q0 -115 -7 -212t-34 -169t-86 -112t-164 -40zM426 113q62 0 92.5 44t40 122.5t9.5 183.5v590q0 99 -9.5 174t-39.5 117.5
t-93 42.5q-67 0 -99 -42.5t-41 -117.5t-9 -174v-590q0 -105 9.5 -183.5t41.5 -122.5t98 -44zM336 1640l94 332h160l-185 -332h-69z" />
    <glyph glyph-name="ocircumflex" unicode="&#xf4;" horiz-adv-x="845" 
d="M426 -18q-104 0 -164 39t-89 110.5t-37 169t-8 214.5v503q0 141 18.5 254.5t82 179.5t197.5 66q101 0 160 -38t87 -106t36 -159t8 -197v-503q0 -115 -7 -212t-34 -169t-86 -112t-164 -40zM426 113q62 0 92.5 44t40 122.5t9.5 183.5v590q0 99 -9.5 174t-39.5 117.5
t-93 42.5q-67 0 -99 -42.5t-41 -117.5t-9 -174v-590q0 -105 9.5 -183.5t41.5 -122.5t98 -44zM219 1640l121 254h166l120 -254h-117l-86 175l-86 -175h-118z" />
    <glyph glyph-name="otilde" unicode="&#xf5;" horiz-adv-x="845" 
d="M426 -18q-104 0 -164 39t-89 110.5t-37 169t-8 214.5v503q0 141 18.5 254.5t82 179.5t197.5 66q101 0 160 -38t87 -106t36 -159t8 -197v-503q0 -115 -7 -212t-34 -169t-86 -112t-164 -40zM426 113q62 0 92.5 44t40 122.5t9.5 183.5v590q0 99 -9.5 174t-39.5 117.5
t-93 42.5q-67 0 -99 -42.5t-41 -117.5t-9 -174v-590q0 -105 9.5 -183.5t41.5 -122.5t98 -44zM564 1640q-44 0 -89.5 20.5t-90 41t-86.5 20.5q-16 0 -23 -2q-16 -4 -26.5 -18.5t-24.5 -40.5l-93 46q20 68 47 95.5t58 32.5t63 5q41 0 89.5 -18t92 -36t68.5 -18h4q14 2 27 14.5
t29 57.5l105 -29l-9 -26q-31 -97 -62 -121t-79 -24z" />
    <glyph glyph-name="odieresis" unicode="&#xf6;" horiz-adv-x="845" 
d="M426 -18q-104 0 -164 39t-89 110.5t-37 169t-8 214.5v503q0 141 18.5 254.5t82 179.5t197.5 66q101 0 160 -38t87 -106t36 -159t8 -197v-503q0 -115 -7 -212t-34 -169t-86 -112t-164 -40zM426 113q62 0 92.5 44t40 122.5t9.5 183.5v590q0 99 -9.5 174t-39.5 117.5
t-93 42.5q-67 0 -99 -42.5t-41 -117.5t-9 -174v-590q0 -105 9.5 -183.5t41.5 -122.5t98 -44zM547 1640v133h182v-133h-182zM117 1640v133h182v-133h-182z" />
    <glyph glyph-name="divide" unicode="&#xf7;" horiz-adv-x="804" 
d="M94 708v115h616v-115h-616zM343 327v208h128v-208h-128zM343 976v198h128v-198h-128z" />
    <glyph glyph-name="oslash" unicode="&#xf8;" horiz-adv-x="845" 
d="M284 -223l-61 8l338 1961l61 -8zM426 -18q-104 0 -164 39t-89 110.5t-37 169t-8 214.5v503q0 141 18.5 254.5t82 179.5t197.5 66q101 0 160 -38t87 -106t36 -159t8 -197v-503q0 -115 -7 -212t-34 -169t-86 -112t-164 -40zM426 113q62 0 92.5 44t40 122.5t9.5 183.5v590
q0 99 -9.5 174t-39.5 117.5t-93 42.5q-67 0 -99 -42.5t-41 -117.5t-9 -174v-590q0 -105 9.5 -183.5t41.5 -122.5t98 -44z" />
    <glyph glyph-name="ugrave" unicode="&#xf9;" horiz-adv-x="914" 
d="M385 -20q-47 0 -102.5 26.5t-95 93t-39.5 185.5v1215h149v-1208q0 -88 40 -130.5t107 -42.5q79 0 123.5 49.5t44.5 134.5l-2 1197h151v-1500h-149v150q-18 -64 -79 -117t-148 -53zM445 1640l-185 332h160l94 -332h-69z" />
    <glyph glyph-name="uacute" unicode="&#xfa;" horiz-adv-x="914" 
d="M385 -20q-47 0 -102.5 26.5t-95 93t-39.5 185.5v1215h149v-1208q0 -88 40 -130.5t107 -42.5q79 0 123.5 49.5t44.5 134.5l-2 1197h151v-1500h-149v150q-18 -64 -79 -117t-148 -53zM370 1640l94 332h160l-185 -332h-69z" />
    <glyph glyph-name="ucircumflex" unicode="&#xfb;" horiz-adv-x="914" 
d="M385 -20q-47 0 -102.5 26.5t-95 93t-39.5 185.5v1215h149v-1208q0 -88 40 -130.5t107 -42.5q79 0 123.5 49.5t44.5 134.5l-2 1197h151v-1500h-149v150q-18 -64 -79 -117t-148 -53zM253 1640l121 254h166l120 -254h-117l-86 175l-86 -175h-118z" />
    <glyph glyph-name="udieresis" unicode="&#xfc;" horiz-adv-x="914" 
d="M385 -20q-47 0 -102.5 26.5t-95 93t-39.5 185.5v1215h149v-1208q0 -88 40 -130.5t107 -42.5q79 0 123.5 49.5t44.5 134.5l-2 1197h151v-1500h-149v150q-18 -64 -79 -117t-148 -53zM581 1640v133h182v-133h-182zM151 1640v133h182v-133h-182z" />
    <glyph glyph-name="yacute" unicode="&#xfd;" horiz-adv-x="745" 
d="M133 -238v128h55q42 0 78 2.5t45 8.5q17 17 14 53t-11 84l-250 1462h150l119 -793l48 -408h13l43 408l107 793h149l-239 -1497q-14 -90 -30 -143t-53 -75.5t-114 -22.5h-124zM286 1640l94 332h160l-185 -332h-69z" />
    <glyph glyph-name="thorn" unicode="&#xfe;" horiz-adv-x="875" 
d="M160 -265v2048h150v-398q31 73 86 99.5t113 26.5q103 0 154 -65t67.5 -177.5t16.5 -255.5v-538q0 -140 -22.5 -251.5t-82.5 -175.5t-172 -64q-53 0 -96.5 36.5t-63.5 87.5v-373h-150zM461 106q83 1 109.5 86.5t26.5 275.5v594q0 99 -7.5 172t-35 113t-86.5 40
q-49 0 -84.5 -21t-54.5 -91t-19 -216v-596q0 -181 28.5 -269t122.5 -88z" />
    <glyph glyph-name="ydieresis" unicode="&#xff;" horiz-adv-x="745" 
d="M133 -238v128h55q42 0 78 2.5t45 8.5q17 17 14 53t-11 84l-250 1462h150l119 -793l48 -408h13l43 408l107 793h149l-239 -1497q-14 -90 -30 -143t-53 -75.5t-114 -22.5h-124zM497 1640v133h182v-133h-182zM67 1640v133h182v-133h-182z" />
    <glyph glyph-name="Amacron" unicode="&#x100;" horiz-adv-x="818" 
d="M35 0l283 1760h152l313 -1760h-144l-58 362h-352l-53 -362h-141zM248 473h313l-162 1003h-2zM140 1900v115h516v-115h-516z" />
    <glyph glyph-name="amacron" unicode="&#x101;" horiz-adv-x="844" 
d="M366 -11q-119 0 -179 100.5t-60 287.5v192q0 80 33.5 136t93 98t139 78t170.5 75v102q0 115 -6 187.5t-33 107t-91 34.5q-62 0 -91.5 -33.5t-38 -108t-8.5 -197.5v-37h-150v40q0 90 6.5 174t33 150t85 104.5t163.5 38.5q106 0 163.5 -35t82 -104t29 -170t4.5 -233v-976
h-149v112q-6 -18 -29 -47.5t-64.5 -52.5t-103.5 -23zM393 113q59 0 106 33.5t64 64.5v626q-93 -42 -150.5 -72t-87 -61.5t-40 -77t-10.5 -117.5v-119q0 -150 23 -213.5t95 -63.5zM164 1640v115h516v-115h-516z" />
    <glyph glyph-name="Abreve" unicode="&#x102;" horiz-adv-x="818" 
d="M35 0l283 1760h152l313 -1760h-144l-58 362h-352l-53 -362h-141zM248 473h313l-162 1003h-2zM397 1900q-93 0 -141.5 51t-48.5 138v15h64q0 -68 41 -90.5t87 -22.5q44 0 84.5 21t40.5 92h64v-13q0 -85 -46.5 -138t-144.5 -53z" />
    <glyph glyph-name="abreve" unicode="&#x103;" horiz-adv-x="844" 
d="M366 -11q-119 0 -179 100.5t-60 287.5v192q0 80 33.5 136t93 98t139 78t170.5 75v102q0 115 -6 187.5t-33 107t-91 34.5q-62 0 -91.5 -33.5t-38 -108t-8.5 -197.5v-37h-150v40q0 90 6.5 174t33 150t85 104.5t163.5 38.5q106 0 163.5 -35t82 -104t29 -170t4.5 -233v-976
h-149v112q-6 -18 -29 -47.5t-64.5 -52.5t-103.5 -23zM393 113q59 0 106 33.5t64 64.5v626q-93 -42 -150.5 -72t-87 -61.5t-40 -77t-10.5 -117.5v-119q0 -150 23 -213.5t95 -63.5zM421 1640q-93 0 -141.5 51t-48.5 138v15h64q0 -68 41 -90.5t87 -22.5q44 0 84.5 21t40.5 92
h64v-13q0 -85 -46.5 -138t-144.5 -53z" />
    <glyph glyph-name="Aogonek" unicode="&#x104;" horiz-adv-x="818" 
d="M35 0l283 1760h152l313 -1760h-144l-58 362h-352l-53 -362h-141zM248 473h313l-162 1003h-2zM695 -431q-44 0 -88 12t-73 43.5t-29 90.5q0 65 41.5 140.5t134.5 144.5h64q-77 -66 -111.5 -133.5t-34.5 -118.5q0 -52 33.5 -69.5t74.5 -17.5q44 0 81 10t38 11v-93
q-7 -4 -45 -12t-86 -8z" />
    <glyph glyph-name="aogonek" unicode="&#x105;" horiz-adv-x="844" 
d="M366 -11q-119 0 -179 100.5t-60 287.5v192q0 80 33.5 136t93 98t139 78t170.5 75v102q0 115 -6 187.5t-33 107t-91 34.5q-62 0 -91.5 -33.5t-38 -108t-8.5 -197.5v-37h-150v40q0 90 6.5 174t33 150t85 104.5t163.5 38.5q106 0 163.5 -35t82 -104t29 -170t4.5 -233v-976
h-149v112q-6 -18 -29 -47.5t-64.5 -52.5t-103.5 -23zM393 113q59 0 106 33.5t64 64.5v626q-93 -42 -150.5 -72t-87 -61.5t-40 -77t-10.5 -117.5v-119q0 -150 23 -213.5t95 -63.5zM642 -431q-44 0 -88 12t-73 43.5t-29 90.5q0 65 41.5 140.5t134.5 144.5h64
q-77 -66 -111.5 -133.5t-34.5 -118.5q0 -52 33.5 -69.5t74.5 -17.5q44 0 81 10t38 11v-93q-7 -4 -45 -12t-86 -8z" />
    <glyph glyph-name="Cacute" unicode="&#x106;" horiz-adv-x="868" 
d="M448 -20q-129 0 -196.5 65.5t-91.5 192.5t-24 312v701q0 112 11 209t43 169.5t95.5 113t168.5 40.5q107 0 167.5 -41.5t88 -115.5t34.5 -173t7 -214v-152h-151v170q0 196 -25 298.5t-122 102.5q-100 0 -134 -101.5t-34 -298.5v-706q0 -162 12 -261t47 -144t103 -45
q98 0 125.5 103.5t27.5 345.5v141h150v-140q0 -184 -22 -312t-87 -194t-193 -66zM347 1900l94 332h160l-185 -332h-69z" />
    <glyph glyph-name="cacute" unicode="&#x107;" horiz-adv-x="803" 
d="M418 -18q-102 0 -161 39t-86.5 110t-35 167.5t-7.5 212.5v517q0 136 19.5 247t83 177t194.5 66q102 0 158.5 -36t81 -102.5t30 -158t5.5 -201.5v-47h-151v92q0 105 -5 175t-30.5 105.5t-87.5 35.5q-67 0 -98.5 -40t-41 -112.5t-9.5 -171.5v-602q0 -116 8 -190.5t38 -110
t96 -35.5q63 0 90 39t33.5 112.5t6.5 178.5v113h151v-45q0 -117 -5 -215t-29.5 -169.5t-82.5 -111t-165 -39.5zM315 1640l94 332h160l-185 -332h-69z" />
    <glyph glyph-name="Ccircumflex" unicode="&#x108;" horiz-adv-x="868" 
d="M448 -20q-129 0 -196.5 65.5t-91.5 192.5t-24 312v701q0 112 11 209t43 169.5t95.5 113t168.5 40.5q107 0 167.5 -41.5t88 -115.5t34.5 -173t7 -214v-152h-151v170q0 196 -25 298.5t-122 102.5q-100 0 -134 -101.5t-34 -298.5v-706q0 -162 12 -261t47 -144t103 -45
q98 0 125.5 103.5t27.5 345.5v141h150v-140q0 -184 -22 -312t-87 -194t-193 -66zM230 1900l121 254h166l120 -254h-117l-86 175l-86 -175h-118z" />
    <glyph glyph-name="ccircumflex" unicode="&#x109;" horiz-adv-x="803" 
d="M418 -18q-102 0 -161 39t-86.5 110t-35 167.5t-7.5 212.5v517q0 136 19.5 247t83 177t194.5 66q102 0 158.5 -36t81 -102.5t30 -158t5.5 -201.5v-47h-151v92q0 105 -5 175t-30.5 105.5t-87.5 35.5q-67 0 -98.5 -40t-41 -112.5t-9.5 -171.5v-602q0 -116 8 -190.5t38 -110
t96 -35.5q63 0 90 39t33.5 112.5t6.5 178.5v113h151v-45q0 -117 -5 -215t-29.5 -169.5t-82.5 -111t-165 -39.5zM198 1640l121 254h166l120 -254h-117l-86 175l-86 -175h-118z" />
    <glyph glyph-name="Cdotaccent" unicode="&#x10a;" horiz-adv-x="868" 
d="M448 -20q-129 0 -196.5 65.5t-91.5 192.5t-24 312v701q0 112 11 209t43 169.5t95.5 113t168.5 40.5q107 0 167.5 -41.5t88 -115.5t34.5 -173t7 -214v-152h-151v170q0 196 -25 298.5t-122 102.5q-100 0 -134 -101.5t-34 -298.5v-706q0 -162 12 -261t47 -144t103 -45
q98 0 125.5 103.5t27.5 345.5v141h150v-140q0 -184 -22 -312t-87 -194t-193 -66zM359 1898v145h149v-145h-149z" />
    <glyph glyph-name="cdotaccent" unicode="&#x10b;" horiz-adv-x="803" 
d="M418 -18q-102 0 -161 39t-86.5 110t-35 167.5t-7.5 212.5v517q0 136 19.5 247t83 177t194.5 66q102 0 158.5 -36t81 -102.5t30 -158t5.5 -201.5v-47h-151v92q0 105 -5 175t-30.5 105.5t-87.5 35.5q-67 0 -98.5 -40t-41 -112.5t-9.5 -171.5v-602q0 -116 8 -190.5t38 -110
t96 -35.5q63 0 90 39t33.5 112.5t6.5 178.5v113h151v-45q0 -117 -5 -215t-29.5 -169.5t-82.5 -111t-165 -39.5zM327 1638v145h149v-145h-149z" />
    <glyph glyph-name="Ccaron" unicode="&#x10c;" horiz-adv-x="868" 
d="M448 -20q-129 0 -196.5 65.5t-91.5 192.5t-24 312v701q0 112 11 209t43 169.5t95.5 113t168.5 40.5q107 0 167.5 -41.5t88 -115.5t34.5 -173t7 -214v-152h-151v170q0 196 -25 298.5t-122 102.5q-100 0 -134 -101.5t-34 -298.5v-706q0 -162 12 -261t47 -144t103 -45
q98 0 125.5 103.5t27.5 345.5v141h150v-140q0 -184 -22 -312t-87 -194t-193 -66zM351 1900l-121 253h118l86 -175l86 175h117l-120 -253h-166z" />
    <glyph glyph-name="ccaron" unicode="&#x10d;" horiz-adv-x="803" 
d="M418 -18q-102 0 -161 39t-86.5 110t-35 167.5t-7.5 212.5v517q0 136 19.5 247t83 177t194.5 66q102 0 158.5 -36t81 -102.5t30 -158t5.5 -201.5v-47h-151v92q0 105 -5 175t-30.5 105.5t-87.5 35.5q-67 0 -98.5 -40t-41 -112.5t-9.5 -171.5v-602q0 -116 8 -190.5t38 -110
t96 -35.5q63 0 90 39t33.5 112.5t6.5 178.5v113h151v-45q0 -117 -5 -215t-29.5 -169.5t-82.5 -111t-165 -39.5zM319 1640l-121 253h118l86 -175l86 175h117l-120 -253h-166z" />
    <glyph glyph-name="Dcaron" unicode="&#x10e;" horiz-adv-x="914" 
d="M166 0v1760h271q143 0 216 -61.5t99 -174.5t26 -266v-754q0 -183 -33.5 -293.5t-109.5 -160.5t-204 -50h-265zM314 128h123q65 0 107.5 30t63.5 114.5t21 246.5v755q0 195 -45 278.5t-138 83.5h-132v-1508zM344 1900l-121 253h118l86 -175l86 175h117l-120 -253h-166z
" />
    <glyph glyph-name="dcaron" unicode="&#x10f;" horiz-adv-x="992" 
d="M365 -11q-101 0 -152 64.5t-68 176t-17 251.5v527q0 145 20.5 260.5t80.5 182.5t176 67q53 0 96.5 -37.5t62.5 -87.5v390h150v-1783h-150v114q-31 -72 -87 -98.5t-112 -26.5zM409 114q47 0 82 19t54.5 87t19.5 214v603q0 182 -27 265t-122 83q-82 -1 -110 -82.5
t-28 -272.5v-594q0 -96 8 -168.5t36 -113t87 -40.5zM862 1318l43 273h-100v192h197v-183l-78 -282h-62z" />
    <glyph glyph-name="Dcroat" unicode="&#x110;" horiz-adv-x="914" 
d="M166 0v1760h271q143 0 216 -61.5t99 -174.5t26 -266v-754q0 -183 -33.5 -293.5t-109.5 -160.5t-204 -50h-265zM314 128h123q65 0 107.5 30t63.5 114.5t21 246.5v755q0 195 -45 278.5t-138 83.5h-132v-1508zM33 839v81h467v-81h-467z" />
    <glyph glyph-name="dcroat" unicode="&#x111;" horiz-adv-x="855" 
d="M365 -11q-101 0 -152 64.5t-68 176t-17 251.5v527q0 145 20.5 260.5t80.5 182.5t176 67q53 0 96.5 -37.5t62.5 -87.5v390h150v-1783h-150v114q-31 -72 -87 -98.5t-112 -26.5zM409 114q47 0 82 19t54.5 87t19.5 214v603q0 182 -27 265t-122 83q-82 -1 -110 -82.5
t-28 -272.5v-594q0 -96 8 -168.5t36 -113t87 -40.5zM316 1591v81h467v-81h-467z" />
    <glyph glyph-name="Emacron" unicode="&#x112;" horiz-adv-x="716" 
d="M166 0v1760h465v-116h-316v-688h297v-121h-297v-717h313v-118h-462zM140 1900v115h516v-115h-516z" />
    <glyph glyph-name="emacron" unicode="&#x113;" horiz-adv-x="802" 
d="M421 -18q-103 0 -162.5 38.5t-87.5 109.5t-35.5 168t-7.5 213v503q0 106 9 197.5t38.5 160.5t89 107.5t160.5 38.5t157 -39.5t80.5 -110t30 -164t5.5 -202.5v-250h-421v-302q0 -172 22.5 -254.5t119.5 -82.5q62 0 89 39.5t34 113.5t7 178v112h145v-49q0 -114 -4.5 -209.5
t-28.5 -166.5t-80.5 -110t-159.5 -39zM277 877h272v191q0 103 -4.5 174t-30 108t-88.5 37q-65 0 -97 -40.5t-42 -114t-10 -172.5v-183zM143 1640v115h516v-115h-516z" />
    <glyph glyph-name="Ebreve" unicode="&#x114;" horiz-adv-x="716" 
d="M166 0v1760h465v-116h-316v-688h297v-121h-297v-717h313v-118h-462zM397 1900q-93 0 -141.5 51t-48.5 138v15h64q0 -68 41 -90.5t87 -22.5q44 0 84.5 21t40.5 92h64v-13q0 -85 -46.5 -138t-144.5 -53z" />
    <glyph glyph-name="ebreve" unicode="&#x115;" horiz-adv-x="802" 
d="M421 -18q-103 0 -162.5 38.5t-87.5 109.5t-35.5 168t-7.5 213v503q0 106 9 197.5t38.5 160.5t89 107.5t160.5 38.5t157 -39.5t80.5 -110t30 -164t5.5 -202.5v-250h-421v-302q0 -172 22.5 -254.5t119.5 -82.5q62 0 89 39.5t34 113.5t7 178v112h145v-49q0 -114 -4.5 -209.5
t-28.5 -166.5t-80.5 -110t-159.5 -39zM277 877h272v191q0 103 -4.5 174t-30 108t-88.5 37q-65 0 -97 -40.5t-42 -114t-10 -172.5v-183zM400 1640q-93 0 -141.5 51t-48.5 138v15h64q0 -68 41 -90.5t87 -22.5q44 0 84.5 21t40.5 92h64v-13q0 -85 -46.5 -138t-144.5 -53z" />
    <glyph glyph-name="Edotaccent" unicode="&#x116;" horiz-adv-x="716" 
d="M166 0v1760h465v-116h-316v-688h297v-121h-297v-717h313v-118h-462zM323 1898v145h149v-145h-149z" />
    <glyph glyph-name="edotaccent" unicode="&#x117;" horiz-adv-x="802" 
d="M421 -18q-103 0 -162.5 38.5t-87.5 109.5t-35.5 168t-7.5 213v503q0 106 9 197.5t38.5 160.5t89 107.5t160.5 38.5t157 -39.5t80.5 -110t30 -164t5.5 -202.5v-250h-421v-302q0 -172 22.5 -254.5t119.5 -82.5q62 0 89 39.5t34 113.5t7 178v112h145v-49q0 -114 -4.5 -209.5
t-28.5 -166.5t-80.5 -110t-159.5 -39zM277 877h272v191q0 103 -4.5 174t-30 108t-88.5 37q-65 0 -97 -40.5t-42 -114t-10 -172.5v-183zM326 1638v145h149v-145h-149z" />
    <glyph glyph-name="Eogonek" unicode="&#x118;" horiz-adv-x="716" 
d="M166 0v1760h465v-116h-316v-688h297v-121h-297v-717h313v-118h-462zM538 -431q-44 0 -88 12t-73 43.5t-29 90.5q0 65 41.5 140.5t134.5 144.5h64q-77 -66 -111.5 -133.5t-34.5 -118.5q0 -52 33.5 -69.5t74.5 -17.5q44 0 81 10t38 11v-93q-7 -4 -45 -12t-86 -8z" />
    <glyph glyph-name="eogonek" unicode="&#x119;" horiz-adv-x="802" 
d="M421 -18q-103 0 -162.5 38.5t-87.5 109.5t-35.5 168t-7.5 213v503q0 106 9 197.5t38.5 160.5t89 107.5t160.5 38.5t157 -39.5t80.5 -110t30 -164t5.5 -202.5v-250h-421v-302q0 -172 22.5 -254.5t119.5 -82.5q62 0 89 39.5t34 113.5t7 178v112h145v-49q0 -114 -4.5 -209.5
t-28.5 -166.5t-80.5 -110t-159.5 -39zM277 877h272v191q0 103 -4.5 174t-30 108t-88.5 37q-65 0 -97 -40.5t-42 -114t-10 -172.5v-183zM465 -431q-44 0 -88 12t-73 43.5t-29 90.5q0 65 41.5 140.5t134.5 144.5h64q-77 -66 -111.5 -133.5t-34.5 -118.5q0 -52 33.5 -69.5
t74.5 -17.5q44 0 81 10t38 11v-93q-7 -4 -45 -12t-86 -8z" />
    <glyph glyph-name="Ecaron" unicode="&#x11a;" horiz-adv-x="716" 
d="M166 0v1760h465v-116h-316v-688h297v-121h-297v-717h313v-118h-462zM315 1900l-121 253h118l86 -175l86 175h117l-120 -253h-166z" />
    <glyph glyph-name="ecaron" unicode="&#x11b;" horiz-adv-x="802" 
d="M421 -18q-103 0 -162.5 38.5t-87.5 109.5t-35.5 168t-7.5 213v503q0 106 9 197.5t38.5 160.5t89 107.5t160.5 38.5t157 -39.5t80.5 -110t30 -164t5.5 -202.5v-250h-421v-302q0 -172 22.5 -254.5t119.5 -82.5q62 0 89 39.5t34 113.5t7 178v112h145v-49q0 -114 -4.5 -209.5
t-28.5 -166.5t-80.5 -110t-159.5 -39zM277 877h272v191q0 103 -4.5 174t-30 108t-88.5 37q-65 0 -97 -40.5t-42 -114t-10 -172.5v-183zM318 1640l-121 253h118l86 -175l86 175h117l-120 -253h-166z" />
    <glyph glyph-name="Gcircumflex" unicode="&#x11c;" horiz-adv-x="890" 
d="M419 -20q-147 0 -215 128.5t-68 423.5v713q0 113 11 210.5t43.5 171t96 115t169.5 41.5q104 0 163 -41t87 -114.5t35.5 -170.5t7.5 -210v-147h-152v272q0 137 -27 211.5t-119 74.5q-94 0 -130 -89.5t-36 -307.5v-718q0 -238 30 -339.5t130 -101.5q95 0 125.5 101.5
t30.5 337.5v222h-151v127h299v-890h-98l-16 102q-35 -59 -84.5 -90.5t-131.5 -31.5zM241 1900l121 254h166l120 -254h-117l-86 175l-86 -175h-118z" />
    <glyph glyph-name="gcircumflex" unicode="&#x11d;" horiz-adv-x="858" 
d="M423 -232q-82 -4 -161 22t-128 63l57 115q36 -27 93.5 -51.5t142.5 -21.5q63 3 100.5 51.5t37.5 133.5v165q-32 -73 -80 -95.5t-104 -22.5q-104 0 -159 66.5t-74.5 181t-19.5 257.5v381q0 143 27 258t88.5 182t162.5 65q50 -1 93.5 -24.5t65.5 -81.5v88h149v-1403
q0 -40 -10.5 -94.5t-41 -106t-88 -87.5t-151.5 -41zM436 255q45 0 73.5 27.5t42 104.5t13.5 227v436q0 173 -24.5 255t-116.5 82q-66 0 -97.5 -42.5t-40.5 -117.5t-9 -175v-441q0 -185 32 -270.5t127 -85.5zM225 1640l121 254h166l120 -254h-117l-86 175l-86 -175h-118z" />
    <glyph glyph-name="Gbreve" unicode="&#x11e;" horiz-adv-x="890" 
d="M419 -20q-147 0 -215 128.5t-68 423.5v713q0 113 11 210.5t43.5 171t96 115t169.5 41.5q104 0 163 -41t87 -114.5t35.5 -170.5t7.5 -210v-147h-152v272q0 137 -27 211.5t-119 74.5q-94 0 -130 -89.5t-36 -307.5v-718q0 -238 30 -339.5t130 -101.5q95 0 125.5 101.5
t30.5 337.5v222h-151v127h299v-890h-98l-16 102q-35 -59 -84.5 -90.5t-131.5 -31.5zM444 1900q-93 0 -141.5 51t-48.5 138v15h64q0 -68 41 -90.5t87 -22.5q44 0 84.5 21t40.5 92h64v-13q0 -85 -46.5 -138t-144.5 -53z" />
    <glyph glyph-name="gbreve" unicode="&#x11f;" horiz-adv-x="858" 
d="M423 -232q-82 -4 -161 22t-128 63l57 115q36 -27 93.5 -51.5t142.5 -21.5q63 3 100.5 51.5t37.5 133.5v165q-32 -73 -80 -95.5t-104 -22.5q-104 0 -159 66.5t-74.5 181t-19.5 257.5v381q0 143 27 258t88.5 182t162.5 65q50 -1 93.5 -24.5t65.5 -81.5v88h149v-1403
q0 -40 -10.5 -94.5t-41 -106t-88 -87.5t-151.5 -41zM436 255q45 0 73.5 27.5t42 104.5t13.5 227v436q0 173 -24.5 255t-116.5 82q-66 0 -97.5 -42.5t-40.5 -117.5t-9 -175v-441q0 -185 32 -270.5t127 -85.5zM428 1640q-93 0 -141.5 51t-48.5 138v15h64q0 -68 41 -90.5
t87 -22.5q44 0 84.5 21t40.5 92h64v-13q0 -85 -46.5 -138t-144.5 -53z" />
    <glyph glyph-name="Gdotaccent" unicode="&#x120;" horiz-adv-x="890" 
d="M419 -20q-147 0 -215 128.5t-68 423.5v713q0 113 11 210.5t43.5 171t96 115t169.5 41.5q104 0 163 -41t87 -114.5t35.5 -170.5t7.5 -210v-147h-152v272q0 137 -27 211.5t-119 74.5q-94 0 -130 -89.5t-36 -307.5v-718q0 -238 30 -339.5t130 -101.5q95 0 125.5 101.5
t30.5 337.5v222h-151v127h299v-890h-98l-16 102q-35 -59 -84.5 -90.5t-131.5 -31.5zM370 1898v145h149v-145h-149z" />
    <glyph glyph-name="gdotaccent" unicode="&#x121;" horiz-adv-x="858" 
d="M423 -232q-82 -4 -161 22t-128 63l57 115q36 -27 93.5 -51.5t142.5 -21.5q63 3 100.5 51.5t37.5 133.5v165q-32 -73 -80 -95.5t-104 -22.5q-104 0 -159 66.5t-74.5 181t-19.5 257.5v381q0 143 27 258t88.5 182t162.5 65q50 -1 93.5 -24.5t65.5 -81.5v88h149v-1403
q0 -40 -10.5 -94.5t-41 -106t-88 -87.5t-151.5 -41zM436 255q45 0 73.5 27.5t42 104.5t13.5 227v436q0 173 -24.5 255t-116.5 82q-66 0 -97.5 -42.5t-40.5 -117.5t-9 -175v-441q0 -185 32 -270.5t127 -85.5zM354 1638v145h149v-145h-149z" />
    <glyph glyph-name="uni0122" unicode="&#x122;" horiz-adv-x="890" 
d="M419 -20q-147 0 -215 128.5t-68 423.5v713q0 113 11 210.5t43.5 171t96 115t169.5 41.5q104 0 163 -41t87 -114.5t35.5 -170.5t7.5 -210v-147h-152v272q0 137 -27 211.5t-119 74.5q-94 0 -130 -89.5t-36 -307.5v-718q0 -238 30 -339.5t130 -101.5q95 0 125.5 101.5
t30.5 337.5v222h-151v127h299v-890h-98l-16 102q-35 -59 -84.5 -90.5t-131.5 -31.5zM403 -587l43 273h-100v192h197v-183l-78 -282h-62z" />
    <glyph glyph-name="uni0123" unicode="&#x123;" horiz-adv-x="858" 
d="M423 -232q-82 -4 -161 22t-128 63l57 115q36 -27 93.5 -51.5t142.5 -21.5q63 3 100.5 51.5t37.5 133.5v165q-32 -73 -80 -95.5t-104 -22.5q-104 0 -159 66.5t-74.5 181t-19.5 257.5v381q0 143 27 258t88.5 182t162.5 65q50 -1 93.5 -24.5t65.5 -81.5v88h149v-1403
q0 -40 -10.5 -94.5t-41 -106t-88 -87.5t-151.5 -41zM436 255q45 0 73.5 27.5t42 104.5t13.5 227v436q0 173 -24.5 255t-116.5 82q-66 0 -97.5 -42.5t-40.5 -117.5t-9 -175v-441q0 -185 32 -270.5t127 -85.5zM470 2095l-43 -273h100v-192h-197v183l78 282h62z" />
    <glyph glyph-name="Hcircumflex" unicode="&#x124;" horiz-adv-x="952" 
d="M166 0v1760h149v-762h322v762h149v-1760h-149v886h-322v-886h-149zM272 1900l121 254h166l120 -254h-117l-86 175l-86 -175h-118z" />
    <glyph glyph-name="hcircumflex" unicode="&#x125;" horiz-adv-x="921" 
d="M160 0v1783h149v-430q20 64 88 115t156 51q96 0 158 -73.5t62 -234.5v-1211h-150v1201q0 109 -39 144.5t-99 35.5q-41 0 -82 -16.5t-67.5 -57.5t-26.5 -116v-1191h-149zM32 1922l121 254h166l120 -254h-117l-86 175l-86 -175h-118z" />
    <glyph glyph-name="Hbar" unicode="&#x126;" horiz-adv-x="932" 
d="M55 1416v84h845v-84h-845zM166 0v1760h149v-762h322v762h149v-1760h-149v886h-322v-886h-149z" />
    <glyph glyph-name="hbar" unicode="&#x127;" horiz-adv-x="921" 
d="M160 0v1783h149v-430q20 64 88 115t156 51q96 0 158 -73.5t62 -234.5v-1211h-150v1201q0 109 -39 144.5t-99 35.5q-41 0 -82 -16.5t-67.5 -57.5t-26.5 -116v-1191h-149zM80 1591v81h467v-81h-467z" />
    <glyph glyph-name="Itilde" unicode="&#x128;" horiz-adv-x="485" 
d="M168 0v1760h149v-1760h-149zM384 1900q-44 0 -89.5 20.5t-90 41t-86.5 20.5q-16 0 -23 -2q-16 -4 -26.5 -18.5t-24.5 -40.5l-93 46q20 68 47 95.5t58 32.5t63 5q41 0 89.5 -18t92 -36t68.5 -18h4q14 2 27 14.5t29 57.5l105 -29l-9 -26q-31 -97 -62 -121t-79 -24z" />
    <glyph glyph-name="itilde" unicode="&#x129;" horiz-adv-x="474" 
d="M162 0v1500h150v-1500h-150zM378 1640q-44 0 -89.5 20.5t-90 41t-86.5 20.5q-16 0 -23 -2q-16 -4 -26.5 -18.5t-24.5 -40.5l-93 46q20 68 47 95.5t58 32.5t63 5q41 0 89.5 -18t92 -36t68.5 -18h4q14 2 27 14.5t29 57.5l105 -29l-9 -26q-31 -97 -62 -121t-79 -24z" />
    <glyph glyph-name="Imacron" unicode="&#x12a;" horiz-adv-x="485" 
d="M168 0v1760h149v-1760h-149zM-15 1900v115h516v-115h-516z" />
    <glyph glyph-name="imacron" unicode="&#x12b;" horiz-adv-x="474" 
d="M162 0v1500h150v-1500h-150zM-21 1640v115h516v-115h-516z" />
    <glyph glyph-name="Ibreve" unicode="&#x12c;" horiz-adv-x="485" 
d="M168 0v1760h149v-1760h-149zM242 1900q-93 0 -141.5 51t-48.5 138v15h64q0 -68 41 -90.5t87 -22.5q44 0 84.5 21t40.5 92h64v-13q0 -85 -46.5 -138t-144.5 -53z" />
    <glyph glyph-name="ibreve" unicode="&#x12d;" horiz-adv-x="474" 
d="M162 0v1500h150v-1500h-150zM236 1640q-93 0 -141.5 51t-48.5 138v15h64q0 -68 41 -90.5t87 -22.5q44 0 84.5 21t40.5 92h64v-13q0 -85 -46.5 -138t-144.5 -53z" />
    <glyph glyph-name="Iogonek" unicode="&#x12e;" horiz-adv-x="485" 
d="M168 0v1760h149v-1760h-149zM237 -431q-44 0 -88 12t-73 43.5t-29 90.5q0 65 41.5 140.5t134.5 144.5h64q-77 -66 -111.5 -133.5t-34.5 -118.5q0 -52 33.5 -69.5t74.5 -17.5q44 0 81 10t38 11v-93q-7 -4 -45 -12t-86 -8z" />
    <glyph glyph-name="iogonek" unicode="&#x12f;" horiz-adv-x="474" 
d="M162 0v1500h150v-1500h-150zM162 1638v145h149v-145h-149zM242 -431q-44 0 -88 12t-73 43.5t-29 90.5q0 65 41.5 140.5t134.5 144.5h64q-77 -66 -111.5 -133.5t-34.5 -118.5q0 -52 33.5 -69.5t74.5 -17.5q44 0 81 10t38 11v-93q-7 -4 -45 -12t-86 -8z" />
    <glyph glyph-name="Idotaccent" unicode="&#x130;" horiz-adv-x="485" 
d="M168 0v1760h149v-1760h-149zM168 1898v145h149v-145h-149z" />
    <glyph glyph-name="dotlessi" unicode="&#x131;" horiz-adv-x="474" 
d="M162 0v1500h150v-1500h-150z" />
    <glyph glyph-name="IJ" unicode="&#x132;" horiz-adv-x="1269" 
d="M168 0v1760h149v-1760h-149zM846 -20q-163 0 -223 100.5t-60 308.5v151h151v-138q0 -80 4.5 -148.5t30.5 -110t91 -41.5q66 0 92 40.5t30 112t4 163.5v1342h149v-1340q0 -226 -61.5 -333t-207.5 -107z" />
    <glyph glyph-name="ij" unicode="&#x133;" horiz-adv-x="953" 
d="M162 0v1500h150v-1500h-150zM162 1638v145h149v-145h-149zM650 -223q-32 0 -62.5 2.5t-45.5 4.5v106q15 -1 31 -2.5t34 -1.5q26 0 34.5 21t8.5 49v1544h149v-1534q0 -78 -21.5 -118.5t-55.5 -55.5t-72 -15zM650 1638v145h149v-145h-149z" />
    <glyph glyph-name="Jcircumflex" unicode="&#x134;" horiz-adv-x="784" 
d="M361 -20q-163 0 -223 100.5t-60 308.5v151h151v-138q0 -80 4.5 -148.5t30.5 -110t91 -41.5q66 0 92 40.5t30 112t4 163.5v1342h149v-1340q0 -226 -61.5 -333t-207.5 -107zM348 1900l121 254h166l120 -254h-117l-86 175l-86 -175h-118z" />
    <glyph glyph-name="jcircumflex" unicode="&#x135;" horiz-adv-x="479" 
d="M176 -223q-32 0 -62.5 2.5t-45.5 4.5v106q15 -1 31 -2.5t34 -1.5q26 0 34.5 21t8.5 49v1544h149v-1534q0 -78 -21.5 -118.5t-55.5 -55.5t-72 -15zM47 1640l121 254h166l120 -254h-117l-86 175l-86 -175h-118z" />
    <glyph glyph-name="uni0136" unicode="&#x136;" horiz-adv-x="854" 
d="M166 0v1760h149v-867l355 867h144l-362 -869l385 -891h-154l-366 860v-860h-151zM425 -587l43 273h-100v192h197v-183l-78 -282h-62z" />
    <glyph glyph-name="uni0137" unicode="&#x137;" horiz-adv-x="835" 
d="M160 0v1783h149v-1023l331 740h149l-341 -744l359 -756h-156l-342 742v-742h-149zM376 -587l43 273h-100v192h197v-183l-78 -282h-62z" />
    <glyph glyph-name="kgreenlandic" unicode="&#x138;" horiz-adv-x="835" 
d="M160 0v1500h149v-740l331 740h149l-341 -744l359 -756h-156l-342 742v-742h-149z" />
    <glyph glyph-name="Lacute" unicode="&#x139;" horiz-adv-x="643" 
d="M166 0v1760h149v-1642h312v-118h-461zM165 1900l94 332h160l-185 -332h-69z" />
    <glyph glyph-name="lacute" unicode="&#x13a;" horiz-adv-x="465" 
d="M162 0v1783h150v-1783h-150zM146 1922l94 332h160l-185 -332h-69z" />
    <glyph glyph-name="uni013B" unicode="&#x13b;" horiz-adv-x="643" 
d="M166 0v1760h149v-1642h312v-118h-461zM340 -587l43 273h-100v192h197v-183l-78 -282h-62z" />
    <glyph glyph-name="uni013C" unicode="&#x13c;" horiz-adv-x="465" 
d="M162 0v1783h150v-1783h-150zM191 -587l43 273h-100v192h197v-183l-78 -282h-62z" />
    <glyph glyph-name="Lcaron" unicode="&#x13d;" horiz-adv-x="702" 
d="M166 0v1760h149v-1642h312v-118h-461zM572 1295l43 273h-100v192h197v-183l-78 -282h-62z" />
    <glyph glyph-name="lcaron" unicode="&#x13e;" horiz-adv-x="585" 
d="M162 0v1783h150v-1783h-150zM455 1318l43 273h-100v192h197v-183l-78 -282h-62z" />
    <glyph glyph-name="Ldot" unicode="&#x13f;" horiz-adv-x="683" 
d="M166 0v1760h149v-1642h312v-118h-461zM503 786v175h170v-175h-170z" />
    <glyph glyph-name="ldot" unicode="&#x140;" horiz-adv-x="625" 
d="M162 0v1783h150v-1783h-150zM464 743v175h170v-175h-170z" />
    <glyph glyph-name="Lslash" unicode="&#x141;" horiz-adv-x="705" 
d="M-1 794v122l498 217v-122zM166 0v1760h149v-1642h312v-118h-461z" />
    <glyph glyph-name="lslash" unicode="&#x142;" horiz-adv-x="709" 
d="M99 778v143l511 232v-143zM256 0v1783h150v-1783h-150z" />
    <glyph glyph-name="Nacute" unicode="&#x143;" horiz-adv-x="983" 
d="M166 0v1760h104l432 -1361l-15 606v755h130v-1760h-116l-405 1326l10 -476v-850h-140zM405 1900l94 332h160l-185 -332h-69z" />
    <glyph glyph-name="nacute" unicode="&#x144;" horiz-adv-x="920" 
d="M160 0v1500h149v-147q20 64 87 115t155 51q97 0 159 -73.5t62 -234.5v-1211h-149v1223q0 92 -42.5 128t-102.5 36q-41 0 -80 -14t-64 -50t-25 -103v-1220h-149zM373 1640l94 332h160l-185 -332h-69z" />
    <glyph glyph-name="uni0145" unicode="&#x145;" horiz-adv-x="983" 
d="M166 0v1760h104l432 -1361l-15 606v755h130v-1760h-116l-405 1326l10 -476v-850h-140zM450 -587l43 273h-100v192h197v-183l-78 -282h-62z" />
    <glyph glyph-name="uni0146" unicode="&#x146;" horiz-adv-x="920" 
d="M160 0v1500h149v-147q20 64 87 115t155 51q97 0 159 -73.5t62 -234.5v-1211h-149v1223q0 92 -42.5 128t-102.5 36q-41 0 -80 -14t-64 -50t-25 -103v-1220h-149zM418 -587l43 273h-100v192h197v-183l-78 -282h-62z" />
    <glyph glyph-name="Ncaron" unicode="&#x147;" horiz-adv-x="983" 
d="M166 0v1760h104l432 -1361l-15 606v755h130v-1760h-116l-405 1326l10 -476v-850h-140zM409 1900l-121 253h118l86 -175l86 175h117l-120 -253h-166z" />
    <glyph glyph-name="ncaron" unicode="&#x148;" horiz-adv-x="920" 
d="M160 0v1500h149v-147q20 64 87 115t155 51q97 0 159 -73.5t62 -234.5v-1211h-149v1223q0 92 -42.5 128t-102.5 36q-41 0 -80 -14t-64 -50t-25 -103v-1220h-149zM377 1640l-121 253h118l86 -175l86 175h117l-120 -253h-166z" />
    <glyph glyph-name="Omacron" unicode="&#x14c;" horiz-adv-x="891" 
d="M447 -20q-127 0 -194.5 58t-92 177.5t-24.5 303.5v749q0 152 21 268t88.5 181.5t208.5 65.5q106 0 167 -37.5t89.5 -106.5t36.5 -163t8 -208v-749q0 -184 -24 -303.5t-90 -177.5t-194 -58zM447 102q64 0 98.5 37t47.5 128t13 252v761q0 199 -28.5 288.5t-123.5 89.5
q-100 0 -134.5 -90t-34.5 -287v-762q0 -161 13 -252t48 -128t101 -37zM188 1900v115h516v-115h-516z" />
    <glyph glyph-name="omacron" unicode="&#x14d;" horiz-adv-x="845" 
d="M426 -18q-104 0 -164 39t-89 110.5t-37 169t-8 214.5v503q0 141 18.5 254.5t82 179.5t197.5 66q101 0 160 -38t87 -106t36 -159t8 -197v-503q0 -115 -7 -212t-34 -169t-86 -112t-164 -40zM426 113q62 0 92.5 44t40 122.5t9.5 183.5v590q0 99 -9.5 174t-39.5 117.5
t-93 42.5q-67 0 -99 -42.5t-41 -117.5t-9 -174v-590q0 -105 9.5 -183.5t41.5 -122.5t98 -44zM165 1640v115h516v-115h-516z" />
    <glyph glyph-name="Obreve" unicode="&#x14e;" horiz-adv-x="891" 
d="M447 -20q-127 0 -194.5 58t-92 177.5t-24.5 303.5v749q0 152 21 268t88.5 181.5t208.5 65.5q106 0 167 -37.5t89.5 -106.5t36.5 -163t8 -208v-749q0 -184 -24 -303.5t-90 -177.5t-194 -58zM447 102q64 0 98.5 37t47.5 128t13 252v761q0 199 -28.5 288.5t-123.5 89.5
q-100 0 -134.5 -90t-34.5 -287v-762q0 -161 13 -252t48 -128t101 -37zM445 1900q-93 0 -141.5 51t-48.5 138v15h64q0 -68 41 -90.5t87 -22.5q44 0 84.5 21t40.5 92h64v-13q0 -85 -46.5 -138t-144.5 -53z" />
    <glyph glyph-name="obreve" unicode="&#x14f;" horiz-adv-x="845" 
d="M426 -18q-104 0 -164 39t-89 110.5t-37 169t-8 214.5v503q0 141 18.5 254.5t82 179.5t197.5 66q101 0 160 -38t87 -106t36 -159t8 -197v-503q0 -115 -7 -212t-34 -169t-86 -112t-164 -40zM426 113q62 0 92.5 44t40 122.5t9.5 183.5v590q0 99 -9.5 174t-39.5 117.5
t-93 42.5q-67 0 -99 -42.5t-41 -117.5t-9 -174v-590q0 -105 9.5 -183.5t41.5 -122.5t98 -44zM422 1640q-93 0 -141.5 51t-48.5 138v15h64q0 -68 41 -90.5t87 -22.5q44 0 84.5 21t40.5 92h64v-13q0 -85 -46.5 -138t-144.5 -53z" />
    <glyph glyph-name="Ohungarumlaut" unicode="&#x150;" horiz-adv-x="891" 
d="M447 -20q-127 0 -194.5 58t-92 177.5t-24.5 303.5v749q0 152 21 268t88.5 181.5t208.5 65.5q106 0 167 -37.5t89.5 -106.5t36.5 -163t8 -208v-749q0 -184 -24 -303.5t-90 -177.5t-194 -58zM447 102q64 0 98.5 37t47.5 128t13 252v761q0 199 -28.5 288.5t-123.5 89.5
q-100 0 -134.5 -90t-34.5 -287v-762q0 -161 13 -252t48 -128t101 -37zM527 1900l-49 24l100 348l105 -57zM317 1900l-49 24l63 348l101 -57z" />
    <glyph glyph-name="ohungarumlaut" unicode="&#x151;" horiz-adv-x="845" 
d="M426 -18q-104 0 -164 39t-89 110.5t-37 169t-8 214.5v503q0 141 18.5 254.5t82 179.5t197.5 66q101 0 160 -38t87 -106t36 -159t8 -197v-503q0 -115 -7 -212t-34 -169t-86 -112t-164 -40zM426 113q62 0 92.5 44t40 122.5t9.5 183.5v590q0 99 -9.5 174t-39.5 117.5
t-93 42.5q-67 0 -99 -42.5t-41 -117.5t-9 -174v-590q0 -105 9.5 -183.5t41.5 -122.5t98 -44zM504 1640l-49 24l100 348l105 -57zM294 1640l-49 24l63 348l101 -57z" />
    <glyph glyph-name="OE" unicode="&#x152;" horiz-adv-x="1168" 
d="M446 0q-127 0 -194.5 53t-92.5 167.5t-25 298.5v750q0 152 21 262t89 169.5t209 59.5h629v-116h-327v-688h308v-120h-308v-718h325v-118h-634zM446 126h160v1508h-153q-100 0 -135 -77.5t-35 -274.5v-764q0 -161 13 -245.5t48 -115t102 -31.5z" />
    <glyph glyph-name="oe" unicode="&#x153;" horiz-adv-x="1241" 
d="M425 -18q-104 0 -164 39t-88.5 110.5t-36.5 169t-8 214.5v503q0 106 9 197t38.5 159t89 106t160.5 38q80 0 133.5 -34.5t84.5 -87.5q34 53 87.5 87.5t133.5 34.5q101 0 157 -39.5t80.5 -110t30 -164t5.5 -202.5v-248h-421v-304q0 -172 22 -254.5t120 -82.5q61 0 88 38
t34 111t7 177v117h145v-51q0 -114 -4.5 -209.5t-28.5 -165.5t-80.5 -109t-159.5 -39q-83 0 -136.5 34.5t-86.5 89.5q-32 -54 -83 -89t-128 -35zM425 113q63 0 93 44t39.5 122.5t9.5 183.5v590q0 99 -9.5 174.5t-39.5 118t-93 42.5q-67 0 -98.5 -42.5t-40.5 -118t-9 -174.5
v-590q0 -105 9.5 -183.5t41 -122.5t97.5 -44zM717 874h271v194q0 103 -4.5 174t-29.5 108t-88 37q-65 0 -97 -40t-42 -113t-10 -171v-189z" />
    <glyph glyph-name="Racute" unicode="&#x154;" horiz-adv-x="899" 
d="M166 0v1760h299q142 0 208 -45t85.5 -141t19.5 -248q0 -169 -35 -272t-127 -129q51 -8 83 -44.5t48.5 -119t23 -227.5t6.5 -370v-42.5t1 -33.5t3.5 -28.5t6.5 -28t11 -31.5h-148q-6 12 -10 28.5t-6.5 48.5t-3.5 90t-1.5 153t-0.5 237q0 121 -5.5 184t-38 87.5
t-112.5 29.5l-158 10v-868h-149zM314 968h156q64 0 98.5 22.5t47.5 98t13 233.5v13q0 130 -11.5 194t-43.5 85.5t-93 21.5h-167v-668zM363 1900l94 332h160l-185 -332h-69z" />
    <glyph glyph-name="racute" unicode="&#x155;" horiz-adv-x="605" 
d="M160 0v1500h149v-167q26 87 90.5 136t164.5 49q2 0 2.5 -19t0.5 -44.5v-44.5v-19q-49 0 -93 -12.5t-84 -43.5t-81 -89v-1246h-149zM266 1640l94 332h160l-185 -332h-69z" />
    <glyph glyph-name="uni0156" unicode="&#x156;" horiz-adv-x="899" 
d="M166 0v1760h299q142 0 208 -45t85.5 -141t19.5 -248q0 -169 -35 -272t-127 -129q51 -8 83 -44.5t48.5 -119t23 -227.5t6.5 -370v-42.5t1 -33.5t3.5 -28.5t6.5 -28t11 -31.5h-148q-6 12 -10 28.5t-6.5 48.5t-3.5 90t-1.5 153t-0.5 237q0 121 -5.5 184t-38 87.5
t-112.5 29.5l-158 10v-868h-149zM314 968h156q64 0 98.5 22.5t47.5 98t13 233.5v13q0 130 -11.5 194t-43.5 85.5t-93 21.5h-167v-668zM408 -587l43 273h-100v192h197v-183l-78 -282h-62z" />
    <glyph glyph-name="uni0157" unicode="&#x157;" horiz-adv-x="605" 
d="M160 0v1500h149v-167q26 87 90.5 136t164.5 49q2 0 2.5 -19t0.5 -44.5v-44.5v-19q-49 0 -93 -12.5t-84 -43.5t-81 -89v-1246h-149zM203 -587l43 273h-100v192h197v-183l-78 -282h-62z" />
    <glyph glyph-name="Rcaron" unicode="&#x158;" horiz-adv-x="899" 
d="M166 0v1760h299q142 0 208 -45t85.5 -141t19.5 -248q0 -169 -35 -272t-127 -129q51 -8 83 -44.5t48.5 -119t23 -227.5t6.5 -370v-42.5t1 -33.5t3.5 -28.5t6.5 -28t11 -31.5h-148q-6 12 -10 28.5t-6.5 48.5t-3.5 90t-1.5 153t-0.5 237q0 121 -5.5 184t-38 87.5
t-112.5 29.5l-158 10v-868h-149zM314 968h156q64 0 98.5 22.5t47.5 98t13 233.5v13q0 130 -11.5 194t-43.5 85.5t-93 21.5h-167v-668zM367 1900l-121 253h118l86 -175l86 175h117l-120 -253h-166z" />
    <glyph glyph-name="rcaron" unicode="&#x159;" horiz-adv-x="605" 
d="M160 0v1500h149v-167q26 87 90.5 136t164.5 49q2 0 2.5 -19t0.5 -44.5v-44.5v-19q-49 0 -93 -12.5t-84 -43.5t-81 -89v-1246h-149zM270 1640l-121 253h118l86 -175l86 175h117l-120 -253h-166z" />
    <glyph glyph-name="Sacute" unicode="&#x15a;" horiz-adv-x="794" 
d="M411 -20q-105 0 -166.5 42.5t-91.5 117t-39 173t-9 210.5v182h146v-179q0 -226 32.5 -325t136.5 -99q73 0 104.5 36t39.5 113t8 201q0 136 -33.5 219.5t-119.5 162.5l-104 96q-48 44 -100 102t-88 135.5t-36 178.5q0 127 22.5 225.5t89 155t199.5 56.5q108 0 168 -41.5
t86.5 -115.5t32.5 -172t6 -212v-99h-133v110q0 162 -14.5 249.5t-48.5 121.5t-95 34q-58 0 -94.5 -23t-53 -84.5t-16.5 -179.5q0 -84 19 -135.5t58 -93.5t97 -100l97 -96q100 -98 156.5 -217t56.5 -293q0 -134 -23 -237t-90 -161t-200 -58zM310 1900l94 332h160l-185 -332
h-69z" />
    <glyph glyph-name="sacute" unicode="&#x15b;" horiz-adv-x="744" 
d="M406 -20q-157 0 -230.5 101.5t-73.5 325.5v129h149v-103q0 -152 35.5 -234.5t106.5 -82.5q73 0 104.5 47t31.5 171q0 56 -7.5 109t-37 108.5t-96.5 118.5l-111 105q-103 97 -143.5 197.5t-40.5 213.5q0 168 78 250t204 82q84 0 146.5 -42.5t97 -144.5t34.5 -280v-94h-140
v121q0 158 -32.5 230.5t-102.5 72.5q-76 0 -105.5 -64.5t-29.5 -166.5q0 -46 10 -88.5t40.5 -89.5t92.5 -108l105 -103q106 -103 149 -209.5t43 -226.5q0 -153 -66.5 -249t-210.5 -96zM285 1640l94 332h160l-185 -332h-69z" />
    <glyph glyph-name="Scircumflex" unicode="&#x15c;" horiz-adv-x="794" 
d="M411 -20q-105 0 -166.5 42.5t-91.5 117t-39 173t-9 210.5v182h146v-179q0 -226 32.5 -325t136.5 -99q73 0 104.5 36t39.5 113t8 201q0 136 -33.5 219.5t-119.5 162.5l-104 96q-48 44 -100 102t-88 135.5t-36 178.5q0 127 22.5 225.5t89 155t199.5 56.5q108 0 168 -41.5
t86.5 -115.5t32.5 -172t6 -212v-99h-133v110q0 162 -14.5 249.5t-48.5 121.5t-95 34q-58 0 -94.5 -23t-53 -84.5t-16.5 -179.5q0 -84 19 -135.5t58 -93.5t97 -100l97 -96q100 -98 156.5 -217t56.5 -293q0 -134 -23 -237t-90 -161t-200 -58zM193 1900l121 254h166l120 -254
h-117l-86 175l-86 -175h-118z" />
    <glyph glyph-name="scircumflex" unicode="&#x15d;" horiz-adv-x="744" 
d="M406 -20q-157 0 -230.5 101.5t-73.5 325.5v129h149v-103q0 -152 35.5 -234.5t106.5 -82.5q73 0 104.5 47t31.5 171q0 56 -7.5 109t-37 108.5t-96.5 118.5l-111 105q-103 97 -143.5 197.5t-40.5 213.5q0 168 78 250t204 82q84 0 146.5 -42.5t97 -144.5t34.5 -280v-94h-140
v121q0 158 -32.5 230.5t-102.5 72.5q-76 0 -105.5 -64.5t-29.5 -166.5q0 -46 10 -88.5t40.5 -89.5t92.5 -108l105 -103q106 -103 149 -209.5t43 -226.5q0 -153 -66.5 -249t-210.5 -96zM168 1640l121 254h166l120 -254h-117l-86 175l-86 -175h-118z" />
    <glyph glyph-name="Scedilla" unicode="&#x15e;" horiz-adv-x="794" 
d="M411 -20q-105 0 -166.5 42.5t-91.5 117t-39 173t-9 210.5v182h146v-179q0 -226 32.5 -325t136.5 -99q73 0 104.5 36t39.5 113t8 201q0 136 -33.5 219.5t-119.5 162.5l-104 96q-48 44 -100 102t-88 135.5t-36 178.5q0 127 22.5 225.5t89 155t199.5 56.5q108 0 168 -41.5
t86.5 -115.5t32.5 -172t6 -212v-99h-133v110q0 162 -14.5 249.5t-48.5 121.5t-95 34q-58 0 -94.5 -23t-53 -84.5t-16.5 -179.5q0 -84 19 -135.5t58 -93.5t97 -100l97 -96q100 -98 156.5 -217t56.5 -293q0 -134 -23 -237t-90 -161t-200 -58zM346 -596q-40 0 -87 9v86
q95 0 144.5 20t68 52.5t18.5 69.5q0 68 -49 109t-111 54l40 196h57l9 -147q96 -48 137.5 -109t41.5 -120q0 -58 -34.5 -108t-95.5 -81t-139 -31z" />
    <glyph glyph-name="scedilla" unicode="&#x15f;" horiz-adv-x="744" 
d="M406 -20q-157 0 -230.5 101.5t-73.5 325.5v129h149v-103q0 -152 35.5 -234.5t106.5 -82.5q73 0 104.5 47t31.5 171q0 56 -7.5 109t-37 108.5t-96.5 118.5l-111 105q-103 97 -143.5 197.5t-40.5 213.5q0 168 78 250t204 82q84 0 146.5 -42.5t97 -144.5t34.5 -280v-94h-140
v121q0 158 -32.5 230.5t-102.5 72.5q-76 0 -105.5 -64.5t-29.5 -166.5q0 -46 10 -88.5t40.5 -89.5t92.5 -108l105 -103q106 -103 149 -209.5t43 -226.5q0 -153 -66.5 -249t-210.5 -96zM321 -596q-40 0 -87 9v86q95 0 144.5 20t68 52.5t18.5 69.5q0 68 -49 109t-111 54
l40 196h57l9 -147q96 -48 137.5 -109t41.5 -120q0 -58 -34.5 -108t-95.5 -81t-139 -31z" />
    <glyph glyph-name="Scaron" unicode="&#x160;" horiz-adv-x="794" 
d="M411 -20q-105 0 -166.5 42.5t-91.5 117t-39 173t-9 210.5v182h146v-179q0 -226 32.5 -325t136.5 -99q73 0 104.5 36t39.5 113t8 201q0 136 -33.5 219.5t-119.5 162.5l-104 96q-48 44 -100 102t-88 135.5t-36 178.5q0 127 22.5 225.5t89 155t199.5 56.5q108 0 168 -41.5
t86.5 -115.5t32.5 -172t6 -212v-99h-133v110q0 162 -14.5 249.5t-48.5 121.5t-95 34q-58 0 -94.5 -23t-53 -84.5t-16.5 -179.5q0 -84 19 -135.5t58 -93.5t97 -100l97 -96q100 -98 156.5 -217t56.5 -293q0 -134 -23 -237t-90 -161t-200 -58zM314 1900l-121 253h118l86 -175
l86 175h117l-120 -253h-166z" />
    <glyph glyph-name="scaron" unicode="&#x161;" horiz-adv-x="744" 
d="M406 -20q-157 0 -230.5 101.5t-73.5 325.5v129h149v-103q0 -152 35.5 -234.5t106.5 -82.5q73 0 104.5 47t31.5 171q0 56 -7.5 109t-37 108.5t-96.5 118.5l-111 105q-103 97 -143.5 197.5t-40.5 213.5q0 168 78 250t204 82q84 0 146.5 -42.5t97 -144.5t34.5 -280v-94h-140
v121q0 158 -32.5 230.5t-102.5 72.5q-76 0 -105.5 -64.5t-29.5 -166.5q0 -46 10 -88.5t40.5 -89.5t92.5 -108l105 -103q106 -103 149 -209.5t43 -226.5q0 -153 -66.5 -249t-210.5 -96zM289 1640l-121 253h118l86 -175l86 175h117l-120 -253h-166z" />
    <glyph glyph-name="Tcaron" unicode="&#x164;" horiz-adv-x="542" 
d="M207 0v1644h-184v116h497v-116h-165v-1644h-148zM188 1900l-121 253h118l86 -175l86 175h117l-120 -253h-166z" />
    <glyph glyph-name="tcaron" unicode="&#x165;" horiz-adv-x="775" 
d="M423 -9q-96 0 -143.5 21.5t-63 71t-15.5 133.5v1167h-150v116h150v260h150v-260h177v-116h-177v-1175q0 -40 9.5 -59.5t46.5 -25.5t120 -6v-127h-104zM645 1318l43 273h-100v192h197v-183l-78 -282h-62z" />
    <glyph glyph-name="Utilde" unicode="&#x168;" horiz-adv-x="915" 
d="M459 -20q-124 0 -191.5 51.5t-93.5 156t-26 264.5v1308h149v-1303q0 -114 8 -193.5t42.5 -120.5t112.5 -41q79 0 112 41t39.5 120t6.5 193v1304h149v-1308q0 -160 -25 -264.5t-91.5 -156t-191.5 -51.5zM599 1900q-44 0 -89.5 20.5t-90 41t-86.5 20.5q-16 0 -23 -2
q-16 -4 -26.5 -18.5t-24.5 -40.5l-93 46q20 68 47 95.5t58 32.5t63 5q41 0 89.5 -18t92 -36t68.5 -18h4q14 2 27 14.5t29 57.5l105 -29l-9 -26q-31 -97 -62 -121t-79 -24z" />
    <glyph glyph-name="utilde" unicode="&#x169;" horiz-adv-x="914" 
d="M385 -20q-47 0 -102.5 26.5t-95 93t-39.5 185.5v1215h149v-1208q0 -88 40 -130.5t107 -42.5q79 0 123.5 49.5t44.5 134.5l-2 1197h151v-1500h-149v150q-18 -64 -79 -117t-148 -53zM598 1640q-44 0 -89.5 20.5t-90 41t-86.5 20.5q-16 0 -23 -2q-16 -4 -26.5 -18.5
t-24.5 -40.5l-93 46q20 68 47 95.5t58 32.5t63 5q41 0 89.5 -18t92 -36t68.5 -18h4q14 2 27 14.5t29 57.5l105 -29l-9 -26q-31 -97 -62 -121t-79 -24z" />
    <glyph glyph-name="Umacron" unicode="&#x16a;" horiz-adv-x="915" 
d="M459 -20q-124 0 -191.5 51.5t-93.5 156t-26 264.5v1308h149v-1303q0 -114 8 -193.5t42.5 -120.5t112.5 -41q79 0 112 41t39.5 120t6.5 193v1304h149v-1308q0 -160 -25 -264.5t-91.5 -156t-191.5 -51.5zM200 1900v115h516v-115h-516z" />
    <glyph glyph-name="umacron" unicode="&#x16b;" horiz-adv-x="914" 
d="M385 -20q-47 0 -102.5 26.5t-95 93t-39.5 185.5v1215h149v-1208q0 -88 40 -130.5t107 -42.5q79 0 123.5 49.5t44.5 134.5l-2 1197h151v-1500h-149v150q-18 -64 -79 -117t-148 -53zM199 1640v115h516v-115h-516z" />
    <glyph glyph-name="Ubreve" unicode="&#x16c;" horiz-adv-x="915" 
d="M459 -20q-124 0 -191.5 51.5t-93.5 156t-26 264.5v1308h149v-1303q0 -114 8 -193.5t42.5 -120.5t112.5 -41q79 0 112 41t39.5 120t6.5 193v1304h149v-1308q0 -160 -25 -264.5t-91.5 -156t-191.5 -51.5zM457 1900q-93 0 -141.5 51t-48.5 138v15h64q0 -68 41 -90.5
t87 -22.5q44 0 84.5 21t40.5 92h64v-13q0 -85 -46.5 -138t-144.5 -53z" />
    <glyph glyph-name="ubreve" unicode="&#x16d;" horiz-adv-x="914" 
d="M385 -20q-47 0 -102.5 26.5t-95 93t-39.5 185.5v1215h149v-1208q0 -88 40 -130.5t107 -42.5q79 0 123.5 49.5t44.5 134.5l-2 1197h151v-1500h-149v150q-18 -64 -79 -117t-148 -53zM456 1640q-93 0 -141.5 51t-48.5 138v15h64q0 -68 41 -90.5t87 -22.5q44 0 84.5 21
t40.5 92h64v-13q0 -85 -46.5 -138t-144.5 -53z" />
    <glyph glyph-name="Uring" unicode="&#x16e;" horiz-adv-x="915" 
d="M459 -20q-124 0 -191.5 51.5t-93.5 156t-26 264.5v1308h149v-1303q0 -114 8 -193.5t42.5 -120.5t112.5 -41q79 0 112 41t39.5 120t6.5 193v1304h149v-1308q0 -160 -25 -264.5t-91.5 -156t-191.5 -51.5zM458 1900q-85 0 -127 48.5t-42 103.5q0 56 42 105t127 49
q86 0 127.5 -49t41.5 -105q0 -55 -41.5 -103.5t-127.5 -48.5zM458 1951q50 0 75 32t25 70t-25 70t-75 32q-48 0 -72.5 -32t-24.5 -70t24.5 -70t72.5 -32z" />
    <glyph glyph-name="uring" unicode="&#x16f;" horiz-adv-x="914" 
d="M385 -20q-47 0 -102.5 26.5t-95 93t-39.5 185.5v1215h149v-1208q0 -88 40 -130.5t107 -42.5q79 0 123.5 49.5t44.5 134.5l-2 1197h151v-1500h-149v150q-18 -64 -79 -117t-148 -53zM457 1640q-85 0 -127 48.5t-42 103.5q0 56 42 105t127 49q86 0 127.5 -49t41.5 -105
q0 -55 -41.5 -103.5t-127.5 -48.5zM457 1691q50 0 75 32t25 70t-25 70t-75 32q-48 0 -72.5 -32t-24.5 -70t24.5 -70t72.5 -32z" />
    <glyph glyph-name="Uhungarumlaut" unicode="&#x170;" horiz-adv-x="915" 
d="M459 -20q-124 0 -191.5 51.5t-93.5 156t-26 264.5v1308h149v-1303q0 -114 8 -193.5t42.5 -120.5t112.5 -41q79 0 112 41t39.5 120t6.5 193v1304h149v-1308q0 -160 -25 -264.5t-91.5 -156t-191.5 -51.5zM539 1900l-49 24l100 348l105 -57zM329 1900l-49 24l63 348l101 -57
z" />
    <glyph glyph-name="uhungarumlaut" unicode="&#x171;" horiz-adv-x="914" 
d="M385 -20q-47 0 -102.5 26.5t-95 93t-39.5 185.5v1215h149v-1208q0 -88 40 -130.5t107 -42.5q79 0 123.5 49.5t44.5 134.5l-2 1197h151v-1500h-149v150q-18 -64 -79 -117t-148 -53zM538 1640l-49 24l100 348l105 -57zM328 1640l-49 24l63 348l101 -57z" />
    <glyph glyph-name="Uogonek" unicode="&#x172;" horiz-adv-x="915" 
d="M459 -20q-124 0 -191.5 51.5t-93.5 156t-26 264.5v1308h149v-1303q0 -114 8 -193.5t42.5 -120.5t112.5 -41q79 0 112 41t39.5 120t6.5 193v1304h149v-1308q0 -160 -25 -264.5t-91.5 -156t-191.5 -51.5zM509 -431q-44 0 -88 12t-73 43.5t-29 90.5q0 65 41.5 140.5
t134.5 144.5h64q-77 -66 -111.5 -133.5t-34.5 -118.5q0 -52 33.5 -69.5t74.5 -17.5q44 0 81 10t38 11v-93q-7 -4 -45 -12t-86 -8z" />
    <glyph glyph-name="uogonek" unicode="&#x173;" horiz-adv-x="914" 
d="M385 -20q-47 0 -102.5 26.5t-95 93t-39.5 185.5v1215h149v-1208q0 -88 40 -130.5t107 -42.5q79 0 123.5 49.5t44.5 134.5l-2 1197h151v-1500h-149v150q-18 -64 -79 -117t-148 -53zM681 -431q-44 0 -88 12t-73 43.5t-29 90.5q0 65 41.5 140.5t134.5 144.5h64
q-77 -66 -111.5 -133.5t-34.5 -118.5q0 -52 33.5 -69.5t74.5 -17.5q44 0 81 10t38 11v-93q-7 -4 -45 -12t-86 -8z" />
    <glyph glyph-name="Wcircumflex" unicode="&#x174;" horiz-adv-x="1312" 
d="M306 0l-249 1760h146l184 -1438l220 1438h124l235 -1438l148 1438h141l-213 -1760h-147l-218 1448l-234 -1448h-137zM452 1900l121 254h166l120 -254h-117l-86 175l-86 -175h-118z" />
    <glyph glyph-name="wcircumflex" unicode="&#x175;" horiz-adv-x="1080" 
d="M236 0l-176 1500h137l90 -887l24 -311h12l30 312l126 886h47h54h26l137 -854l40 -344h10l20 346l75 852h132l-174 -1500h-148l-147 1283l-173 -1283h-142zM336 1640l121 254h166l120 -254h-117l-86 175l-86 -175h-118z" />
    <glyph glyph-name="Ycircumflex" unicode="&#x176;" horiz-adv-x="786" 
d="M334 0v772l-318 988h150l241 -778h3l206 778h154l-287 -987v-773h-149zM189 1900l121 254h166l120 -254h-117l-86 175l-86 -175h-118z" />
    <glyph glyph-name="ycircumflex" unicode="&#x177;" horiz-adv-x="745" 
d="M133 -238v128h55q42 0 78 2.5t45 8.5q17 17 14 53t-11 84l-250 1462h150l119 -793l48 -408h13l43 408l107 793h149l-239 -1497q-14 -90 -30 -143t-53 -75.5t-114 -22.5h-124zM169 1640l121 254h166l120 -254h-117l-86 175l-86 -175h-118z" />
    <glyph glyph-name="Ydieresis" unicode="&#x178;" horiz-adv-x="786" 
d="M334 0v772l-318 988h150l241 -778h3l206 778h154l-287 -987v-773h-149zM517 1900v133h182v-133h-182zM87 1900v133h182v-133h-182z" />
    <glyph glyph-name="Zacute" unicode="&#x179;" horiz-adv-x="638" 
d="M85 0v125l339 1519h-330v116h482v-102l-341 -1540h335v-118h-485zM232 1900l94 332h160l-185 -332h-69z" />
    <glyph glyph-name="zacute" unicode="&#x17a;" horiz-adv-x="621" 
d="M80 0v108l329 1263h-304v129h463v-93l-334 -1277h314v-130h-468zM224 1640l94 332h160l-185 -332h-69z" />
    <glyph glyph-name="Zdotaccent" unicode="&#x17b;" horiz-adv-x="638" 
d="M85 0v125l339 1519h-330v116h482v-102l-341 -1540h335v-118h-485zM244 1898v145h149v-145h-149z" />
    <glyph glyph-name="zdotaccent" unicode="&#x17c;" horiz-adv-x="621" 
d="M80 0v108l329 1263h-304v129h463v-93l-334 -1277h314v-130h-468zM236 1638v145h149v-145h-149z" />
    <glyph glyph-name="Zcaron" unicode="&#x17d;" horiz-adv-x="638" 
d="M85 0v125l339 1519h-330v116h482v-102l-341 -1540h335v-118h-485zM236 1900l-121 253h118l86 -175l86 175h117l-120 -253h-166z" />
    <glyph glyph-name="zcaron" unicode="&#x17e;" horiz-adv-x="621" 
d="M80 0v108l329 1263h-304v129h463v-93l-334 -1277h314v-130h-468zM228 1640l-121 253h118l86 -175l86 175h117l-120 -253h-166z" />
    <glyph glyph-name="florin" unicode="&#x192;" horiz-adv-x="687" 
d="M176 -155q-22 0 -45.5 1.5t-49.5 3.5v98q18 -1 34 -1.5t30 -0.5q61 1 90 15.5t38 53t9 108.5v997h-205v104h205v339q0 134 61.5 176.5t165.5 42.5q51 0 109 -6v-103q-26 2 -49 3.5t-42 1.5q-55 0 -81.5 -22t-26.5 -96v-336h216v-104h-216v-1057q0 -123 -62 -170.5
t-181 -47.5z" />
    <glyph glyph-name="uni01C4" unicode="&#x1c4;" horiz-adv-x="1552" 
d="M166 0v1760h271q143 0 216 -61.5t99 -174.5t26 -266v-754q0 -183 -33.5 -293.5t-109.5 -160.5t-204 -50h-265zM314 128h123q65 0 107.5 30t63.5 114.5t21 246.5v755q0 195 -45 278.5t-138 83.5h-132v-1508zM999 0v125l339 1519h-330v116h482v-102l-341 -1540h335v-118
h-485zM1150 1900l-121 253h118l86 -175l86 175h117l-120 -253h-166z" />
    <glyph glyph-name="uni01C5" unicode="&#x1c5;" horiz-adv-x="1535" 
d="M166 0v1760h271q143 0 216 -61.5t99 -174.5t26 -266v-754q0 -183 -33.5 -293.5t-109.5 -160.5t-204 -50h-265zM314 128h123q65 0 107.5 30t63.5 114.5t21 246.5v755q0 195 -45 278.5t-138 83.5h-132v-1508zM994 0v108l329 1263h-304v129h463v-93l-334 -1277h314v-130
h-468zM1142 1640l-121 253h118l86 -175l86 175h117l-120 -253h-166z" />
    <glyph glyph-name="uni01C6" unicode="&#x1c6;" horiz-adv-x="1476" 
d="M365 -11q-101 0 -152 64.5t-68 176t-17 251.5v527q0 145 20.5 260.5t80.5 182.5t176 67q53 0 96.5 -37.5t62.5 -87.5v390h150v-1783h-150v114q-31 -72 -87 -98.5t-112 -26.5zM409 114q47 0 82 19t54.5 87t19.5 214v603q0 182 -27 265t-122 83q-82 -1 -110 -82.5
t-28 -272.5v-594q0 -96 8 -168.5t36 -113t87 -40.5zM935 0v108l329 1263h-304v129h463v-93l-334 -1277h314v-130h-468zM1083 1640l-121 253h118l86 -175l86 175h117l-120 -253h-166z" />
    <glyph glyph-name="uni01C7" unicode="&#x1c7;" horiz-adv-x="1427" 
d="M166 0v1760h149v-1642h312v-118h-461zM1004 -20q-163 0 -223 100.5t-60 308.5v151h151v-138q0 -80 4.5 -148.5t30.5 -110t91 -41.5q66 0 92 40.5t30 112t4 163.5v1342h149v-1340q0 -226 -61.5 -333t-207.5 -107z" />
    <glyph glyph-name="uni01C8" unicode="&#x1c8;" horiz-adv-x="1122" 
d="M166 0v1760h149v-1642h312v-118h-461zM819 -223q-32 0 -62.5 2.5t-45.5 4.5v106q15 -1 31 -2.5t34 -1.5q26 0 34.5 21t8.5 49v1544h149v-1534q0 -78 -21.5 -118.5t-55.5 -55.5t-72 -15zM819 1638v145h149v-145h-149z" />
    <glyph glyph-name="uni01C9" unicode="&#x1c9;" horiz-adv-x="944" 
d="M162 0v1783h150v-1783h-150zM641 -223q-32 0 -62.5 2.5t-45.5 4.5v106q15 -1 31 -2.5t34 -1.5q26 0 34.5 21t8.5 49v1544h149v-1534q0 -78 -21.5 -118.5t-55.5 -55.5t-72 -15zM641 1638v145h149v-145h-149z" />
    <glyph glyph-name="uni01CA" unicode="&#x1ca;" horiz-adv-x="1767" 
d="M166 0v1760h104l432 -1361l-15 606v755h130v-1760h-116l-405 1326l10 -476v-850h-140zM1344 -20q-163 0 -223 100.5t-60 308.5v151h151v-138q0 -80 4.5 -148.5t30.5 -110t91 -41.5q66 0 92 40.5t30 112t4 163.5v1342h149v-1340q0 -226 -61.5 -333t-207.5 -107z" />
    <glyph glyph-name="uni01CB" unicode="&#x1cb;" horiz-adv-x="1462" 
d="M166 0v1760h104l432 -1361l-15 606v755h130v-1760h-116l-405 1326l10 -476v-850h-140zM1159 -223q-32 0 -62.5 2.5t-45.5 4.5v106q15 -1 31 -2.5t34 -1.5q26 0 34.5 21t8.5 49v1544h149v-1534q0 -78 -21.5 -118.5t-55.5 -55.5t-72 -15zM1159 1638v145h149v-145h-149z" />
    <glyph glyph-name="uni01CC" unicode="&#x1cc;" horiz-adv-x="1399" 
d="M160 0v1500h149v-147q20 64 87 115t155 51q97 0 159 -73.5t62 -234.5v-1211h-149v1223q0 92 -42.5 128t-102.5 36q-41 0 -80 -14t-64 -50t-25 -103v-1220h-149zM1096 -223q-32 0 -62.5 2.5t-45.5 4.5v106q15 -1 31 -2.5t34 -1.5q26 0 34.5 21t8.5 49v1544h149v-1534
q0 -78 -21.5 -118.5t-55.5 -55.5t-72 -15zM1096 1638v145h149v-145h-149z" />
    <glyph glyph-name="uni01F1" unicode="&#x1f1;" horiz-adv-x="1552" 
d="M166 0v1760h271q143 0 216 -61.5t99 -174.5t26 -266v-754q0 -183 -33.5 -293.5t-109.5 -160.5t-204 -50h-265zM314 128h123q65 0 107.5 30t63.5 114.5t21 246.5v755q0 195 -45 278.5t-138 83.5h-132v-1508zM999 0v125l339 1519h-330v116h482v-102l-341 -1540h335v-118
h-485z" />
    <glyph glyph-name="uni01F2" unicode="&#x1f2;" horiz-adv-x="1535" 
d="M166 0v1760h271q143 0 216 -61.5t99 -174.5t26 -266v-754q0 -183 -33.5 -293.5t-109.5 -160.5t-204 -50h-265zM314 128h123q65 0 107.5 30t63.5 114.5t21 246.5v755q0 195 -45 278.5t-138 83.5h-132v-1508zM994 0v108l329 1263h-304v129h463v-93l-334 -1277h314v-130
h-468z" />
    <glyph glyph-name="uni01F3" unicode="&#x1f3;" horiz-adv-x="1476" 
d="M365 -11q-101 0 -152 64.5t-68 176t-17 251.5v527q0 145 20.5 260.5t80.5 182.5t176 67q53 0 96.5 -37.5t62.5 -87.5v390h150v-1783h-150v114q-31 -72 -87 -98.5t-112 -26.5zM409 114q47 0 82 19t54.5 87t19.5 214v603q0 182 -27 265t-122 83q-82 -1 -110 -82.5
t-28 -272.5v-594q0 -96 8 -168.5t36 -113t87 -40.5zM935 0v108l329 1263h-304v129h463v-93l-334 -1277h314v-130h-468z" />
    <glyph glyph-name="uni01F4" unicode="&#x1f4;" horiz-adv-x="890" 
d="M419 -20q-147 0 -215 128.5t-68 423.5v713q0 113 11 210.5t43.5 171t96 115t169.5 41.5q104 0 163 -41t87 -114.5t35.5 -170.5t7.5 -210v-147h-152v272q0 137 -27 211.5t-119 74.5q-94 0 -130 -89.5t-36 -307.5v-718q0 -238 30 -339.5t130 -101.5q95 0 125.5 101.5
t30.5 337.5v222h-151v127h299v-890h-98l-16 102q-35 -59 -84.5 -90.5t-131.5 -31.5zM358 1900l94 332h160l-185 -332h-69z" />
    <glyph glyph-name="uni01F5" unicode="&#x1f5;" horiz-adv-x="858" 
d="M423 -232q-82 -4 -161 22t-128 63l57 115q36 -27 93.5 -51.5t142.5 -21.5q63 3 100.5 51.5t37.5 133.5v165q-32 -73 -80 -95.5t-104 -22.5q-104 0 -159 66.5t-74.5 181t-19.5 257.5v381q0 143 27 258t88.5 182t162.5 65q50 -1 93.5 -24.5t65.5 -81.5v88h149v-1403
q0 -40 -10.5 -94.5t-41 -106t-88 -87.5t-151.5 -41zM436 255q45 0 73.5 27.5t42 104.5t13.5 227v436q0 173 -24.5 255t-116.5 82q-66 0 -97.5 -42.5t-40.5 -117.5t-9 -175v-441q0 -185 32 -270.5t127 -85.5zM342 1640l94 332h160l-185 -332h-69z" />
    <glyph glyph-name="uni0200" unicode="&#x200;" horiz-adv-x="818" 
d="M35 0l283 1760h152l313 -1760h-144l-58 362h-352l-53 -362h-141zM248 473h313l-162 1003h-2zM296 1900l-156 315l115 47l100 -348zM506 1900l-115 315l111 47l63 -348z" />
    <glyph glyph-name="uni0201" unicode="&#x201;" horiz-adv-x="844" 
d="M366 -11q-119 0 -179 100.5t-60 287.5v192q0 80 33.5 136t93 98t139 78t170.5 75v102q0 115 -6 187.5t-33 107t-91 34.5q-62 0 -91.5 -33.5t-38 -108t-8.5 -197.5v-37h-150v40q0 90 6.5 174t33 150t85 104.5t163.5 38.5q106 0 163.5 -35t82 -104t29 -170t4.5 -233v-976
h-149v112q-6 -18 -29 -47.5t-64.5 -52.5t-103.5 -23zM393 113q59 0 106 33.5t64 64.5v626q-93 -42 -150.5 -72t-87 -61.5t-40 -77t-10.5 -117.5v-119q0 -150 23 -213.5t95 -63.5zM320 1640l-156 315l115 47l100 -348zM530 1640l-115 315l111 47l63 -348z" />
    <glyph glyph-name="uni0202" unicode="&#x202;" horiz-adv-x="818" 
d="M35 0l283 1760h152l313 -1760h-144l-58 362h-352l-53 -362h-141zM248 473h313l-162 1003h-2zM207 1920v13q-2 85 43.5 140t142.5 57q93 4 143.5 -46t52.5 -136v-15l-64 -3q-1 68 -43.5 89.5t-88.5 19.5q-42 -1 -82.5 -23t-39.5 -93z" />
    <glyph glyph-name="uni0203" unicode="&#x203;" horiz-adv-x="844" 
d="M366 -11q-119 0 -179 100.5t-60 287.5v192q0 80 33.5 136t93 98t139 78t170.5 75v102q0 115 -6 187.5t-33 107t-91 34.5q-62 0 -91.5 -33.5t-38 -108t-8.5 -197.5v-37h-150v40q0 90 6.5 174t33 150t85 104.5t163.5 38.5q106 0 163.5 -35t82 -104t29 -170t4.5 -233v-976
h-149v112q-6 -18 -29 -47.5t-64.5 -52.5t-103.5 -23zM393 113q59 0 106 33.5t64 64.5v626q-93 -42 -150.5 -72t-87 -61.5t-40 -77t-10.5 -117.5v-119q0 -150 23 -213.5t95 -63.5zM231 1660v13q-2 85 43.5 140t142.5 57q93 4 143.5 -46t52.5 -136v-15l-64 -3
q-1 68 -43.5 89.5t-88.5 19.5q-42 -1 -82.5 -23t-39.5 -93z" />
    <glyph glyph-name="uni0204" unicode="&#x204;" horiz-adv-x="716" 
d="M166 0v1760h465v-116h-316v-688h297v-121h-297v-717h313v-118h-462zM296 1900l-156 315l115 47l100 -348zM506 1900l-115 315l111 47l63 -348z" />
    <glyph glyph-name="uni0205" unicode="&#x205;" horiz-adv-x="802" 
d="M421 -18q-103 0 -162.5 38.5t-87.5 109.5t-35.5 168t-7.5 213v503q0 106 9 197.5t38.5 160.5t89 107.5t160.5 38.5t157 -39.5t80.5 -110t30 -164t5.5 -202.5v-250h-421v-302q0 -172 22.5 -254.5t119.5 -82.5q62 0 89 39.5t34 113.5t7 178v112h145v-49q0 -114 -4.5 -209.5
t-28.5 -166.5t-80.5 -110t-159.5 -39zM277 877h272v191q0 103 -4.5 174t-30 108t-88.5 37q-65 0 -97 -40.5t-42 -114t-10 -172.5v-183zM299 1640l-156 315l115 47l100 -348zM509 1640l-115 315l111 47l63 -348z" />
    <glyph glyph-name="uni0206" unicode="&#x206;" horiz-adv-x="716" 
d="M166 0v1760h465v-116h-316v-688h297v-121h-297v-717h313v-118h-462zM207 1920v13q-2 85 43.5 140t142.5 57q93 4 143.5 -46t52.5 -136v-15l-64 -3q-1 68 -43.5 89.5t-88.5 19.5q-42 -1 -82.5 -23t-39.5 -93z" />
    <glyph glyph-name="uni0207" unicode="&#x207;" horiz-adv-x="802" 
d="M421 -18q-103 0 -162.5 38.5t-87.5 109.5t-35.5 168t-7.5 213v503q0 106 9 197.5t38.5 160.5t89 107.5t160.5 38.5t157 -39.5t80.5 -110t30 -164t5.5 -202.5v-250h-421v-302q0 -172 22.5 -254.5t119.5 -82.5q62 0 89 39.5t34 113.5t7 178v112h145v-49q0 -114 -4.5 -209.5
t-28.5 -166.5t-80.5 -110t-159.5 -39zM277 877h272v191q0 103 -4.5 174t-30 108t-88.5 37q-65 0 -97 -40.5t-42 -114t-10 -172.5v-183zM210 1660v13q-2 85 43.5 140t142.5 57q93 4 143.5 -46t52.5 -136v-15l-64 -3q-1 68 -43.5 89.5t-88.5 19.5q-42 -1 -82.5 -23t-39.5 -93z
" />
    <glyph glyph-name="uni0208" unicode="&#x208;" horiz-adv-x="485" 
d="M168 0v1760h149v-1760h-149zM141 1900l-156 315l115 47l100 -348zM351 1900l-115 315l111 47l63 -348z" />
    <glyph glyph-name="uni0209" unicode="&#x209;" horiz-adv-x="474" 
d="M162 0v1500h150v-1500h-150zM135 1640l-156 315l115 47l100 -348zM345 1640l-115 315l111 47l63 -348z" />
    <glyph glyph-name="uni020A" unicode="&#x20a;" horiz-adv-x="485" 
d="M168 0v1760h149v-1760h-149zM52 1920v13q-2 85 43.5 140t142.5 57q93 4 143.5 -46t52.5 -136v-15l-64 -3q-1 68 -43.5 89.5t-88.5 19.5q-42 -1 -82.5 -23t-39.5 -93z" />
    <glyph glyph-name="uni020B" unicode="&#x20b;" horiz-adv-x="474" 
d="M162 0v1500h150v-1500h-150zM46 1660v13q-2 85 43.5 140t142.5 57q93 4 143.5 -46t52.5 -136v-15l-64 -3q-1 68 -43.5 89.5t-88.5 19.5q-42 -1 -82.5 -23t-39.5 -93z" />
    <glyph glyph-name="uni020C" unicode="&#x20c;" horiz-adv-x="891" 
d="M447 -20q-127 0 -194.5 58t-92 177.5t-24.5 303.5v749q0 152 21 268t88.5 181.5t208.5 65.5q106 0 167 -37.5t89.5 -106.5t36.5 -163t8 -208v-749q0 -184 -24 -303.5t-90 -177.5t-194 -58zM447 102q64 0 98.5 37t47.5 128t13 252v761q0 199 -28.5 288.5t-123.5 89.5
q-100 0 -134.5 -90t-34.5 -287v-762q0 -161 13 -252t48 -128t101 -37zM344 1900l-156 315l115 47l100 -348zM554 1900l-115 315l111 47l63 -348z" />
    <glyph glyph-name="uni020D" unicode="&#x20d;" horiz-adv-x="845" 
d="M426 -18q-104 0 -164 39t-89 110.5t-37 169t-8 214.5v503q0 141 18.5 254.5t82 179.5t197.5 66q101 0 160 -38t87 -106t36 -159t8 -197v-503q0 -115 -7 -212t-34 -169t-86 -112t-164 -40zM426 113q62 0 92.5 44t40 122.5t9.5 183.5v590q0 99 -9.5 174t-39.5 117.5
t-93 42.5q-67 0 -99 -42.5t-41 -117.5t-9 -174v-590q0 -105 9.5 -183.5t41.5 -122.5t98 -44zM321 1640l-156 315l115 47l100 -348zM531 1640l-115 315l111 47l63 -348z" />
    <glyph glyph-name="uni020E" unicode="&#x20e;" horiz-adv-x="891" 
d="M447 -20q-127 0 -194.5 58t-92 177.5t-24.5 303.5v749q0 152 21 268t88.5 181.5t208.5 65.5q106 0 167 -37.5t89.5 -106.5t36.5 -163t8 -208v-749q0 -184 -24 -303.5t-90 -177.5t-194 -58zM447 102q64 0 98.5 37t47.5 128t13 252v761q0 199 -28.5 288.5t-123.5 89.5
q-100 0 -134.5 -90t-34.5 -287v-762q0 -161 13 -252t48 -128t101 -37zM255 1920v13q-2 85 43.5 140t142.5 57q93 4 143.5 -46t52.5 -136v-15l-64 -3q-1 68 -43.5 89.5t-88.5 19.5q-42 -1 -82.5 -23t-39.5 -93z" />
    <glyph glyph-name="uni020F" unicode="&#x20f;" horiz-adv-x="845" 
d="M426 -18q-104 0 -164 39t-89 110.5t-37 169t-8 214.5v503q0 141 18.5 254.5t82 179.5t197.5 66q101 0 160 -38t87 -106t36 -159t8 -197v-503q0 -115 -7 -212t-34 -169t-86 -112t-164 -40zM426 113q62 0 92.5 44t40 122.5t9.5 183.5v590q0 99 -9.5 174t-39.5 117.5
t-93 42.5q-67 0 -99 -42.5t-41 -117.5t-9 -174v-590q0 -105 9.5 -183.5t41.5 -122.5t98 -44zM232 1660v13q-2 85 43.5 140t142.5 57q93 4 143.5 -46t52.5 -136v-15l-64 -3q-1 68 -43.5 89.5t-88.5 19.5q-42 -1 -82.5 -23t-39.5 -93z" />
    <glyph glyph-name="uni0210" unicode="&#x210;" horiz-adv-x="899" 
d="M166 0v1760h299q142 0 208 -45t85.5 -141t19.5 -248q0 -169 -35 -272t-127 -129q51 -8 83 -44.5t48.5 -119t23 -227.5t6.5 -370v-42.5t1 -33.5t3.5 -28.5t6.5 -28t11 -31.5h-148q-6 12 -10 28.5t-6.5 48.5t-3.5 90t-1.5 153t-0.5 237q0 121 -5.5 184t-38 87.5
t-112.5 29.5l-158 10v-868h-149zM314 968h156q64 0 98.5 22.5t47.5 98t13 233.5v13q0 130 -11.5 194t-43.5 85.5t-93 21.5h-167v-668zM348 1900l-156 315l115 47l100 -348zM558 1900l-115 315l111 47l63 -348z" />
    <glyph glyph-name="uni0211" unicode="&#x211;" horiz-adv-x="605" 
d="M160 0v1500h149v-167q26 87 90.5 136t164.5 49q2 0 2.5 -19t0.5 -44.5v-44.5v-19q-49 0 -93 -12.5t-84 -43.5t-81 -89v-1246h-149zM251 1640l-156 315l115 47l100 -348zM461 1640l-115 315l111 47l63 -348z" />
    <glyph glyph-name="uni0212" unicode="&#x212;" horiz-adv-x="899" 
d="M166 0v1760h299q142 0 208 -45t85.5 -141t19.5 -248q0 -169 -35 -272t-127 -129q51 -8 83 -44.5t48.5 -119t23 -227.5t6.5 -370v-42.5t1 -33.5t3.5 -28.5t6.5 -28t11 -31.5h-148q-6 12 -10 28.5t-6.5 48.5t-3.5 90t-1.5 153t-0.5 237q0 121 -5.5 184t-38 87.5
t-112.5 29.5l-158 10v-868h-149zM314 968h156q64 0 98.5 22.5t47.5 98t13 233.5v13q0 130 -11.5 194t-43.5 85.5t-93 21.5h-167v-668zM259 1920v13q-2 85 43.5 140t142.5 57q93 4 143.5 -46t52.5 -136v-15l-64 -3q-1 68 -43.5 89.5t-88.5 19.5q-42 -1 -82.5 -23t-39.5 -93z
" />
    <glyph glyph-name="uni0213" unicode="&#x213;" horiz-adv-x="605" 
d="M160 0v1500h149v-167q26 87 90.5 136t164.5 49q2 0 2.5 -19t0.5 -44.5v-44.5v-19q-49 0 -93 -12.5t-84 -43.5t-81 -89v-1246h-149zM162 1660v13q-2 85 43.5 140t142.5 57q93 4 143.5 -46t52.5 -136v-15l-64 -3q-1 68 -43.5 89.5t-88.5 19.5q-42 -1 -82.5 -23t-39.5 -93z
" />
    <glyph glyph-name="uni0214" unicode="&#x214;" horiz-adv-x="915" 
d="M459 -20q-124 0 -191.5 51.5t-93.5 156t-26 264.5v1308h149v-1303q0 -114 8 -193.5t42.5 -120.5t112.5 -41q79 0 112 41t39.5 120t6.5 193v1304h149v-1308q0 -160 -25 -264.5t-91.5 -156t-191.5 -51.5zM356 1900l-156 315l115 47l100 -348zM566 1900l-115 315l111 47
l63 -348z" />
    <glyph glyph-name="uni0215" unicode="&#x215;" horiz-adv-x="914" 
d="M385 -20q-47 0 -102.5 26.5t-95 93t-39.5 185.5v1215h149v-1208q0 -88 40 -130.5t107 -42.5q79 0 123.5 49.5t44.5 134.5l-2 1197h151v-1500h-149v150q-18 -64 -79 -117t-148 -53zM355 1640l-156 315l115 47l100 -348zM565 1640l-115 315l111 47l63 -348z" />
    <glyph glyph-name="uni0216" unicode="&#x216;" horiz-adv-x="915" 
d="M459 -20q-124 0 -191.5 51.5t-93.5 156t-26 264.5v1308h149v-1303q0 -114 8 -193.5t42.5 -120.5t112.5 -41q79 0 112 41t39.5 120t6.5 193v1304h149v-1308q0 -160 -25 -264.5t-91.5 -156t-191.5 -51.5zM267 1920v13q-2 85 43.5 140t142.5 57q93 4 143.5 -46t52.5 -136
v-15l-64 -3q-1 68 -43.5 89.5t-88.5 19.5q-42 -1 -82.5 -23t-39.5 -93z" />
    <glyph glyph-name="uni0217" unicode="&#x217;" horiz-adv-x="914" 
d="M385 -20q-47 0 -102.5 26.5t-95 93t-39.5 185.5v1215h149v-1208q0 -88 40 -130.5t107 -42.5q79 0 123.5 49.5t44.5 134.5l-2 1197h151v-1500h-149v150q-18 -64 -79 -117t-148 -53zM266 1660v13q-2 85 43.5 140t142.5 57q93 4 143.5 -46t52.5 -136v-15l-64 -3
q-1 68 -43.5 89.5t-88.5 19.5q-42 -1 -82.5 -23t-39.5 -93z" />
    <glyph glyph-name="uni0218" unicode="&#x218;" horiz-adv-x="794" 
d="M411 -20q-105 0 -166.5 42.5t-91.5 117t-39 173t-9 210.5v182h146v-179q0 -226 32.5 -325t136.5 -99q73 0 104.5 36t39.5 113t8 201q0 136 -33.5 219.5t-119.5 162.5l-104 96q-48 44 -100 102t-88 135.5t-36 178.5q0 127 22.5 225.5t89 155t199.5 56.5q108 0 168 -41.5
t86.5 -115.5t32.5 -172t6 -212v-99h-133v110q0 162 -14.5 249.5t-48.5 121.5t-95 34q-58 0 -94.5 -23t-53 -84.5t-16.5 -179.5q0 -84 19 -135.5t58 -93.5t97 -100l97 -96q100 -98 156.5 -217t56.5 -293q0 -134 -23 -237t-90 -161t-200 -58zM355 -587l43 273h-100v192h197
v-183l-78 -282h-62z" />
    <glyph glyph-name="uni0219" unicode="&#x219;" horiz-adv-x="744" 
d="M406 -20q-157 0 -230.5 101.5t-73.5 325.5v129h149v-103q0 -152 35.5 -234.5t106.5 -82.5q73 0 104.5 47t31.5 171q0 56 -7.5 109t-37 108.5t-96.5 118.5l-111 105q-103 97 -143.5 197.5t-40.5 213.5q0 168 78 250t204 82q84 0 146.5 -42.5t97 -144.5t34.5 -280v-94h-140
v121q0 158 -32.5 230.5t-102.5 72.5q-76 0 -105.5 -64.5t-29.5 -166.5q0 -46 10 -88.5t40.5 -89.5t92.5 -108l105 -103q106 -103 149 -209.5t43 -226.5q0 -153 -66.5 -249t-210.5 -96zM330 -587l43 273h-100v192h197v-183l-78 -282h-62z" />
    <glyph glyph-name="uni021A" unicode="&#x21a;" horiz-adv-x="542" 
d="M207 0v1644h-184v116h497v-116h-165v-1644h-148zM229 -587l43 273h-100v192h197v-183l-78 -282h-62z" />
    <glyph glyph-name="uni021B" unicode="&#x21b;" horiz-adv-x="585" 
d="M423 -9q-96 0 -143.5 21.5t-63 71t-15.5 133.5v1167h-150v116h150v260h150v-260h177v-116h-177v-1175q0 -40 9.5 -59.5t46.5 -25.5t120 -6v-127h-104zM324 -587l43 273h-100v192h197v-183l-78 -282h-62z" />
    <glyph glyph-name="uni0237" unicode="&#x237;" horiz-adv-x="479" 
d="M176 -223q-32 0 -62.5 2.5t-45.5 4.5v106q15 -1 31 -2.5t34 -1.5q26 0 34.5 21t8.5 49v1544h149v-1534q0 -78 -21.5 -118.5t-55.5 -55.5t-72 -15z" />
    <glyph glyph-name="uni02C6" unicode="&#x2c6;" horiz-adv-x="507" 
d="M50 1640l121 254h166l120 -254h-117l-86 175l-86 -175h-118z" />
    <glyph glyph-name="uni02C9" unicode="&#x2c9;" horiz-adv-x="696" 
d="M90 626v115h516v-115h-516z" />
    <glyph glyph-name="uni02DA" unicode="&#x2da;" horiz-adv-x="438" 
d="M219 1640q-85 0 -127 48.5t-42 103.5q0 56 42 105t127 49q86 0 127.5 -49t41.5 -105q0 -55 -41.5 -103.5t-127.5 -48.5zM219 1691q50 0 75 32t25 70t-25 70t-75 32q-48 0 -72.5 -32t-24.5 -70t24.5 -70t72.5 -32z" />
    <glyph glyph-name="uni02DC" unicode="&#x2dc;" horiz-adv-x="683" 
d="M483 1640q-44 0 -89.5 20.5t-90 41t-86.5 20.5q-16 0 -23 -2q-16 -4 -26.5 -18.5t-24.5 -40.5l-93 46q20 68 47 95.5t58 32.5t63 5q41 0 89.5 -18t92 -36t68.5 -18h4q14 2 27 14.5t29 57.5l105 -29l-9 -26q-31 -97 -62 -121t-79 -24z" />
    <glyph glyph-name="gravecomb" unicode="&#x300;" 
d="M235 1640l-185 332h160l94 -332h-69z" />
    <glyph glyph-name="acutecomb" unicode="&#x301;" 
d="M50 1640l94 332h160l-185 -332h-69z" />
    <glyph glyph-name="uni0302" unicode="&#x302;" 
d="M50 1640l121 254h166l120 -254h-117l-86 175l-86 -175h-118z" />
    <glyph glyph-name="tildecomb" unicode="&#x303;" 
d="M483 1640q-44 0 -89.5 20.5t-90 41t-86.5 20.5q-16 0 -23 -2q-16 -4 -26.5 -18.5t-24.5 -40.5l-93 46q20 68 47 95.5t58 32.5t63 5q41 0 89.5 -18t92 -36t68.5 -18h4q14 2 27 14.5t29 57.5l105 -29l-9 -26q-31 -97 -62 -121t-79 -24z" />
    <glyph glyph-name="uni0304" unicode="&#x304;" 
d="M50 1640v115h516v-115h-516z" />
    <glyph glyph-name="uni0306" unicode="&#x306;" 
d="M240 1640q-93 0 -141.5 51t-48.5 138v15h64q0 -68 41 -90.5t87 -22.5q44 0 84.5 21t40.5 92h64v-13q0 -85 -46.5 -138t-144.5 -53z" />
    <glyph glyph-name="uni0307" unicode="&#x307;" 
d="M50 1638v145h149v-145h-149z" />
    <glyph glyph-name="uni0308" unicode="&#x308;" 
d="M480 1640v133h182v-133h-182zM50 1640v133h182v-133h-182z" />
    <glyph glyph-name="uni030A" unicode="&#x30a;" 
d="M219 1640q-85 0 -127 48.5t-42 103.5q0 56 42 105t127 49q86 0 127.5 -49t41.5 -105q0 -55 -41.5 -103.5t-127.5 -48.5zM219 1691q50 0 75 32t25 70t-25 70t-75 32q-48 0 -72.5 -32t-24.5 -70t24.5 -70t72.5 -32z" />
    <glyph glyph-name="uni030B" unicode="&#x30b;" 
d="M309 1640l-49 24l100 348l105 -57zM99 1640l-49 24l63 348l101 -57z" />
    <glyph glyph-name="uni030C" unicode="&#x30c;" 
d="M171 1640l-121 253h118l86 -175l86 175h117l-120 -253h-166z" />
    <glyph glyph-name="uni030F" unicode="&#x30f;" 
d="M206 1640l-156 315l115 47l100 -348zM416 1640l-115 315l111 47l63 -348z" />
    <glyph glyph-name="uni0311" unicode="&#x311;" 
d="M50 1660v13q-2 85 43.5 140t142.5 57q93 4 143.5 -46t52.5 -136v-15l-64 -3q-1 68 -43.5 89.5t-88.5 19.5q-42 -1 -82.5 -23t-39.5 -93z" />
    <glyph glyph-name="uni0312" unicode="&#x312;" 
d="M190 2095l-43 -273h100v-192h-197v183l78 282h62z" />
    <glyph glyph-name="uni0326" unicode="&#x326;" 
d="M107 -587l43 273h-100v192h197v-183l-78 -282h-62z" />
    <glyph glyph-name="uni0327" unicode="&#x327;" 
d="M137 -596q-40 0 -87 9v86q95 0 144.5 20t68 52.5t18.5 69.5q0 68 -49 109t-111 54l40 196h57l9 -147q96 -48 137.5 -109t41.5 -120q0 -58 -34.5 -108t-95.5 -81t-139 -31z" />
    <glyph glyph-name="uni0328" unicode="&#x328;" 
d="M240 -428q-44 0 -88 12t-73 43.5t-29 90.5q0 65 41.5 140.5t134.5 144.5h64q-77 -66 -111.5 -133.5t-34.5 -118.5q0 -52 33.5 -69.5t74.5 -17.5q44 0 81 10t38 11v-93q-7 -4 -45 -12t-86 -8z" />
    <glyph glyph-name="uni0335" unicode="&#x335;" 
d="M50 1601v81h467v-81h-467z" />
    <glyph glyph-name="uni0394" unicode="&#x394;" horiz-adv-x="868" 
d="M60 0l283 1760h152l313 -1760h-748zM219 123h425l-220 1353h-2z" />
    <glyph glyph-name="uni03BC" unicode="&#x3bc;" horiz-adv-x="915" 
d="M148 -186v1686h150v-1375q18 -22 46 -32.5t59 -10.5q48 0 96.5 24.5t80.5 73t32 120.5v1200h150v-1500h-149v150q-16 -58 -71.5 -114t-144.5 -56q-31 0 -69 10t-61 36l31 48v-260h-150z" />
    <glyph glyph-name="uni1E02" unicode="&#x1e02;" horiz-adv-x="868" 
d="M166 0v1760h257q137 0 207 -40t95 -126.5t26 -227.5v-23q0 -155 -19.5 -251.5t-93.5 -144.5q57 -27 86.5 -92t40 -152.5t10.5 -184.5v-31q-2 -167 -28 -275t-91.5 -160t-187.5 -52h-302zM315 128h158q62 0 95 33.5t45.5 119t12.5 239.5v16q-1 187 -29.5 267.5
t-120.5 80.5h-161v-756zM315 1004h134q48 0 78 8.5t46 40.5t22.5 99t6.5 183v14q-1 124 -18.5 183.5t-55.5 78t-101 18.5h-112v-625zM359 1898v145h149v-145h-149z" />
    <glyph glyph-name="uni1E03" unicode="&#x1e03;" horiz-adv-x="874" 
d="M510 -11q-58 0 -114 27t-87 98v-114h-149v1783h149v-411q11 62 63.5 103t107.5 43q114 5 171 -62.5t76 -184t19 -259.5v-522q0 -143 -16 -256.5t-66 -179t-154 -65.5zM460 115q82 1 109.5 81.5t27.5 269.5v595q0 99 -8 172t-35.5 113t-86.5 40q-48 0 -83.5 -20.5t-55 -90
t-19.5 -216.5v-599q0 -179 28.5 -262t122.5 -83zM162 1920v145h149v-145h-149z" />
    <glyph glyph-name="uni1E0A" unicode="&#x1e0a;" horiz-adv-x="914" 
d="M166 0v1760h271q143 0 216 -61.5t99 -174.5t26 -266v-754q0 -183 -33.5 -293.5t-109.5 -160.5t-204 -50h-265zM314 128h123q65 0 107.5 30t63.5 114.5t21 246.5v755q0 195 -45 278.5t-138 83.5h-132v-1508zM352 1898v145h149v-145h-149z" />
    <glyph glyph-name="uni1E0B" unicode="&#x1e0b;" horiz-adv-x="855" 
d="M365 -11q-101 0 -152 64.5t-68 176t-17 251.5v527q0 145 20.5 260.5t80.5 182.5t176 67q53 0 96.5 -37.5t62.5 -87.5v390h150v-1783h-150v114q-31 -72 -87 -98.5t-112 -26.5zM409 114q47 0 82 19t54.5 87t19.5 214v603q0 182 -27 265t-122 83q-82 -1 -110 -82.5
t-28 -272.5v-594q0 -96 8 -168.5t36 -113t87 -40.5zM561 1920v145h149v-145h-149z" />
    <glyph glyph-name="uni1E1E" unicode="&#x1e1e;" horiz-adv-x="695" 
d="M166 0v1760h462v-116h-314v-639h297v-119h-297v-886h-148zM323 1898v145h149v-145h-149z" />
    <glyph glyph-name="uni1E1F" unicode="&#x1e1f;" horiz-adv-x="608" 
d="M219 0v1329h-140v113h140v70q0 132 46.5 204.5t167.5 72.5q54 0 93.5 -8.5t41.5 -9.5v-121q-45 7 -81 7q-83 0 -100.5 -34.5t-17.5 -88.5v-92h199v-113h-199v-1329h-150zM319 1920v145h149v-145h-149z" />
    <glyph glyph-name="uni1E40" unicode="&#x1e40;" horiz-adv-x="1204" 
d="M166 0v1760h167l277 -1478l267 1478h167v-1760h-135v754l23 709l-251 -1425h-142l-260 1425l23 -709v-754h-136zM527 1898v145h149v-145h-149z" />
    <glyph glyph-name="uni1E41" unicode="&#x1e41;" horiz-adv-x="1360" 
d="M160 0v1500h149v-149q19 64 81.5 116t147.5 52q71 0 123.5 -37.5t77.5 -114.5q36 67 104 109.5t150 42.5q93 0 156 -71.5t63 -230.5v-1217h-150v1226q0 89 -38 122t-99 33q-92 0 -128.5 -33.5t-36.5 -130.5v-1217h-149v1226q0 92 -38.5 123.5t-97.5 31.5
q-79 0 -122.5 -43t-43.5 -129v-1209h-149zM605 1638v145h149v-145h-149z" />
    <glyph glyph-name="uni1E56" unicode="&#x1e56;" horiz-adv-x="847" 
d="M166 0v1760h306q106 0 168 -37.5t91.5 -106t38 -162t8.5 -205.5v-18q0 -184 -25.5 -304t-93.5 -179t-196 -59h-148v-689h-149zM315 815h158q62 0 95.5 38t46.5 128.5t13 247.5v34q1 193 -27 283t-121 90h-165v-821zM349 1898v145h149v-145h-149z" />
    <glyph glyph-name="uni1E57" unicode="&#x1e57;" horiz-adv-x="876" 
d="M163 -265v1765h149v-115q31 73 86 99.5t113 26.5q103 0 153.5 -65t67 -177.5t16.5 -255.5v-538q0 -140 -22.5 -252t-82 -176.5t-171.5 -64.5q-53 0 -96.5 37.5t-63.5 88.5v-373h-149zM464 115q82 1 108.5 82t26.5 271v593q0 99 -7.5 172t-35 113t-86.5 40
q-48 0 -83.5 -21t-55 -90.5t-19.5 -215.5v-596q0 -181 29 -264.5t123 -83.5zM363 1638v145h149v-145h-149z" />
    <glyph glyph-name="uni1E60" unicode="&#x1e60;" horiz-adv-x="794" 
d="M411 -20q-105 0 -166.5 42.5t-91.5 117t-39 173t-9 210.5v182h146v-179q0 -226 32.5 -325t136.5 -99q73 0 104.5 36t39.5 113t8 201q0 136 -33.5 219.5t-119.5 162.5l-104 96q-48 44 -100 102t-88 135.5t-36 178.5q0 127 22.5 225.5t89 155t199.5 56.5q108 0 168 -41.5
t86.5 -115.5t32.5 -172t6 -212v-99h-133v110q0 162 -14.5 249.5t-48.5 121.5t-95 34q-58 0 -94.5 -23t-53 -84.5t-16.5 -179.5q0 -84 19 -135.5t58 -93.5t97 -100l97 -96q100 -98 156.5 -217t56.5 -293q0 -134 -23 -237t-90 -161t-200 -58zM322 1898v145h149v-145h-149z" />
    <glyph glyph-name="uni1E61" unicode="&#x1e61;" horiz-adv-x="744" 
d="M406 -20q-157 0 -230.5 101.5t-73.5 325.5v129h149v-103q0 -152 35.5 -234.5t106.5 -82.5q73 0 104.5 47t31.5 171q0 56 -7.5 109t-37 108.5t-96.5 118.5l-111 105q-103 97 -143.5 197.5t-40.5 213.5q0 168 78 250t204 82q84 0 146.5 -42.5t97 -144.5t34.5 -280v-94h-140
v121q0 158 -32.5 230.5t-102.5 72.5q-76 0 -105.5 -64.5t-29.5 -166.5q0 -46 10 -88.5t40.5 -89.5t92.5 -108l105 -103q106 -103 149 -209.5t43 -226.5q0 -153 -66.5 -249t-210.5 -96zM297 1638v145h149v-145h-149z" />
    <glyph glyph-name="uni1E6A" unicode="&#x1e6a;" horiz-adv-x="542" 
d="M207 0v1644h-184v116h497v-116h-165v-1644h-148zM196 1898v145h149v-145h-149z" />
    <glyph glyph-name="uni1E6B" unicode="&#x1e6b;" horiz-adv-x="585" 
d="M423 -9q-96 0 -143.5 21.5t-63 71t-15.5 133.5v1167h-150v116h150v260h150v-260h177v-116h-177v-1175q0 -40 9.5 -59.5t46.5 -25.5t120 -6v-127h-104zM196 1898v145h149v-145h-149z" />
    <glyph glyph-name="Wgrave" unicode="&#x1e80;" horiz-adv-x="1312" 
d="M306 0l-249 1760h146l184 -1438l220 1438h124l235 -1438l148 1438h141l-213 -1760h-147l-218 1448l-234 -1448h-137zM644 1900l-185 332h160l94 -332h-69z" />
    <glyph glyph-name="wgrave" unicode="&#x1e81;" horiz-adv-x="1080" 
d="M236 0l-176 1500h137l90 -887l24 -311h12l30 312l126 886h47h54h26l137 -854l40 -344h10l20 346l75 852h132l-174 -1500h-148l-147 1283l-173 -1283h-142zM528 1640l-185 332h160l94 -332h-69z" />
    <glyph glyph-name="Wacute" unicode="&#x1e82;" horiz-adv-x="1312" 
d="M306 0l-249 1760h146l184 -1438l220 1438h124l235 -1438l148 1438h141l-213 -1760h-147l-218 1448l-234 -1448h-137zM569 1900l94 332h160l-185 -332h-69z" />
    <glyph glyph-name="wacute" unicode="&#x1e83;" horiz-adv-x="1080" 
d="M236 0l-176 1500h137l90 -887l24 -311h12l30 312l126 886h47h54h26l137 -854l40 -344h10l20 346l75 852h132l-174 -1500h-148l-147 1283l-173 -1283h-142zM453 1640l94 332h160l-185 -332h-69z" />
    <glyph glyph-name="Wdieresis" unicode="&#x1e84;" horiz-adv-x="1312" 
d="M306 0l-249 1760h146l184 -1438l220 1438h124l235 -1438l148 1438h141l-213 -1760h-147l-218 1448l-234 -1448h-137zM780 1900v133h182v-133h-182zM350 1900v133h182v-133h-182z" />
    <glyph glyph-name="wdieresis" unicode="&#x1e85;" horiz-adv-x="1080" 
d="M236 0l-176 1500h137l90 -887l24 -311h12l30 312l126 886h47h54h26l137 -854l40 -344h10l20 346l75 852h132l-174 -1500h-148l-147 1283l-173 -1283h-142zM664 1640v133h182v-133h-182zM234 1640v133h182v-133h-182z" />
    <glyph glyph-name="Ygrave" unicode="&#x1ef2;" horiz-adv-x="786" 
d="M334 0v772l-318 988h150l241 -778h3l206 778h154l-287 -987v-773h-149zM381 1900l-185 332h160l94 -332h-69z" />
    <glyph glyph-name="ygrave" unicode="&#x1ef3;" horiz-adv-x="745" 
d="M133 -238v128h55q42 0 78 2.5t45 8.5q17 17 14 53t-11 84l-250 1462h150l119 -793l48 -408h13l43 408l107 793h149l-239 -1497q-14 -90 -30 -143t-53 -75.5t-114 -22.5h-124zM361 1640l-185 332h160l94 -332h-69z" />
    <glyph glyph-name="endash" unicode="&#x2013;" horiz-adv-x="756" 
d="M120 626v115h516v-115h-516z" />
    <glyph glyph-name="emdash" unicode="&#x2014;" horiz-adv-x="1153" 
d="M100 626v115h952v-115h-952z" />
    <glyph glyph-name="quoteleft" unicode="&#x2018;" horiz-adv-x="597" 
d="M167 1163v193l114 427h106l-91 -418h142v-202h-271z" />
    <glyph glyph-name="quoteright" unicode="&#x2019;" horiz-adv-x="597" 
d="M240 1163l91 417h-142v203h271v-194l-114 -426h-106z" />
    <glyph glyph-name="quotesinglbase" unicode="&#x201a;" horiz-adv-x="484" 
d="M166 -437l93 437h-146v207h275v-198l-119 -446h-103z" />
    <glyph glyph-name="quotedblleft" unicode="&#x201c;" horiz-adv-x="1030" 
d="M623 1149v197l119 437h103l-93 -428h146v-206h-275zM176 1149v197l119 437h104l-94 -428h146v-206h-275z" />
    <glyph glyph-name="quotedblright" unicode="&#x201d;" horiz-adv-x="1077" 
d="M690 1148l93 428h-145v207h275v-198l-120 -437h-103zM243 1148l94 428h-146v207h275v-198l-120 -437h-103z" />
    <glyph glyph-name="quotedblbase" unicode="&#x201e;" horiz-adv-x="1016" 
d="M680 -428l94 428h-146v206h275v-197l-120 -437h-103zM233 -428l94 428h-146v206h275v-197l-120 -437h-103z" />
    <glyph glyph-name="dagger" unicode="&#x2020;" horiz-adv-x="909" 
d="M382 0v1066h-291v116h291v410h148v-410h288v-116h-288v-1066h-148z" />
    <glyph glyph-name="daggerdbl" unicode="&#x2021;" horiz-adv-x="830" 
d="M358 0v506h-285v106h285v454h-285v106h285v420h117v-420h282v-106h-282v-454h282v-106h-282v-506h-117z" />
    <glyph glyph-name="bullet" unicode="&#x2022;" horiz-adv-x="861" 
d="M430 633q-100 0 -151.5 57.5t-51.5 170.5t51.5 170.5t151.5 57.5q101 0 152.5 -57.5t51.5 -170.5t-51.5 -170.5t-152.5 -57.5z" />
    <glyph glyph-name="uni2026" unicode="&#x2026;" horiz-adv-x="1052" 
d="M174 0v164h154v-164h-154zM437 0v164h154v-164h-154zM694 0v164h154v-164h-154z" />
    <glyph glyph-name="perthousand" unicode="&#x2030;" horiz-adv-x="2930" 
d="M617 0l730 1760h140l-722 -1760h-148zM439 581q-111 0 -173 37t-86.5 130.5t-24.5 263.5v352q0 164 25 255t86.5 127.5t172.5 36.5q112 0 173.5 -36.5t86.5 -127.5t25 -255v-352q0 -170 -24.5 -263.5t-86.5 -130.5t-174 -37zM439 718q80 0 108.5 45t28.5 173v500
q0 124 -28.5 167t-108.5 43q-79 0 -108 -43t-29 -167v-500q0 -128 29 -173t108 -45zM1683 -20q-112 0 -173.5 37t-86 130.5t-24.5 263.5v352q0 164 25 254.5t86.5 127t172.5 36.5t173 -36.5t86.5 -127t24.5 -254.5v-352q0 -170 -24.5 -263.5t-86 -130.5t-173.5 -37z
M1683 117q80 0 108.5 45t28.5 173v500q0 124 -29 167t-108 43t-108 -43t-29 -167v-500q0 -128 29 -173t108 -45zM2491 -20q-112 0 -173.5 37t-86 130.5t-24.5 263.5v352q0 164 25 254.5t86.5 127t172.5 36.5t172.5 -36.5t86.5 -127t25 -254.5v-352q0 -170 -24.5 -263.5
t-86 -130.5t-173.5 -37zM2491 117q80 0 108.5 45t28.5 173v500q0 124 -28.5 167t-108.5 43q-79 0 -108 -43t-29 -167v-500q0 -128 29 -173t108 -45z" />
    <glyph glyph-name="guilsinglleft" unicode="&#x2039;" horiz-adv-x="606" 
d="M548 414l-466 285v95l466 271v-150l-312 -166l312 -175v-160z" />
    <glyph glyph-name="guilsinglright" unicode="&#x203a;" horiz-adv-x="727" 
d="M166 414v160l312 175l-312 166v150l466 -271v-95z" />
    <glyph glyph-name="fraction" unicode="&#x2044;" horiz-adv-x="829" 
d="M94 0l442 1768h137l-442 -1768h-137z" />
    <glyph glyph-name="uni2074" unicode="&#x2074;" horiz-adv-x="857" 
d="M489 554v241h-265v67l271 898h85v-887h108v-78h-108v-241h-91zM310 873h179v660z" />
    <glyph glyph-name="Euro" unicode="&#x20ac;" horiz-adv-x="880" 
d="M60 751v98h133v137h-133v90h427v-90h-224v-137h224v-98h-427zM460 -20q-129 0 -196.5 65.5t-91.5 192.5t-24 312v701q0 112 11 209t43 169.5t95.5 113t168.5 40.5q107 0 167.5 -41.5t88 -115.5t34.5 -173t7 -214v-152h-151v170q0 196 -25 298.5t-122 102.5
q-100 0 -134 -101.5t-34 -298.5v-706q0 -162 12 -261t47 -144t103 -45q98 0 125.5 103.5t27.5 345.5v141h150v-140q0 -184 -22 -312t-87 -194t-193 -66z" />
    <glyph glyph-name="trademark" unicode="&#x2122;" horiz-adv-x="1407" 
d="M631 447v1313h132l193 -1198l187 1198h131v-1313h-95v558l16 520l-182 -1078h-114l-189 1078l17 -520v-558h-96zM260 447v1227h-137v86h369v-86h-123v-1227h-109z" />
    <glyph glyph-name="partialdiff" unicode="&#x2202;" horiz-adv-x="961" 
d="M421 -17q-124 0 -195 59t-98.5 165t-23.5 246q4 123 28 237.5t72.5 205.5t125.5 144t187 53q48 0 88.5 -11t103.5 -35q5 57 8.5 112t3.5 105q0 81 -16.5 145t-62.5 100.5t-135 36.5q-52 0 -122 -14.5t-160 -46.5l-24 122q104 33 188.5 49.5t152.5 16.5q118 0 190 -49.5
t104.5 -148.5t32.5 -248q0 -44 -2.5 -92t-7.5 -100.5t-12 -109.5l-64 -508q-18 -148 -74 -244.5t-132 -143t-156 -46.5zM413 117q68 0 131 75.5t82 226.5l61 500q-54 21 -86 31t-70 10q-75 0 -125 -46t-79.5 -121.5t-42.5 -165.5t-15 -178q-2 -95 6 -170t40 -118.5t98 -43.5
z" />
    <glyph glyph-name="product" unicode="&#x220f;" horiz-adv-x="955" 
d="M166 0v1760h623v-1760h-150v1649h-323v-1649h-150z" />
    <glyph glyph-name="summation" unicode="&#x2211;" horiz-adv-x="681" 
d="M102 0v101l245 780l-245 792v87h451v-111h-288l240 -769l-240 -755h288v-125h-451z" />
    <glyph glyph-name="minus" unicode="&#x2212;" horiz-adv-x="637" 
d="M20 626v115h596v-115h-596z" />
    <glyph glyph-name="uni2215" unicode="&#x2215;" horiz-adv-x="767" 
d="M94 0l442 1783h137l-442 -1783h-137z" />
    <glyph glyph-name="radical" unicode="&#x221a;" horiz-adv-x="1152" 
d="M349 0l-291 741h139l214 -523l227 1542h453v-133h-314l-274 -1627h-154z" />
    <glyph glyph-name="infinity" unicode="&#x221e;" horiz-adv-x="1300" 
d="M912 439q-61 0 -136 48.5t-137 127.5q-65 -73 -139 -118t-130 -45q-127 0 -204.5 80.5t-77.5 211.5q0 128 77.5 206t204.5 78q52 0 125.5 -47.5t143.5 -125.5q68 84 143 135t130 51q131 0 210.5 -81.5t79.5 -215.5q0 -137 -79.5 -221t-210.5 -84zM374 578q50 0 109 44.5
t105 117.5q-46 73 -104.5 117t-109.5 44q-70 0 -113 -44t-43 -117t43 -117.5t113 -44.5zM910 578q74 0 119 44.5t45 117.5t-45 117.5t-119 44.5q-52 0 -114.5 -44.5t-112.5 -117.5q46 -73 108.5 -117.5t118.5 -44.5z" />
    <glyph glyph-name="integral" unicode="&#x222b;" horiz-adv-x="767" 
d="M252 -12q-58 0 -137 20v122q15 -1 29 -1.5t26 -0.5q64 0 95 14t41 52.5t10 110.5v1234q0 248 180 248q62 0 156 -35v-122q-36 11 -64.5 17.5t-49.5 6.5q-47 0 -66 -31.5t-19 -101.5v-1300q0 -115 -48.5 -174t-152.5 -59z" />
    <glyph glyph-name="approxequal" unicode="&#x2248;" horiz-adv-x="1117" 
d="M260 902l-128 35q39 93 93.5 139.5t120.5 46.5q39 0 96.5 -12t118.5 -27.5t111 -27.5t74 -12q35 5 59.5 35.5t40.5 82.5l143 -42q-18 -70 -40 -111.5t-49 -61.5t-58.5 -26t-68.5 -6q-57 0 -134.5 20t-154 40t-129.5 20q-55 0 -95 -93zM260 500l-128 35q39 92 93.5 139
t120.5 47q39 0 96.5 -12t118.5 -27.5t111 -27.5t74 -12q35 4 59.5 34.5t40.5 83.5l143 -42q-18 -70 -40 -111.5t-49 -61.5t-58.5 -26t-68.5 -6q-57 0 -134.5 20t-154 40t-129.5 20q-55 0 -95 -93z" />
    <glyph glyph-name="notequal" unicode="&#x2260;" horiz-adv-x="761" 
d="M88 0l152 601h-146v128h178l42 167h-220v129h253l191 758h135l-192 -758h147v-129h-179l-43 -167h222v-128h-254l-152 -601h-134z" />
    <glyph glyph-name="lessequal" unicode="&#x2264;" horiz-adv-x="781" 
d="M638 279l-579 400v134l579 396v-167l-467 -293l467 -310v-160zM93 0v111h549v-111h-549z" />
    <glyph glyph-name="greaterequal" unicode="&#x2265;" horiz-adv-x="781" 
d="M100 279v160l467 310l-467 293v167l579 -396v-134zM92 0v111h549v-111h-549z" />
    <glyph glyph-name="lozenge" unicode="&#x25ca;" horiz-adv-x="921" 
d="M367 0l-253 883l253 877h191l249 -877l-249 -883h-191zM453 129h12l194 754l-194 740h-12l-194 -740z" />
    <glyph glyph-name="uni030C.alt" 
d="M107 1630l43 273h-100v192h197v-183l-78 -282h-62z" />
    </font>
</defs>
</svg>
